<?xml version="1.0" encoding="utf-8"?>
<!-- Generator: Adobe Illustrator 17.0.1, SVG Export Plug-In . SVG Version: 6.00 Build 0)  -->
<!DOCTYPE svg PUBLIC "-//W3C//DTD SVG 1.1//EN" "http://www.w3.org/Graphics/SVG/1.1/DTD/svg11.dtd">
<svg version="1.1" xmlns="http://www.w3.org/2000/svg" xmlns:xlink="http://www.w3.org/1999/xlink" x="0px" y="0px" width="512px"
	 height="512px" viewBox="0 0 512 512" enable-background="new 0 0 512 512" xml:space="preserve">
<g id="Artwork">
	<g id="Layer_5">
		<path d="M176.115,128.9c-18.347,0-29.991,20.457-32.744,20.457c-2.412,0-13.579-20.457-32.752-20.457
			c-18.648,0-33.878,15.379-34.873,34.008c-0.564,10.518,2.83,18.523,7.61,25.777c9.546,14.486,51.293,49.367,60.076,49.367
			c8.966,0,50.337-34.752,59.951-49.367c4.791-7.287,8.171-15.26,7.608-25.777C209.995,144.279,194.766,128.9,176.115,128.9z"/>
	</g>
	<path d="M423.013,306.877c-84.996-9.906-44.147-140.287-129.898-140.287c-49.234,0-75.423,38.731-81.687,82.512l-21.863,14.164
		c-3.59,2.324-3.403,5.807,0.416,7.734l20.356,10.275c0.247,3.406,0.601,6.796,1.073,10.15
		c7.724,54.902,35.187,102.486,84.663,117.343c0.503,0.151,1.516,0.56,1.516,2.479v21.856c0,3.532,2.865,6.396,6.398,6.396
		c3.533,0,6.396-2.864,6.396-6.396V413.06c0-1.011,0.671-0.925,1.008-0.874c7.48,1.131,15.383,1.59,23.728,1.293
		c0.092-0.004,0.183-0.007,0.275-0.01c0.194-0.008,0.521,0.154,0.578,0.688v18.948c0,3.532,2.864,6.396,6.396,6.396
		c3.533,0,6.397-2.864,6.397-6.396V412.74c0-0.745,0.46-0.877,0.691-0.922C417.509,398.471,459.097,311.084,423.013,306.877z
		 M261.012,247.678c-0.99-2.563-1.199-4.4-1.199-7.313c0-12.664,10.268-22.931,22.934-22.931c12.665,0,22.933,10.267,22.933,22.931
		c0,2.912-0.156,4.629-1.146,7.191c-0.306,0.697-0.431,1.03-1.366-0.17c-4.676-5.998-12.221-9.529-20.421-9.529
		c-8.064,0-15.292,3.581-20.177,9.242C262.144,247.592,261.456,248.816,261.012,247.678z M358.924,347.56
		c-25.726,11.066-51.786,8.906-61.481-9.6c-8.189-15.636-7.951-37.468,10.645-44.104c24.558-8.763,30.574,19.186,51.538,26.904
		C382.823,329.305,377.06,339.758,358.924,347.56z"/>
</g>
<g id="Capa_3">
</g>
</svg>
