<?xml version="1.0" encoding="utf-8"?>
<!-- Generator: Adobe Illustrator 17.0.1, SVG Export Plug-In . SVG Version: 6.00 Build 0)  -->
<!DOCTYPE svg PUBLIC "-//W3C//DTD SVG 1.1//EN" "http://www.w3.org/Graphics/SVG/1.1/DTD/svg11.dtd">
<svg version="1.1" xmlns="http://www.w3.org/2000/svg" xmlns:xlink="http://www.w3.org/1999/xlink" x="0px" y="0px" width="512px"
	 height="512px" viewBox="0 0 512 512" enable-background="new 0 0 512 512" xml:space="preserve">
<g id="Artwork">
	<g id="Layer_5">
		<g>
			<g>
				<path d="M274.897,245.212v1.863c0,0-0.517,3.7,3.957,3.7c33.386,0,99.171,0,133.547,0c3.986,0,3.986-4.1,3.986-4.1v-38.953
					c0-3.125,5.908-3.592,6.755-3.746c10.371-1.872,18.242-10.925,18.242-21.835v-43.697c0-12.271-9.947-22.22-22.219-22.22
					c0,0-150.372,0-200.497,0c-2.834,0-2.834,3.812-2.834,3.812s0,80.961,0,107.948c0,3.655,4.491,1.669,4.491,1.669
					c12.962-5.516,30.525-12.619,40.397-14.416C272.478,213.099,274.897,228.658,274.897,245.212z"/>
				<path d="M274.897,285.493c0,0.522,0,2.089,0,2.089c0,16.554-2.419,32.113-14.175,29.975
					c-9.871-1.796-28.287-9.263-41.249-14.778c0,0-3.639-2.029-3.639,2.764c0,15.193,0,66.446,0,85.464c0,1.607,0,4.77,4.312,4.77
					c43.505,0,174.021,0,174.021,0c12.271,0,22.219-9.948,22.219-22.219v-87.663c0,0,0-3.875-4.386-3.875
					c-30.18,0-113.5,0-132.988,0C276.367,282.019,274.897,282.538,274.897,285.493z"/>
			</g>
			<g>
				<path d="M126.257,287.582v-1.889c0-2.955-1.412-3.674-3.615-3.674c-6.161,0-18.51,0-23.503-0.001
					c-3.526,0-3.526,3.396-3.526,3.396v88.143c0,12.27,9.947,22.219,22.219,22.219c0,0,47.143,0,62.857,0
					c3.902,0,3.902-2.579,3.902-3.972c0-19.229,0-71.231,0-86.183c0-4.473-3.738-2.496-3.738-2.496
					c-13.044,5.537-30.732,12.669-40.421,14.432C128.675,319.695,126.257,304.136,126.257,287.582z"/>
				<path d="M88.507,203.912c0.959,0.189,7.105,0.681,7.105,4.273v38.97c0,0,0,3.621,4.165,3.621c6.62,0,17.237,0,22.983,0
					c4.133,0,3.496-3.561,3.496-3.561v-2.003c0-16.554,2.418-32.113,14.175-29.975c9.689,1.763,27.592,8.985,40.637,14.521
					c0,0,3.522,1.82,3.522-1.774c0-27.017,0-108.067,0-108.067s0-3.692-3.063-3.692c-22.173,0-88.693,0-88.693,0
					c-12.272,0-22.22,9.948-22.22,22.22v43.697C70.616,192.929,78.311,201.899,88.507,203.912z"/>
			</g>
		</g>
	</g>
</g>
<g id="Capa_3">
</g>
</svg>
