<?xml version="1.0" encoding="utf-8"?>
<!-- Generator: Adobe Illustrator 17.0.1, SVG Export Plug-In . SVG Version: 6.00 Build 0)  -->
<!DOCTYPE svg PUBLIC "-//W3C//DTD SVG 1.1//EN" "http://www.w3.org/Graphics/SVG/1.1/DTD/svg11.dtd">
<svg version="1.1" xmlns="http://www.w3.org/2000/svg" xmlns:xlink="http://www.w3.org/1999/xlink" x="0px" y="0px" width="512px"
	 height="512px" viewBox="0 0 512 512" enable-background="new 0 0 512 512" xml:space="preserve">
<g id="Artwork">
	<g id="Layer_5">
		<g>
			<path d="M341.471,199.227c-13.115-0.001-21.438,14.621-23.406,14.621c-1.721,0-9.701-14.621-23.406-14.622
				c-13.328,0.001-24.213,10.994-24.928,24.306c-0.4,7.52,2.023,13.242,5.439,18.426c6.824,10.355,36.664,35.286,42.94,35.286
				c6.41,0,35.98-24.84,42.85-35.286c3.424-5.207,5.84-10.906,5.438-18.426C365.684,210.22,354.801,199.226,341.471,199.227"/>
			<path d="M150.744,258.698c8.992-0.001,14.699,10.026,16.049,10.026c1.182,0,6.652-10.026,16.051-10.027
				c9.141,0,16.605,7.539,17.094,16.667c0.275,5.157-1.387,9.081-3.73,12.636c-4.68,7.102-25.141,24.196-29.445,24.197
				c-4.395,0-24.672-17.034-29.383-24.197c-2.348-3.571-4.004-7.478-3.729-12.636C134.139,266.236,141.602,258.697,150.744,258.698"
				/>
			<path d="M408.178,142.694H229.406c-10.711,0-19.424,8.715-19.424,19.428c0,0,0,38.538,0,48.051c0,3-0.621,3.177-3.537,3.177
				c-26.232,0-104.934,0-104.934,0c-8.633,0-15.658,7.025-15.658,15.66v104.873c0,8.636,7.025,15.66,15.658,15.66h18.701
				l2.672,18.344c0.978,6.724,6.033,11.419,12.291,11.419c3.055,0,6.051-1.127,8.668-3.258l30.213-24.619
				c1.037-0.846,3.959-1.886,5.299-1.886h57.063c8.635,0,15.658-7.024,15.658-15.66v-13.361h52.947c2.07,0,6.256,1.489,7.859,2.796
				l40.037,32.624c3.229,2.629,6.91,4.019,10.648,4.019c7.619,0,13.777-5.756,14.979-13.996l3.703-25.442h25.928
				c10.713,0,19.426-8.715,19.426-19.427V162.122C427.603,151.409,418.891,142.694,408.178,142.694z M228.582,331.463
				c0,0-39.908,0.024-54.545,0.024c-4.529,0-8.826,3.029-11.791,5.444l-22.326,18.191l-1.459-10.031
				c-0.916-6.289-5.457-13.588-11.959-13.588c-5.268,0-17.152-0.041-17.152-0.041c-4.025,0-7.301-3.274-7.301-7.301v-83.764
				c0-4.026,3.275-7.302,7.301-7.302c0,0,72.83,0,97.105,0c3.531,0,3.527,1.992,3.527,3.179c-0.008,18.705,0,64.818,0,64.818
				c0,10.712,8.52,19.406,18.535,19.406C237.604,320.5,236.5,331.463,228.582,331.463z M408.793,288.213c0,6.05-4.951,11-11,11
				c0,0-14.182,0-22.358,0c-7.939,0-13.736,8.878-14.908,16.926l-2.271,15.605l-31.396-25.582c-3.881-3.162-9.43-6.949-15.078-6.949
				c-22.17,0-71.988,0-71.988,0c-6.051,0-11-4.95-11-11v-111c0-6.05,4.949-11,11-11h158c6.049,0,11,4.95,11,11V288.213z"/>
		</g>
	</g>
</g>
<g id="Capa_3">
</g>
</svg>
