<?xml version="1.0" encoding="utf-8"?>
<!-- Generator: Adobe Illustrator 17.0.1, SVG Export Plug-In . SVG Version: 6.00 Build 0)  -->
<!DOCTYPE svg PUBLIC "-//W3C//DTD SVG 1.1//EN" "http://www.w3.org/Graphics/SVG/1.1/DTD/svg11.dtd">
<svg version="1.1" xmlns="http://www.w3.org/2000/svg" xmlns:xlink="http://www.w3.org/1999/xlink" x="0px" y="0px" width="512px"
	 height="512px" viewBox="0 0 512 512" enable-background="new 0 0 512 512" xml:space="preserve">
<g id="Artwork">
	<g id="Layer_5">
		<g>
			<path d="M169.1,313.967l28.039,48.836c1.572,2.737,4.435,4.269,7.379,4.269c1.436,0,2.891-0.363,4.225-1.13
				c4.071-2.337,5.477-7.532,3.139-11.604l-28.04-48.836c-2.338-4.072-7.534-5.478-11.604-3.139
				C168.168,304.7,166.763,309.896,169.1,313.967z"/>
			<path d="M303.257,365.941c1.335,0.767,2.789,1.13,4.225,1.13c2.944,0,5.808-1.532,7.379-4.269l28.04-48.836
				c2.337-4.071,0.932-9.267-3.139-11.603c-4.071-2.338-9.267-0.932-11.604,3.139l-28.04,48.836
				C297.78,358.409,299.186,363.604,303.257,365.941z"/>
			<path d="M256,364.414c4.694,0,8.5-3.806,8.5-8.5v-48.836c0-4.694-3.806-8.5-8.5-8.5s-8.5,3.806-8.5,8.5v48.836
				C247.5,360.608,251.306,364.414,256,364.414z"/>
		</g>
		<path d="M351.825,150.864c-1.695,0-3.373,0.072-5.04,0.18c-0.239,0.016-0.47,0.017-0.675-0.106
			c-0.222-0.133-0.254-0.316-0.361-0.552C330.173,116.371,295.86,92.727,256,92.727c-39.648,0-73.807,23.392-89.498,57.116
			c-0.193,0.415-0.351,0.753-0.744,0.988c-0.34,0.203-0.618,0.208-1.014,0.184c-1.512-0.092-3.034-0.15-4.569-0.15
			c-44.162,0-79.963,35.803-79.963,79.963c0,16.951,4.447,32.153,12.538,45.673c16.713,27.928,60.806,115.941,60.806,115.941
			c3.992,7.663,13.518,13.442,22.158,13.442h160.573c8.641,0,18.167-5.779,22.158-13.442c0,0,58.249-114.091,59.055-116.023
			c6.179-14.808,14.288-28.64,14.288-45.591C431.788,186.667,395.986,150.864,351.825,150.864z M198.594,184.922
			c0.846-15.814,13.775-28.87,29.605-28.87c16.276,0,25.755,17.367,27.802,17.367c2.337,0,12.221-17.367,27.798-17.367
			c15.834,0,28.761,13.057,29.607,28.87c0.478,8.931-2.391,15.698-6.459,21.882c-8.16,12.409-43.283,41.912-50.893,41.912
			c-7.455,0-42.896-29.611-51.001-41.912C200.996,200.648,198.116,193.852,198.594,184.922z M397.756,280.161l-54.389,104.427
			c-1.066,2.048-4.772,4.296-7.08,4.296H175.714c-2.309,0-6.014-2.248-7.081-4.296L114.114,279.91c0,0-1.177-1.49,1.573-1.49
			c70.744,0,210.516,0,280.688,0C398.75,278.42,397.756,280.161,397.756,280.161z"/>
	</g>
</g>
<g id="Capa_3">
</g>
</svg>
