<?xml version="1.0" encoding="utf-8"?>
<!-- Generator: Adobe Illustrator 17.0.1, SVG Export Plug-In . SVG Version: 6.00 Build 0)  -->
<!DOCTYPE svg PUBLIC "-//W3C//DTD SVG 1.1//EN" "http://www.w3.org/Graphics/SVG/1.1/DTD/svg11.dtd">
<svg version="1.1" xmlns="http://www.w3.org/2000/svg" xmlns:xlink="http://www.w3.org/1999/xlink" x="0px" y="0px" width="512px"
	 height="512px" viewBox="0 0 512 512" enable-background="new 0 0 512 512" xml:space="preserve">
<g id="Artwork">
	<g id="Layer_5">
		<path d="M334.946,289.502h-49.634c-1.125,0-1.055-0.568-0.903-0.867c8.003-15.857,20.038-58.955,17.911-61.498
			c-3.776-4.516-26.25,18.617-39.95,32.316c-1.307,1.307-2.536,2.639-3.69,3.986c-0.47,0.549-1.371,0.873-1.371-0.627V201.73
			c0-1.834,1.099-2.094,1.644-2.191c21.419-3.848,37.672-22.566,37.672-45.09v-43.943c0-13.59-22.233,29.482-26.481,25.234
			c-7.682-7.682-15.004-38.502-19.341-38.502c-6.145,0-10.325,29.125-18.618,37.418c-3.435,3.434-27.204-36.805-27.204-24.15v43.943
			c0,22.486,16.203,41.184,37.568,45.072c0.579,0.104,1.747,0.459,1.747,2.543v86.283c0,0,0.142,1.154-0.983,1.154
			c-16.564,0-66.259,0-66.259,0c-5.965,0-10.846,4.881-10.846,10.846v19.647c0,5.965,3.052,10.846,6.781,10.846
			c3.73,0,7.331,4.85,8.001,10.775l7.052,62.369c0.67,5.928,6.099,10.777,12.063,10.777h111.788c5.965,0,11.395-4.85,12.064-10.777
			l7.052-62.369c0.669-5.926,4.271-10.775,8.001-10.775c3.73,0,6.781-4.881,6.781-10.846v-19.647
			C345.792,294.383,340.911,289.502,334.946,289.502z M291.016,361.672c-5.608,8.527-29.746,28.803-34.977,28.803
			c-5.126,0-29.483-20.35-35.053-28.803c-2.788-4.232-4.77-8.902-4.441-15.039c0.582-10.869,9.468-19.844,20.349-19.844
			c11.186,0,17.7,11.938,19.108,11.938c1.606,0,8.398-11.938,19.104-11.938c10.881,0,19.768,8.975,20.35,19.844
			C295.783,352.77,293.813,357.42,291.016,361.672z"/>
	</g>
</g>
<g id="Capa_3">
</g>
</svg>
