<?xml version="1.0" encoding="utf-8"?>
<!-- Generator: Adobe Illustrator 17.0.1, SVG Export Plug-In . SVG Version: 6.00 Build 0)  -->
<!DOCTYPE svg PUBLIC "-//W3C//DTD SVG 1.1//EN" "http://www.w3.org/Graphics/SVG/1.1/DTD/svg11.dtd">
<svg version="1.1" xmlns="http://www.w3.org/2000/svg" xmlns:xlink="http://www.w3.org/1999/xlink" x="0px" y="0px" width="512px"
	 height="512px" viewBox="0 0 512 512" enable-background="new 0 0 512 512" xml:space="preserve">
<g id="Artwork">
	<g id="Layer_5">
		<path d="M440.917,179.037c-0.251-9.478-7.872-17.098-17.349-17.348l-43.358-1.147c-6.342-0.2-11.633,4.844-11.8,11.192
			c-0.168,6.349,4.843,11.632,11.192,11.8l20.785,0.549c0,0,1.727,0.145-0.732,2.604c-8.047,8.047-32.188,32.188-32.188,32.188
			c-2.076,2.424-3.611,1.51-4.193,1.051c-12.733-10.025-26.06-16.699-41.838-20.3c-1.877-0.493-1.663-2.196-1.726-3.106
			c-1.837-26.788-13.145-51.723-32.314-70.892c-21.012-21.013-48.95-32.585-78.666-32.585c-29.716,0-57.653,11.572-78.666,32.585
			C90.26,165.434,86.99,228.141,120.24,271.719c0.386,0.506,1.277,1.455-0.561,3.242c0,0-7.328,7.328-9.771,9.771
			c-1.542,1.541-3.121,0.171-3.121,0.171l-14.664-14.664c-5.077-5.078-13.308-5.076-18.385,0c-5.077,5.077-5.077,13.308,0,18.385
			c0,0,10.935,10.936,14.58,14.581c1.5,1.5-0.14,3.256-0.14,3.256l-12.666,12.665c-5.077,5.077-5.077,13.308,0,18.385
			c2.538,2.54,5.865,3.808,9.192,3.808c3.327,0,6.654-1.27,9.192-3.808l12.916-12.915c0,0,1.297-1.6,2.922,0.025
			c3.666,3.666,14.665,14.665,14.665,14.665c2.539,2.539,5.865,3.808,9.192,3.808c3.327,0,6.654-1.27,9.192-3.808
			c5.077-5.077,5.077-13.308,0-18.385l-14.707-14.706c0,0-1.359-1.506-0.119-2.746c2.588-2.588,10.354-10.353,10.354-10.353
			c1.766-1.797,2.598-0.596,3.163-0.164c11.967,9.119,25.535,15.64,40.004,19.266c0.759,0.191,2.495,0.686,2.433,3.178
			c1.232,27.823,12.501,51.177,32.321,70.997c21.013,21.013,48.95,32.585,78.666,32.585c29.716,0,57.653-11.572,78.666-32.585
			c21.012-21.013,32.585-48.95,32.585-78.666c0-25.249-8.358-49.212-23.76-68.735c-0.366-0.463-1.083-1.672,0.715-3.207
			c0,0,25.547-25.547,34.063-34.063c1.313-1.313,1.332-0.275,1.332-0.275l0.571,21.578c0.165,6.246,5.28,11.196,11.49,11.196
			c0.103,0,0.207-0.001,0.31-0.004c6.349-0.168,11.36-5.451,11.192-11.8L440.917,179.037z M184.022,289.03
			c-14.539-4.007-26.741-11.38-37.694-22.334c-34.409-34.409-34.409-90.395,0-124.805c16.669-16.669,38.83-25.849,62.402-25.849
			c23.573,0,45.734,9.18,62.402,25.849c14.811,14.811,23.503,32.05,25.302,52.671c0.124,1.652-0.959,1.893-1.534,1.893
			c-29.716,0-57.653,11.572-78.666,32.585c-16.349,16.349-26.976,36.892-30.891,59.2
			C185.279,288.609,184.892,289.236,184.022,289.03z M295.185,222.008c-3.069,17.795-11.021,31.657-24.052,44.688
			c-16.668,16.669-38.83,25.849-62.402,25.849c-0.254,0-0.713,0.129-0.472-1.605c3.069-17.795,11.208-32.604,24.24-45.636
			c16.669-16.669,38.83-25.849,62.402-25.849C295.155,219.455,295.601,219.758,295.185,222.008z M383.151,307.706
			c0,23.572-9.18,45.734-25.848,62.402c-16.668,16.669-38.83,25.849-62.402,25.849c-23.572,0-45.734-9.18-62.402-25.849
			c-14.811-14.81-23.464-31.698-25.263-52.32c0.032-1.614,0.92-2.243,1.495-2.243c0.304,0,0.607-0.001,0.911-0.004
			c29.376-0.234,56.958-11.783,77.755-32.581c16.62-16.62,27.127-36.407,30.881-59.145c0.198-0.933,0.816-0.994,1.124-0.905
			c14.18,4.073,27.182,11.672,37.902,22.394C373.972,261.972,383.151,284.135,383.151,307.706z"/>
	</g>
</g>
<g id="Capa_3">
</g>
</svg>
