<?xml version="1.0" encoding="utf-8"?>
<!-- Generator: Adobe Illustrator 17.0.1, SVG Export Plug-In . SVG Version: 6.00 Build 0)  -->
<!DOCTYPE svg PUBLIC "-//W3C//DTD SVG 1.1//EN" "http://www.w3.org/Graphics/SVG/1.1/DTD/svg11.dtd">
<svg version="1.1" xmlns="http://www.w3.org/2000/svg" xmlns:xlink="http://www.w3.org/1999/xlink" x="0px" y="0px" width="512px"
	 height="512px" viewBox="0 0 512 512" enable-background="new 0 0 512 512" xml:space="preserve">
<g id="Artwork">
	<g id="Layer_5">
		<path d="M290.725,91.191c-15.173-13.631-34.792-21.057-55.243-20.91c-20.802,0.152-40.179,8.156-54.562,22.539
			c-20.865,20.865-23.893,47.542-25.52,61.874c-0.011,0.097-0.023,0.194-0.032,0.292c-13.695,1.273-40.818,4.204-62.56,25.945
			c-14.381,14.381-22.383,33.756-22.533,54.559c-0.147,20.45,7.28,40.068,20.911,55.236c17.479,19.459,37.862,25.482,51.674,28.32
			c19.533,4.014,56.712,2.59,84.994-0.08c16.711-1.579,31.861-3.707,43.809-6.154c7.008-1.435,12.309-2.858,16.403-4.248
			c0.747-0.254,1.996-0.887,4.032,1.149c0,0,31.912,32.001,42.289,42.378c2.537,2.536-0.881,2.156-0.881,2.156h-19.109
			c-7.534,0-13.699,5.605-13.699,12.453c0.001,6.85,6.165,12.455,13.699,12.454l51.059,0.001
			c7.534-0.002,13.698-6.166,13.699-13.699l-0.001-51.059c0.001-7.535-5.603-13.699-12.453-13.699
			c-6.849-0.001-12.453,6.163-12.453,13.697l0,19.766c0,0-0.881,1.599-2.408,0.072c-10.46-10.461-42.461-42.462-42.461-42.462
			c-1.597-1.597-1.003-3.065-0.725-3.856c4.461-12.703,7.985-32.82,10.522-60.16c2.607-28.107,3.941-65.174-0.135-84.901
			C315.948,127.865,309.935,108.446,290.725,91.191z M294.648,147.891c2.754,13.328,2.74,43.457-0.038,74.975
			c-3.178,36.064-8.189,55.826-10.866,60.67c-4.877,2.647-24.733,7.637-60.936,10.883c-31.672,2.842-61.786,2.934-74.934,0.232
			c-16.921-3.477-28.334-9.629-38.161-20.568c-19.53-21.732-19.213-55.619,0.706-75.539c15.86-15.859,36.057-17.725,48.124-18.837
			c6.962-0.644,11.992-1.107,16.023-5.138c4.112-4.112,4.697-9.266,5.583-17.064c1.373-12.104,3.671-32.361,18.382-47.072
			c19.921-19.92,53.811-20.24,75.548-0.713C285,119.528,291.152,130.943,294.648,147.891z"/>
	</g>
</g>
<g id="Capa_3">
</g>
</svg>
