<?xml version="1.0" encoding="utf-8"?>
<!-- Generator: Adobe Illustrator 18.1.1, SVG Export Plug-In . SVG Version: 6.00 Build 0)  -->
<svg version="1.1" id="Capa_1" xmlns="http://www.w3.org/2000/svg" xmlns:xlink="http://www.w3.org/1999/xlink" x="0px" y="0px"
	 viewBox="-49 141 512 512" enable-background="new -49 141 512 512" xml:space="preserve">
<path d="M337.5,261.7c-29.2-22.6-67.9-35-108.9-35c-41,0-79.7,12.4-108.9,35c-30,23.2-46.6,54.3-46.6,87.6
	c0,33.3,16.5,64.4,46.6,87.6c29.2,22.6,67.9,35,108.9,35c41,0,79.7-12.4,108.9-35c30-23.2,46.6-54.3,46.6-87.6
	C384.1,316.1,367.6,285,337.5,261.7z M263.2,429.3c0.4,0.2,1,0.7,0.9,1.6c-0.4,3.2-5.7,10.9-10.2,17.5c-8.2,1.2-16.6,1.8-25.2,1.8
	c-8,0-15.9-0.5-23.6-1.6c-4.7-6.7-10.7-14.6-11.1-17.8c-0.1-0.9,0.5-1.4,0.9-1.6c22-9.2,25.5-32.4,19.1-36.2
	c-9.5-5.8-17.1-17.5-19.3-25.2c-2.4-8.1-2.1-22.4-2.1-31.8c0,0,0-0.7,1.2-0.7c9.9,0,30.9,0,47.6,0c2.2,0,11.8-12.2,13.8-12.2
	c2.3,0-2.7,12.2-0.8,12.2c4.6,0,7.8,0,9.5,0c1.2,0,1.2,0.7,1.2,0.7c0,7.8,0.7,23.5-1.7,31.7c-2.2,7.6-9.3,18.9-19.3,25.2
	C238.4,396.6,241.2,419.8,263.2,429.3z M280.2,442.4c-1.3,0.4-4.2,0.7-2.7-2.8c3.6-6.8,5.8-12.2,8-24.8
	c4.2-23.2,24.9-143.5-55.9-143.5c-0.3,0-0.9,0-1.2,0c-83.7,0-60.1,120.3-55.9,143.5c1.8,10,4.3,17.9,7.1,24.1
	c0.8,1.8,1.8,5.1-2.7,3.5c-50.9-14.3-82-49.7-82-93c0-55.6,60-100.9,133.8-100.9c73.8,0,133.8,45.2,133.8,100.9
	C362.4,391.2,328.4,427.2,280.2,442.4z M120.1,459.7c-2.9-0.5-5.8-0.8-8.6-0.8c-18.4,0-33.2,10.7-36.1,26
	c-3.3,17.8,11.4,35.6,32.7,39.5c2.9,0.5,5.8,0.8,8.6,0.8c0,0,0,0,0,0c18.4,0,33.2-10.7,36.1-26C156.2,481.4,141.5,463.7,120.1,459.7
	z M131.5,495.2c-0.9,4.7-7.2,8.2-14.7,8.2c-1.5,0-3.1-0.1-4.7-0.4c-10.2-1.9-16.3-9-15.3-14.2c0.9-4.7,7.2-8.2,14.7-8.2
	c1.5,0,3.1,0.1,4.7,0.4C126.4,483,132.4,490.1,131.5,495.2z M96.8,555.7c-1.8,9.5-13.2,15.4-25.5,13.1C59,566.5,50.4,557,52.2,547.4
	c1.8-9.5,13.2-15.4,25.5-13.1C90,536.6,98.6,546.2,96.8,555.7z"/>
</svg>
