<?xml version="1.0" encoding="utf-8"?>
<!-- Generator: Adobe Illustrator 17.0.1, SVG Export Plug-In . SVG Version: 6.00 Build 0)  -->
<!DOCTYPE svg PUBLIC "-//W3C//DTD SVG 1.1//EN" "http://www.w3.org/Graphics/SVG/1.1/DTD/svg11.dtd">
<svg version="1.1" xmlns="http://www.w3.org/2000/svg" xmlns:xlink="http://www.w3.org/1999/xlink" x="0px" y="0px" width="512px"
	 height="512px" viewBox="0 0 512 512" enable-background="new 0 0 512 512" xml:space="preserve">
<g id="Artwork">
	<g id="Layer_5">
		<g>
			<path d="M448.882,356.07c-2.239-3.723-4.779-7.939-6.201-13.291c-1.229-4.625-0.227-6.277,2.196-10.271
				c2.507-4.133,5.938-9.793,5.938-18.977c0-9.553-2.732-14.721-4.928-18.875c-1.783-3.375-3.072-5.813-3.072-11.397
				c0-5.584,1.289-8.023,3.072-11.398c2.195-4.152,4.928-9.322,4.928-18.873c0-9.553-2.732-14.721-4.928-18.875
				c-1.783-3.375-3.072-5.813-3.072-11.396s1.289-8.023,3.072-11.398c2.195-4.152,4.928-9.32,4.928-18.873
				c0-9.551-2.732-14.719-4.928-18.873c-1.783-3.373-3.072-5.811-3.072-11.393c0-4.1,2.423-8.053,4.986-12.236
				c3.883-6.33,11.107-18.113-1.86-27.686c-5.087-3.754-10.049-5.578-15.173-5.578c-6.51,0-11.644,2.9-16.608,5.707
				c-5.026,2.842-9.774,5.525-16.35,5.525c-8.746,0-12.847-1.6-17.595-3.453c-5.463-2.131-11.654-4.547-23.412-4.547
				c-11.755,0-17.945,2.416-23.408,4.549c-4.746,1.852-8.846,3.451-17.59,3.451c-8.745,0-12.845-1.6-17.593-3.453
				c-5.462-2.131-11.652-4.547-23.408-4.547c-11.756,0-17.946,2.416-23.408,4.549c-4.747,1.852-8.847,3.451-17.591,3.451
				c-8.744,0-12.845-1.6-17.592-3.453c-5.463-2.131-11.652-4.547-23.407-4.547c-11.755,0-17.943,2.416-23.405,4.549
				c-4.746,1.852-8.845,3.451-17.588,3.451c-6.574,0-11.321-2.684-16.348-5.525c-4.965-2.807-10.098-5.709-16.607-5.709
				c-5.123,0-10.086,1.826-15.172,5.582c-12.966,9.576-5.741,21.359-1.859,27.689c2.565,4.186,4.988,8.137,4.988,12.238
				c0,5.586-1.289,8.025-3.073,11.4c-2.195,4.154-4.927,9.322-4.927,18.877c0,9.551,2.733,14.721,4.927,18.873
				c1.784,3.375,3.073,5.814,3.073,11.398c0,5.584-1.289,8.021-3.072,11.396c-2.195,4.154-4.928,9.322-4.928,18.875
				c0,9.553,2.733,14.721,4.927,18.873c1.784,3.375,3.073,5.814,3.073,11.398c0,5.584-1.289,8.022-3.073,11.397
				c-2.194,4.154-4.927,9.322-4.927,18.873c0,9.553,2.733,14.721,4.928,18.873c1.783,3.375,3.072,5.813,3.072,11.395
				c0,4.1-2.423,8.051-4.987,12.234c-3.882,6.332-11.106,18.115,1.861,27.685c5.087,3.756,10.051,5.58,15.174,5.58
				c6.509,0,11.643-2.902,16.606-5.709c5.027-2.842,9.775-5.525,16.351-5.525c8.745,0,12.847,1.6,17.595,3.453
				c5.463,2.131,11.654,4.547,23.411,4.547c11.756,0,17.946-2.416,23.407-4.547c4.748-1.853,8.848-3.453,17.592-3.453
				c8.745,0,12.845,1.6,17.592,3.453c5.463,2.131,11.653,4.547,23.409,4.547c11.756,0,17.946-2.416,23.407-4.547
				c4.748-1.853,8.848-3.453,17.592-3.453s12.844,1.6,17.592,3.453c5.461,2.131,11.652,4.547,23.407,4.547
				c11.754,0,17.942-2.416,23.404-4.547c4.747-1.853,8.846-3.453,17.589-3.453c6.574,0,11.32,2.684,16.346,5.525
				c4.965,2.807,10.099,5.709,16.609,5.709c5.123,0,10.086-1.826,15.171-5.58C459.509,373.719,452.857,362.67,448.882,356.07z
				 M244.767,350.353c-3.604-5.072-7.063-10.035-7.326-12.422c-0.093-0.836,0.45-1.344,0.851-1.51
				c20.861-8.76,24.162-30.738,18.112-34.385c-9.056-5.461-16.179-16.648-18.301-23.859c-2.268-7.707-1.992-21.225-1.992-30.129
				c0,0-0.023-0.637,1.104-0.637c9.418,0,29.326,0.012,45.117,0.016c2.115,0,11.207-11.598,13.139-11.596
				c2.145,0-2.553,11.602-0.723,11.602c4.381,0.002,7.373,0.002,9.003,0.004c1.178,0,1.103,0.711,1.103,0.711
				c0,7.355,0.651,22.322-1.617,30.029c-2.121,7.211-8.822,17.941-18.3,23.859c-5.385,3.363-2.656,25.457,18.131,34.389
				c0.402,0.174,0.923,0.684,0.828,1.543c-0.262,2.361-3.431,7.322-6.839,12.385H244.767z M420.353,341.353c0,4.949-4.051,9-9,9
				h-94.268c-1.167,0-1.359-0.59-1.201-0.893c3.336-6.408,6.307-15.078,8.421-26.748c3.997-22.049,23.592-136.158-53.053-136.158
				c-0.29,0-0.87,0-1.161,0c-79.406,0-57.049,114.109-53.053,136.158c1.987,10.971,4.797,19.227,7.978,25.42
				c0.397,0.771,0.985,2.221-1.265,2.221h-85.472c-4.95,0-9-4.051-9-9V164.643c0-4.949,4.05-9,9-9h273.074c4.949,0,9,4.051,9,9
				V341.353z"/>
			<path d="M368.545,192.555c-6.31,0-10.315,7.037-11.262,7.037c-0.831,0-4.672-7.037-11.267-7.037
				c-6.414,0-11.653,5.289-11.995,11.697c-0.194,3.617,0.973,6.373,2.617,8.867c3.284,4.984,17.643,16.982,20.665,16.982
				c3.083,0,17.314-11.955,20.621-16.982c1.649-2.508,2.811-5.25,2.618-8.867C380.2,197.844,374.96,192.555,368.545,192.555z"/>
		</g>
	</g>
</g>
<g id="Capa_3">
</g>
</svg>
