<?xml version="1.0" encoding="utf-8"?>
<!-- Generator: Adobe Illustrator 17.0.1, SVG Export Plug-In . SVG Version: 6.00 Build 0)  -->
<!DOCTYPE svg PUBLIC "-//W3C//DTD SVG 1.1//EN" "http://www.w3.org/Graphics/SVG/1.1/DTD/svg11.dtd">
<svg version="1.1" xmlns="http://www.w3.org/2000/svg" xmlns:xlink="http://www.w3.org/1999/xlink" x="0px" y="0px" width="512px"
	 height="512px" viewBox="0 0 512 512" enable-background="new 0 0 512 512" xml:space="preserve">
<g id="Artwork">
	<g id="Layer_5">
		<g>
			<path d="M366.057,83.938c-12.859,0-21.021,14.34-22.951,14.34c-1.691,0-9.519-14.34-22.958-14.34
				c-13.071,0-23.747,10.78-24.445,23.838c-0.395,7.373,1.984,12.985,5.335,18.069c6.692,10.155,35.955,34.605,42.111,34.605
				c6.285,0,35.285-24.36,42.023-34.605c3.359-5.108,5.728-10.696,5.333-18.069C389.807,94.718,379.131,83.938,366.057,83.938"/>
			<path d="M223.596,122.222c-0.493,0-1.479,0-1.973,0c-134.86,0-96.89,193.798-90.104,231.246
				c15.219,83.98,58.779,74.306,60.823,72.262c4.613-4.613-25.144-37.095-26.17-46.418c-0.156-1.422,0.768-2.279,1.446-2.564
				c35.428-14.876,41.035-52.202,30.761-58.396c-15.379-9.272-27.479-28.272-31.082-40.52c-3.852-13.091-3.38-36.048-3.38-51.169
				c0,0-0.042-1.081,1.875-1.081c15.996,0,49.805,0.015,76.625,0.026c3.589,0.001,19.031-19.696,22.311-19.694
				c3.644,0.002-4.333,19.701-1.228,19.702c7.442,0.003,12.523,0.005,15.292,0.007c2,0,1.874,1.207,1.874,1.207
				c0,12.494,1.105,37.911-2.746,51.002c-3.603,12.248-14.983,30.469-31.082,40.52c-9.146,5.711-4.51,43.235,30.794,58.404
				c0.683,0.293,1.567,1.159,1.405,2.619c-1.042,9.42-29.316,43.201-26.162,46.355c4.301,4.301,45.604,11.719,60.823-72.262
				C320.485,316.02,353.763,122.222,223.596,122.222z"/>
		</g>
	</g>
</g>
<g id="Capa_3">
</g>
</svg>
