<?xml version="1.0" encoding="utf-8"?>
<!-- Generator: Adobe Illustrator 17.0.1, SVG Export Plug-In . SVG Version: 6.00 Build 0)  -->
<!DOCTYPE svg PUBLIC "-//W3C//DTD SVG 1.1//EN" "http://www.w3.org/Graphics/SVG/1.1/DTD/svg11.dtd">
<svg version="1.1" xmlns="http://www.w3.org/2000/svg" xmlns:xlink="http://www.w3.org/1999/xlink" x="0px" y="0px" width="512px"
	 height="512px" viewBox="0 0 512 512" enable-background="new 0 0 512 512" xml:space="preserve">
<g id="Artwork">
	<g id="Layer_5">
		<path d="M353.172,279.22c-0.32-0.162-1.047-0.625-0.974,1.02c0.601,12.635,1.539,24.996,3.162,40.695c0,0,0.155,0.857-0.02,1.543
			c-0.16,0.629-0.457,1.188-0.457,1.188c-0.647,1.347-16.689,32.9-99.784,32.9c-2.832,0-5.124-2.297-5.124-5.123
			c0-0.147,0.076-0.282,0.084-0.429c0.23-2.588,2.316-4.642,4.963-4.682c0.023,0,0.054-0.016,0.077-0.016
			c3.747,0,7.293-0.092,10.748-0.21c58.299-2.116,79.685-20.081,79.142-25.884c-1.783-19.072-2.801-32.571-3.348-46.222
			c-2.378-60.29,5.493-87.689,10.134-103.808c4.108-14.25,4.739-16.441-5.125-26.313c-18.765-18.763-59.113-24.144-80.795-25.691
			c-3.601-0.261-6.671-0.403-9.057-0.492c-3.124-0.115-5.039-0.122-5.354-0.131v0.038c-23.782-0.208-70.692,2.17-91.183,22.656
			c-25.197,25.197,8.594,18.857,3.355,136.703c-26.941,12.395-43.902,30.053-43.902,49.715c0,37.425,61.014,67.759,136.284,67.759
			c75.255,0.003,136.286-30.334,136.286-67.759C392.285,308.152,377.395,291.452,353.172,279.22z M167.48,167.745
			c1.2-2.562,4.247-3.677,6.816-2.458c0.185,0.089,4.532,2.074,12.011,4.636c13.572,4.662,37.555,11.203,66.131,11.848
			c4.361,0.093,8.848,0.055,13.41-0.161c17.728-0.807,36.755-4.169,55.858-11.687c3.586-1.408,7.164-2.909,10.742-4.625
			c2.545-1.242,5.608-0.141,6.832,2.416c1.208,2.555,0.138,5.605-2.417,6.829c-24.374,11.677-48.749,16.538-71.03,17.569
			c-3.186,0.146-6.317,0.215-9.411,0.215c-1.3,0-2.554-0.05-3.831-0.08c-46.019-0.861-80.464-16.654-82.666-17.691
			C167.376,173.355,166.274,170.307,167.48,167.745z M212.932,270.454c-3.428-5.203-5.86-10.949-5.46-18.498
			c0.715-13.367,11.645-24.403,25.028-24.403c13.758,0,21.773,14.683,23.503,14.683c1.975,0,10.331-14.683,23.498-14.683
			c13.385,0,24.313,11.036,25.027,24.403c0.406,7.549-2.021,13.273-5.459,18.498c-6.898,10.488-36.589,35.431-43.022,35.431
			C249.743,305.885,219.784,280.853,212.932,270.454z"/>
	</g>
</g>
<g id="Capa_3">
</g>
</svg>
