<?xml version="1.0" encoding="utf-8"?>
<!-- Generator: Adobe Illustrator 17.0.1, SVG Export Plug-In . SVG Version: 6.00 Build 0)  -->
<!DOCTYPE svg PUBLIC "-//W3C//DTD SVG 1.1//EN" "http://www.w3.org/Graphics/SVG/1.1/DTD/svg11.dtd">
<svg version="1.1" xmlns="http://www.w3.org/2000/svg" xmlns:xlink="http://www.w3.org/1999/xlink" x="0px" y="0px" width="512px"
	 height="512px" viewBox="0 0 512 512" enable-background="new 0 0 512 512" xml:space="preserve">
<g id="Artwork">
	<g id="Layer_5">
		<path d="M220.067,132.457c-6.426,0-10.503,7.164-11.467,7.164c-0.844,0-4.755-7.164-11.469-7.164
			c-6.531,0-11.864,5.387-12.213,11.908c-0.197,3.686,0.99,6.488,2.664,9.029c3.344,5.072,17.964,17.287,21.039,17.287
			c3.141,0,17.629-12.17,20.994-17.287c1.678-2.553,2.861-5.344,2.664-9.029C231.932,137.844,226.599,132.457,220.067,132.457"/>
		<path d="M297.026,179.242c-8.111,0-13.258,9.043-14.475,9.043c-1.066,0-6.002-9.043-14.478-9.043
			c-8.243,0-14.976,6.799-15.416,15.033c-0.249,4.65,1.251,8.189,3.364,11.395c4.22,6.404,22.675,21.824,26.557,21.824
			c3.963,0,22.252-15.363,26.501-21.824c2.118-3.221,3.612-6.744,3.363-11.395C312.003,186.041,305.272,179.242,297.026,179.242"/>
		<path d="M281.061,91.061c-5.195,0-8.49,5.791-9.27,5.791c-0.683,0-3.844-5.791-9.271-5.791c-5.279,0-9.59,4.354-9.872,9.627
			c-0.159,2.979,0.801,5.244,2.153,7.297c2.703,4.102,14.521,13.977,17.007,13.977c2.539,0,14.251-9.838,16.972-13.977
			c1.355-2.063,2.314-4.318,2.153-7.297C290.651,95.414,286.341,91.061,281.061,91.061"/>
		<g>
			<path d="M345.048,290.074c-8.108,5.535-16.68,11.336-25.602,17.252c-4.446,2.98-8.998,5.961-13.606,8.978
				c-4.602,3.025-9.267,6.078-13.995,9.111c-4.282,2.781-8.609,5.559-12.96,8.336c-0.57,0.363-0.969,0.67-0.969,1.09
				c0,0.553,0.392,0.721,0.958,1.08c6.145,3.9,12.262,7.799,18.281,11.711c2.36,1.523,4.711,3.041,7.051,4.551
				c2.328,1.527,4.645,3.047,6.947,4.557c4.605,3.021,9.164,5.992,13.608,8.977c8.921,5.918,17.495,11.715,25.603,17.248
				c8.102,5.545,15.727,10.842,22.736,15.777c3.973,2.803,6.307,4.455,9.858,7.002c0,0,1.435,1.189,1.435-0.33
				c0-35.213,0-140.852,0-140.852c0-0.127-0.001-0.252-0.006-0.377c-0.02-0.549-0.459-1.65-2.512,0.082
				c-4.985,3.603-8.132,5.836-14.091,10.031C360.773,279.232,353.149,284.531,345.048,290.074z"/>
			<path d="M154.575,258.949c7.48,4.19,15.552,8.775,24.053,13.686c8.496,4.92,17.431,10.143,26.622,15.631
				c4.608,2.723,9.264,5.539,13.977,8.391c4.718,2.842,9.486,5.728,14.267,8.682c7.562,4.613,15.172,9.357,22.797,14.121
				c0.537,0.336,0.978,0.625,1.611,0.625c0.594,0,1.008-0.246,1.512-0.561c6.377-3.98,12.741-7.936,19.071-11.797
				c4.779-2.953,9.548-5.84,14.266-8.682c4.713-2.852,9.367-5.67,13.978-8.391c9.19-5.486,18.127-10.711,26.621-15.631
				c8.501-4.91,16.574-9.496,24.054-13.686c6.79-3.801,11.034-6.148,16.727-9.238c1.49-0.846,1.319-2.193,0.901-2.691
				c-2.619-3.115-6.533-5.109-10.897-5.107h-216.29c-3.702,0-7.08,1.434-9.619,3.771c-0.413,0.379-0.663,1.496,1.114,2.426
				C144.695,253.412,148.281,255.426,154.575,258.949z"/>
			<path d="M362.697,411.738c-7.479-4.191-15.553-8.777-24.054-13.686c-8.496-4.92-17.43-10.146-26.621-15.633
				c-4.61-2.721-9.26-5.545-13.975-8.393c-2.358-1.424-4.73-2.855-7.113-4.297c-2.371-1.457-4.758-2.92-7.15-4.391
				c-8.319-5.072-16.264-10.045-24.653-15.289c-0.27-0.17-0.77-0.398-1.238-0.398c-0.437,0-0.932,0.209-1.185,0.369
				c-9.681,6.051-18.921,11.855-28.515,17.707c-2.395,1.471-4.778,2.934-7.151,4.393c-2.383,1.439-4.755,2.871-7.112,4.295
				c-4.715,2.846-9.364,5.674-13.976,8.393c-9.19,5.486-18.124,10.713-26.62,15.633c-8.501,4.908-16.574,9.494-24.054,13.684
				c-5.586,3.119-6.96,3.898-11.814,6.547c-3.794,2.232-3.803,3.67-3.675,4.414c1.154,6.707,7.028,11.854,14.052,11.854h216.29
				c7.845,0,14.261-6.418,14.261-14.262c0,0,0.058-0.777,0-1.027c-0.332-1.486-3.63-3.228-3.63-3.228
				C369.907,415.772,368.284,414.857,362.697,411.738z"/>
			<path d="M161.613,385.353c8.107-5.533,16.682-11.332,25.603-17.248c4.444-2.983,9.003-5.953,13.607-8.977
				c2.304-1.51,4.62-3.029,6.948-4.557c2.339-1.51,4.69-3.027,7.051-4.551c7.279-4.731,14.697-9.441,22.14-14.16
				c0.534-0.34,0.605-0.633,0.605-1.017c0-0.315-0.138-0.723-0.706-1.084c-5.621-3.574-11.213-7.15-16.728-10.732
				c-4.729-3.033-9.395-6.086-13.997-9.111c-4.606-3.018-9.159-5.996-13.604-8.978c-8.922-5.916-17.495-11.717-25.603-17.252
				c-8.102-5.543-15.727-10.84-22.736-15.775c-5.784-4.074-8.916-6.191-13.785-9.709c-1.422-1.053-2.513-0.635-2.61-0.084
				c-0.141,0.795-0.216,1.611-0.216,2.445v141.645c0,0,0.497,2.477,3.304,0.592c3.337-2.238,4.02-2.865,7.992-5.668
				C145.887,396.197,153.512,390.898,161.613,385.353z"/>
		</g>
	</g>
</g>
<g id="Capa_3">
</g>
</svg>
