<?xml version="1.0" encoding="utf-8"?>
<!-- Generator: Adobe Illustrator 17.0.1, SVG Export Plug-In . SVG Version: 6.00 Build 0)  -->
<!DOCTYPE svg PUBLIC "-//W3C//DTD SVG 1.1//EN" "http://www.w3.org/Graphics/SVG/1.1/DTD/svg11.dtd">
<svg version="1.1" xmlns="http://www.w3.org/2000/svg" xmlns:xlink="http://www.w3.org/1999/xlink" x="0px" y="0px" width="512px"
	 height="512px" viewBox="0 0 512 512" enable-background="new 0 0 512 512" xml:space="preserve">
<g id="Artwork">
	<g id="Layer_5">
		<g>
			<path d="M307.462,201.775c-19.754,0-32.292,22.025-35.256,22.025c-2.598,0-14.621-22.025-35.265-22.025
				c-20.079,0-36.477,16.559-37.548,36.618c-0.608,11.324,3.047,19.942,8.194,27.753c10.278,15.598,55.229,53.157,64.686,53.157
				c9.654,0,54.199-37.42,64.551-53.157c5.159-7.844,8.797-16.429,8.192-27.753C343.942,218.333,327.544,201.775,307.462,201.775z"
				/>
			<path d="M438.311,234.137h-8.941c-1.583,0-1.65-1.181-1.733-1.77c-9.7-68.811-64.183-123.434-132.928-133.346
				c-0.751-0.108-2.257-0.444-2.257-2.444v-7.069c0-11.184-9.066-20.249-20.249-20.249s-20.249,9.065-20.249,20.249v6.819
				c0,2.125-2.338,2.7-3.501,2.878c-68.222,10.4-122.146,64.87-131.712,133.36c-0.073,0.522,0.336,1.571-1.789,1.571h-9.65
				c-11.183,0-20.249,9.066-20.249,20.25c0,11.183,9.066,20.248,20.249,20.248h9.9c1.334,0,1.457,0.989,1.526,1.482
				c9.623,69.188,64.511,124.091,133.691,133.735c0.511,0.071,1.534,0.101,1.534,1.768v10.871c0,11.183,9.066,20.249,20.249,20.249
				s20.249-9.066,20.249-20.249v-10.955c0-1.416,0.907-1.596,1.359-1.658c69.347-9.59,124.368-64.648,133.901-134.014
				c0.056-0.409,0.158-1.229,1.491-1.229h9.108c11.184,0,20.249-9.065,20.249-20.248
				C458.56,243.204,449.495,234.137,438.311,234.137z M394.814,274.635h7.556c1.416,0,1.116,0.986,1.035,1.479
				C394.194,331.93,350.1,376.139,294.34,385.52c-0.627,0.105-1.887,0.017-1.887-1.149v-5.376c0-11.184-9.066-20.249-20.249-20.249
				s-20.249,9.065-20.249,20.249v5.209c0,1.25-1.403,1.399-2.103,1.28c-55.804-9.485-99.88-53.855-108.921-109.806
				c-0.056-0.348-0.394-1.043,1.106-1.043h6.763c11.184,0,20.249-9.065,20.249-20.248c0-11.184-9.065-20.25-20.249-20.25h-6.847
				c-1.334,0-1.042-0.939-0.964-1.406c9.202-55.938,53.432-100.231,109.34-109.522c0.54-0.09,1.625-0.068,1.625,1.244v8.553
				c0,11.183,9.066,20.249,20.249,20.249s20.249-9.066,20.249-20.249v-8.928c0-1.25,0.878-0.992,1.316-0.92
				c55.901,9.154,100.189,53.29,109.572,109.113c0.104,0.621,0.362,1.866-1.138,1.866h-7.389c-11.183,0-20.249,9.066-20.249,20.25
				C374.565,265.57,383.632,274.635,394.814,274.635z"/>
		</g>
	</g>
</g>
<g id="Capa_3">
</g>
</svg>
