<?xml version="1.0" encoding="utf-8"?>
<!-- Generator: Adobe Illustrator 17.0.1, SVG Export Plug-In . SVG Version: 6.00 Build 0)  -->
<!DOCTYPE svg PUBLIC "-//W3C//DTD SVG 1.1//EN" "http://www.w3.org/Graphics/SVG/1.1/DTD/svg11.dtd">
<svg version="1.1" xmlns="http://www.w3.org/2000/svg" xmlns:xlink="http://www.w3.org/1999/xlink" x="0px" y="0px" width="512px"
	 height="512px" viewBox="0 0 512 512" enable-background="new 0 0 512 512" xml:space="preserve">
<g id="Artwork">
	<g id="Layer_5">
		<g>
			<g>
				<path d="M239.658,187.807c-22.926,0-37.475,25.563-40.912,25.563c-3.014,0-16.967-25.563-40.923-25.563
					c-23.301,0-42.329,19.219-43.574,42.488c-0.701,13.145,3.536,23.15,9.507,32.212c11.931,18.103,64.094,61.687,75.066,61.687
					c11.2,0,62.897-43.425,74.907-61.687c5.983-9.103,10.21-19.066,9.506-32.212C281.99,207.025,262.962,187.807,239.658,187.807"/>
			</g>
			<g>
				<path d="M78,330.143c-6.075,0-11-4.925-11-11V192.857c0-6.075,4.925-11,11-11s11,4.925,11,11v126.285
					C89,325.218,84.075,330.143,78,330.143z"/>
			</g>
			<g>
				<path d="M381,330.143h-8c-35.29,0-64-28.71-64-64v-73.285c0-6.075,4.925-11,11-11s11,4.925,11,11v73.285
					c0,23.159,18.841,42,42,42h8c23.159,0,42-18.841,42-42v-73.285c0-6.075,4.925-11,11-11s11,4.925,11,11v73.285
					C445,301.433,416.29,330.143,381,330.143z"/>
			</g>
		</g>
	</g>
</g>
<g id="Capa_3">
</g>
</svg>
