<?xml version="1.0" encoding="utf-8"?>
<!-- Generator: Adobe Illustrator 17.0.1, SVG Export Plug-In . SVG Version: 6.00 Build 0)  -->
<!DOCTYPE svg PUBLIC "-//W3C//DTD SVG 1.1//EN" "http://www.w3.org/Graphics/SVG/1.1/DTD/svg11.dtd">
<svg version="1.1" xmlns="http://www.w3.org/2000/svg" xmlns:xlink="http://www.w3.org/1999/xlink" x="0px" y="0px" width="512px"
	 height="512px" viewBox="0 0 512 512" enable-background="new 0 0 512 512" xml:space="preserve">
<g id="Artwork">
	<g id="Layer_5">
		<g>
			<path d="M320.876,239.648c-12.773,0-20.876,14.239-22.792,14.239c-1.678,0-9.449-14.239-22.795-14.239
				c-12.982,0-23.58,10.705-24.274,23.669c-0.392,7.323,1.97,12.895,5.296,17.943c6.646,10.085,35.705,34.362,41.816,34.362
				c6.242,0,35.039-24.19,41.728-34.362c3.334-5.071,5.686-10.62,5.296-17.943C344.456,250.353,333.857,239.648,320.876,239.648"/>
			<path d="M247.085,284.635c-3.185-4.831-7.351-12.495-6.776-23.227c0.447-8.372,3.991-16.232,9.979-22.134
				c6.093-6.006,14.056-9.313,22.422-9.313c10.31,0,17.948,5.989,22.872,10.97c0.13,0.132,0.397,0.287,0.526-0.025
				c1.54-4.445,2.214-8.908,1.914-14.51c-1.007-18.796-16.373-34.318-35.195-34.318c-18.518,0-30.268,20.646-33.047,20.646
				c-2.432,0-13.699-20.646-33.05-20.646c-18.82,0-34.19,15.523-35.194,34.318c-0.566,10.617,2.855,18.696,7.679,26.016
				c9.636,14.622,51.768,49.822,60.627,49.822c3.415,0,11.485-4.995,20.733-12.005c0.184-0.14,0.45-0.59,0.076-0.971
				C249.024,287.4,248.115,286.199,247.085,284.635z"/>
			<path d="M429.707,359.073c-2.239-3.723-4.779-7.939-6.201-13.291c-1.229-4.625-0.227-6.277,2.196-10.272
				c2.507-4.134,5.939-9.793,5.939-18.977c0-9.553-2.732-14.721-4.928-18.875c-1.783-3.375-3.072-5.813-3.072-11.397
				c0-5.584,1.289-8.022,3.072-11.397c2.195-4.153,4.928-9.322,4.928-18.874c0-9.552-2.732-14.721-4.928-18.874
				c-1.783-3.375-3.072-5.814-3.072-11.398c0-5.583,1.289-8.022,3.072-11.397c2.195-4.152,4.928-9.32,4.928-18.873
				c0-9.551-2.732-14.72-4.928-18.873c-1.783-3.373-3.072-5.811-3.072-11.393c0-4.101,2.423-8.053,4.986-12.236
				c3.883-6.331,11.107-18.114-1.86-27.686c-5.087-3.754-10.049-5.578-15.173-5.578c-6.51,0-11.644,2.9-16.608,5.707
				c-5.026,2.842-9.775,5.525-16.35,5.525c-8.746,0-12.847-1.6-17.595-3.453c-5.463-2.131-11.654-4.547-23.412-4.547
				c-11.755,0-17.945,2.416-23.408,4.549c-4.746,1.852-8.846,3.451-17.59,3.451c-8.745,0-12.845-1.6-17.593-3.453
				c-5.462-2.131-11.652-4.547-23.408-4.547c-11.756,0-17.946,2.416-23.408,4.549c-4.747,1.852-8.847,3.451-17.591,3.451
				c-8.744,0-12.845-1.6-17.592-3.453c-5.463-2.131-11.652-4.547-23.407-4.547c-11.755,0-17.943,2.416-23.405,4.549
				c-4.746,1.852-8.845,3.451-17.588,3.451c-6.574,0-11.321-2.684-16.348-5.525c-4.965-2.807-10.098-5.709-16.607-5.709
				c-5.123,0-10.086,1.826-15.172,5.581c-12.966,9.577-5.741,21.36-1.859,27.69c2.565,4.185,4.988,8.137,4.988,12.238
				c0,5.586-1.289,8.024-3.073,11.399c-2.195,4.154-4.927,9.323-4.927,18.878c0,9.551,2.732,14.721,4.927,18.873
				c1.784,3.375,3.073,5.814,3.073,11.398c0,5.584-1.289,8.021-3.072,11.396c-2.195,4.154-4.928,9.322-4.928,18.875
				c0,9.553,2.732,14.721,4.927,18.873c1.784,3.375,3.073,5.814,3.073,11.397c0,5.584-1.289,8.022-3.073,11.397
				c-2.194,4.153-4.927,9.322-4.927,18.873c0,9.552,2.732,14.721,4.928,18.873c1.783,3.374,3.072,5.812,3.072,11.394
				c0,4.1-2.423,8.052-4.987,12.235c-3.882,6.332-11.106,18.115,1.861,27.686c5.087,3.755,10.051,5.58,15.174,5.579
				c6.509,0,11.643-2.902,16.606-5.708c5.027-2.842,9.775-5.525,16.351-5.525c8.745,0,12.847,1.6,17.595,3.453
				c5.463,2.131,11.654,4.547,23.411,4.547c11.756,0,17.946-2.416,23.407-4.547c4.748-1.853,8.848-3.453,17.592-3.453
				c8.745,0,12.845,1.6,17.592,3.453c5.463,2.131,11.653,4.547,23.409,4.547c11.756,0,17.946-2.416,23.407-4.547
				c4.748-1.853,8.848-3.453,17.592-3.453c8.744,0,12.844,1.6,17.592,3.453c5.461,2.131,11.652,4.547,23.407,4.547
				c11.754,0,17.942-2.416,23.404-4.547c4.747-1.853,8.846-3.453,17.589-3.453c6.574,0,11.32,2.684,16.346,5.525
				c4.965,2.807,10.099,5.709,16.609,5.709c5.123,0,10.086-1.826,15.171-5.58C440.334,376.722,433.683,365.673,429.707,359.073z
				 M391.172,334.35c0,4.95-4.051,9-9,9H129.109c-4.95,0-9-4.05-9-9V177.651c0-4.95,4.05-9,9-9h253.063c4.949,0,9,4.05,9,9V334.35z"
				/>
		</g>
	</g>
</g>
<g id="Capa_3">
</g>
</svg>
