<?xml version="1.0" encoding="utf-8"?>
<!-- Generator: Adobe Illustrator 17.0.1, SVG Export Plug-In . SVG Version: 6.00 Build 0)  -->
<!DOCTYPE svg PUBLIC "-//W3C//DTD SVG 1.1//EN" "http://www.w3.org/Graphics/SVG/1.1/DTD/svg11.dtd">
<svg version="1.1" xmlns="http://www.w3.org/2000/svg" xmlns:xlink="http://www.w3.org/1999/xlink" x="0px" y="0px" width="512px"
	 height="512px" viewBox="0 0 512 512" enable-background="new 0 0 512 512" xml:space="preserve">
<g id="Artwork">
	<g id="Layer_5">
		<g>
			<path d="M305.591,175.652c-27.785,0-45.418,30.98-49.588,30.98c-3.653,0-20.564-30.98-49.601-30.98
				c-28.24,0-51.305,23.289-52.812,51.502c-0.854,15.928,4.285,28.053,11.524,39.037c14.458,21.939,77.681,74.764,90.981,74.764
				c13.578,0,76.232-52.629,90.791-74.764c7.256-11.035,12.375-23.109,11.522-39.037C356.9,198.941,333.837,175.652,305.591,175.652
				z"/>
			<path d="M419.089,204.225c-3.598-10.408-7.916-18.508-12.841-24.076c-6.684-7.557-9.794-9.104-12.411-9.104
				c-2.24,0-4.51,1.645-4.51,4.787c0,1.213,0.412,2.773,2.527,7.158c4.621,9.506,7.77,18.807,9.359,27.639
				c1.611,8.955,2.428,18.033,2.428,26.982c0,11.438-0.934,22.447-2.775,32.715c-1.803,10.059-5.096,19.289-9.785,27.432
				c-1.539,2.672-2.032,3.928-2.032,5.174c0,2.49,1.88,4.369,4.37,4.369c2.581,0,5.56-1.6,12.412-9.561
				c5.008-5.816,9.414-13.92,13.1-24.084c3.68-10.152,5.545-21.508,5.545-33.754C424.476,226.564,422.663,214.561,419.089,204.225z"
				/>
			<path d="M388.251,210.738c-2.908-8.422-6.414-14.988-10.42-19.516c-4.798-5.426-7.742-7.541-10.502-7.541
				c-2.49,0-4.369,1.975-4.369,4.592c0,1.105,0.332,2.398,2.098,6.059c3.666,7.547,6.164,14.918,7.422,21.914
				c1.281,7.115,1.931,14.33,1.931,21.449c0,9.109-0.743,17.871-2.209,26.041c-1.425,7.955-4.028,15.256-7.737,21.697
				c-1.307,2.268-1.727,3.365-1.727,4.52c0,2.389,1.871,4.26,4.258,4.26c2.283,0,4.837-1.324,10.508-7.914
				c4.065-4.725,7.639-11.285,10.619-19.506c2.975-8.205,4.482-17.379,4.482-27.262C392.604,228.773,391.14,219.086,388.251,210.738
				z"/>
			<path d="M110.785,267.717c-1.61-8.955-2.427-18.031-2.427-26.98c0-11.438,0.934-22.447,2.773-32.717
				c1.804-10.059,5.097-19.287,9.785-27.432c1.541-2.67,2.032-3.926,2.032-5.172c0-2.492-1.879-4.371-4.37-4.371
				c-2.581,0-5.56,1.6-12.411,9.56c-5.008,5.817-9.413,13.92-13.1,24.086c-3.679,10.15-5.544,21.508-5.544,33.752
				c0,13.34,1.812,25.344,5.386,35.678c3.597,10.41,7.917,18.51,12.84,24.076c6.684,7.555,9.796,9.104,12.412,9.104
				c2.24,0,4.511-1.643,4.511-4.785c0-1.215-0.414-2.773-2.528-7.16C115.524,285.848,112.376,276.551,110.785,267.717z"/>
			<path d="M147.535,192.912c1.308-2.268,1.727-3.365,1.727-4.52c0-2.387-1.87-4.258-4.259-4.258c-2.282,0-4.837,1.324-10.507,7.914
				c-4.065,4.721-7.638,11.285-10.62,19.506c-2.974,8.205-4.481,17.377-4.481,27.262c0,10.758,1.466,20.443,4.353,28.793
				c2.91,8.42,6.415,14.988,10.42,19.514c4.798,5.428,7.743,7.543,10.504,7.543c2.489,0,4.369-1.975,4.369-4.594
				c0-1.105-0.332-2.396-2.098-6.059c-3.666-7.545-6.165-14.918-7.424-21.912c-1.279-7.115-1.93-14.334-1.93-21.451
				c0-9.111,0.742-17.869,2.209-26.039C141.224,206.654,143.827,199.354,147.535,192.912z"/>
		</g>
	</g>
</g>
<g id="Capa_3">
</g>
</svg>
