<?xml version="1.0" encoding="utf-8"?>
<!-- Generator: Adobe Illustrator 17.0.1, SVG Export Plug-In . SVG Version: 6.00 Build 0)  -->
<!DOCTYPE svg PUBLIC "-//W3C//DTD SVG 1.1//EN" "http://www.w3.org/Graphics/SVG/1.1/DTD/svg11.dtd">
<svg version="1.1" xmlns="http://www.w3.org/2000/svg" xmlns:xlink="http://www.w3.org/1999/xlink" x="0px" y="0px" width="512px"
	 height="512px" viewBox="0 0 512 512" enable-background="new 0 0 512 512" xml:space="preserve">
<g id="Artwork">
	<g id="Layer_5">
		<g>
			<path d="M380.885,252.561c-1.84-34.404-29.967-62.804-64.412-62.804c-33.883,0-55.385,21.659-60.469,21.659
				c-0.002,0-0.002,0-0.004,0c-0.002,0-0.002,0-0.004,0c-5.086,0-26.588-21.659-60.471-21.659c-34.445,0-62.57,28.399-64.41,62.804
				c-1.041,19.424-0.049,43.076,23.174,74.977c19.016,26.118,85.033,95.595,101.592,95.595c0.037,0,0.08-0.007,0.119-0.009
				c0.037,0.002,0.08,0.009,0.119,0.009c16.557,0,82.576-69.477,101.592-95.595C380.934,295.638,381.926,271.985,380.885,252.561z
				 M180.158,271.087c-5.258,0.578-10.574-8.567-11.873-20.426c-1.299-11.855,1.91-21.934,7.17-22.512
				c5.26-0.575,10.576,8.57,11.875,20.427C188.629,260.433,185.418,270.512,180.158,271.087z M218.193,335.771
				c-5.258,0.576-10.576-8.568-11.875-20.426c-1.299-11.856,1.912-21.935,7.17-22.512c5.26-0.575,10.576,8.568,11.875,20.426
				C226.664,325.116,223.453,335.194,218.193,335.771z M256,393.434c-5.291,0-9.58-9.669-9.58-21.597
				c0-11.928,4.289-21.598,9.58-21.598c5.291,0,9.58,9.67,9.58,21.598C265.58,383.765,261.291,393.434,256,393.434z M256,284.549
				c-5.291,0-9.58-9.669-9.58-21.599c0-11.927,4.289-21.596,9.58-21.596c5.291,0,9.58,9.669,9.58,21.596
				C265.58,274.88,261.291,284.549,256,284.549z M305.887,315.333c-1.336,11.852-6.684,20.978-11.939,20.386
				c-5.258-0.593-8.436-10.683-7.098-22.535c1.338-11.853,6.684-20.979,11.941-20.388
				C304.047,293.39,307.225,303.479,305.887,315.333z M343.502,256.36c-1.338,11.853-6.686,20.982-11.942,20.387
				c-5.258-0.593-8.435-10.683-7.098-22.535c1.338-11.853,6.684-20.98,11.941-20.387
				C341.662,234.419,344.838,244.509,343.502,256.36z"/>
			<path d="M308.217,154.331c-1.617-0.398-3.197-0.688-4.744-0.885c-0.637-0.08-1.361-0.535-0.816-2.121
				c26.473-48.357,69.119-74.717-29.334-22.633c-9.291,4.915-19.852,11.858-21.186,11.858c-1.252,0-11.383-8.964-21.777-16.319
				c-96.109-68-49.287-26.34-28.658,27.845c0.207,0.544,0.617,1.462-0.367,1.812c-0.979,0.17-0.986,0.195-1.992,0.443
				c-59.127,14.598-65.395,45.754-42.09,32.036c33.795-19.89,76.34-0.282,93.398,8.174c2.363,1.172,4.264,0.981,6.26,0
				c19.881-9.78,57.662-24.321,93.396-8.174C389.414,204.038,367.344,168.929,308.217,154.331z"/>
		</g>
	</g>
</g>
<g id="Capa_3">
</g>
</svg>
