<?xml version="1.0" encoding="utf-8"?>
<!-- Generator: Adobe Illustrator 17.0.1, SVG Export Plug-In . SVG Version: 6.00 Build 0)  -->
<!DOCTYPE svg PUBLIC "-//W3C//DTD SVG 1.1//EN" "http://www.w3.org/Graphics/SVG/1.1/DTD/svg11.dtd">
<svg version="1.1" xmlns="http://www.w3.org/2000/svg" xmlns:xlink="http://www.w3.org/1999/xlink" x="0px" y="0px" width="512px"
	 height="512px" viewBox="0 0 512 512" enable-background="new 0 0 512 512" xml:space="preserve">
<g id="Artwork">
	<g id="Layer_5">
		<g>
			<path d="M255.997,93.991c-63.629,0-115.213,53.969-115.213,117.602c0,87.123,98.824,206.416,115.213,206.416
				c16.686,0,115.219-118.697,115.219-206.416C371.216,147.96,319.632,93.991,255.997,93.991z M256,298.565
				c-46.775,0-84.694-37.919-84.694-84.695c0-46.775,37.919-84.694,84.694-84.694s84.694,37.919,84.694,84.694
				C340.694,260.647,302.775,298.565,256,298.565z"/>
			<path d="M282.054,175.286c-14.601,0-23.862,16.276-26.054,16.276c-1.915,0-10.799-16.276-26.055-16.276
				c-14.838,0-26.953,12.237-27.746,27.055c-0.448,8.371,2.251,14.74,6.054,20.511c7.597,11.527,40.812,39.278,47.796,39.278
				c7.135,0,40.051-27.651,47.698-39.278c3.811-5.797,6.501-12.14,6.054-20.511C309.007,187.523,296.893,175.286,282.054,175.286"/>
		</g>
	</g>
</g>
<g id="Capa_3">
</g>
</svg>
