<?xml version="1.0" encoding="utf-8"?>
<!-- Generator: Adobe Illustrator 17.0.1, SVG Export Plug-In . SVG Version: 6.00 Build 0)  -->
<!DOCTYPE svg PUBLIC "-//W3C//DTD SVG 1.1//EN" "http://www.w3.org/Graphics/SVG/1.1/DTD/svg11.dtd">
<svg version="1.1" xmlns="http://www.w3.org/2000/svg" xmlns:xlink="http://www.w3.org/1999/xlink" x="0px" y="0px" width="512px"
	 height="512px" viewBox="0 0 512 512" enable-background="new 0 0 512 512" xml:space="preserve">
<g id="Artwork">
	<g id="Layer_5">
		<path d="M423.349,208.6l-49.861-89.293c-2.52-4.509-7.885-7.658-13.05-7.658H151.563c-5.166,0-10.533,3.15-13.051,7.66
			l-49.86,89.29c-2.667,4.774-2.277,11.193,0.948,15.609l123.876,169.661c2.83,3.877,7.956,6.482,12.756,6.482h59.535
			c4.8,0,9.926-2.605,12.756-6.482l123.876-169.662C425.625,219.791,426.015,213.372,423.349,208.6z M398.675,206.523
			c-14.564,0-43.26,0-58.264,0c-1.899,0-1.341-1.09-1.341-1.09l22.608-66.375c0,0,0.744-0.592,1.134,0.1
			c9.597,17.027,32.693,58.52,36.94,66.149C400.191,206.097,399.862,206.523,398.675,206.523z M304.947,206.523
			c-25.193,0-75.08,0-100.772,0c-1.821,0-0.884-1.178-0.884-1.178l46.803-74.191c0,0,0.113-0.507,1.063-0.507
			c1.98,0,5.462,0,7.283,0c0.791,0,0.97,0.524,0.97,0.524l46.892,74.33C306.302,205.502,307.163,206.523,304.947,206.523z
			 M282.743,130.648c14.165,0,54.328,0,60.835,0c1.068,0,0.517,1.11,0.517,1.11s-15.478,45.465-21.069,61.86
			c-0.348,1.021-1.545,0.336-1.545,0.336l-39.468-62.564C282.013,131.391,281.397,130.648,282.743,130.648z M186.975,192.665
			c-5.123-15.046-20.453-60.231-20.453-60.231s-0.799-1.786,0.922-1.786c13.597,0,51.638,0,59.193,0c1.286,0,0.488,1.31,0.488,1.31
			l-38.405,60.877C188.721,192.835,187.476,194.138,186.975,192.665z M311.508,225.523c0.683,0,0.501,0.443,0.501,0.443
			l-52.8,155.011c0,0-0.136,0.376-0.512,0.376c-1.805,0-5.321,0-7.223,0c-0.495,0-0.575-0.435-0.575-0.435l-52.553-154.763
			c0,0-0.178-0.633,0.624-0.633C227.268,225.523,283.373,225.523,311.508,225.523z M149.45,141.245
			c5.219,14.963,19.162,56.354,21.75,64.041c0.27,0.802,0.361,1.237-1.144,1.237c-14.169,0-42.12,0-56.679,0
			c-1.821,0-1.098-1.271-1.098-1.271l36.078-64.607C148.357,140.645,148.935,139.768,149.45,141.245z M115.198,225.523
			c15.718,0,46.859,0,62.25,0c0.833,0,0.888,0.79,0.888,0.79l52.422,154.377c0,0,0.233,0.663-0.321,0.663c-0.49,0-1.333,0-1.959,0
			c-0.633,0-1.068-0.617-1.068-0.617l-112.754-154.43C114.656,226.306,113.951,225.523,115.198,225.523z M283.712,381.353
			c-1.01,0-2.921,0-4.037,0c-0.633,0-0.339-0.54-0.339-0.54l52.738-154.838c0,0,0.105-0.452,0.807-0.452c16.259,0,48.351,0,64.467,0
			c0.574,0,0.297,0.37,0.297,0.37l-113.287,155.16C284.357,381.053,284.207,381.353,283.712,381.353z"/>
	</g>
</g>
<g id="Capa_3">
</g>
</svg>
