<?xml version="1.0" encoding="utf-8"?>
<!-- Generator: Adobe Illustrator 17.0.1, SVG Export Plug-In . SVG Version: 6.00 Build 0)  -->
<!DOCTYPE svg PUBLIC "-//W3C//DTD SVG 1.1//EN" "http://www.w3.org/Graphics/SVG/1.1/DTD/svg11.dtd">
<svg version="1.1" xmlns="http://www.w3.org/2000/svg" xmlns:xlink="http://www.w3.org/1999/xlink" x="0px" y="0px" width="512px"
	 height="512px" viewBox="0 0 512 512" enable-background="new 0 0 512 512" xml:space="preserve">
<g id="Artwork">
	<g id="Layer_5">
		<g>
			<path fill="none" stroke="#000000" stroke-width="13.6259" stroke-linecap="round" stroke-miterlimit="10" d="M137.796,187.586
				c0,0,15.873-8.051,50.071-8.051c34.311,0,50.072,8.051,50.072,8.051"/>
			<path fill="none" stroke="#000000" stroke-width="13.6259" stroke-linecap="round" stroke-miterlimit="10" d="M137.796,279.677
				c0,0,15.873-8.051,50.071-8.051c34.311,0,50.072,8.051,50.072,8.051"/>
			<path fill="none" stroke="#000000" stroke-width="13.6259" stroke-linecap="round" stroke-miterlimit="10" d="M137.796,233.631
				c0,0,15.873-8.05,50.071-8.05c34.311,0,50.072,8.05,50.072,8.05"/>
			<path fill="none" stroke="#000000" stroke-width="13.6259" stroke-linecap="round" stroke-miterlimit="10" d="M137.796,325.722
				c0,0,15.873-8.05,50.071-8.05c34.311,0,50.072,8.05,50.072,8.05"/>
			<path d="M296.468,203.002c5.214,7.911,28.009,26.958,32.805,26.958c4.895,0,27.487-18.978,32.735-26.958
				c2.615-3.977,4.462-8.332,4.153-14.077c-0.544-10.169-8.859-18.567-19.043-18.567c-10.019,0-16.377,11.171-17.879,11.171
				c-1.317,0-7.415-11.171-17.884-11.171c-10.183,0-18.498,8.398-19.043,18.567C292.006,194.67,293.858,199.042,296.468,203.002z"/>
			<path d="M328.888,303.732c5.214,7.911,28.009,26.957,32.805,26.957c4.895,0,27.487-18.977,32.735-26.957
				c2.615-3.979,4.462-8.332,4.153-14.077c-0.544-10.169-8.859-18.567-19.043-18.567c-10.019,0-16.377,11.171-17.879,11.171
				c-1.317,0-7.415-11.171-17.884-11.171c-10.183,0-18.498,8.398-19.043,18.567C324.426,295.4,326.278,299.772,328.888,303.732z"/>
			<path d="M418.565,124.08c0,0-26.073-8.588-69.567-8.588c-21.653,0-66.824,7.532-81.475,7.532c-8.571,0-59.996-7.532-81.765-7.532
				c-43.351,0-69.565,8.588-69.565,8.588c-6.63,0.991-12.055,7.285-12.055,13.989v231.58c0,6.705,5.485,12.188,12.188,12.188
				c0,0,26.69-2.438,68.74-2.438c44.65,0,121.189,0,163.24,0c44.649,0,43.432,2.438,70.122,2.438
				c6.704,0,12.189-5.483,12.189-12.188v-231.58C430.619,131.365,425.194,125.071,418.565,124.08z M257.879,352.972
				c0,5.779-4.73,10.508-10.509,10.508c-23.012,0-21.96-2.102-60.456-2.102c-36.253,0-59.264,2.102-59.264,2.102
				c-5.779,0-10.508-4.728-10.508-10.508V153.314c0-5.779,4.677-11.206,10.393-12.06c0,0,22.6-7.404,59.975-7.404
				c37.497,0,59.977,7.404,59.977,7.404c5.716,0.854,10.393,6.28,10.393,12.06V352.972z M417.615,352.972
				c0,5.779-4.729,10.508-10.509,10.508c-23.011,0-21.96-2.102-60.455-2.102c-36.253,0-59.265,2.102-59.265,2.102
				c-5.779,0-10.508-4.728-10.508-10.508V153.314c0-5.779,4.677-11.206,10.393-12.06c0,0,22.601-7.404,59.976-7.404
				c37.497,0,59.976,7.404,59.976,7.404c5.716,0.854,10.393,6.28,10.393,12.06V352.972z"/>
		</g>
	</g>
</g>
<g id="Capa_3">
</g>
</svg>
