<?xml version="1.0" encoding="utf-8"?>
<!-- Generator: Adobe Illustrator 17.0.1, SVG Export Plug-In . SVG Version: 6.00 Build 0)  -->
<!DOCTYPE svg PUBLIC "-//W3C//DTD SVG 1.1//EN" "http://www.w3.org/Graphics/SVG/1.1/DTD/svg11.dtd">
<svg version="1.1" xmlns="http://www.w3.org/2000/svg" xmlns:xlink="http://www.w3.org/1999/xlink" x="0px" y="0px" width="512px"
	 height="512px" viewBox="0 0 512 512" enable-background="new 0 0 512 512" xml:space="preserve">
<g id="Artwork">
	<g id="Layer_5">
		<path d="M129.817,296.951c20.21,30.732,107.197,103.801,126.05,103.801c18.465,0,106.238-73.34,126.311-103.801
			c10.052-15.248,17.185-32.082,16.001-54.197c-1.428-26.725-15.242-49.367-37.314-61.629c0,0-1.554-0.859-1.554-4.109
			c0-2.049,0-8.195,0-8.195c0-59.916-48.745-108.66-108.66-108.66c-40.545,0-77.439,22.322-96.283,58.254
			c-3.767,7.182-0.999,16.059,6.185,19.826c7.182,3.768,16.06,0.998,19.826-6.186c13.757-26.229,40.684-42.525,70.273-42.525
			c43.72,0,79.289,35.57,79.289,79.291c0,0-0.294,1.248-0.776,1.695c-1.234,1.148-2.598,0.734-4.31,0.734
			c-40.31,0-63.789,43.014-68.858,43.014c-5.792,0-30.273-43.014-68.845-43.014c-39.215,0-71.236,32.338-73.334,71.504
			C112.636,264.869,119.739,281.631,129.817,296.951z M225.617,324.441l15.644-36.74c-4.916-4.178-8.039-10.402-8.039-17.359
			c0-12.58,10.198-22.779,22.778-22.779c12.58,0,22.778,10.199,22.778,22.779c0,6.957-3.122,13.182-8.039,17.359l15.644,36.74
			H225.617z"/>
	</g>
</g>
<g id="Capa_3">
</g>
</svg>
