<?xml version="1.0" encoding="utf-8"?>
<!-- Generator: Adobe Illustrator 17.0.1, SVG Export Plug-In . SVG Version: 6.00 Build 0)  -->
<!DOCTYPE svg PUBLIC "-//W3C//DTD SVG 1.1//EN" "http://www.w3.org/Graphics/SVG/1.1/DTD/svg11.dtd">
<svg version="1.1" xmlns="http://www.w3.org/2000/svg" xmlns:xlink="http://www.w3.org/1999/xlink" x="0px" y="0px" width="512px"
	 height="512px" viewBox="0 0 512 512" enable-background="new 0 0 512 512" xml:space="preserve">
<g id="Artwork">
	<g id="Layer_5">
		<g>
			<path d="M333.807,266.326c-9.651,3.048-13.297,12.837-14.747,13.295c-1.268,0.4-9.623-5.599-19.71-2.413
				c-9.811,3.098-15.268,13.72-12.697,23.686c1.451,5.627,4.566,9.276,8.286,12.298c7.43,6.035,35.188,17.451,39.809,15.992
				c4.718-1.49,20.711-26.646,23.339-35.933c1.311-4.632,1.764-9.387-0.28-14.827C354.187,268.79,343.62,263.227,333.807,266.326z"
				/>
			<path d="M286.418,318.475c-6.576-2.984-14.578-0.501-17.909,5.905c-3.276,6.301-0.228,12.966-0.721,13.912
				c-0.431,0.828-7.552,1.997-10.977,8.582c-3.331,6.405-0.768,14.382,5.452,18.051c3.512,2.072,6.868,2.337,10.213,1.991
				c6.681-0.692,26.116-8.801,27.685-11.816c1.602-3.08-2.944-23.496-6.248-29.407C292.265,322.744,290.131,320.161,286.418,318.475
				z"/>
			<path d="M439.767,305.265L314.23,93.917c-2.809-4.729-8.975-6.299-13.704-3.49l-64.659,38.414
				c-4.847-5.507-15.251-4.433-27.358-4.167c-16.545,0.362-29.993-0.938-29.653,14.547c0.186,8.481,6.309,15.664,6.309,15.664
				c0.696,0.816,2.398,2.778,0.556,3.748L73.724,225.168c-4.728,2.809-6.299,8.977-3.49,13.705L195.771,450.22
				c2.809,4.73,8.976,6.3,13.704,3.49l226.802-134.74C441.005,316.162,442.576,309.994,439.767,305.265z M411.608,312.689
				L215.757,429.043c-4.729,2.809-10.895,1.238-13.704-3.49L94.903,245.154c-2.809-4.729-1.238-10.896,3.49-13.705l87.685-52.093
				c0,0,1.61-1.006,1.492,0.25c-0.063,0.666-0.293,2.66-0.293,2.66c-0.422,3.826,2.383,6.889,6.232,6.804l2.143-0.047
				c3.849-0.084,7.443,2.966,7.986,6.776c0,0,2.856,20.034,6.867,19.945c4.011-0.088,5.987-20.227,5.987-20.227
				c0.376-3.832,3.833-7.035,7.682-7.12l2.143-0.047c3.849-0.084,6.517-3.267,5.928-7.071l-2.323-15.009
				c-0.589-3.805,3.32-14.945,5.65-16.318c18.303-10.79,58.673-34.857,58.673-34.857c4.729-2.809,10.895-1.238,13.704,3.49
				l107.15,180.398C417.908,303.713,416.337,309.88,411.608,312.689z"/>
			<path d="M307.686,190.178c-2.538-4.273-8.059-5.681-12.334-3.141l-135.837,80.699c-4.273,2.538-5.68,8.061-3.141,12.334
				c1.682,2.832,4.674,4.404,7.746,4.404c1.563,0,3.147-0.407,4.588-1.264l135.837-80.699
				C308.818,199.973,310.225,194.451,307.686,190.178z"/>
			<path d="M330.699,228.916c-2.538-4.273-8.059-5.681-12.334-3.141l-135.837,80.699c-4.273,2.538-5.68,8.061-3.141,12.334
				c1.682,2.832,4.675,4.404,7.746,4.404c1.564,0,3.147-0.407,4.588-1.264l135.836-80.699
				C331.832,238.712,333.238,233.189,330.699,228.916z"/>
		</g>
	</g>
</g>
<g id="Capa_3">
</g>
</svg>
