<?xml version="1.0" encoding="utf-8"?>
<!-- Generator: Adobe Illustrator 17.0.1, SVG Export Plug-In . SVG Version: 6.00 Build 0)  -->
<!DOCTYPE svg PUBLIC "-//W3C//DTD SVG 1.1//EN" "http://www.w3.org/Graphics/SVG/1.1/DTD/svg11.dtd">
<svg version="1.1" xmlns="http://www.w3.org/2000/svg" xmlns:xlink="http://www.w3.org/1999/xlink" x="0px" y="0px" width="512px"
	 height="512px" viewBox="0 0 512 512" enable-background="new 0 0 512 512" xml:space="preserve">
<g id="Artwork">
	<g id="Layer_5">
		<g>
			<g>
				<path d="M303.372,385.852c-1.194-4.429,1.426-8.988,5.856-10.183l34.953-9.429c1.923-0.518,3.018-2.668,2.444-4.8
					c-0.576-2.133-2.602-3.441-4.525-2.923l-49.569,13.371c-5.32,1.429-10.791-1.721-12.227-7.039
					c-1.436-5.324,1.715-10.803,7.037-12.238c0,0,49.539-13.334,49.542-13.363l0.018-0.005c1.923-0.519,3.044-2.569,2.502-4.58
					c-0.543-2.011-2.543-3.221-4.466-2.702l-63.263,17.065c-5.766,1.549-11.699-1.865-13.255-7.63
					c-1.556-5.77,1.859-11.708,7.63-13.265c0,0,62.728-16.932,63.455-17.128c1.798-0.602,2.841-2.503,2.34-4.357
					c-0.518-1.925-2.5-3.064-4.424-2.544l-54.13,14.601c-5.769,1.556-11.708-1.859-13.264-7.628
					c-1.556-5.77,1.859-11.708,7.628-13.265c75.668-20.513,75.668-20.513,81.932-22.21c2.365-0.638,7.461-1.964,8.002-3.333
					c0.451-1.138-0.765-2.162-3.24-3.133c-5.61-2.202-14.392-5.2-20.339-7.503c-5.639-2.184-12.223-6.259-10.507-13.364
					c1.633-6.757,9.618-9.981,16.098-7.458c0,0,44.814,15.585,60.352,20.851c9.095,3.082,11.911,3.809,14.921,4.905
					c11.471,4.179,12.793,7.881,15.743,18.814c3.182,11.795,12.221,45.31,12.221,45.31c6.575,24.375-22.357,32.179-34.707,35.51
					l-90.168,24.322C309.125,392.903,304.566,390.282,303.372,385.852z"/>
				<path d="M208.628,385.852c1.196-4.429-1.426-8.988-5.855-10.183l-34.954-9.429c-1.925-0.518-3.018-2.668-2.442-4.8
					c0.574-2.133,2.6-3.441,4.523-2.923l49.569,13.371c5.32,1.429,10.792-1.721,12.227-7.039c1.437-5.324-1.715-10.803-7.037-12.238
					c0,0-49.537-13.334-49.542-13.363l-0.018-0.005c-1.923-0.519-3.042-2.569-2.5-4.58c0.542-2.011,2.541-3.221,4.465-2.702
					l63.263,17.065c5.766,1.549,11.699-1.865,13.255-7.63c1.556-5.77-1.859-11.708-7.63-13.265c0,0-62.728-16.932-63.455-17.128
					c-1.798-0.602-2.841-2.503-2.34-4.357c0.519-1.925,2.5-3.064,4.424-2.544l54.13,14.601c5.77,1.556,11.708-1.859,13.264-7.628
					c1.556-5.77-1.859-11.708-7.628-13.265c-75.665-20.513-75.667-20.513-81.931-22.21c-2.367-0.638-7.462-1.964-8.004-3.333
					c-0.451-1.138,0.765-2.162,3.24-3.133c5.61-2.202,14.392-5.2,20.339-7.503c5.639-2.184,12.223-6.259,10.505-13.364
					c-1.631-6.757-9.617-9.981-16.096-7.458c0,0-44.812,15.585-60.352,20.851c-9.097,3.082-11.911,3.809-14.921,4.905
					c-11.471,4.179-12.793,7.881-15.743,18.814c-3.182,11.795-12.221,45.31-12.221,45.31c-6.575,24.375,22.357,32.179,34.707,35.51
					l90.17,24.322C202.875,392.903,207.434,390.282,208.628,385.852z"/>
			</g>
			<path d="M299.359,120.581c-24.294,0-39.713,27.088-43.355,27.088c-3.194,0-17.98-27.088-43.366-27.088
				c-24.692,0-44.856,20.366-46.176,45.025c-0.743,13.931,3.748,24.533,10.075,34.135c12.644,19.184,67.92,65.37,79.549,65.37
				c11.869,0,66.653-46.017,79.381-65.37c6.34-9.646,10.819-20.204,10.072-34.135C344.218,140.947,324.054,120.581,299.359,120.581"
				/>
		</g>
	</g>
</g>
<g id="Capa_3">
</g>
</svg>
