<?xml version="1.0" encoding="utf-8"?>
<!-- Generator: Adobe Illustrator 17.0.1, SVG Export Plug-In . SVG Version: 6.00 Build 0)  -->
<!DOCTYPE svg PUBLIC "-//W3C//DTD SVG 1.1//EN" "http://www.w3.org/Graphics/SVG/1.1/DTD/svg11.dtd">
<svg version="1.1" xmlns="http://www.w3.org/2000/svg" xmlns:xlink="http://www.w3.org/1999/xlink" x="0px" y="0px" width="512px"
	 height="512px" viewBox="0 0 512 512" enable-background="new 0 0 512 512" xml:space="preserve">
<g id="Artwork">
	<g id="Layer_5">
		<path d="M381.235,217.657c-26.397,0-43.145,29.428-47.105,29.428c-3.467,0-19.527-29.428-47.109-29.428
			c-26.828,0-48.734,22.125-50.168,48.917c-0.809,15.135,4.069,26.65,10.945,37.085c13.734,20.841,73.791,71.017,86.419,71.017
			c12.901,0,72.417-49.994,86.241-71.017c6.892-10.48,11.755-21.95,10.945-37.085C429.969,239.782,408.065,217.657,381.235,217.657"
			/>
		<path d="M233.604,313.014c-6.456-9.796-14.901-25.361-13.727-47.346c0.925-17.291,8.242-33.522,20.603-45.706
			c12.63-12.448,29.158-19.304,46.541-19.304c20.389,0,31.079,6.764,41.079,16.419c2.293,2.343,4.984,0.581,5.477-2.284
			c0.728-4.224,0.705-8.759,0.438-13.756c-1.869-34.895-30.397-63.712-65.341-63.712c-34.38,0-56.194,38.328-61.354,38.328
			c-4.514,0-25.433-38.328-61.357-38.328c-34.941,0-63.475,28.817-65.34,63.712c-1.053,19.713,5.3,34.712,14.256,48.301
			c17.888,27.145,96.107,92.496,112.557,92.496c5.477,0,17.409-6.93,31.623-17.205c0.756-0.546,1.942-1.878,0.436-3.833
			C236.399,317.241,235.6,316.042,233.604,313.014z"/>
	</g>
</g>
<g id="Capa_3">
</g>
</svg>
