<?xml version="1.0" encoding="utf-8"?>
<!-- Generator: Adobe Illustrator 17.0.1, SVG Export Plug-In . SVG Version: 6.00 Build 0)  -->
<!DOCTYPE svg PUBLIC "-//W3C//DTD SVG 1.1//EN" "http://www.w3.org/Graphics/SVG/1.1/DTD/svg11.dtd">
<svg version="1.1" xmlns="http://www.w3.org/2000/svg" xmlns:xlink="http://www.w3.org/1999/xlink" x="0px" y="0px" width="512px"
	 height="512px" viewBox="0 0 512 512" enable-background="new 0 0 512 512" xml:space="preserve">
<g id="Artwork">
	<g id="Layer_5">
		<path d="M330.197,188.556c-27.271,0-52.14,10.007-71.699,26.128c-0.333,0.274-0.517,0.071-0.624-0.02
			c-4.581-3.888-9.509-7.44-14.765-10.611c-2.051-1.254-1.134-2.564-0.892-3.09c0.717-1.558,1.12-3.288,1.12-5.115
			c0-6.798-5.511-12.309-12.308-12.309c0,0-1.14,0-1.52,0c-2.925,0-0.182-3.714-0.182-3.714l19.257-33.218
			c2.664-3.805,2.542-9.941-0.27-13.638l-16.255-26.627c-2.812-3.696-8.912-6.72-13.556-6.72h-70.662
			c-4.644,0-10.762,3.01-13.596,6.689l-16.176,26.202c-2.833,3.68-2.983,9.811-0.333,13.624l20.904,35.836
			c0,0,1.332,1.564-0.776,1.564c-0.641,0-2.564,0-2.564,0c-6.797,0-12.308,5.511-12.308,12.309c0,1.962,0.465,3.813,1.283,5.456
			c0.202,0.407,0.768,1.268-0.656,2.065c-32.82,19.806-53.498,54.909-53.498,95.958c0,62.337,50.714,113.052,113.051,113.052
			c27.656,0,53.023-9.983,72.69-26.533c0.449-0.379,1.768-0.786,2.429-0.215c19.812,17.141,44.541,26.293,71.907,26.293
			c61.582,0,111.683-50.102,111.683-111.684C441.88,238.657,391.779,188.556,330.197,188.556z M255.92,352.255
			c-10.211-14.835-16.437-32.679-16.437-52.016c0-20.405,6.776-39.254,18.19-54.426c0.257-0.341,1.095-0.564,1.549,0.06
			c10.882,14.979,16.943,33.571,16.943,53.452c0,19.695-6.156,37.978-16.642,53.03C258.951,353.178,256.977,353.791,255.92,352.255z
			 M90.178,299.326c0-51.277,41.717-92.994,92.994-92.994c22.074,0,42.124,8.048,58.339,20.628c1.927,1.196,1.654,3.362,1.183,3.955
			c-15.131,19.059-24.179,43.154-24.179,69.324c0,25.388,9.298,48.251,22.845,67.599c1.368,1.953,0.516,3.559-0.183,4.118
			c-15.914,12.735-36.083,20.364-58.004,20.364C131.895,392.32,90.178,350.603,90.178,299.326z M330.197,390.953
			c-21.557,0-41.554-7.245-56.96-20.169c-1.042-0.874-0.844-2.076-0.169-2.987c14.226-19.236,23.155-42.753,23.155-68.471
			c0-25.461-7.811-48.363-21.57-66.816c-0.614-0.824-1.175-3.053,0.456-4.295c15.323-11.665,34.386-18.69,55.089-18.69
			c50.019,0,90.713,40.693,90.713,90.714C420.911,350.259,380.216,390.953,330.197,390.953z"/>
	</g>
</g>
<g id="Capa_3">
</g>
</svg>
