<?xml version="1.0" encoding="utf-8"?>
<!-- Generator: Adobe Illustrator 17.0.1, SVG Export Plug-In . SVG Version: 6.00 Build 0)  -->
<!DOCTYPE svg PUBLIC "-//W3C//DTD SVG 1.1//EN" "http://www.w3.org/Graphics/SVG/1.1/DTD/svg11.dtd">
<svg version="1.1" xmlns="http://www.w3.org/2000/svg" xmlns:xlink="http://www.w3.org/1999/xlink" x="0px" y="0px" width="512px"
	 height="512px" viewBox="0 0 512 512" enable-background="new 0 0 512 512" xml:space="preserve">
<g id="Artwork">
	<g id="Layer_5">
		<path d="M373.95,257.735c-4.613-15.565-20.973-24.44-36.537-19.824c0,0-4.05,1.398-5.454,1.617
			c-1.696,0.268-9.949,2.922-14.761-0.762c-0.888-0.68-1.932-2.355-0.24-4.01c18.336-14.451,27.506-33.918,27.506-57.912
			c0-12.275-1.704-21.201-7.131-31.557c-1.263-2.709,0.543-3.477,1.442-3.941c8.365-4.311,14.036-12.66,14.036-22.258
			c0-14.018-12.094-25.379-27.009-25.379c-9.663,0-18.134,4.768-22.911,11.934c-0.579,0.873-2.06,2.547-5.148,0.902
			c-12.458-6.559-23.301-8.488-38.671-8.488c-14.81,0-25.843,2.088-37.986,8.209c-2.798,1.311-4.436-1.184-5.373-2.359
			c-4.923-6.19-12.78-10.197-21.638-10.197c-14.918,0-27.011,11.361-27.011,25.379c0,9.061,5.055,17.01,12.656,21.5
			c0.881,0.52,2.967,1.826,1.731,3.387c-5.622,10.506-7.77,20.361-7.77,32.869c0,24.354,9.604,44.227,28.419,58.68
			c2.082,1.686,0.813,3.051,0.048,3.646c-5.254,4.076-17.738,1.57-17.738,1.57l-9.441-2.988
			c-15.479-4.895-31.993,3.688-36.889,19.164c-4.894,15.477,3.686,31.992,19.163,36.889l4.613,1.459c0,0,2.85,0.977,2.641,4.096
			c-0.214,3.174-0.164,3.207-0.164,6.453c0,25.834,9.822,49.32,25.856,66.785c1.07,1.164,2.739,4.121,1.288,6.158
			c-2.98,4.188-4.166,8.572-4.116,14.105c0.129,14.17,11.721,25.555,25.892,25.426l31.694-0.285
			c6.99-0.064,14.99-7.498,17.886-7.498c2.452,0,11.33,7.85,18.631,7.783l31.695-0.285c14.171-0.129,25.554-11.723,25.426-25.893
			c-0.059-6.514-2.218-12.748-6.585-16.92c-2.271-2.168-0.648-4.438,0.235-5.48c14.52-17.125,23.307-39.461,23.307-63.896
			c0-3.984,0.041-5.432-0.414-9.293c-0.628-2.252,1.787-3.256,2.191-3.408C371.658,287.757,378.371,272.632,373.95,257.735z
			 M294.73,156.056c6.678,0,12.092,5.412,12.092,12.092c0,6.676-5.414,12.09-12.092,12.09c-6.679,0-12.092-5.414-12.092-12.09
			C282.639,161.468,288.052,156.056,294.73,156.056z M259.938,200.257c6.625,0,11.996,2.971,11.996,6.635
			c0,3.666-5.371,6.637-11.996,6.637c-6.626,0-11.996-2.971-11.996-6.637C247.942,203.228,253.312,200.257,259.938,200.257z
			 M225.144,156.056c6.678,0,12.092,5.412,12.092,12.092c0,6.676-5.414,12.09-12.092,12.09c-6.678,0-12.091-5.414-12.091-12.09
			C213.054,161.468,218.467,156.056,225.144,156.056z M306.458,319.798c-7.451,11.328-39.522,38.268-46.473,38.268
			c-6.804,0-39.167-27.037-46.568-38.268c-3.705-5.623-6.334-11.828-5.898-19.984c0.773-14.438,12.576-26.359,27.033-26.359
			c14.863,0,23.518,15.857,25.386,15.857c2.136,0,11.159-15.857,25.383-15.857c14.458,0,26.262,11.922,27.034,26.359
			C312.792,307.97,310.171,314.149,306.458,319.798z"/>
	</g>
</g>
<g id="Capa_3">
</g>
</svg>
