<?xml version="1.0" encoding="utf-8"?>
<!-- Generator: Adobe Illustrator 17.0.1, SVG Export Plug-In . SVG Version: 6.00 Build 0)  -->
<!DOCTYPE svg PUBLIC "-//W3C//DTD SVG 1.1//EN" "http://www.w3.org/Graphics/SVG/1.1/DTD/svg11.dtd">
<svg version="1.1" xmlns="http://www.w3.org/2000/svg" xmlns:xlink="http://www.w3.org/1999/xlink" x="0px" y="0px" width="512px"
	 height="512px" viewBox="0 0 512 512" enable-background="new 0 0 512 512" xml:space="preserve">
<g id="Artwork">
	<g id="Layer_5">
		<g>
			<path d="M286.955,247.168c-17.346,0-28.351,19.336-30.954,19.336c-2.278,0-12.832-19.336-30.956-19.336
				c-17.629,0-32.024,14.539-32.966,32.142c-0.531,9.945,2.674,17.514,7.192,24.369c9.025,13.695,48.488,46.666,56.787,46.666
				c8.478,0,47.585-32.852,56.67-46.666c4.528-6.887,7.725-14.424,7.192-24.369C318.978,261.707,304.585,247.168,286.955,247.168"/>
			<path d="M198.261,165.047c0,7.152-5.799,12.951-12.952,12.951h-13.762c-7.153,0-12.952-5.799-12.952-12.951v-45.334
				c0-7.154,5.799-12.953,12.952-12.953h13.762c7.153,0,12.952,5.799,12.952,12.953V165.047z"/>
			<path d="M353.405,165.047c0,7.152-5.799,12.951-12.952,12.951h-13.762c-7.153,0-12.952-5.799-12.952-12.951v-45.334
				c0-7.154,5.799-12.953,12.952-12.953h13.762c7.153,0,12.952,5.799,12.952,12.953V165.047z"/>
			<path d="M392.98,142.379c0,0-14.189,0-19.043,0c-3.813,0-3.532,3.309-3.532,3.309v19.359c0,16.515-13.436,29.951-29.952,29.951
				h-13.762c-16.516,0-29.952-13.437-29.952-29.951v-19.609c0,0,0.198-3.059-3.114-3.059c-18.766,0-55.518,0-75.063,0
				c-3.395,0-3.302,3.204-3.302,3.204v19.464c0,16.515-13.436,29.951-29.952,29.951h-13.762c-16.516,0-29.952-13.437-29.952-29.951
				v-19.63c0,0,0.093-3.038-2.97-3.038c-4.901,0-19.605,0-19.605,0c-6.198,0-11.265,5.07-11.259,11.27l0.214,233.822
				c0.006,6.197,5.082,11.27,11.28,11.27h273.49c6.198,0,11.274-5.072,11.279-11.27l0.215-233.822
				C404.245,147.449,399.179,142.379,392.98,142.379z M382.015,365.471c0,6.197-5.071,11.27-11.27,11.27h-229.49
				c-6.198,0-11.27-5.072-11.27-11.27V233.148c0-6.197,5.071-11.27,11.27-11.27h229.49c6.198,0,11.27,5.072,11.27,11.27V365.471z"/>
		</g>
	</g>
</g>
<g id="Capa_3">
</g>
</svg>
