<?xml version="1.0" encoding="utf-8"?>
<!-- Generator: Adobe Illustrator 17.0.1, SVG Export Plug-In . SVG Version: 6.00 Build 0)  -->
<!DOCTYPE svg PUBLIC "-//W3C//DTD SVG 1.1//EN" "http://www.w3.org/Graphics/SVG/1.1/DTD/svg11.dtd">
<svg version="1.1" xmlns="http://www.w3.org/2000/svg" xmlns:xlink="http://www.w3.org/1999/xlink" x="0px" y="0px" width="512px"
	 height="512px" viewBox="0 0 512 512" enable-background="new 0 0 512 512" xml:space="preserve">
<g id="Artwork">
	<g id="Layer_5">
		<g>
			<path d="M259.214,211.401c3.891,0,21.84-15.078,26.012-21.42c2.078-3.162,3.545-6.62,3.301-11.184
				c-0.434-8.082-7.041-14.754-15.133-14.754c-7.959,0-13.012,8.876-14.207,8.876c-1.047,0-5.891-8.876-14.209-8.876
				c-8.092,0-14.699,6.672-15.131,14.754c-0.244,4.564,1.229,8.038,3.301,11.184C237.29,196.267,255.403,211.401,259.214,211.401z"
				/>
			<path d="M69.729,129.174c0,64.684,0,190.125,0,253.5c0,3.333,1.764,5.232,5.059,5.232c37.871,0,277.838,0,362.334,0
				c4.166,0,5.148-2.086,5.148-5.896c0-32.873,0-194.096,0-251.836c0-6.08-4.982-6.08-4.982-6.08h-362
				C75.288,124.094,69.729,124.094,69.729,129.174z M149.673,355.868c-0.098-0.88,0.475-1.41,0.895-1.587
				c21.928-9.208,25.398-32.311,19.039-36.145c-9.518-5.739-17.008-17.5-19.238-25.08c-2.383-8.104-2.092-22.313-2.092-31.672
				c0,0-0.025-0.67,1.16-0.67c9.9,0,30.828,0.01,47.428,0.018c2.223,0,10.404-11.619,12.434-11.617
				c2.256,0-1.307,11.621,0.617,11.621c4.605,0.002,7.75,0.003,9.465,0.004c1.238,0,1.16,0.748,1.16,0.748
				c0,7.732,0.684,23.465-1.699,31.568c-2.23,7.58-9.275,18.858-19.238,25.08c-5.662,3.535-2.793,26.762,19.059,36.15
				c0.424,0.182,0.971,0.718,0.871,1.621c-0.295,2.66-4.1,8.46-7.963,14.167c-0.188,0.278-0.572,0.832-2.135,0.832h-48.938
				c-1.506,0-2.281-0.795-2.564-1.192C153.95,364.114,149.962,358.5,149.673,355.868z M311.556,321.357
				c-10.016-6.229-19.904-20.454-22.512-29.325c-2.619-8.895-2.59-24.548-2.568-35.977c0,0-0.033-1.48,1.334-1.48
				c9.617,0,23.904-0.012,38.324-0.023c2.065-0.002,11.586-12.701,13.643-12.703c2.105-0.001-3.254,12.693-1.185,12.691
				c2.146-0.001,4.267-0.002,6.344-0.004c2.061-0.002,11.529-12.7,13.488-12.701c2.096-0.002-3.33,12.693-1.387,12.691
				c3.684-0.001,7.061-0.003,10-0.002c1.781,0,1.6,1.547,1.6,1.547s1.961,25.791-1.623,35.963
				c-3.219,9.137-11.348,22.352-22.521,29.328c-4.277,2.67-6.395,8.584-5.813,16.227c0.76,9.962,6.148,23.157,18.414,32.917
				c0.168,0.135,0.154,0.4-0.555,0.4h-56.166c-1.084,0-1.023-0.498-0.707-0.751c12.012-9.599,17.324-22.389,18.096-32.082
				C318.38,330.286,316.118,324.192,311.556,321.357z M421.288,370.906c-9.26,0-23.391,0-37.041,0c-1.439,0-8.434-2.474-9.861-3.087
				c-18.031-7.748-22.805-22.546-23.838-26.897c-1.377-5.798-0.477-9.346,0.06-10.14c10.529-6.631,18.699-17.109,23.5-26.545
				c2.131-3.598,3.906-7.563,5.295-11.91c3.918-0.551,8.033-5.602,9.789-12.455c2.039-7.956,0.125-15.318-4.273-16.445
				c-0.666-0.17-2.148,0.492-2.148-1.995c-1.551-36.839-25.143-57.262-54.148-57.262c-24.543,0-45.283,16.007-52.023,43.245
				c-0.693,1.369-1.225,7.716-1.635,13.564c0,1.857-1.338,2.342-1.748,2.447c-4.398,1.127-6.311,8.489-4.273,16.445
				c1.566,6.111,5.01,10.792,8.516,12.121c0.242,1.121,0.512,2.195,0.811,3.21c3.234,10.993,14.613,27.765,27.311,35.657
				c0.494,0.441,1.586,3.241,0.733,8.359c-1.584,9.492-8.871,21.982-24.572,28.575c-1.449,0.609-6.898,3.111-8.451,3.111
				c-11.588,0-40.947,0-40.947,0c-1.875,0-1.512-0.559-1.348-0.846c3.969-6.899,7.531-16.61,9.992-30.188
				c4.201-23.179,24.799-143.133-55.771-143.133c-0.305,0-0.914,0-1.221,0c-83.473,0-59.971,119.954-55.77,143.133
				c2.396,13.229,5.932,22.699,9.889,29.451c0.32,0.545,1.135,1.583-0.803,1.583H90.456c0,0-3.727,0.101-3.727-3.899
				c0-55.167,0-164.524,0-220.666c0-4.667,4.559-5.247,4.559-5.247s246.125,0,328.168,0c4.832,0,5.814,0.413,5.814,4.247
				c0,51.325,0,196.077,0,221.673C425.271,369.541,424.788,370.906,421.288,370.906z"/>
		</g>
	</g>
</g>
<g id="Capa_3">
</g>
</svg>
