<?xml version="1.0" encoding="utf-8"?>
<!-- Generator: Adobe Illustrator 18.1.1, SVG Export Plug-In . SVG Version: 6.00 Build 0)  -->
<svg version="1.1" id="Capa_1" xmlns="http://www.w3.org/2000/svg" xmlns:xlink="http://www.w3.org/1999/xlink" x="0px" y="0px"
	 viewBox="0 0 612 792" enable-background="new 0 0 612 792" xml:space="preserve">
<path d="M448.9,233.1c-34.9-27-81.2-41.8-130.2-41.8s-95.3,14.8-130.2,41.8c-35.9,27.7-55.7,64.9-55.7,104.7
	c0,39.8,19.7,77,55.7,104.7c34.9,27,81.2,41.8,130.2,41.8s95.3-14.8,130.2-41.8c35.9-27.7,55.7-64.9,55.7-104.7
	C504.6,298,484.7,260.8,448.9,233.1z M356.7,454.4c-10.4,1.7-23.8,4.3-39.3,4.3c-15.9,0-28.9-2.6-38.7-4.2c-0.6-0.1-1.9-0.2-0.8-1
	c18.8-12.2,25.8-29.6,26.9-43.2c0.7-9.7-2-17.3-7.8-20.8c-12.4-7.8-24.7-25.5-28-36.5c-3.2-11.1-3.2-30.6-3.2-44.8
	c0,0,0-1.8,1.7-1.8c12,0,29.8,0,47.7,0c2.5,0,14.5-15.8,17-15.8c2.6,0-4.1,15.8-1.4,15.8c2.6,0,5.3,0,7.9,0
	c2.5,0,14.3-15.8,16.7-15.8c2.6,0-4.2,15.8-1.7,15.8c4.5,0,8.8,0,12.4,0c2.3,0,2,1.9,2,1.9s2.4,32.2-2,44.7
	c-4.1,11.4-14.1,27.9-28.1,36.5c-5.4,3.3-8,10.6-7.3,20.2c1.1,13.6,7.9,31.3,26.5,43.6C358.2,454,357.3,454.2,356.7,454.4z
	 M382.8,448.3c-4.7,1.1-6.5-0.5-7.8-1c-22.5-9.7-28.3-28.1-29.6-33.5c-1.7-7.2-0.6-11.6,0.1-12.7c13.1-8.2,23.3-21.3,29.3-33
	c2.6-4.4,4.9-9.4,6.6-14.8c4.9-0.7,10-6.9,12.2-15.5c2.5-9.9,0.1-19-5.3-20.4c-0.8-0.2-2.6,0.6-2.6-2.5
	c-1.9-45.9-31.3-71.2-67.4-71.2c-30.6,0-56.4,20-64.8,53.8c-0.8,1.7-1.6,9.6-2,16.9c0,2.3-1.7,2.9-2.2,3c-5.5,1.4-7.9,10.5-5.3,20.4
	c1.9,7.6,6.2,13.4,10.6,15.1c0.4,1.4,0.6,2.7,1,3.9c4.1,13.6,18.2,34.5,33.9,44.3c0.6,0.6,1.9,4.1,1,10.4
	c-1.9,11.8-11,27.4-30.6,35.6c-1.1,0.5-3.5,1.7-5.7,1c-64.2-19.8-95.3-58.6-95.3-110.3c0-66.5,71.7-120.6,159.9-120.6
	c88.2,0,159.9,54,159.9,120.6C478.5,387.9,443.1,434.5,382.8,448.3z M189,469.8c-3.5-0.6-6.9-1-10.3-1c-22,0-39.7,12.8-43.2,31.1
	c-3.9,21.3,13.6,42.6,39.1,47.2c3.5,0.6,6.9,1,10.3,1c22,0,39.7-12.8,43.2-31.1C232.1,495.6,214.5,474.4,189,469.8z M202.5,512.2
	c-1.1,5.6-8.6,9.8-17.6,9.8c-1.8,0-3.7-0.1-5.6-0.5c-12.2-2.3-19.5-10.8-18.3-17c1.1-5.6,8.6-9.8,17.6-9.8c1.8,0,3.7,0.1,5.6,0.5
	C196.4,497.6,203.7,506,202.5,512.2z M161,584.5c-2.1,11.4-15.8,18.4-30.5,15.6c-14.7-2.7-25-14.1-22.9-25.5s15.8-18.4,30.5-15.6
	C152.9,561.7,163.2,573.1,161,584.5z"/>
</svg>
