<?xml version="1.0" encoding="utf-8"?>
<!-- Generator: Adobe Illustrator 17.0.1, SVG Export Plug-In . SVG Version: 6.00 Build 0)  -->
<!DOCTYPE svg PUBLIC "-//W3C//DTD SVG 1.1//EN" "http://www.w3.org/Graphics/SVG/1.1/DTD/svg11.dtd">
<svg version="1.1" xmlns="http://www.w3.org/2000/svg" xmlns:xlink="http://www.w3.org/1999/xlink" x="0px" y="0px" width="512px"
	 height="512px" viewBox="0 0 512 512" enable-background="new 0 0 512 512" xml:space="preserve">
<g id="Artwork">
	<g id="Layer_5">
		<path d="M141.632,219.607V414.14c0,3.891,3.185,7.075,7.076,7.075h214.585c3.892,0,7.075-3.185,7.075-7.075V219.607
			c0-3.891-3.184-7.076-7.075-7.076c-5.719,0-5.698-0.586-5.688-2.103c0.033-4.51,0-18.039,0-18.039
			c0-56.024-45.58-101.604-101.605-101.604c-37.911,0-72.41,20.871-90.032,54.472c-3.521,6.716-0.934,15.017,5.783,18.539
			c6.717,3.521,15.018,0.934,18.539-5.784c12.864-24.525,38.042-39.764,65.71-39.764c40.882,0,74.143,33.26,74.143,74.142v17.448
			c0,0,0.169,2.693-2.489,2.693c-44.736,0-178.945,0-178.945,0C144.816,212.531,141.632,215.717,141.632,219.607z M191.102,305.126
			c0.958-17.874,15.571-32.635,33.468-32.634c17.613-0.001,28.787,19.633,31.43,19.633c2.313-0.001,13.027-19.633,31.429-19.634
			c17.896,0,32.512,14.761,33.471,32.636c0.538,10.097-2.717,17.78-7.304,24.74c-9.164,13.905-49.23,47.379-57.653,47.38
			c-8.608,0-48.314-33.353-57.535-47.38C193.808,322.875,190.563,315.224,191.102,305.126z"/>
	</g>
</g>
<g id="Capa_3">
</g>
</svg>
