<?xml version="1.0" encoding="utf-8"?>
<!-- Generator: Adobe Illustrator 17.0.1, SVG Export Plug-In . SVG Version: 6.00 Build 0)  -->
<!DOCTYPE svg PUBLIC "-//W3C//DTD SVG 1.1//EN" "http://www.w3.org/Graphics/SVG/1.1/DTD/svg11.dtd">
<svg version="1.1" xmlns="http://www.w3.org/2000/svg" xmlns:xlink="http://www.w3.org/1999/xlink" x="0px" y="0px" width="512px"
	 height="512px" viewBox="0 0 512 512" enable-background="new 0 0 512 512" xml:space="preserve">
<g id="Artwork">
	<g id="Layer_5">
		<path d="M439.023,215.561c-7.167-16.442-20.079-29.093-36.355-35.623c-6.231-2.5-12.97-3.768-20.029-3.768
			c-16.152,0-30.834,6.585-40.233,11.067c-4.891-13.588-14.724-37.383-38.995-47.119c-7.826-3.14-16.075-4.732-24.516-4.732
			c-26.851,0-51.612,15.952-63.083,40.638c-0.623,1.339-1.193,2.667-1.716,3.985c-0.615,1.546-0.874,4.201-3.684,5.109
			c-19.69,4.592-32.333,23.33-39.397,35.08c-9.349-6.874-24.561-16.844-43.264-16.844c-3.52,0-7.046,0.363-10.479,1.079
			c-16.008,3.341-29.922,12.846-39.18,26.766c-9.094,13.675-12.735,30.121-10.251,46.311c3.183,20.737,14.192,33.713,22.195,41.667
			c10.802,10.738,35.048,25.468,54.137,35.672c15.206,8.128,42.637,21.765,55.499,21.766c0.001,0,0.001,0,0.002,0
			c1.335,0,2.558-0.119,3.739-0.366c3.361-0.701,13.588-2.835,44.151-41.24c3.026-3.803,5.266-6.666,8.435-10.925
			c0.806-1.206,1.269-0.742,1.435-0.493c12.747,18.943,18.728,21.345,21.142,22.313c2.506,1.006,5.521,1.494,9.216,1.495
			c0.001,0,0.003,0,0.004,0c24.73,0,98.854-24.929,122.028-41.04c10.825-7.526,24.169-18.867,31.336-39.93
			C446.827,249.786,446.067,231.721,439.023,215.561z M263.867,270.548c-1.022,2.59-2.585,5.919-4.828,9.639
			c-0.692,1.148-1.375,0.602-1.496,0.375c-12.886-23.978-22.828-47.165-25.12-58.407c-1.247-6.113-1.813-10.102-1.622-15.275
			c0.045-1.669,1.093-1.363,1.619-1.275c16.059,2.671,29.954,15.14,34.32,31.605C269.638,248.135,268.778,258.105,263.867,270.548z
			 M231.862,319.398c-17.162,21.811-28.864,32.758-32.945,35.159c-4.714-0.603-19.869-6.008-44.441-19.147
			c-21.884-11.703-41.547-24.496-48.931-31.836c-9.468-9.411-14.241-18.204-15.96-29.401c-3.401-22.167,11.035-43.791,32.18-48.203
			c1.958-0.408,3.972-0.615,5.985-0.615c13.531,0,25.758,9.189,33.064,14.681c4.961,3.729,8.24,6.193,12.919,6.192
			c0.002,0,0.005,0,0.007,0c0.808,0,1.615-0.083,2.396-0.246c5.867-1.225,8.603-5.827,12.389-12.198
			c4.147-6.978,10.397-17.486,19.483-23.578c0.271-0.182,1.086-0.744,0.897,1.52c0.162,6.446,0.997,10.107,1.96,14.825
			c3.426,16.803,17.104,45.699,28.762,67.139c1.699,3.125,2.572,4.717,4.137,7.473c0.705,1.33,0.369,1.88,0.174,2.152
			C240.197,308.547,236.125,313.982,231.862,319.398z M420.335,259.341c-4.035,11.858-10.934,20.518-23.069,28.955
			c-19.455,13.525-89.024,37.104-109.47,37.103c-0.418,0-0.743-0.013-0.986-0.029c-2.573-2.104-7.385-7.812-15.326-20.624
			c-0.846-1.534-0.581-1.844-0.436-2.066c5.799-8.904,10.651-17.389,13.282-24.053c4.498-11.398,8.981-27.046,3.675-47.056
			c-6.648-25.072-23.612-42.806-48.085-46.934c-4.157-0.759-2.615-2.391-2.138-3.213c8.524-14.73,24.225-24.037,41.112-24.037
			c5.622,0,11.114,1.061,16.325,3.15c16.831,6.752,23.478,25.603,27.45,36.866c2.418,6.855,4.164,11.809,9.741,14.046
			c1.448,0.581,2.999,0.876,4.612,0.875c0.001,0,0.002,0,0.003,0c3.95,0,7.425-1.668,13.183-4.431
			c8.069-3.871,20.264-9.723,32.43-9.723c4.3,0,8.172,0.715,11.837,2.186C416.762,209.296,428.363,235.757,420.335,259.341z"/>
	</g>
</g>
<g id="Capa_3">
</g>
</svg>
