<?xml version="1.0" encoding="utf-8"?>
<!-- Generator: Adobe Illustrator 17.0.1, SVG Export Plug-In . SVG Version: 6.00 Build 0)  -->
<!DOCTYPE svg PUBLIC "-//W3C//DTD SVG 1.1//EN" "http://www.w3.org/Graphics/SVG/1.1/DTD/svg11.dtd">
<svg version="1.1" xmlns="http://www.w3.org/2000/svg" xmlns:xlink="http://www.w3.org/1999/xlink" x="0px" y="0px" width="512px"
	 height="512px" viewBox="0 0 512 512" enable-background="new 0 0 512 512" xml:space="preserve">
<g id="Artwork">
	<g id="Layer_5">
		<path d="M363.294,212.532c-5.129,0-5.689-1.898-5.689-3.58c0-5.709,0-16.561,0-16.561c0-56.027-45.578-101.607-101.604-101.607
			c-56.024,0-101.605,45.58-101.605,101.607c0,0,0,13.363,0,17.809c0,1.412-0.494,2.332-5.688,2.332
			c-3.892,0-7.076,3.184-7.076,7.076V414.14c0,3.893,3.185,7.076,7.076,7.076h214.586c3.891,0,7.074-3.184,7.074-7.076V219.608
			C370.368,215.716,367.185,212.532,363.294,212.532z M313.595,329.868c-9.223,14.027-48.928,47.379-57.535,47.379
			c-8.424,0-48.49-33.475-57.654-47.379c-4.586-6.961-7.841-14.645-7.304-24.742c0.959-17.873,15.573-32.635,33.472-32.635
			c18.4,0.002,29.117,19.633,31.428,19.635c2.645,0,13.816-19.635,31.43-19.633c17.896-0.002,32.512,14.76,33.469,32.633
			C321.439,315.224,318.194,322.876,313.595,329.868z M326.669,212.532c-35.48,0-141.929,0-141.929,0s-2.882,0.291-2.882-2.363
			c0-4.443,0-17.777,0-17.777c0-40.883,33.261-74.143,74.142-74.143c40.882,0,74.142,33.26,74.142,74.143v16.758
			C330.142,209.149,330.803,212.532,326.669,212.532z"/>
	</g>
</g>
<g id="Capa_3">
</g>
</svg>
