<?xml version="1.0" encoding="utf-8"?>
<!-- Generator: Adobe Illustrator 17.0.1, SVG Export Plug-In . SVG Version: 6.00 Build 0)  -->
<!DOCTYPE svg PUBLIC "-//W3C//DTD SVG 1.1//EN" "http://www.w3.org/Graphics/SVG/1.1/DTD/svg11.dtd">
<svg version="1.1" xmlns="http://www.w3.org/2000/svg" xmlns:xlink="http://www.w3.org/1999/xlink" x="0px" y="0px" width="512px"
	 height="512px" viewBox="0 0 512 512" enable-background="new 0 0 512 512" xml:space="preserve">
<g id="Artwork">
	<g id="Layer_5">
		<path d="M210.164,132.89h91.673c11.289,0,20.525,7.97,20.525,17.709c0,9.739,5.533,17.708,12.297,17.708
			c6.763,0,12.296-9.236,12.296-20.525v-26.863c0-11.29-9.236-20.527-20.525-20.527H185.57c-11.289,0-20.525,9.237-20.525,20.527
			v270.166c0,11.288,9.236,20.525,20.525,20.525H326.43c11.289,0,20.525-9.237,20.525-20.525V235.561
			c0-11.288-3.702-20.525-16.4-20.525c-6.909,0-120.391,0-120.391,0c-11.288,0-20.524-9.236-20.524-20.525v-41.095
			C189.64,142.128,198.876,132.89,210.164,132.89z M203.318,307.162c0.777-14.511,12.64-26.492,27.169-26.492
			c14.936,0,23.637,15.937,25.516,15.937c2.142,0,11.214-15.937,25.508-15.937c14.53,0,26.394,11.982,27.17,26.492
			c0.439,8.195-2.196,14.407-5.927,20.083c-7.487,11.386-39.721,38.46-46.705,38.46c-6.841,0-39.364-27.174-46.802-38.46
			C205.523,321.595,202.881,315.357,203.318,307.162z"/>
	</g>
</g>
<g id="Capa_3">
</g>
</svg>
