<?xml version="1.0" encoding="utf-8"?>
<!-- Generator: Adobe Illustrator 17.0.1, SVG Export Plug-In . SVG Version: 6.00 Build 0)  -->
<!DOCTYPE svg PUBLIC "-//W3C//DTD SVG 1.1//EN" "http://www.w3.org/Graphics/SVG/1.1/DTD/svg11.dtd">
<svg version="1.1" xmlns="http://www.w3.org/2000/svg" xmlns:xlink="http://www.w3.org/1999/xlink" x="0px" y="0px" width="512px"
	 height="512px" viewBox="0 0 512 512" enable-background="new 0 0 512 512" xml:space="preserve">
<g id="Artwork">
	<g id="Layer_5">
		<path d="M372.323,150.949c-19.924,0-32.568,22.216-35.559,22.216c-2.62,0-14.746-22.216-35.567-22.216
			c-20.251,0-36.79,16.7-37.87,36.931c-0.613,11.422,3.073,20.116,8.264,27.993c10.367,15.731,55.703,53.611,65.241,53.611
			c9.737,0,54.665-37.739,65.104-53.611c5.203-7.913,8.874-16.571,8.262-27.993C409.116,167.649,392.578,150.949,372.323,150.949z"
			/>
	</g>
	<path d="M344.756,469.459l-42.356-59.07c-2.138-2.99-1.252-3.018-0.975-3.217c1.588-1.133,2.587-2.672,2.587-4.377v-13.662
		c0-3.457-4.029-6.287-8.952-6.287h-8.743c-1.317,0-1.425-1.209-1.571-1.875l-20.431-93.383c-0.057-0.469-0.372-0.996,0.802-1.142
		c5.275-0.895,9.23-4.238,9.23-8.207v-18.365c0-4.648-5.415-8.451-12.034-8.451h-4.051c-1.045,0-1.038-0.678-1.099-1.02
		c-4.479-25.666-9.673-69.059-13.456-103.072c-0.026-0.227-0.133-0.674,0.388-0.674h3.077c3.088,0,5.614-1.967,5.614-4.367v-9.492
		c0-2.402-2.526-4.369-5.614-4.369h-4.79c-0.835,0-0.815-0.688-0.851-1.029c-1.907-17.791-3.11-29.865-3.11-29.865
		c0.042-1.457-2.065-2.676-4.618-2.676c-2.595,0-4.703,1.219-4.703,2.676c0,0-1.099,11.457-3.021,29.809
		c0,0,0.049,1.086-1.372,1.086c-1.005,0-4.021,0-4.021,0c-3.087,0-5.614,1.967-5.614,4.369v9.492c0,2.4,2.527,4.367,5.614,4.367
		h2.769c0.564,0,0.525,0.412,0.502,0.619c-3.699,34.063-8.798,77.539-13.259,103.166c-0.057,0.33-0.028,0.98-1.157,0.98h-3.995
		c-6.618,0-12.033,3.803-12.033,8.451v12.135c0,0.031-0.005,0.063-0.005,0.094c0,0.021,0.005,0.043,0.005,0.063v6.074
		c0,3.656,3.357,6.779,8.01,7.951c1.697,0.35,2.171,0.555,2.127,0.914L183.147,381c-0.143,0.656-0.506,1.846-1.682,1.846H172.8
		c-4.923,0-8.953,2.83-8.953,6.287v13.662c0,1.996,0.48,3.199,2.56,4.354c0.977,0.666-0.275,2.277-0.993,3.279l-42.312,59.029
		c-1.611,2.248-0.223,4.088,3.086,4.088h46.104c3.309,0,6.225-2.1,6.481-4.668c0,0-5.564-44.691,55.119-45.252
		c60.753,0.56,55.188,45.252,55.188,45.252c0.255,2.568,3.172,4.668,6.481,4.668h46.11
		C344.98,473.545,346.369,471.705,344.756,469.459z M215.379,319.328h37.102c2.207,0,4.197,1.397,4.426,3.104l7.2,53.996
		c0.229,1.709-1.391,3.103-3.597,3.103H207.35c-2.206,0-3.824-1.395-3.597-3.103l7.201-53.996
		C211.182,320.725,213.173,319.328,215.379,319.328z"/>
</g>
<g id="Capa_3">
</g>
</svg>
