<?xml version="1.0" encoding="utf-8"?>
<!-- Generator: Adobe Illustrator 17.0.1, SVG Export Plug-In . SVG Version: 6.00 Build 0)  -->
<!DOCTYPE svg PUBLIC "-//W3C//DTD SVG 1.1//EN" "http://www.w3.org/Graphics/SVG/1.1/DTD/svg11.dtd">
<svg version="1.1" xmlns="http://www.w3.org/2000/svg" xmlns:xlink="http://www.w3.org/1999/xlink" x="0px" y="0px" width="512px"
	 height="512px" viewBox="0 0 512 512" enable-background="new 0 0 512 512" xml:space="preserve">
<g id="Artwork">
	<g id="Layer_5">
		<path d="M468.07,285.795c-8.917-22.558-34.038-35.234-57.035-27.537c-0.462,0.154-0.916,0.322-1.361,0.498
			c-0.638,0.251-2.049,0.858-2.05-0.908c-1.474-14.575-4.314-28.365-8.54-42.438c-3.656-12.177-8.449-23.233-13.982-32.75
			c2.542-20.59-4.071-42.095-19.878-57.9c-27.233-27.235-71.387-27.235-98.62,0c-19.819,19.815-25.201,48.591-16.176,73.288
			c0.383,1.047,1.284,2.901-0.757,5.101c-21.005,21.005-66.725,66.724-74.505,74.503c-1.451,1.451-3.151-0.143-3.151-0.143
			l-13.895-13.896c-5.442-5.441-14.267-5.442-19.708,0c-5.444,5.442-5.444,14.267-0.001,19.708l13.829,13.829
			c0,0,2.033,1.394,0.055,3.372c-1.925,1.926-6.43,6.43-8.606,8.607c-1.235,1.234-2.453-0.008-2.453-0.008l-14.313-14.313
			c-5.441-5.441-14.265-5.443-19.707,0c-5.442,5.442-5.442,14.267-0.001,19.709l14.181,14.18c0,0,1.374,1.35-0.032,2.757
			c-2.523,2.523-6.666,6.667-9.006,9.007c-1.121,1.121-2.404-0.231-2.404-0.231l-14.225-14.226c-5.442-5.441-14.267-5.441-19.708,0
			c-5.442,5.443-5.443,14.267,0,19.708c0,0,9.284,9.286,14.159,14.158c1.514,1.517,0.166,2.603,0.166,2.603
			c-11.066,11.066-2.366,20.307,8.698,31.371c11.065,11.066,20.307,19.766,31.372,8.701c0,0,116.872-116.873,160.761-160.76
			c0.626-0.627,1.689-1.922,3.846-1.174c5.836,2.025,9.877,2.58,15.973,3.008c0.719,0.051,2.055-0.066,2.579,1.408
			c4.159,12.99,9.469,24.588,17.733,37.9c0.865,1.484-0.326,2.125-1.023,2.359c-22.991,7.695-35.422,32.942-28.961,56.32
			c3.645,13.201,11.133,21.671,20.023,28.644c17.746,13.917,83.613,39.696,94.441,36.071c11.053-3.699,47.72-63.619,53.543-85.605
			C472.228,309.755,473.107,298.531,468.07,285.795z M381.032,220.83c5.202,17.324,8.425,36.91,8.886,53.568
			c0.019,0.691-0.022,1.826-0.393,2.769c-6.173,9.893-8.488,19.18-10.418,19.827c-1.814,0.605-9.299-6.287-21.374-10.383
			c-1.353-0.373-2.32-1.632-2.738-2.193c-8.526-11.474-16.511-25.166-22.12-41.22c-0.232-1.372,0.589-1.637,1.125-1.78
			c11.438-3.057,22.25-9.064,31.224-18.039c4.188-4.186,7.714-8.779,10.61-13.645c0.279-0.469,0.632-1.306,1.484,0.273
			C378.905,213.951,379.713,216.438,381.032,220.83z M328.147,179.979c-0.785-0.176-0.742-0.807-0.639-1.137
			c2.202-6.924,5.571-11.51,9.548-12.703c0.787-0.236,1.591-0.352,2.456-0.352c2.594,0,5.529,0.992,8.635,2.872
			c0.246,0.149,0.694,0.403,0.403,1.073c-0.943,1.777-1.823,2.839-3.32,4.336C340.321,178.977,334.705,180.588,328.147,179.979z
			 M315.913,144.752c8.097-8.096,21.222-8.096,29.316,0c1.064,1.063,1.282,1.204,2.066,2.417c0.505,0.61-0.094,0.792-0.489,0.692
			c-2.436-0.605-4.874-0.922-7.294-0.922c-2.691,0-5.341,0.385-7.877,1.146c-8.135,2.444-14.619,8.447-19.05,17.41
			c-0.35,0.707-0.794,2.193-1.664,0.467C307.626,158.381,309.715,150.951,315.913,144.752z"/>
	</g>
</g>
<g id="Capa_3">
</g>
</svg>
