<?xml version="1.0" encoding="utf-8"?>
<!-- Generator: Adobe Illustrator 17.0.1, SVG Export Plug-In . SVG Version: 6.00 Build 0)  -->
<!DOCTYPE svg PUBLIC "-//W3C//DTD SVG 1.1//EN" "http://www.w3.org/Graphics/SVG/1.1/DTD/svg11.dtd">
<svg version="1.1" xmlns="http://www.w3.org/2000/svg" xmlns:xlink="http://www.w3.org/1999/xlink" x="0px" y="0px" width="512px"
	 height="512px" viewBox="0 0 512 512" enable-background="new 0 0 512 512" xml:space="preserve">
<g id="Artwork">
	<g id="Layer_5">
		<g>
			<circle cx="256.241" cy="309.031" r="20.15"/>
			<circle cx="327.521" cy="223.908" r="29.465"/>
			<path d="M427.556,203.811c-2.529-47.25-41.16-86.27-88.477-86.27c-46.555,0-76.09,51.899-83.078,51.899
				c-6.111,0-34.438-51.899-83.082-51.899c-47.313,0-85.947,39.02-88.476,86.27c-1.426,26.691,7.177,47.001,19.304,65.402
				C127.97,305.971,233.885,394.46,256.156,394.46c22.753,0,127.713-88.17,152.095-125.247
				C420.405,250.73,428.982,230.502,427.556,203.811z M294.343,317.702l-3.717,10.073c-0.42,1.144-1.759,1.996-2.973,1.894
				l-2.926-0.247c-1.212-0.102-4.189,2.18-5.037,3.008c-0.848,0.827-1.379,2.488-1.181,3.691l0.483,2.943
				c0.197,1.203-0.547,2.604-1.653,3.115l-9.751,4.496c-1.107,0.51-2.656,0.165-3.441-0.766l-1.926-2.28
				c-0.787-0.932-2.425-1.604-3.637-1.495l-2.327,0.089c-1.219-0.016-2.797,0.782-3.509,1.772l-1.561,2.178
				c-0.712,0.991-2.227,1.455-3.372,1.034l-10.076-3.717c-1.144-0.422-1.994-1.761-1.892-2.976l0.225-2.67
				c0.102-1.214-0.58-2.846-1.516-3.625l-1.73-1.601c-0.851-0.871-2.533-1.423-3.736-1.225l-2.849,0.469
				c-1.201,0.198-2.604-0.546-3.113-1.653l-4.498-9.753c-0.51-1.107-0.165-2.655,0.767-3.441l2.206-1.863
				c0.932-0.785,1.605-2.422,1.499-3.636l-0.093-2.584c0.023-1.218-0.768-2.797-1.758-3.508l-2.037-1.461
				c-0.988-0.712-1.455-2.229-1.033-3.373l3.717-10.076c0.42-1.144,1.761-1.994,2.976-1.892l2.616,0.221
				c1.213,0.103,2.84-0.569,3.612-1.492c0.773-0.924,2.906-4.135,2.709-5.337l-0.484-2.945c-0.197-1.201,0.548-2.604,1.655-3.113
				l9.751-4.497c1.106-0.51,2.655-0.166,3.442,0.766l1.925,2.279c0.784,0.933,4.448,1.403,5.589,1.406
				c1.145,0.004,2.66-0.802,3.37-1.792l1.678-2.34c0.712-0.988,2.228-1.455,3.372-1.032l10.074,3.717
				c1.143,0.421,1.996,1.761,1.895,2.975l-0.22,2.573c-0.102,1.215,0.589,2.836,1.536,3.604l2.055,1.867
				c0.857,0.867,2.543,1.413,3.746,1.215l3.039-0.5c1.203-0.197,2.605,0.547,3.115,1.653l4.498,9.753
				c0.509,1.107,0.165,2.656-0.766,3.442l-2.355,1.988c-0.93,0.787-1.607,2.423-1.504,3.637l0.088,2.543
				c-0.022,1.218,0.767,2.797,1.758,3.509l2.242,1.608C294.3,315.043,294.765,316.558,294.343,317.702z M384.454,231.887
				c0,1.783-1.406,3.629-3.123,4.102l-4.206,1.161c-1.718,0.474-3.614,2.235-4.213,3.914l-1.306,3.145
				c-0.767,1.609-0.674,4.193,0.205,5.744l1.938,3.408c0.879,1.551,0.567,3.85-0.693,5.109l-11.103,11.104
				c-1.262,1.26-3.561,1.571-5.11,0.691l-3.408-1.935c-1.55-0.879-4.135-0.973-5.742-0.206l-3.183,1.316
				c-1.679,0.597-3.44,2.491-3.913,4.21l-1.123,4.069c-0.473,1.718-2.318,3.124-4.102,3.124h-15.704
				c-1.782,0-3.627-1.406-4.101-3.124l-1.123-4.069c-0.473-1.718-2.233-3.616-3.91-4.218l-3.488-1.458
				c-1.604-0.777-4.185-0.692-5.736,0.187l-3.186,1.809c-1.551,0.879-3.849,0.568-5.11-0.692l-11.104-11.104
				c-1.26-1.259-1.57-3.558-0.691-5.109l1.896-3.337c0.881-1.55,0.984-4.121,0.231-5.713c-0.753-1.592-3.711-6.391-5.429-6.864
				l-4.206-1.161c-1.717-0.473-3.123-2.319-3.123-4.102v-15.702c0-1.782,1.406-3.627,3.123-4.101l4.206-1.161
				c1.718-0.473,4.587-5.049,5.29-6.562c0.705-1.516,0.562-4.022-0.318-5.573l-2.078-3.659c-0.879-1.55-0.567-3.849,0.692-5.109
				l11.104-11.102c1.26-1.26,3.56-1.571,5.109-0.691l3.283,1.864c1.551,0.879,4.126,0.955,5.725,0.167l3.737-1.584
				c1.675-0.608,3.433-2.512,3.907-4.23l1.198-4.343c0.475-1.718,2.319-3.124,4.102-3.124h15.704c1.783,0,3.629,1.405,4.102,3.124
				l1.199,4.343c0.474,1.718,2.232,3.619,3.91,4.224l3.428,1.439c1.604,0.778,4.185,0.696,5.734-0.184l3.508-1.991
				c1.551-0.878,3.85-0.567,5.109,0.692l11.102,11.102c1.261,1.26,1.572,3.559,0.693,5.109l-2.118,3.73
				c-0.879,1.551,0.327,6.901,0.908,8.533c0.579,1.63,2.46,3.354,4.178,3.827l4.206,1.161c1.717,0.474,3.123,2.319,3.123,4.101
				V231.887z"/>
		</g>
	</g>
</g>
<g id="Capa_3">
</g>
</svg>
