<?xml version="1.0" encoding="utf-8"?>
<!-- Generator: Adobe Illustrator 17.0.1, SVG Export Plug-In . SVG Version: 6.00 Build 0)  -->
<!DOCTYPE svg PUBLIC "-//W3C//DTD SVG 1.1//EN" "http://www.w3.org/Graphics/SVG/1.1/DTD/svg11.dtd">
<svg version="1.1" xmlns="http://www.w3.org/2000/svg" xmlns:xlink="http://www.w3.org/1999/xlink" x="0px" y="0px" width="512px"
	 height="512px" viewBox="0 0 512 512" enable-background="new 0 0 512 512" xml:space="preserve">
<g id="Artwork">
	<g id="Layer_5">
		<g>
			<path d="M269.555,139.824c-7.207,0-11.781,8.036-12.861,8.036c-0.947,0-5.334-8.036-12.865-8.036
				c-7.325,0-13.307,6.042-13.698,13.357c-0.221,4.132,1.111,7.277,2.989,10.126c3.75,5.691,20.148,19.392,23.598,19.392
				c3.522,0,19.773-13.651,23.549-19.392c1.881-2.861,3.21-5.994,2.988-10.126C282.862,145.866,276.881,139.824,269.555,139.824"/>
			<path d="M227.57,100.521c-5.195,0-8.49,5.791-9.27,5.791c-0.683,0-3.844-5.791-9.271-5.791c-5.279,0-9.59,4.353-9.872,9.626
				c-0.159,2.978,0.801,5.245,2.153,7.297c2.703,4.102,14.521,13.976,17.007,13.976c2.539,0,14.251-9.838,16.972-13.976
				c1.355-2.063,2.313-4.319,2.153-7.297C237.16,104.874,232.85,100.521,227.57,100.521"/>
			<path d="M301.903,100.521c-5.194,0-8.491,5.791-9.27,5.791c-0.682,0-3.842-5.791-9.27-5.791c-5.28,0-9.591,4.353-9.873,9.626
				c-0.159,2.978,0.801,5.245,2.154,7.297c2.703,4.102,14.521,13.976,17.006,13.976c2.539,0,14.25-9.838,16.972-13.976
				c1.356-2.063,2.313-4.319,2.153-7.297C311.494,104.874,307.183,100.521,301.903,100.521"/>
			<path d="M245.34,206.66c-1.18-7.706-2.733-12.419-7.184-13.708l-77.749-22.518c-0.642-0.186-1.295-0.28-1.941-0.28
				c-3.727,0-7.147,3.071-11.457,8.027c-3.354,3.86-7.536,9.308-12.093,15.754c-9.083,12.853-17.312,26.286-20.012,32.667
				c-6.069,14.335-4.653,31.262,3.986,47.665c6.396,12.146,19.343,24.885,33.303,32.868c-1.354,6.282-4.832,19.739-9.328,35.071
				c-7.825,26.691-11.874,35.842-12.879,37.319c-0.506,0.288-2.418,0.884-6.569,0.884c-3.213,0-6.981-0.37-10.898-1.07l-0.295-0.053
				c-0.816-0.146-1.771-0.367-2.78-0.601c-2.543-0.589-5.425-1.256-8.199-1.256c-6.405,0-8.825,3.715-9.729,6.831
				c-0.245,0.847-0.298,2.177,0.848,3.701c6.518,8.673,64.362,26.016,82,26.016c1.843,0,6.738,0,7.746-3.479
				c2.64-9.115-6.633-12.356-12.173-14.293c-0.979-0.342-1.903-0.665-2.675-0.98l-0.272-0.11
				c-10.058-4.099-14.341-8.101-14.866-9.178c-0.066-1.801,1.356-11.706,8.805-38.566c4.143-14.941,8.232-28.177,10.402-34.434
				c31.063,1.873,70.107-16.889,75.269-48.194c1.127-6.834,1.35-22.586,0.544-38.308C246.734,218.54,246.111,211.7,245.34,206.66z
				 M235.725,236.834c-0.225,2.083-1.314,2.214-1.963,1.98c-5.762-2.082-11.756-3.098-18.216-3.098
				c-9.543,0-18.563,2.201-27.287,4.329c-7.902,1.928-15.367,3.749-22.509,3.75c-9.005,0-20.859-2.514-32.697-22.124l-0.406-0.669
				c-0.322-0.613,0.05-2.018,0.831-3.297c8.42-13.847,19.815-29.134,25.125-34.519c0.523-0.53,1.269-0.439,1.678-0.319
				c17.016,4.968,64.591,18.771,71.784,20.849c0.602,0.174,0.845,0.864,0.845,0.864C234.637,209.94,235.967,220.676,235.725,236.834
				z"/>
			<path d="M420.485,384.262c-0.903-3.116-3.323-6.831-9.729-6.831c-2.774,0-5.656,0.667-8.198,1.256
				c-1.011,0.233-1.965,0.455-2.781,0.601l-0.295,0.053c-3.917,0.7-7.685,1.07-10.898,1.07c-4.199,0-6.107-0.61-6.55-0.862
				c-1.027-1.505-5.076-10.658-12.898-37.341c-4.496-15.331-7.974-28.789-9.328-35.07c13.96-7.983,26.906-20.723,33.303-32.868
				c8.64-16.403,10.056-33.331,3.987-47.665c-2.7-6.382-10.93-19.815-20.013-32.668c-4.557-6.447-8.738-11.895-12.093-15.755
				c-4.31-4.956-7.729-8.027-11.457-8.027c-0.646,0-1.3,0.094-1.941,0.28l-77.749,22.518c-4.451,1.289-6.005,6.002-7.185,13.708
				c-0.771,5.04-1.395,11.88-1.802,19.779c-0.807,15.721-0.583,31.473,0.544,38.307c5.161,31.306,44.212,50.077,75.269,48.194
				c2.17,6.256,6.259,19.493,10.402,34.434c7.46,26.901,8.875,36.795,8.81,38.538c-0.568,1.141-4.857,5.125-14.868,9.205
				l-0.278,0.113c-0.768,0.314-1.693,0.637-2.672,0.979c-5.54,1.937-14.813,5.178-12.173,14.293
				c1.008,3.479,5.903,3.479,7.746,3.479c17.638,0,75.482-17.343,82-26.016C420.783,386.44,420.73,385.11,420.485,384.262z
				 M379.485,219.259c0.327,0.585,0.239,1.13,0.114,1.338c-0.081,0.132-0.652,1.074-0.652,1.074
				c-11.837,19.607-23.692,22.122-32.698,22.124c-7.142,0-14.607-1.821-22.512-3.75c-8.723-2.128-17.742-4.329-27.283-4.329
				c-6.875,0-13.221,1.152-19.325,3.512c-0.276,0.107-0.841,0.053-0.841-0.76c-0.231-15.553,1.185-28.2,2.83-33.989
				c0.064-0.227,0.049-0.521,0.798-0.816l71.891-20.822c1.069-0.341,1.297,0.054,1.488,0.243
				C358.582,188.303,371.01,205.322,379.485,219.259z"/>
		</g>
	</g>
</g>
<g id="Capa_3">
</g>
</svg>
