<?xml version="1.0" encoding="utf-8"?>
<!-- Generator: Adobe Illustrator 17.0.1, SVG Export Plug-In . SVG Version: 6.00 Build 0)  -->
<!DOCTYPE svg PUBLIC "-//W3C//DTD SVG 1.1//EN" "http://www.w3.org/Graphics/SVG/1.1/DTD/svg11.dtd">
<svg version="1.1" xmlns="http://www.w3.org/2000/svg" xmlns:xlink="http://www.w3.org/1999/xlink" x="0px" y="0px" width="512px"
	 height="512px" viewBox="0 0 512 512" enable-background="new 0 0 512 512" xml:space="preserve">
<g id="Artwork">
	<g id="Layer_5">
		<g>
			<path d="M288.685,221.134c-18.314,0-29.937,20.42-32.683,20.42c-2.408,0-13.554-20.42-32.69-20.42
				c-18.614,0-33.814,15.352-34.809,33.941c-0.56,10.5,2.825,18.492,7.595,25.73c9.531,14.462,51.2,49.277,59.966,49.277
				c8.947,0,50.245-34.689,59.839-49.277c4.78-7.271,8.155-15.23,7.593-25.73C322.5,236.486,307.3,221.134,288.685,221.134z"/>
			<path d="M364.553,116.48c0-7.409-3.078-14.171-8.444-18.55c-5.366-4.379-12.607-6.039-19.811-4.566l-163.949,32.43
				c-13.963,2.857-24.902,16.26-24.902,30.514v1.023v13.805v203.252c0,14.443,11.695,27.332,26.069,28.732l163.318,15.914
				c0.864,0.084,1.739,0.127,2.6,0.127c14.085,0,25.118-11.102,25.118-25.275V116.48z M339.651,110.03
				c2.267-0.464,4.295-0.082,5.709,1.07c1.414,1.154,2.193,3.064,2.193,5.38v31.632c0,2.5-1.013,2.822-1.53,2.613
				c-2.375-0.962-4.892-1.605-7.497-1.87c0,0-128.933-11.217-128.933-13.099C209.592,134.147,339.651,110.03,339.651,110.03z
				 M347.553,393.886c0,4.795-3.414,8.275-8.118,8.275c-0.313,0-0.633-0.016-0.952-0.047L175.165,386.2
				c-5.809-0.566-10.717-5.977-10.717-11.813V171.136v-13.805c0-4.756,3.38-8.207,8.037-8.207c0.325,0,0.658,0.018,0.991,0.051
				l163.333,16.592c5.724,0.582,10.745,6.139,10.745,11.893V393.886z"/>
		</g>
	</g>
</g>
<g id="Capa_3">
</g>
</svg>
