<?xml version="1.0" encoding="utf-8"?>
<!-- Generator: Adobe Illustrator 17.0.1, SVG Export Plug-In . SVG Version: 6.00 Build 0)  -->
<!DOCTYPE svg PUBLIC "-//W3C//DTD SVG 1.1//EN" "http://www.w3.org/Graphics/SVG/1.1/DTD/svg11.dtd">
<svg version="1.1" xmlns="http://www.w3.org/2000/svg" xmlns:xlink="http://www.w3.org/1999/xlink" x="0px" y="0px" width="512px"
	 height="512px" viewBox="0 0 512 512" enable-background="new 0 0 512 512" xml:space="preserve">
<g id="Artwork">
	<g id="Layer_5">
		<path d="M399.176,311.586c-0.265-0.639-0.532-5.599-0.532-5.599V114.285c0-7.508-6.001-12.338-13.336-10.734l-201.63,44.117
			c-7.335,1.605-13.336,9.061-13.336,16.57v162.99c-6.964-3.7-14.904-5.805-23.339-5.805c-27.514,0-49.818,22.305-49.818,49.818
			c0,27.515,22.304,49.819,49.818,49.819c27.515,0,49.819-22.305,49.819-49.819c0-6.697-1.906-12.25-3.127-18.438
			c-0.204-1.034-0.6-4.691-0.6-4.691V212.794c0-7.508,5.994-15,13.319-16.648l156.157-35.12c7.326-1.648,13.319,3.147,13.319,10.655
			v116.225c-6.818-3.504-14.54-5.494-22.734-5.494c-27.514,0-49.818,22.304-49.818,49.818c0,27.515,22.304,49.819,49.818,49.819
			c27.515,0,49.819-22.305,49.819-49.819C402.976,324.863,400.821,315.539,399.176,311.586z M176.29,377.07
			c-4.874,7.41-25.85,25.029-30.395,25.029c-4.453,0-25.621-17.686-30.459-25.029c-2.425-3.678-4.145-7.736-3.859-13.069
			c0.505-9.444,8.227-17.243,17.681-17.243c9.722,0,15.383,10.373,16.606,10.373c1.396,0,7.299-10.373,16.602-10.373
			c9.457,0,17.178,7.799,17.683,17.243C180.433,369.334,178.719,373.377,176.29,377.07z M384.238,338.56
			c-4.874,7.411-25.85,25.031-30.396,25.031c-4.453,0-25.62-17.688-30.459-25.031c-2.424-3.678-4.145-7.736-3.859-13.068
			c0.504-9.445,8.226-17.242,17.681-17.242c9.722,0,15.383,10.371,16.606,10.371c1.396,0,7.299-10.371,16.601-10.371
			c9.457,0,17.178,7.797,17.684,17.242C388.381,330.824,386.668,334.867,384.238,338.56z"/>
	</g>
</g>
<g id="Capa_3">
</g>
</svg>
