<?xml version="1.0" encoding="utf-8"?>
<!-- Generator: Adobe Illustrator 17.0.1, SVG Export Plug-In . SVG Version: 6.00 Build 0)  -->
<!DOCTYPE svg PUBLIC "-//W3C//DTD SVG 1.1//EN" "http://www.w3.org/Graphics/SVG/1.1/DTD/svg11.dtd">
<svg version="1.1" xmlns="http://www.w3.org/2000/svg" xmlns:xlink="http://www.w3.org/1999/xlink" x="0px" y="0px" width="512px"
	 height="512px" viewBox="0 0 512 512" enable-background="new 0 0 512 512" xml:space="preserve">
<g id="Artwork">
	<g id="Layer_5">
		<path d="M382.643,203.568c0-61.324-51.72-111.627-117.679-115.568c0,0-0.628-0.012-0.628-1.162c0-3.271-3.732-5.924-8.337-5.924
			s-8.337,2.652-8.337,5.924c0,1.262-0.668,1.166-0.668,1.166c-65.959,3.941-117.637,54.24-117.637,115.565
			c0,38.707,15.356,58.275,41.078,97.48c6.948,10.592,13.666,19.404,21.385,27.783c0.686,0.738,0.415,1.258,0.249,1.477
			c-4.487,5.961-7.309,13.275-7.73,21.143c-0.596,11.148,2.998,19.633,8.064,27.318c10.116,15.353,54.356,52.316,63.662,52.316
			c9.5,0,53.346-36.828,63.53-52.316c5.074-7.719,8.66-16.17,8.063-27.318c-0.407-7.598-3.05-14.686-7.273-20.531
			c-0.22-0.303-0.746-0.9,0.324-1.988c7.746-8.424,14.307-17.145,21.504-28.25C367.529,261.623,382.643,242.193,382.643,203.568z
			 M310.945,319.611c-0.96,1.277-1.91,0.889-2.268,0.68c-5.322-3.092-11.45-4.875-17.977-4.875
			c-19.443,0-31.784,21.678-34.698,21.678c-2.556,0-14.39-21.678-34.708-21.678c-6.255,0-12.146,1.633-17.312,4.49
			c-0.449,0.248-1.11,1.02-2.038,0.004c-7.214-7.783-13.575-16.086-20.245-26.252c-24.339-37.098-38.87-53.902-38.87-90.09
			c0-54.102,45.777-98.477,104.579-102.092c1.086,0.021,1.051,0.293,1.171,0.459c1.38,1.916,4.182,3.23,7.419,3.23
			c3.284,0,6.119-1.352,7.478-3.313c0.098-0.141,0.213-0.467,1.107-0.377c58.802,3.615,104.585,47.99,104.585,102.092
			c0,36.129-14.304,52.82-38.261,89.785C324.133,303.809,318.211,311.73,310.945,319.611z"/>
	</g>
</g>
<g id="Capa_3">
</g>
</svg>
