<?xml version="1.0" encoding="utf-8"?>
<!-- Generator: Adobe Illustrator 17.0.1, SVG Export Plug-In . SVG Version: 6.00 Build 0)  -->
<!DOCTYPE svg PUBLIC "-//W3C//DTD SVG 1.1//EN" "http://www.w3.org/Graphics/SVG/1.1/DTD/svg11.dtd">
<svg version="1.1" xmlns="http://www.w3.org/2000/svg" xmlns:xlink="http://www.w3.org/1999/xlink" x="0px" y="0px" width="512px"
	 height="512px" viewBox="0 0 512 512" enable-background="new 0 0 512 512" xml:space="preserve">
<g id="Artwork">
	<g id="Layer_5">
		<g>
			<path d="M384,190.77c-0.479-0.693-0.302-1.264-0.397-2.095c-3.206-28.125-27.026-49.988-56.011-49.988
				c-9.996,0-19.368,2.624-27.508,7.188c-1.102,0.618-1.877,1.36-3.084,1c-1.117-0.333-1.113-1.162-1.629-2.203
				c-12.179-24.562-37.496-41.454-66.77-41.454c-41.143,0-74.498,33.356-74.498,74.501c0,3.867,0.296,7.664,0.865,11.371
				c0.18,1.172,0.592,2.094,0.095,3.16c-0.312,0.67-0.762,1.051-1.392,1.434c-13.463,8.189-22.456,22.999-22.456,39.909
				c0,25.782,20.9,46.683,46.684,46.683c0,0,9.109,0,20.874,0c15.929,0,36.731,0,46.403,0h51.802c6.949,0,19.629,0,32.133,0
				c17.826,0,35.296,0,35.296,0c25.784,0,46.684-20.9,46.684-46.683c0-18.323-10.579-34.142-25.944-41.781
				C384.712,191.595,384.276,191.169,384,190.77z"/>
			<g>
				<path d="M224.838,308.907c-5.304,4.514-3.637,13.291-4.431,13.969c-0.697,0.593-8.959-2.572-14.501,2.145
					c-5.393,4.589-6.01,12.782-1.717,18.41c2.428,3.182,5.377,4.662,8.543,5.583c6.324,1.838,26.976,1.65,29.515-0.511
					c2.593-2.207,6.002-22.432,5.186-29.021c-0.409-3.286-1.394-6.423-4.146-9.327C238.418,305.018,230.231,304.318,224.838,308.907
					"/>
				<path d="M318.871,307.946c-5.785,4.134-4.847,13.203-5.712,13.824c-0.762,0.543-8.888-3.391-14.929,0.927
					c-5.88,4.202-7.213,12.482-3.332,18.575c2.191,3.443,5.065,5.2,8.204,6.412c6.272,2.414,27.287,4.004,30.054,2.027
					c2.827-2.021,8.037-22.293,7.777-29.065c-0.131-3.375-0.862-6.648-3.41-9.838C333.014,305.165,324.748,303.745,318.871,307.946"
					/>
				<path d="M294.294,378.112c-5.687,4.266-4.539,13.31-5.391,13.95c-0.75,0.561-8.962-3.183-14.903,1.274
					c-5.78,4.336-6.922,12.645-2.9,18.646c2.27,3.391,5.183,5.082,8.35,6.219c6.327,2.27,27.372,3.373,30.093,1.332
					c2.78-2.085,7.518-22.472,7.102-29.236c-0.208-3.371-1.015-6.627-3.636-9.758C308.37,375.003,300.075,373.774,294.294,378.112"
					/>
			</g>
		</g>
	</g>
</g>
<g id="Capa_3">
</g>
</svg>
