<?xml version="1.0" encoding="utf-8"?>
<!-- Generator: Adobe Illustrator 17.0.1, SVG Export Plug-In . SVG Version: 6.00 Build 0)  -->
<!DOCTYPE svg PUBLIC "-//W3C//DTD SVG 1.1//EN" "http://www.w3.org/Graphics/SVG/1.1/DTD/svg11.dtd">
<svg version="1.1" xmlns="http://www.w3.org/2000/svg" xmlns:xlink="http://www.w3.org/1999/xlink" x="0px" y="0px" width="512px"
	 height="512px" viewBox="0 0 512 512" enable-background="new 0 0 512 512" xml:space="preserve">
<g id="Artwork">
	<g id="Layer_5">
		<path d="M301.551,95.113c-15.172-13.631-34.792-21.057-55.241-20.909c-20.804,0.152-40.18,8.155-54.564,22.54
			c-20.864,20.863-23.892,47.541-25.518,61.873c-0.013,0.098-0.023,0.193-0.034,0.293c-13.694,1.272-40.817,4.202-62.56,25.945
			c-14.38,14.38-22.382,33.755-22.532,54.557c-0.146,20.451,7.28,40.068,20.912,55.237c17.478,19.459,37.862,25.481,51.673,28.321
			c19.533,4.013,56.711,2.59,84.994-0.082c16.711-1.578,31.861-3.707,43.81-6.154c7.007-1.434,12.308-2.857,16.402-4.247
			c0.747-0.254,1.996-0.886,4.032,1.15c0,0,18.698,18.698,24.931,24.932c1.029,1.028-0.269,2.031-0.269,2.031l-13.375,13.375
			c-4.863,4.863-4.863,12.749,0,17.611c4.863,4.863,12.749,4.863,17.611,0l13.734-13.734c0,0,0.763-0.818,1.673,0.092
			c2.826,2.826,11.303,11.303,11.303,11.303c4.863,4.863,12.75,4.861,17.612,0c4.864-4.864,4.863-12.749,0-17.612
			c0,0-8.477-8.477-11.303-11.303c-0.855-0.854-0.191-1.572-0.191-1.572l13.838-13.839c4.863-4.862,4.863-12.748,0-17.611
			c-4.863-4.863-12.749-4.862-17.612,0l-13.473,13.473c0,0-0.891,1.222-1.938,0.175c-6.316-6.315-25.261-25.261-25.261-25.261
			c-1.596-1.596-1.003-3.066-0.726-3.855c4.461-12.704,7.985-32.822,10.522-60.162c2.607-28.107,3.941-65.174-0.135-84.901
			C326.774,131.788,320.761,112.369,301.551,95.113z M305.475,151.814c2.753,13.327,2.739,43.457-0.038,74.973
			c-3.177,36.064-8.189,55.828-10.867,60.671c-4.877,2.646-24.732,7.636-60.936,10.884c-31.671,2.84-61.786,2.934-74.934,0.232
			c-16.92-3.478-28.333-9.628-38.16-20.569c-19.53-21.73-19.213-55.619,0.705-75.537c15.861-15.861,36.057-17.725,48.125-18.838
			c6.961-0.643,11.991-1.107,16.023-5.139c4.112-4.112,4.698-9.264,5.583-17.064c1.374-12.104,3.67-32.36,18.381-47.07
			c19.922-19.922,53.812-20.24,75.55-0.715C295.827,123.45,301.977,134.867,305.475,151.814z"/>
	</g>
</g>
<g id="Capa_3">
</g>
</svg>
