<?xml version="1.0" encoding="utf-8"?>
<!-- Generator: Adobe Illustrator 17.0.1, SVG Export Plug-In . SVG Version: 6.00 Build 0)  -->
<!DOCTYPE svg PUBLIC "-//W3C//DTD SVG 1.1//EN" "http://www.w3.org/Graphics/SVG/1.1/DTD/svg11.dtd">
<svg version="1.1" xmlns="http://www.w3.org/2000/svg" xmlns:xlink="http://www.w3.org/1999/xlink" x="0px" y="0px" width="512px"
	 height="512px" viewBox="0 0 512 512" enable-background="new 0 0 512 512" xml:space="preserve">
<g id="Artwork">
	<g id="Layer_5">
		<g>
			<path d="M408.445,130.426H103.554c-14.336,0-26,11.664-26,26v199.148c0,14.336,11.664,26,26,26h304.891c14.336,0,26-11.664,26-26
				V156.426C434.445,142.09,422.781,130.426,408.445,130.426z M412.445,355.574c0,2.168-1.832,4-4,4H103.554c-2.168,0-4-1.832-4-4
				V156.426c0-2.168,1.832-4,4-4h304.891c2.168,0,4,1.832,4,4V355.574z"/>
			<path d="M378.215,195.989c-9.357-2.349-17.914,6.593-19.316,6.241c-1.229-0.309-4.307-12.171-14.084-14.625
				c-9.51-2.387-19.244,3.508-22.137,12.878c-1.633,5.293-0.928,9.81,0.582,14.12c3.014,8.61,19.84,31.741,24.316,32.865
				c4.572,1.147,30.119-11.279,36.893-17.502c3.373-3.102,6.119-6.735,7.178-12.173
				C393.523,208.169,387.727,198.376,378.215,195.989z"/>
			<path d="M256.655,181c-4.143,0-7.5,3.357-7.5,7.5v135c0,4.144,3.357,7.5,7.5,7.5c4.142,0,7.499-3.356,7.499-7.5v-135
				C264.154,184.357,260.797,181,256.655,181z"/>
			<path d="M212.668,193.167h-78.667c-4.142,0-7.5,3.357-7.5,7.5c0,4.143,3.358,7.5,7.5,7.5h78.667c4.142,0,7.5-3.357,7.5-7.5
				C220.168,196.524,216.81,193.167,212.668,193.167z"/>
			<path d="M212.668,230.056h-78.667c-4.142,0-7.5,3.357-7.5,7.5c0,4.143,3.358,7.5,7.5,7.5h78.667c4.142,0,7.5-3.357,7.5-7.5
				C220.168,233.413,216.81,230.056,212.668,230.056z"/>
			<path d="M212.668,266.944h-78.667c-4.142,0-7.5,3.357-7.5,7.5c0,4.143,3.358,7.5,7.5,7.5h78.667c4.142,0,7.5-3.357,7.5-7.5
				C220.168,270.302,216.81,266.944,212.668,266.944z"/>
			<path d="M212.668,303.834h-28c-4.142,0-7.5,3.357-7.5,7.5c0,4.143,3.358,7.5,7.5,7.5h28c4.142,0,7.5-3.357,7.5-7.5
				C220.168,307.191,216.81,303.834,212.668,303.834z"/>
			<path d="M323.748,261.856c-9.777,2.454-12.853,14.316-14.084,14.625c-1.402,0.352-9.959-8.59-19.315-6.241
				c-9.512,2.387-15.309,12.18-13.434,21.805c1.059,5.438,3.805,9.071,7.18,12.173c6.772,6.223,32.32,18.649,36.891,17.502
				c4.479-1.124,21.303-24.255,24.318-32.865c1.508-4.311,2.213-8.827,0.58-14.12C342.992,265.364,333.258,259.47,323.748,261.856z"
				/>
		</g>
	</g>
</g>
<g id="Capa_3">
</g>
</svg>
