<?xml version="1.0" encoding="utf-8"?>
<!-- Generator: Adobe Illustrator 17.0.1, SVG Export Plug-In . SVG Version: 6.00 Build 0)  -->
<!DOCTYPE svg PUBLIC "-//W3C//DTD SVG 1.1//EN" "http://www.w3.org/Graphics/SVG/1.1/DTD/svg11.dtd">
<svg version="1.1" xmlns="http://www.w3.org/2000/svg" xmlns:xlink="http://www.w3.org/1999/xlink" x="0px" y="0px" width="512px"
	 height="512px" viewBox="0 0 512 512" enable-background="new 0 0 512 512" xml:space="preserve">
<g id="Artwork">
	<g id="Layer_5">
		<path d="M395.146,102.795H116.852c-10.069,0-18.308,8.238-18.308,18.308V322.5c0,10.07,8.238,18.308,18.308,18.308h127.097
			c10.07,0,24.842,5.021,32.825,11.156l70.44,54.127c7.984,6.136,14.33,2.92,14.1-7.148l-0.909-39.831
			c-0.231-10.066,7.821-18.304,17.892-18.304h16.85c10.069,0,18.309-8.238,18.309-18.308V121.103
			C413.455,111.033,405.216,102.795,395.146,102.795z M135.116,158.017c0-2.672,2.174-4.847,4.847-4.847h199.473
			c2.671,0,4.846,2.175,4.846,4.847v5.972c0,2.672-2.175,4.847-4.846,4.847H139.963c-2.673,0-4.847-2.175-4.847-4.847V158.017z
			 M258.423,208.989c0,2.672-2.175,4.847-4.846,4.847H139.963c-2.673,0-4.847-2.175-4.847-4.847v-5.972
			c0-2.672,2.174-4.847,4.847-4.847h113.614c2.671,0,4.846,2.175,4.846,4.847V208.989z M360.898,264.529
			c-6.512,9.901-34.541,33.448-40.617,33.448c-5.947-0.001-34.232-23.632-40.702-33.448c-3.237-4.914-5.534-10.338-5.155-17.466
			c0.677-12.619,10.994-23.039,23.629-23.04c12.99,0.001,20.556,13.86,22.187,13.861c1.867,0,9.754-13.861,22.188-13.859
			c12.636-0.001,22.951,10.419,23.627,23.038C366.435,254.191,364.145,259.594,360.898,264.529z"/>
	</g>
</g>
<g id="Capa_3">
</g>
</svg>
