<?xml version="1.0" encoding="utf-8"?>
<!-- Generator: Adobe Illustrator 17.0.1, SVG Export Plug-In . SVG Version: 6.00 Build 0)  -->
<!DOCTYPE svg PUBLIC "-//W3C//DTD SVG 1.1//EN" "http://www.w3.org/Graphics/SVG/1.1/DTD/svg11.dtd">
<svg version="1.1" xmlns="http://www.w3.org/2000/svg" xmlns:xlink="http://www.w3.org/1999/xlink" x="0px" y="0px" width="512px"
	 height="512px" viewBox="0 0 512 512" enable-background="new 0 0 512 512" xml:space="preserve">
<g id="Artwork">
	<g id="Layer_5">
		<g>
			<path d="M285.857,206.241c-16.731,0-27.346,18.651-29.856,18.651c-2.196-0.001-12.375-18.651-29.858-18.651
				c-17.001,0-30.886,14.023-31.795,31.003c-0.512,9.592,2.58,16.892,6.936,23.504c8.706,13.21,46.77,45.011,54.773,45.011
				c8.177,0,45.896-31.686,54.657-45.011c4.369-6.642,7.451-13.911,6.938-23.504C316.744,220.264,302.861,206.241,285.857,206.241"
				/>
			<path d="M333.486,92.505H178.512c-10.86,0-19.696,8.836-19.696,19.696v287.598c0,10.86,8.836,19.696,19.696,19.696h154.975
				c10.862,0,19.698-8.836,19.698-19.696V112.201C353.185,101.341,344.349,92.505,333.486,92.505z M234.749,109.707h42.502
				c3.254,0,5.892,2.638,5.892,5.892s-2.638,5.892-5.892,5.892h-42.502c-3.254,0-5.892-2.638-5.892-5.892
				S231.495,109.707,234.749,109.707z M256.001,404.769c-6.168,0-11.169-5-11.169-11.168c0-6.169,5.001-11.169,11.169-11.169
				c6.168,0,11.168,5,11.168,11.169C267.169,399.769,262.169,404.769,256.001,404.769z M332.667,360.502c0,6.05-4.95,11-11,11
				H190.334c-6.05,0-11-4.95-11-11V143.333c0-6.05,4.95-11,11-11h131.333c6.05,0,11,4.95,11,11V360.502z"/>
		</g>
	</g>
</g>
<g id="Capa_3">
</g>
</svg>
