<?xml version="1.0" encoding="utf-8"?>
<!-- Generator: Adobe Illustrator 17.0.1, SVG Export Plug-In . SVG Version: 6.00 Build 0)  -->
<!DOCTYPE svg PUBLIC "-//W3C//DTD SVG 1.1//EN" "http://www.w3.org/Graphics/SVG/1.1/DTD/svg11.dtd">
<svg version="1.1" xmlns="http://www.w3.org/2000/svg" xmlns:xlink="http://www.w3.org/1999/xlink" x="0px" y="0px" width="512px"
	 height="512px" viewBox="0 0 512 512" enable-background="new 0 0 512 512" xml:space="preserve">
<g id="Artwork">
	<g id="Layer_5">
		<g>
			<path d="M199.35,307.444c9.093,13.797,48.848,47.013,57.211,47.013c8.536,0,47.936-33.095,57.089-47.013
				c4.56-6.938,7.781-14.53,7.244-24.549c-0.949-17.734-15.451-32.382-33.211-32.382c-17.473,0-28.561,19.482-31.181,19.482
				c-2.297,0-12.931-19.482-31.188-19.482c-17.758,0-32.26,14.647-33.209,32.382C191.57,292.914,194.8,300.538,199.35,307.444z"/>
			<path d="M413.688,261.241v-36.104c0-13.126-6.24-24.814-15.901-32.279c-6.89-5.322-15.517-8.5-24.876-8.5h-0.002H348.68h-34.534
				c-0.594,0-0.684-0.469-0.737-0.701c-4.526-19.686-20.464-34.691-38.154-34.691h-37.509c-17.625,0-33.511,14.898-38.104,34.478
				c-0.071,0.304-0.297,0.915-1.172,0.915h-34.15h-24.227h-0.001c-22.485,0-40.778,18.293-40.778,40.779v36.104h0.001v59.037h-0.001
				v36.103c0,22.486,18.293,40.779,40.778,40.779h24.229h-0.001h184.362h-0.001h24.229c22.486,0,40.779-18.293,40.779-40.779
				v-36.103h-0.001v-59.037H413.688z M239.855,166.284h33.288c8.958,0,17.363,6.475,22.674,17.087
				c0.13,0.26,0.484,0.987-1.016,0.987H218.26c-1.5,0-0.935-1.28-0.604-1.898C222.994,172.495,231.215,166.284,239.855,166.284z
				 M355.177,198.081c4.5,0,6.417,2.868,7.491,4.234c5.422,6.904,10.045,12.67,13.774,17.176
				c4.433,5.355,10.927,12.771,19.348,22.096c1.343,1.487,4.174,4.666,4.174,7.583v84.583c0,1.5-0.805,2.459-1.201,2.897
				c-9.878,10.88-17.379,19.409-22.32,25.379c-4.059,4.902-9.185,11.309-15.256,19.064c-0.602,0.769-1.822,2.346-4.51,2.346h-200.25
				c-2,0-3.89-1.419-4.432-2.112c-6.16-7.871-11.348-14.357-15.438-19.298c-4.868-5.881-12.2-14.224-21.82-24.829
				c-0.559-0.616-1.7-1.321-1.7-4.946v-83.125c0-2.875,1.751-4.862,2.599-5.799c9.179-10.135,16.206-18.141,20.922-23.838
				c3.837-4.634,8.629-10.615,14.275-17.813c0.916-1.167,3.095-3.598,8.095-3.598H355.177z"/>
		</g>
	</g>
</g>
<g id="Capa_3">
</g>
</svg>
