<?xml version="1.0" encoding="utf-8"?>
<!-- Generator: Adobe Illustrator 17.0.1, SVG Export Plug-In . SVG Version: 6.00 Build 0)  -->
<!DOCTYPE svg PUBLIC "-//W3C//DTD SVG 1.1//EN" "http://www.w3.org/Graphics/SVG/1.1/DTD/svg11.dtd">
<svg version="1.1" xmlns="http://www.w3.org/2000/svg" xmlns:xlink="http://www.w3.org/1999/xlink" x="0px" y="0px" width="512px"
	 height="512px" viewBox="0 0 512 512" enable-background="new 0 0 512 512" xml:space="preserve">
<g id="Artwork">
	<g id="Layer_5">
		<path d="M303.306,373.525"/>
		<g>
			<path d="M239.331,238.035c8.713-8.713,15.148-82.71,10.285-106.26c-2.427-11.734-6.89-22.774-17.664-32.451
				c-19.069-17.133-48.823-17.281-66.95,0.847c-17.835,17.835-9.268,49.038-11.941,51.712c-2.346,2.345-33.084-6.686-51.72,11.949
				c-18.127,18.126-17.978,47.879-0.846,66.949c9.681,10.771,20.761,15.258,32.453,17.662
				C156.314,253.244,230.795,246.57,239.331,238.035z"/>
			<path d="M401.606,124.916l-7.015-7.016l-0.144,0.16c-13.21-11.582-28.129-18.355-40.836-18.355c-7.65,0-14.185,2.49-18.9,7.201
				l-43.391,43.399c-4.717,4.707-7.211,11.238-7.215,18.887c-0.007,14.178,8.424,31.109,22.564,45.348
				c0.124,1.057,0.216,7.229-10.513,23.098c-7.258,10.736-16.694,21.729-22.869,27.904c-6.211,6.211-16.605,16.609-27.415,25.445
				c-16.563,13.541-23.374,14.594-25.066,14.594c-0.104,0-0.186-0.004-0.248-0.01c-14.249-14.168-31.208-22.621-45.406-22.621
				c-7.652,0-14.188,2.491-18.896,7.201l-43.404,43.4c-7.325,7.322-9.154,18.596-5.151,31.744
				c3.389,11.129,10.763,22.764,20.766,32.76c16.91,16.895,33.758,26.338,48.724,27.309c1.162,0.074,2.351,0.113,3.531,0.113
				c0,0,0.001,0,0.003,0c19.128,0,40.1-9.995,57.538-27.426l163.343-163.34C431.872,204.443,431.872,155.189,401.606,124.916z
				 M388.375,221.481l-163.34,163.337c-13.75,13.742-30.316,21.947-44.312,21.947c-0.78,0-1.563-0.025-2.324-0.074
				c-10.216-0.662-23.252-8.432-36.706-21.873c-7.753-7.748-13.618-16.85-16.091-24.973c-1.812-5.95-1.628-10.955,0.48-13.063
				l43.407-43.402c1.42-1.422,3.863-1.721,5.663-1.721c6.933,0,19.568,4.539,32.363,17.328c3.468,3.471,8.064,5.303,13.292,5.303
				c17.757,0,42.077-21.879,65.755-45.563c5.729-5.73,17.921-19.32,27.271-33.913c4.787-7.474,19.355-30.214,6.326-43.247
				c-12.806-12.803-17.346-25.438-17.343-32.367c0.001-1.797,0.301-4.234,1.728-5.658l43.396-43.404
				c1.424-1.424,3.87-1.723,5.671-1.723c6.932,0,19.567,4.541,32.354,17.324c0.617,0.621,1.2,1.254,1.783,1.885l4.968,5.369
				C411.239,166.111,409.793,200.061,388.375,221.481z"/>
		</g>
	</g>
</g>
<g id="Capa_3">
</g>
</svg>
