<?xml version="1.0" encoding="utf-8"?>
<!-- Generator: Adobe Illustrator 17.0.1, SVG Export Plug-In . SVG Version: 6.00 Build 0)  -->
<!DOCTYPE svg PUBLIC "-//W3C//DTD SVG 1.1//EN" "http://www.w3.org/Graphics/SVG/1.1/DTD/svg11.dtd">
<svg version="1.1" xmlns="http://www.w3.org/2000/svg" xmlns:xlink="http://www.w3.org/1999/xlink" x="0px" y="0px" width="512px"
	 height="512px" viewBox="0 0 512 512" enable-background="new 0 0 512 512" xml:space="preserve">
<g id="Artwork">
	<g id="Layer_5">
		<path fill="none" stroke="#FFFFFF" stroke-width="15" stroke-linecap="round" stroke-miterlimit="10" d="M285.728,136.566
			c-18.471-5.701-38.254,4.876-44.934,23.016c-3.775,10.248-2.862,19.214-0.346,27.858"/>
		<path d="M390.625,132.632c-28.873-8.913-57.125,17.621-61.459,16.284c-3.787-1.17-11.42-38.781-41.592-48.094
			c-29.344-9.058-60.772,7.746-71.387,36.565c-5.996,16.281-4.545,30.524-0.549,44.259c6.682,22.951,33.904,76.61,53.321,96.911
			c0.287,0.348,0.309,0.765-0.297,1.256c0,0-15.407,9.487-19.426,13.905c-2.063,2.267-0.406,5.558,2.523,6.462
			c0,0,15.745,1.341,24.524,3.028c0.275,0.053,0.736,0.263,0.463,1.135l-28.616,92.089c0,0-0.172,0.633-0.412,0.743
			c-0.203,0.094-0.707-0.469-0.707-0.469l-57.838-52.301c-1.313-1.197-0.721-1.33-0.42-1.401c5.568-1.316,11.686-2.478,11.686-2.478
			c1.801-0.726,2.672-2.889,1.25-4.209c-2.799-2.601-13.123-7.822-13.123-7.822c-0.195-0.124-0.451-0.307-0.275-0.582
			c11.223-13.934,25.371-49.039,28.369-63.933c1.793-8.909,1.955-17.932-2.688-27.882c-8.219-17.611-28.928-26.546-46.953-19.281
			c-17.738,7.148-21.02,31.456-23.682,32.529c-2.326,0.938-21.088-14.485-39.621-7.017c-18.026,7.265-26.752,28.062-20.46,46.451
			c3.554,10.389,9.951,16.805,17.396,21.953c12.441,8.603,47.228,24.089,64.867,26.308c0.279,0.057,0.455,0.253,0.355,0.736
			c0,0-3.779,10.808-3.99,14.581c-0.107,1.938,2.02,2.892,3.818,2.166c0,0,6.645-4.362,11.535-7.342
			c0.277-0.169,0.383-0.217,0.918,0.287l72.242,65.319c0,0,1.184,1.014,1.883,0.822c0.715-0.195,1.148-1.704,1.148-1.704
			l32.512-104.482c0.283-0.813,0.594-0.731,0.758-0.658c9.084,4.107,21.609,10.866,21.609,10.866c2.93,0.904,6.152-0.88,5.727-3.916
			c-0.84-5.977-8.295-22.671-8.295-22.671c-0.117-0.347-0.25-0.826,0.242-0.987c27.647-5.902,79.986-34.846,98.508-50.121
			c11.078-9.137,20.268-20.04,24.494-36.868C436.459,173.285,419.973,141.689,390.625,132.632z M116.105,260.716
			c-8.621,3.475-13.092,13.732-9.966,22.867c1.581,4.62,4.278,7.991,9.019,11.27c2.271,1.57,2.839,4.685,1.269,6.956
			c-0.971,1.403-2.53,2.156-4.117,2.156c-0.98,0-1.971-0.287-2.839-0.888c-4.066-2.811-9.817-7.556-12.794-16.258
			c-4.899-14.318,1.992-29.858,15.689-35.379c2.563-1.033,5.475,0.208,6.507,2.769C119.906,256.771,118.665,259.684,116.105,260.716
			z M292.396,127.126c-1.223,3.957-5.422,6.174-9.379,4.954c-14.305-4.414-30.313,3.857-35.684,18.441
			c-2.713,7.363-2.768,14.293-0.184,23.171c1.158,3.977-1.129,8.14-5.105,9.297c-0.699,0.204-1.406,0.301-2.1,0.301
			c-3.25,0-6.244-2.129-7.197-5.406c-2.176-7.473-4.488-18.977,0.51-32.547c8.217-22.313,32.018-34.433,54.184-27.589
			C291.398,118.97,293.617,123.168,292.396,127.126z"/>
	</g>
</g>
<g id="Capa_3">
</g>
</svg>
