<?xml version="1.0" encoding="utf-8"?>
<!-- Generator: Adobe Illustrator 17.0.1, SVG Export Plug-In . SVG Version: 6.00 Build 0)  -->
<!DOCTYPE svg PUBLIC "-//W3C//DTD SVG 1.1//EN" "http://www.w3.org/Graphics/SVG/1.1/DTD/svg11.dtd">
<svg version="1.1" xmlns="http://www.w3.org/2000/svg" xmlns:xlink="http://www.w3.org/1999/xlink" x="0px" y="0px" width="512px"
	 height="512px" viewBox="0 0 512 512" enable-background="new 0 0 512 512" xml:space="preserve">
<g id="Artwork">
	<g id="Layer_5">
		<path d="M279.607,177.399c-1.89-5.102-3.462-28.631-3.927-55.05c-0.002-0.102,0.108-0.372,0.514-0.372
			c2.092-0.124,3.248-1.788,3.248-3.909v-18.5c0-2.2-1.8-4-4-4h-38.885c-2.2,0-4,1.8-4,4v18.5c0,2.123,1.059,3.769,3.151,3.89
			c0.673,0,0.613,0.478,0.609,0.673c-0.462,26.677-2.034,49.669-3.924,54.769c-11.119,29.994-35.884,27.392-35.884,63.394v128.735
			c0,49.535,24.919,47.042,59.489,46.819c34.572,0.223,59.49,2.716,59.49-46.819V240.793
			C315.49,204.791,290.726,207.394,279.607,177.399z M292.495,305.351c-5.844,8.888-31.004,30.022-36.457,30.022
			c-5.338,0-30.727-21.211-36.532-30.022c-2.907-4.411-4.97-9.278-4.627-15.677c0.605-11.326,9.866-20.679,21.208-20.679
			c11.659,0,18.449,12.44,19.914,12.44c1.675,0,8.755-12.44,19.914-12.44c11.342,0,20.602,9.353,21.207,20.679
			C297.465,296.072,295.409,300.92,292.495,305.351z"/>
	</g>
</g>
<g id="Capa_3">
</g>
</svg>
