<?xml version="1.0" encoding="utf-8"?>
<!-- Generator: Adobe Illustrator 17.0.1, SVG Export Plug-In . SVG Version: 6.00 Build 0)  -->
<!DOCTYPE svg PUBLIC "-//W3C//DTD SVG 1.1//EN" "http://www.w3.org/Graphics/SVG/1.1/DTD/svg11.dtd">
<svg version="1.1" xmlns="http://www.w3.org/2000/svg" xmlns:xlink="http://www.w3.org/1999/xlink" x="0px" y="0px" width="512px"
	 height="512px" viewBox="0 0 512 512" enable-background="new 0 0 512 512" xml:space="preserve">
<g id="Artwork">
	<g id="Layer_5">
	</g>
	<path d="M423.075,359.434l-55.734-19.031c0,0-2.328-1.104-3.218-1.994c-6.055-6.055-27.149-27.15-54.408-54.408
		c-1.084-0.747-0.356-1.811,0.008-2.174c38.028-38.03,75.127-75.129,100.533-100.533c24.106-24.105,14.451-46.28-8.331-23.498
		c-5.969,5.968-18.294,6.154-33.55,2.927c-3.376-0.713-6.721-1.489-10.261-2.31c-35.464-8.223-75.392-17.466-135.233,36.865
		c-0.329,0.297-1.175,1.203-2.472-0.094c-11.608-11.607-20.557-21.043-28.843-29.33c-1.823-1.824-0.382-3.074-0.382-3.074
		l4.359-4.36c5.488-5.487,4.211-12.632-2.839-15.878l-60.942-28.061c-7.05-3.244-10.163-0.133-6.918,6.916l28.062,60.943
		c3.246,7.051,10.39,8.326,15.878,2.839l3.496-3.496c0,0,1.923-2.495,3.938-0.48c8.266,8.266,16.852,16.854,28.438,28.438
		c1.458,1.291,1.287,2.4,1.021,2.689c-56.064,61.131-45.669,108.154-37.234,146.273l0.395,1.788
		c3.688,16.705,2.177,29.867-5.82,37.864c-17.326,17.326-11.139,41.416,26.444,3.833c25.941-25.941,64.074-64.072,102.938-102.938
		c0.294-0.295,0.893-0.711,2.043,0.277c27.724,27.723,49.028,49.028,54.588,54.588c0.723,0.721,1.696,2.848,1.696,2.848l19.07,55.85
		c2.507,7.342,7.057,7.514,10.115,0.381l7.501-17.518c3.056-7.135,11.392-15.473,18.524-18.527l17.521-7.502
		C430.592,366.492,430.418,361.94,423.075,359.434z M352.599,182.203c3.498,0.811,7.115,1.648,10.721,2.41
		c4.277,0.906,8.383,1.549,12.319,1.939c0,0-60.561,60.561-80.748,80.748c-1.068,1.068-2.119-0.241-2.119-0.241
		c-17.927-17.927-34.883-34.884-52.582-52.582c-0.855-0.977-0.41-1.571-0.107-1.844C289.922,167.681,320.43,174.745,352.599,182.203
		z M194.656,367.535c-0.368-3.896-1.004-8.025-1.972-12.411l-0.398-1.798c-7.882-35.623-16.015-72.391,30.67-123.706
		c0.266-0.292,1.193-0.628,1.999,0.321c17.715,17.715,35.016,35.015,52.964,52.963c0,0,0.527,0.842-0.275,1.643
		C256.66,305.537,194.656,367.535,194.656,367.535z"/>
</g>
<g id="Capa_3">
</g>
</svg>
