<?xml version="1.0" encoding="utf-8"?>
<!-- Generator: Adobe Illustrator 17.0.1, SVG Export Plug-In . SVG Version: 6.00 Build 0)  -->
<!DOCTYPE svg PUBLIC "-//W3C//DTD SVG 1.1//EN" "http://www.w3.org/Graphics/SVG/1.1/DTD/svg11.dtd">
<svg version="1.1" xmlns="http://www.w3.org/2000/svg" xmlns:xlink="http://www.w3.org/1999/xlink" x="0px" y="0px" width="512px"
	 height="512px" viewBox="0 0 512 512" enable-background="new 0 0 512 512" xml:space="preserve">
<g id="Artwork">
	<g id="Layer_5">
		<g>
			<g>
				<path d="M209.434,207.811c-9.334,0-15.259,10.408-16.659,10.408c-1.227,0-6.908-10.408-16.664-10.408
					c-9.487,0-17.236,7.824-17.742,17.303c-0.287,5.352,1.439,9.425,3.872,13.116c4.857,7.37,26.097,25.117,30.565,25.117
					c4.562,0,25.611-17.682,30.499-25.117c2.438-3.708,4.157-7.765,3.871-13.116C226.67,215.635,218.924,207.811,209.434,207.811z"
					/>
			</g>
			<g>
				<path d="M335.887,207.811c-9.334,0-15.258,10.408-16.659,10.408c-1.228,0-6.908-10.408-16.663-10.408
					c-9.488,0-17.236,7.824-17.742,17.303c-0.287,5.352,1.438,9.425,3.871,13.116c4.857,7.37,26.097,25.117,30.565,25.117
					c4.563,0,25.612-17.682,30.503-25.117c2.438-3.708,4.157-7.765,3.871-13.116C353.126,215.635,345.377,207.811,335.887,207.811z"
					/>
			</g>
		</g>
		<g>
			<path d="M256,410.977c-85.455,0-154.977-69.522-154.977-154.977S170.545,101.023,256,101.023
				c85.454,0,154.977,69.522,154.977,154.977S341.454,410.977,256,410.977z M256,121.023c-74.426,0-134.977,60.55-134.977,134.977
				c0,74.427,60.551,134.977,134.977,134.977c74.427,0,134.977-60.55,134.977-134.977C390.976,181.573,330.427,121.023,256,121.023z
				"/>
		</g>
		<g>
			<path d="M256.603,298.039c23.9,0,45.187,15.07,62.29,27.181c1.736,1.23,3.44,2.436,5.109,3.6
				c4.53,3.159,5.641,9.393,2.482,13.923c-3.16,4.529-9.394,5.641-13.923,2.482c-1.707-1.19-3.449-2.425-5.226-3.682
				c-15.56-11.017-33.196-23.503-50.733-23.503c-18.443,0-36.762,13.27-52.923,24.977c-1.399,1.014-2.776,2.011-4.13,2.982
				c-4.488,3.221-10.735,2.195-13.955-2.291c-3.221-4.486-2.195-10.734,2.291-13.955c1.331-0.956,2.686-1.937,4.061-2.934
				C209.648,313.997,231.677,298.039,256.603,298.039z"/>
		</g>
	</g>
</g>
<g id="Capa_3">
</g>
</svg>
