<?xml version="1.0" encoding="utf-8"?>
<!-- Generator: Adobe Illustrator 17.0.1, SVG Export Plug-In . SVG Version: 6.00 Build 0)  -->
<!DOCTYPE svg PUBLIC "-//W3C//DTD SVG 1.1//EN" "http://www.w3.org/Graphics/SVG/1.1/DTD/svg11.dtd">
<svg version="1.1" xmlns="http://www.w3.org/2000/svg" xmlns:xlink="http://www.w3.org/1999/xlink" x="0px" y="0px" width="512px"
	 height="512px" viewBox="0 0 512 512" enable-background="new 0 0 512 512" xml:space="preserve">
<g id="Artwork">
	<g id="Layer_5">
		<path d="M359.229,365.64h-63.141c-4.125,0-2.38-2.098-0.902-3.233c3.905-3.003,8.188-6.423,12.902-10.337
			c17.415-14.459,39.199-34.734,48.108-48.282c6.805-10.353,14.473-24.915,13.353-45.805c-0.884-16.525-7.88-32.041-19.699-43.691
			c-12.03-11.855-27.753-18.387-44.274-18.387c-23.445,0-39.996,16.535-49.542,26.86c-9.133-10.193-25.857-26.86-50.054-26.86
			c-16.518,0-32.241,6.531-44.27,18.387c-11.818,11.649-18.813,27.166-19.697,43.691c-1.13,21.173,7.084,36.287,13.362,45.815
			c8.832,13.4,30.73,33.69,48.279,48.211c4.739,3.921,9.042,7.349,12.962,10.357c1.501,1.151,3.721,3.274-0.279,3.274h-64.004
			c-9.634,0-17.444,7.81-17.444,17.443c0,9.635,7.81,17.444,17.444,17.444h206.895c9.634,0,17.444-7.81,17.444-17.444
			C376.674,373.449,368.864,365.64,359.229,365.64z M173.667,291.744c-7.468-11.335-10.393-21.083-9.779-32.592
			c1.22-22.795,20.103-41.341,42.093-41.341c16.564,0,28.716,13.837,35.977,22.104c4.592,5.23,7.91,9.007,13.828,9.007
			c5.987,0,9.441-3.768,14.667-9.472c7.417-8.093,19.83-21.639,35.124-21.639c21.993,0,40.878,18.546,42.098,41.342
			c0.615,11.481-2.311,21.231-9.783,32.599c-5.893,8.96-22.75,25.806-41.948,41.919c-21.642,18.165-35.538,26.59-40.037,28.078
			c-4.503-1.523-18.441-10.007-40.203-28.213C196.382,317.372,179.488,300.576,173.667,291.744z"/>
	</g>
	<path d="M248.902,184.989c1.342-1.889,0.942-6.666,0.942-9.053c0-15.845,4.292-17.784,6.11-17.784c1.822,0,4.402,4.14,6.139,19.889
		c0.376,3.407,0.589,5.802,2.238,7.194c9.168,7.739,24.6-8.547,24.6-37.224c0-29.484-25.842-63.085-52.807-63.085
		c-3.682,0,13.5,16.75-1.929,41.836C208.403,168.698,241.787,195.014,248.902,184.989z"/>
</g>
<g id="Capa_3">
</g>
</svg>
