<?xml version="1.0" encoding="utf-8"?>
<!-- Generator: Adobe Illustrator 17.0.1, SVG Export Plug-In . SVG Version: 6.00 Build 0)  -->
<!DOCTYPE svg PUBLIC "-//W3C//DTD SVG 1.1//EN" "http://www.w3.org/Graphics/SVG/1.1/DTD/svg11.dtd">
<svg version="1.1" xmlns="http://www.w3.org/2000/svg" xmlns:xlink="http://www.w3.org/1999/xlink" x="0px" y="0px" width="512px"
	 height="512px" viewBox="0 0 512 512" enable-background="new 0 0 512 512" xml:space="preserve">
<g id="Artwork">
	<g id="Layer_5">
		<path d="M388.434,171.69c-2.438,0-2.474,0.161-4.838,0.441c-2.477,0-2.7-1.527-2.895-2.261
			c-6.937-26.196-35.756-26.575-70.28-26.575H204.72c-39.703,0-71.889,0.471-71.889,40.174v159.266
			c0,39.703,32.186,71.89,71.889,71.89h105.702c36.431,0,66.201-25.023,70.915-60.164c0-2.106,1.314-1.977,1.817-1.933
			c1.74,0.154,3.501,0.238,5.28,0.238c16.824,0,32.906-12.706,45.283-35.776c9.418-17.556,14.376-34.561,15.398-51.617
			c0.334-5.578,0.105-22.324,0.105-22.324C449.22,195.031,429.337,171.69,388.434,171.69z M189.738,242.645
			c1.018-19.008,16.558-34.704,35.59-34.704c19.567,0,30.964,20.878,33.425,20.878c2.807,0,14.691-20.878,33.415-20.878
			c19.034,0,34.575,15.696,35.592,34.704c0.576,10.736-2.878,18.875-7.764,26.309c-9.809,14.915-52.034,50.383-61.183,50.383
			c-8.961,0-51.566-35.598-61.309-50.383C192.625,261.552,189.165,253.381,189.738,242.645z M327.518,360.986H189.98
			c-5.497,0-9.954-4.457-9.954-9.953c0-5.497,4.456-9.954,9.954-9.954h137.538c5.497,0,9.954,4.457,9.954,9.954
			C337.472,356.529,333.015,360.986,327.518,360.986z M422.79,265.4c-0.974,13.664-5.084,25.526-12.363,39.094
			c-7.118,13.27-15.751,21.842-21.993,21.842c-1.559,0-3.093-0.109-4.597-0.314c-0.512-0.07-1.527-0.186-1.527-2.123v-123.34
			c0-1.85,1.388-2.11,2.091-2.195c1.323-0.158,2.668-0.242,4.033-0.242c18.797,0,34.356,3.38,34.356,44.928
			C422.79,243.049,423.188,259.826,422.79,265.4z"/>
	</g>
</g>
<g id="Capa_3">
</g>
</svg>
