<?xml version="1.0" encoding="utf-8"?>
<!-- Generator: Adobe Illustrator 17.0.1, SVG Export Plug-In . SVG Version: 6.00 Build 0)  -->
<!DOCTYPE svg PUBLIC "-//W3C//DTD SVG 1.1//EN" "http://www.w3.org/Graphics/SVG/1.1/DTD/svg11.dtd">
<svg version="1.1" xmlns="http://www.w3.org/2000/svg" xmlns:xlink="http://www.w3.org/1999/xlink" x="0px" y="0px" width="512px"
	 height="512px" viewBox="0 0 512 512" enable-background="new 0 0 512 512" xml:space="preserve">
<g id="Artwork">
	<g id="Layer_5">
		<path d="M387.093,409.987h-5.066c0,0-2.846,0.301-2.846-2.199c0-81.501,0-326.006,0-326.006c0-3.85-3.15-7-7-7H144.005
			c-3.85,0-7,3.15-7,7c0,0,0,243.879,0,325.173c0,3.5-2.979,3.033-2.979,3.033h-4.934c-3.85,0-7,3.15-7,7v23.61c0,3.85,3.15,7,7,7
			h258c3.85,0,7-3.15,7-7v-23.61C394.093,413.138,390.943,409.987,387.093,409.987z M160.03,106.443c0-3.85,3.15-7,7-7h182.125
			c3.85,0,7,3.15,7,7v295.916c0,3.85-3.15,7-7,7H167.03c-3.85,0-7-3.15-7-7V106.443z"/>
		<path d="M338.333,110.265h-160.48c-3.85,0-7,3.15-7,7v274.271c0,3.85,3.15,7,7,7h160.48c3.85,0,7-3.15,7-7V117.265
			C345.333,113.416,342.183,110.265,338.333,110.265z M206.023,214.356c-4.148-6.293-7.091-13.239-6.602-22.365
			c0.863-16.163,14.077-29.507,30.256-29.507c16.635,0,26.324,12.954,28.416,12.954c2.39,0,12.493-12.954,28.409-12.954
			c16.183,0,29.397,13.344,30.262,29.507c0.489,9.126-2.443,16.043-6.602,22.365c-8.338,12.682-44.235,42.834-52.015,42.834
			C250.528,257.19,214.307,226.926,206.023,214.356z M311.108,279.785c-8.445,0-15.292-6.847-15.292-15.292
			c0-8.445,6.846-15.291,15.292-15.291c8.445,0,15.292,6.846,15.292,15.291C326.4,272.938,319.553,279.785,311.108,279.785z"/>
	</g>
</g>
<g id="Capa_3">
</g>
</svg>
