<?xml version="1.0" encoding="utf-8"?>
<!-- Generator: Adobe Illustrator 17.0.1, SVG Export Plug-In . SVG Version: 6.00 Build 0)  -->
<!DOCTYPE svg PUBLIC "-//W3C//DTD SVG 1.1//EN" "http://www.w3.org/Graphics/SVG/1.1/DTD/svg11.dtd">
<svg version="1.1" xmlns="http://www.w3.org/2000/svg" xmlns:xlink="http://www.w3.org/1999/xlink" x="0px" y="0px" width="512px"
	 height="512px" viewBox="0 0 512 512" enable-background="new 0 0 512 512" xml:space="preserve">
<g id="Artwork">
	<g id="Layer_5">
		<g>
			<path d="M242.914,296.205c-0.621-11.595-5.938-22.115-14.056-29.45c-0.428-0.387-1.492-0.991-0.432-2.636
				c6.685-11.182,9.665-22.739,9.665-36.687c0-36.386-26.167-66.768-60.668-73.337c-0.751-0.143-2.267-0.645-2.267-2.645V139.19
				c0-6.477-5.25-11.727-11.726-11.727c-6.476,0-11.726,5.25-11.726,11.727v12.261c0,1.667-2.153,2.615-3.218,2.832
				c-34.031,6.942-59.717,37.099-59.717,73.149c0,13.947,2.86,25.292,9.544,36.474c1.239,1.795,0.119,2.458-0.307,2.843
				c-8.122,7.335-13.441,17.859-14.062,29.456c-0.66,12.366,3.327,21.777,8.943,30.302c11.224,17.029,60.294,58.029,70.617,58.029
				c10.536,0,59.169-40.85,70.468-58.029C239.601,317.944,243.577,308.571,242.914,296.205z M104.77,227.433
				c0-27.88,19.55-51.276,45.661-57.207c0.423-0.096,1.273-0.337,1.273,0.893v14.154c0,6.476,5.25,11.726,11.726,11.726
				c6.476,0,11.726-5.25,11.726-11.726v-14.154c0-0.979,0.702-1.02,1.051-0.942c26.222,5.848,45.884,29.298,45.884,57.257
				c0,11.182-2.124,19.9-7.575,28.803c-0.712,1.591-2.252,1.379-2.875,1.221c-3.116-0.795-6.371-1.221-9.72-1.221
				c-21.566,0-35.254,24.047-38.487,24.047c-2.835,0-15.961-24.047-38.497-24.047c-3.119,0-6.156,0.369-9.075,1.063
				c-0.841,0.199-2.325,0.307-3.228-0.56C107.182,247.836,104.77,238.614,104.77,227.433z"/>
			<path d="M428.054,296.205c-0.62-11.595-5.937-22.115-14.056-29.45c-0.428-0.387-1.493-0.991-0.432-2.636
				c6.685-11.182,9.664-22.739,9.664-36.687c0-36.386-26.166-66.768-60.668-73.337c-0.751-0.143-2.266-0.645-2.266-2.645V139.19
				c0-6.477-5.25-11.727-11.726-11.727c-6.476,0-11.726,5.25-11.726,11.727v12.261c0,1.667-2.153,2.615-3.218,2.832
				c-34.03,6.942-59.717,37.099-59.717,73.149c0,13.947,2.86,25.292,9.544,36.474c1.239,1.795,0.119,2.458-0.307,2.843
				c-8.122,7.335-13.441,17.859-14.062,29.456c-0.66,12.366,3.327,21.777,8.943,30.302c11.224,17.029,60.294,58.029,70.617,58.029
				c10.536,0,59.169-40.85,70.468-58.029C424.742,317.944,428.717,308.571,428.054,296.205z M289.91,227.433
				c0-27.88,19.551-51.276,45.662-57.207c0.423-0.096,1.273-0.337,1.273,0.893v14.154c0,6.476,5.25,11.726,11.726,11.726
				c6.476,0,11.726-5.25,11.726-11.726v-14.154c0-0.979,0.702-1.02,1.051-0.942c26.222,5.848,45.884,29.298,45.884,57.257
				c0,11.182-2.123,19.9-7.575,28.803c-0.713,1.591-2.253,1.379-2.876,1.221c-3.116-0.795-6.37-1.221-9.72-1.221
				c-21.567,0-35.254,24.047-38.487,24.047c-2.836,0-15.961-24.047-38.497-24.047c-3.119,0-6.156,0.369-9.075,1.063
				c-0.841,0.199-2.325,0.307-3.228-0.56C292.322,247.836,289.91,238.614,289.91,227.433z"/>
		</g>
	</g>
</g>
<g id="Capa_3">
</g>
</svg>
