<?xml version="1.0" encoding="utf-8"?>
<!-- Generator: Adobe Illustrator 17.0.1, SVG Export Plug-In . SVG Version: 6.00 Build 0)  -->
<!DOCTYPE svg PUBLIC "-//W3C//DTD SVG 1.1//EN" "http://www.w3.org/Graphics/SVG/1.1/DTD/svg11.dtd">
<svg version="1.1" xmlns="http://www.w3.org/2000/svg" xmlns:xlink="http://www.w3.org/1999/xlink" x="0px" y="0px" width="512px"
	 height="512px" viewBox="0 0 512 512" enable-background="new 0 0 512 512" xml:space="preserve">
<g id="Artwork">
	<g id="Layer_5">
		<path d="M462.025,185.488l-11.146-9.7c-7.468-6.501-9.225-15.911-8.793-25.8l0.645-14.763c0.431-9.891-4.816-12.131-11.661-4.978
			l-31.348,39.629c0,0-2.018,2.051-3.732,2.788c-4.405,1.892-14.061,5.805-18.948,7.902c-2.808,0.78-3.649-0.575-4.277-1.431
			c-13.916-18.937-35.932-31.412-60.735-31.412c-40.048,0-65.455,44.645-71.466,44.645c-5.258,0-29.625-44.645-71.471-44.645
			c-40.699,0-73.935,33.566-76.109,74.212c-1.227,22.961,6.174,40.433,16.605,56.262c1.785,2.71,4.092,5.749,6.822,9.037
			c1.053,1.269,3.199,3.362,0.585,5.096c-9.199,3.949-15.018,6.447-22.791,9.784c-2.604,1.117-4.082-3.401-4.082-3.401
			c-2.17-5.054-7.056-5.938-10.858-1.964l-31.665,33.087c-3.803,3.972-2.414,7.206,3.086,7.188l45.797-0.167
			c5.499-0.02,8.225-4.172,6.056-9.226c0,0-2.336-4.151,0.345-5.302c9.85-4.229,17.687-7.593,29.754-12.773
			c3.6-1.959,4.727-0.016,5.452,0.689c35.35,34.393,88.498,75.693,102.61,75.693c19.572,0,109.862-75.847,130.836-107.741
			c10.455-15.899,17.834-33.301,16.606-56.262c-0.309-5.774-1.258-11.4-2.757-16.81c-0.336-1.213-1.523-3.154,1.352-4.779
			c4.516-1.938,13.833-5.706,17.931-7.466c1.871-0.803,4.569-0.784,4.569-0.784l48.367,5.273
			C467.503,197.335,469.492,191.987,462.025,185.488z"/>
	</g>
</g>
<g id="Capa_3">
</g>
</svg>
