<?xml version="1.0" encoding="utf-8"?>
<!-- Generator: Adobe Illustrator 17.0.1, SVG Export Plug-In . SVG Version: 6.00 Build 0)  -->
<!DOCTYPE svg PUBLIC "-//W3C//DTD SVG 1.1//EN" "http://www.w3.org/Graphics/SVG/1.1/DTD/svg11.dtd">
<svg version="1.1" xmlns="http://www.w3.org/2000/svg" xmlns:xlink="http://www.w3.org/1999/xlink" x="0px" y="0px" width="512px"
	 height="512px" viewBox="0 0 512 512" enable-background="new 0 0 512 512" xml:space="preserve">
<g id="Artwork">
	<g id="Layer_5">
		<g>
			<path d="M404.975,272.647c0,0-85.281,0-113.708,0c-1.625,0-1.37,0.804-1.37,0.804v5.564c0,13.766-2.013,26.702-11.787,24.924
				c-8.33-1.515-27.087-9.201-37.793-13.767c-0.424-0.181-1.233-0.097-1.233,1.216v95.5c0,1.25,0.79,1.433,1.178,1.645
				c6.907,3.767,12.417,5.926,15.888,5.926c21.986,0,120.732-82.329,149.357-121.329
				C405.625,272.969,405.725,272.647,404.975,272.647z"/>
			<path d="M178.083,303.94c-9.776,1.778-11.788-11.158-11.788-24.924v-5.503c0,0,0.159-0.865-1.591-0.865
				c-14.224,0-56.896,0-56.896,0c-1.27,0-1.401,0.378-1.261,0.568c19.396,26.251,71.224,72.512,109.362,99.666
				c0.225,0.16,0.674,0.133,0.674-0.701v-80.792c0-1-0.756-1.195-1.15-1.027C204.662,294.944,186.3,302.444,178.083,303.94z"/>
			<path d="M166.295,243.781c0-13.766,2.012-26.702,11.788-24.924c8.224,1.496,26.61,9.008,37.38,13.591
				c0.384,0.163,1.121-0.185,1.121-1.31v-96.895c0-1.708-0.486-2.096-1.299-2.859c-10.502-9.87-25.574-13.843-42.374-13.843
				c-47.313,0-85.947,39.02-88.476,86.27c-0.932,17.442,2.423,32.158,8.241,45.398c0.138,0.314,0.652,0.94,1.84,0.94
				c0,0,52.642,0,70.188,0c1.625,0,1.591-1.263,1.591-1.263V243.781z"/>
			<path d="M427.547,203.811c-2.529-47.25-41.16-86.27-88.477-86.27c-46.553,0-76.088,51.899-83.078,51.899
				c-2.281,0-7.664-7.237-16.042-16.305c-0.286-0.31-0.867-0.621-0.867,1.066v77.125c0,1.313,0.833,1.47,1.27,1.283
				c10.713-4.567,29.437-12.238,37.757-13.752c9.774-1.778,11.787,11.158,11.787,24.924v5.967c0,0-0.021,0.401,0.308,0.401
				c31.875,0,127.5,0,127.5,0c1.118,0,1.118,0,1.477-0.667C425.38,235.883,428.512,221.863,427.547,203.811z"/>
		</g>
	</g>
</g>
<g id="Capa_3">
</g>
</svg>
