<?xml version="1.0" encoding="utf-8"?>
<!-- Generator: Adobe Illustrator 17.0.1, SVG Export Plug-In . SVG Version: 6.00 Build 0)  -->
<!DOCTYPE svg PUBLIC "-//W3C//DTD SVG 1.1//EN" "http://www.w3.org/Graphics/SVG/1.1/DTD/svg11.dtd">
<svg version="1.1" xmlns="http://www.w3.org/2000/svg" xmlns:xlink="http://www.w3.org/1999/xlink" x="0px" y="0px" width="512px"
	 height="512px" viewBox="0 0 512 512" enable-background="new 0 0 512 512" xml:space="preserve">
<g id="Artwork">
	<g id="Layer_5">
		<path d="M248.84,179.878c3.141,0,17.629-12.171,20.995-17.289c1.678-2.551,2.862-5.344,2.665-9.028
			c-0.349-6.522-5.682-11.909-12.213-11.909c-6.426,0-10.503,7.164-11.467,7.164c-0.844,0-4.755-7.164-11.469-7.164
			c-6.531,0-11.864,5.386-12.213,11.909c-0.197,3.684,0.99,6.488,2.665,9.028C231.145,167.664,245.766,179.878,248.84,179.878z"/>
		<path d="M307.51,195.339c-0.249,4.65,1.251,8.19,3.364,11.395c4.22,6.405,22.675,21.824,26.557,21.824
			c3.964,0,22.252-15.363,26.501-21.824c2.118-3.22,3.613-6.745,3.363-11.395c-0.441-8.233-7.172-15.032-15.417-15.032
			c-8.111,0-13.258,9.043-14.475,9.043c-1.066,0-6.001-9.043-14.477-9.043C314.682,180.307,307.95,187.106,307.51,195.339z"/>
		<path d="M312.027,128.025c2.539,0,14.25-9.838,16.972-13.976c1.356-2.063,2.314-4.319,2.153-7.297
			c-0.282-5.273-4.593-9.626-9.872-9.626c-5.195,0-8.491,5.791-9.27,5.791c-0.682,0-3.843-5.791-9.271-5.791
			c-5.28,0-9.59,4.353-9.872,9.626c-0.159,2.978,0.801,5.245,2.154,7.297C297.724,118.151,309.543,128.025,312.027,128.025z"/>
		<path d="M429.147,286.264c-7.071-25.273-32.691-41.735-58.306-36.026c-25.201,5.617-34.928,37.277-38.71,38.121
			c-3.309,0.737-24.905-23.94-51.238-18.071c-25.613,5.709-41.819,31.495-37.486,57.378c2.448,14.621,9.556,24.578,18.341,33.076
			c17.547,16.975,85.562,52.097,97.618,49.41c12.317-2.745,58.499-63.14,67.223-86.152
			C430.939,312.526,433.141,300.542,429.147,286.264z"/>
		<path d="M249.929,372.96c-8.285-8.015-19.713-21.139-23.288-42.487c-2.811-16.795,0.739-33.941,9.998-48.282
			c9.461-14.656,23.865-24.776,40.557-28.496c3.902-0.87,7.916-1.311,11.93-1.311c15.489,0,27.628,6.054,36.922,11.97
			c0.708,0.438,1.166,0.007,1.028-0.267c-9.015-17.977-24.103-32.238-44.826-36.857c-35.291-7.865-64.233,25.206-68.668,24.218
			c-5.068-1.129-18.104-43.559-51.877-51.087c-34.328-7.651-68.664,14.41-78.14,48.28c-5.353,19.134-2.401,35.196,3.428,50.571
			c11.692,30.841,73.583,111.78,90.09,115.459c10.145,2.261,47.232-13.968,81.073-33.023c0.813-0.555,0.719-1.242,0.186-1.635
			C254.919,377.497,252.434,375.384,249.929,372.96z"/>
	</g>
</g>
<g id="Capa_3">
</g>
</svg>
