<?xml version="1.0" encoding="utf-8"?>
<!-- Generator: Adobe Illustrator 17.0.1, SVG Export Plug-In . SVG Version: 6.00 Build 0)  -->
<!DOCTYPE svg PUBLIC "-//W3C//DTD SVG 1.1//EN" "http://www.w3.org/Graphics/SVG/1.1/DTD/svg11.dtd">
<svg version="1.1" xmlns="http://www.w3.org/2000/svg" xmlns:xlink="http://www.w3.org/1999/xlink" x="0px" y="0px" width="512px"
	 height="512px" viewBox="0 0 512 512" enable-background="new 0 0 512 512" xml:space="preserve">
<g id="Artwork">
	<g id="Layer_5">
		<g>
			<path d="M257.103,175.939c13.455,0,80.571-1.222,80.571-25.335s-67.117-25.335-80.571-25.335
				c-13.455,0-80.571,1.222-80.571,25.335S243.648,175.939,257.103,175.939z M257.103,141.27c33.927,0,62.697,7.456,62.697,9.335
				c0,2.1-28.771,9.335-62.697,9.335s-62.696-7.175-62.696-9.335C194.407,149.036,223.177,141.27,257.103,141.27z"/>
			<path d="M438.514,258.441c-12.487-20.182-57.371-38.138-83.993-38.138c-0.728,0-1.515-0.229-2.164-0.498
				c-0.908-0.376-1.333-0.89-2.036-1.583c-11.742-11.573-27.079-17.947-43.186-17.947c-24.174,0-41.144,18.517-50.26,28.465
				c-0.215,0.234-0.437,0.477-0.662,0.722c-8.357-9.516-25.685-29.186-51.355-29.186c-16.105,0-31.441,6.374-43.182,17.947
				c-0.704,0.693-1.183,1.207-2.09,1.583c-0.648,0.269-1.38,0.498-2.108,0.498c-26.622,0-71.506,17.956-83.993,38.138
				c-5.073,8.198-3.707,14.794-1.668,18.884c3.565,7.147,9.441,10.926,16.995,10.926c5.81,0,16.357-6.717,17.725-5.349
				c1.07,1.069-10.513,16.264-6.093,25.128c2.521,5.056,7.025,7.84,12.68,7.84c7.016,0,20.276-9.942,21.8-8.419
				c0.852,0.852-14.429,18.496-8.914,29.554c1.828,3.665,5.327,5.768,9.601,5.768c0.002,0,0.002,0,0.003,0
				c9.521,0,23.122-11.243,32.338-20.076c0.281-0.27,1.238-0.517,2.229,0.656c10.674,11.235,23.124,22.183,34.358,31.478
				c17.588,14.552,40.811,31.899,51.56,31.899c10.907,0,34.048-17.312,51.54-31.833c11.166-9.271,22.279-18.889,32.937-30.173
				c2.386-2.481,3.276-2.214,3.583-1.921c9.209,8.813,22.742,19.97,32.228,19.97c4.274,0,7.773-2.103,9.602-5.768
				c5.514-11.058-10.318-28.148-8.914-29.553c1.277-1.277,14.784,8.418,21.799,8.418c5.655,0,10.159-2.784,12.68-7.84
				c4.42-8.865-7.54-23.682-6.093-25.128c1.037-1.037,11.915,5.349,17.725,5.349c0.001,0,0.001,0,0.001,0
				c7.552,0,13.428-3.778,16.994-10.926C442.221,273.235,443.587,266.641,438.514,258.441z M298.414,341.759
				c-23.968,20.012-38.505,28.299-42.298,28.952c-3.791-0.692-18.366-9.052-42.456-29.104
				c-20.477-17.045-38.439-34.877-44.698-44.373c-8.081-12.266-11.243-22.862-10.573-35.43c1.343-25.105,22.189-45.529,46.47-45.529
				c18.48,0,32.08,15.485,39.386,23.805c4.46,5.078,7.152,8.144,11.759,8.144c4.719,0,7.542-3.081,12.667-8.674
				c7.978-8.705,21.33-23.274,38.464-23.274c24.282,0,45.13,20.424,46.474,45.529c0.672,12.538-2.492,23.136-10.576,35.436
				C336.698,306.874,318.767,324.765,298.414,341.759z"/>
		</g>
	</g>
</g>
<g id="Capa_3">
</g>
</svg>
