<?xml version="1.0" encoding="utf-8"?>
<!-- Generator: Adobe Illustrator 17.0.1, SVG Export Plug-In . SVG Version: 6.00 Build 0)  -->
<!DOCTYPE svg PUBLIC "-//W3C//DTD SVG 1.1//EN" "http://www.w3.org/Graphics/SVG/1.1/DTD/svg11.dtd">
<svg version="1.1" xmlns="http://www.w3.org/2000/svg" xmlns:xlink="http://www.w3.org/1999/xlink" x="0px" y="0px" width="512px"
	 height="512px" viewBox="0 0 512 512" enable-background="new 0 0 512 512" xml:space="preserve">
<g id="Artwork">
	<g id="Layer_5">
		<path d="M420.334,149.559c-0.511-7.445-6.763-13.383-14.335-13.383h-2.399H108.399h-2.398c-7.571,0-13.823,5.938-14.335,13.383
			c-0.027,0.324-0.036,0.656-0.036,0.988v210.904c0,0.334,0.009,0.666,0.036,0.99c0.512,7.445,6.764,13.381,14.335,13.381h2.39
			h295.219h2.39c7.572,0,13.824-5.936,14.335-13.381c0.027-0.324,0.036-0.656,0.036-0.99V150.547
			C420.37,150.215,420.361,149.883,420.334,149.559z M134.734,154.141c56.938,0,220.113,0,241.728,0
			c2.283,0,0.047,1.688,0.047,1.688l-36.624,26.564c-2.536,1.748-3.409,1.174-3.853,0.85c-8.6-6.277-19.068-10.014-30.373-10.014
			c-27.822,0-45.48,30.361-49.658,30.361c-3.657,0-20.593-30.361-49.67-30.361c-10.398,0-20.091,3.162-28.271,8.557
			c-1.169,0.771-2.949,2.506-5.317,1.064l-38.499-27.926C134.244,154.924,133.388,154.141,134.734,154.141z M109.594,343.488
			V168.512c0-1.842-0.121-5.887,1.854-4.602l46.67,33.848c2.473,1.652,2.001,3.582,1.596,4.352
			c-3.611,6.867-5.835,14.574-6.269,22.695c-0.854,15.953,4.291,28.096,11.54,39.094c4.269,6.477,12.779,15.641,23.003,25.346
			c0.674,0.639,1.645,2.232-0.419,3.715c-28.514,20.713-59.866,43.457-76.086,55.103
			C110.154,349.016,109.594,347.486,109.594,343.488z M374.665,357.859c-59.855,0-178.523,0-239.425,0
			c-2.021,0,0.213-1.666,0.213-1.666l67.832-49.199c2.366-1.748,3.531-0.9,4.06-0.453c20.482,17.293,41.674,32.231,48.75,32.231
			c7.282,0,28.65-15.109,49.172-32.549c0.365-0.311,1.357-0.977,2.615,0.166l68.781,49.887
			C376.663,356.275,377.697,357.859,374.665,357.859z M401.419,348.715l-77.703-56.359c-1.523-1.031-0.805-1.93-0.405-2.311
			c10.509-9.971,19.304-19.451,23.706-26.146c7.271-11.051,12.395-23.141,11.539-39.094c-0.464-8.668-2.968-16.871-7.023-24.078
			c-0.168-0.299-0.3-0.867,0.949-1.951l48.938-35.492c1.315-0.994,0.987,3.387,0.987,5.229v174.977
			C402.406,345.33,402.548,349.395,401.419,348.715z"/>
	</g>
</g>
<g id="Capa_3">
</g>
</svg>
