<?xml version="1.0" encoding="utf-8"?>
<!-- Generator: Adobe Illustrator 17.0.1, SVG Export Plug-In . SVG Version: 6.00 Build 0)  -->
<!DOCTYPE svg PUBLIC "-//W3C//DTD SVG 1.1//EN" "http://www.w3.org/Graphics/SVG/1.1/DTD/svg11.dtd">
<svg version="1.1" xmlns="http://www.w3.org/2000/svg" xmlns:xlink="http://www.w3.org/1999/xlink" x="0px" y="0px" width="512px"
	 height="512px" viewBox="0 0 512 512" enable-background="new 0 0 512 512" xml:space="preserve">
<g id="Artwork">
	<g id="Layer_5">
		<path d="M272.575,55.082c-9.29,0-15.184,10.356-16.577,10.356c-1.221,0-6.874-10.356-16.58-10.356
			c-9.44,0-17.151,7.786-17.655,17.217c-0.285,5.326,1.433,9.379,3.852,13.05c4.833,7.334,25.969,24.994,30.414,24.994
			c4.539,0,25.484-17.595,30.351-24.994c2.426-3.688,4.137-7.724,3.852-13.05C289.726,62.868,282.017,55.082,272.575,55.082"/>
		<path d="M395.646,132.795c-7.498,0-12.258,8.361-13.381,8.361c-0.986,0-5.55-8.361-13.387-8.361
			c-7.621,0-13.845,6.286-14.252,13.898c-0.23,4.3,1.156,7.572,3.11,10.535c3.901,5.921,20.964,20.178,24.554,20.178
			c3.664,0,20.572-14.204,24.501-20.178c1.958-2.977,3.339-6.235,3.108-10.535C409.494,139.081,403.269,132.795,395.646,132.795"/>
		<path d="M143.119,132.795c-7.499,0-12.258,8.361-13.382,8.361c-0.986,0-5.549-8.361-13.386-8.361
			c-7.621,0-13.845,6.286-14.252,13.898c-0.23,4.3,1.156,7.572,3.11,10.535c3.9,5.921,20.963,20.178,24.553,20.178
			c3.664,0,20.572-14.204,24.502-20.178c1.958-2.977,3.339-6.235,3.108-10.535C156.966,139.081,150.742,132.795,143.119,132.795"/>
		<path d="M407.113,198.764c0,0-49.272,0-65.696,0c-3.916,0-3.824-3.514-3.824-3.514v-44.652c0-6.299-5.153-11.453-11.452-11.453
			H185.853c-6.299,0-11.452,5.154-11.452,11.453v44.651c0,0,0.016,3.515-3.151,3.515c-16.592,0-66.37,0-66.37,0
			c-6.299,0-11.452,5.154-11.452,11.453v163.377c0,6.299,5.153,11.453,11.452,11.453h302.232c6.299,0,11.452-5.154,11.452-11.453
			V210.216C418.565,203.917,413.412,198.764,407.113,198.764z M197.589,171.66c0-4.41,3.606-8.017,8.016-8.017h25.96
			c4.409,0,8.017,3.607,8.017,8.017v22.142c0,4.408-3.607,8.017-8.017,8.017h-25.96c-4.409,0-8.016-3.608-8.016-8.017V171.66z
			 M163.996,322.832c0,4.41-3.608,8.017-8.018,8.017h-25.959c-4.41,0-8.017-3.606-8.017-8.017v-22.141
			c0-4.409,3.606-8.017,8.017-8.017h25.959c4.409,0,8.018,3.608,8.018,8.017V322.832z M163.996,257.172
			c0,4.408-3.608,8.017-8.018,8.017h-25.959c-4.41,0-8.017-3.608-8.017-8.017V235.03c0-4.41,3.606-8.017,8.017-8.017h25.959
			c4.409,0,8.018,3.607,8.018,8.017V257.172z M197.589,257.172V235.03c0-4.41,3.606-8.017,8.016-8.017h25.96
			c4.409,0,8.017,3.607,8.017,8.017v22.142c0,4.408-3.607,8.017-8.017,8.017h-25.96C201.196,265.189,197.589,261.58,197.589,257.172
			z M283.482,353.754c0,4.41-3.606,8.017-8.016,8.017h-38.939c-4.409,0-8.017-3.607-8.017-8.017v-45.428
			c0-4.41,3.607-8.017,8.017-8.017h38.939c4.409,0,8.016,3.607,8.016,8.017V353.754z M314.404,257.172
			c0,4.408-3.606,8.017-8.017,8.017h-25.959c-4.409,0-8.017-3.608-8.017-8.017V235.03c0-4.41,3.607-8.017,8.017-8.017h25.959
			c4.41,0,8.017,3.607,8.017,8.017V257.172z M314.404,193.802c0,4.408-3.606,8.017-8.017,8.017h-25.959
			c-4.409,0-8.017-3.608-8.017-8.017V171.66c0-4.41,3.607-8.017,8.017-8.017h25.959c4.41,0,8.017,3.607,8.017,8.017V193.802z
			 M389.991,322.832c0,4.41-3.606,8.017-8.017,8.017h-25.96c-4.408,0-8.017-3.606-8.017-8.017v-22.141
			c0-4.409,3.608-8.017,8.017-8.017h25.96c4.41,0,8.017,3.608,8.017,8.017V322.832z M389.991,257.172
			c0,4.408-3.606,8.017-8.017,8.017h-25.96c-4.408,0-8.017-3.608-8.017-8.017V235.03c0-4.41,3.608-8.017,8.017-8.017h25.96
			c4.41,0,8.017,3.607,8.017,8.017V257.172z"/>
	</g>
</g>
<g id="Capa_3">
</g>
</svg>
