<?xml version="1.0" encoding="utf-8"?>
<!-- Generator: Adobe Illustrator 17.0.1, SVG Export Plug-In . SVG Version: 6.00 Build 0)  -->
<!DOCTYPE svg PUBLIC "-//W3C//DTD SVG 1.1//EN" "http://www.w3.org/Graphics/SVG/1.1/DTD/svg11.dtd">
<svg version="1.1" xmlns="http://www.w3.org/2000/svg" xmlns:xlink="http://www.w3.org/1999/xlink" x="0px" y="0px" width="512px"
	 height="512px" viewBox="0 0 512 512" enable-background="new 0 0 512 512" xml:space="preserve">
<g id="Artwork">
	<g id="Layer_5">
		<g>
			<path d="M363.226,95.971c-12.859,0-21.021,14.34-22.951,14.34c-1.691,0-9.518-14.34-22.958-14.34
				c-13.071,0-23.747,10.779-24.445,23.838c-0.395,7.373,1.984,12.984,5.335,18.068c6.692,10.156,35.955,34.605,42.111,34.605
				c6.285,0,35.285-24.359,42.023-34.605c3.359-5.107,5.728-10.695,5.333-18.068C386.976,106.75,376.3,95.971,363.226,95.971"/>
			<path d="M312.974,229.963c-1.078-0.275-3.472,0.795-3.472-3.225c-2.504-59.516-40.621-92.512-87.483-92.512
				c-39.651,0-73.157,25.859-84.049,69.867c-1.121,2.211-1.98,12.466-2.641,21.914c0,3-2.162,3.785-2.825,3.955
				c-7.106,1.82-10.196,13.715-6.903,26.568c2.529,9.873,8.093,17.434,13.757,19.584c0.393,1.811,0.827,3.545,1.31,5.186
				c5.225,17.76,23.608,44.855,44.122,57.607c0.799,0.713,2.563,5.236,1.184,13.506c-2.559,15.334-14.33,35.514-39.698,46.166
				c-4.62,1.939-6.792,7.258-4.852,11.877c1.94,4.621,7.259,6.795,11.878,4.853c35.141-14.756,49.527-44.103,51.17-64.75
				c1.001-12.58-2.652-22.424-10.022-27.006c-16.183-10.064-32.157-33.045-36.372-47.377c-4.23-14.371-4.183-39.66-4.149-58.125
				c0,0-0.052-2.391,2.157-2.391c15.537,0,38.617-0.02,61.916-0.039c3.336-0.002,18.718-20.518,22.041-20.521
				c3.4-0.003-5.259,20.507-1.917,20.504c3.47-0.002,6.895-0.005,10.251-0.008c3.327-0.002,18.627-20.518,21.792-20.52
				c3.384-0.003-5.381,20.508-2.242,20.506c5.951-0.004,11.407-0.006,16.158-0.004c2.876,0,2.583,2.498,2.583,2.498
				s3.168,41.668-2.622,58.102c-5.2,14.761-18.334,36.111-36.386,47.383c-6.91,4.314-10.333,13.869-9.391,26.217
				c1.594,20.891,15.783,50.584,50.526,65.512c1.167,0.502,2.382,0.738,3.577,0.738c3.517,0,6.864-2.057,8.34-5.492
				c1.978-4.605-0.15-9.94-4.754-11.918c-29.133-12.518-36.845-36.426-38.514-43.455c-2.225-9.367-0.77-15.1,0.1-16.383
				c17.01-10.711,30.209-27.641,37.966-42.885c3.443-5.813,6.311-12.219,8.553-19.244c6.331-0.889,12.98-9.051,15.817-20.121
				C323.17,243.678,320.08,231.783,312.974,229.963z"/>
		</g>
	</g>
</g>
<g id="Capa_3">
</g>
</svg>
