<?xml version="1.0" encoding="utf-8"?>
<!-- Generator: Adobe Illustrator 17.0.1, SVG Export Plug-In . SVG Version: 6.00 Build 0)  -->
<!DOCTYPE svg PUBLIC "-//W3C//DTD SVG 1.1//EN" "http://www.w3.org/Graphics/SVG/1.1/DTD/svg11.dtd">
<svg version="1.1" xmlns="http://www.w3.org/2000/svg" xmlns:xlink="http://www.w3.org/1999/xlink" x="0px" y="0px" width="512px"
	 height="512px" viewBox="0 0 512 512" enable-background="new 0 0 512 512" xml:space="preserve">
<g id="Artwork">
	<g id="Layer_5">
		<path d="M462.496,233.515c-43.294-18.713-85.037-89.107-127.037-89.107c-41.988,0-51.995,19.988-79.977,19.999
			c-27.981-0.011-37.989-19.999-79.977-19.999c-42,0-86.804,75.395-125.68,90.67c-2.929,1.151,1.416,5.242,9.235,14.078
			c35.936,40.607,57.549,148.61,196.329,148.61c142.659,0,168.643-118.723,200.518-154.161
			C461.634,237.24,464.395,234.337,462.496,233.515z M340.551,261.282c-13.926,5.403-41.839,38.03-84.547,38.03
			c-46.144,0-69.494-30.928-85.153-38.03c-0.4-0.181-0.469-1.107,0-1.319c8.595-3.898,26.686-17.102,45.317-17.102
			c18.626,0,25.538,5.027,37.953,5.029c12.416-0.002,23.249-5.029,41.876-5.029c18.631,0,36.754,13.218,45.317,17.102
			C341.701,260.137,341.413,260.947,340.551,261.282z"/>
	</g>
</g>
<g id="Capa_3">
</g>
</svg>
