<?xml version="1.0" encoding="utf-8"?>
<!-- Generator: Adobe Illustrator 17.0.1, SVG Export Plug-In . SVG Version: 6.00 Build 0)  -->
<!DOCTYPE svg PUBLIC "-//W3C//DTD SVG 1.1//EN" "http://www.w3.org/Graphics/SVG/1.1/DTD/svg11.dtd">
<svg version="1.1" xmlns="http://www.w3.org/2000/svg" xmlns:xlink="http://www.w3.org/1999/xlink" x="0px" y="0px" width="512px"
	 height="512px" viewBox="0 0 512 512" enable-background="new 0 0 512 512" xml:space="preserve">
<g id="Artwork">
	<g id="Layer_5">
		<g>
			<path d="M403.461,213.107c-2.235-1.536-115.842-98.321-142.106-118.508c-3.436-2.642-3.683-2.836-5.378-2.831
				c-1.846,0.007-2.11,0.341-5.822,3.234c-27.026,21.063-138.988,117.812-140.307,119.131c-4.789,4.788-1.75,7.88,1.35,10.054
				c8.965,6.287,22.286,14.971,40.792,27.166c0.735,0.485,1.472,0.971,2.209,1.456c0.946,0.623,2.841,0.687,2.841-2.468v-58.442
				c0-5.648,4.621-10.27,10.27-10.27H344.69c5.648,0,10.27,4.622,10.27,10.27c0,0,0,42.855,0,57.14c0,3.436,1.584,3.402,2.353,2.878
				c11.861-8.09,46.052-30.919,46.052-30.919C404.738,220.092,407.56,215.926,403.461,213.107z"/>
			<path d="M412.717,238.875c0-4.738-3.014-2.75-3.014-2.75l-114.446,76.839c0,0-2.341,1.782-5.54,1.782
				c-1.137,0-68.596,0.322-68.586,0.178c-3.436,0-5.003-1.174-5.858-1.772c-34.993-24.469-92.608-61.331-113.267-75.817
				c-2.42-1.697-2.842,0.948-2.842,0.948v160.152c0,11.988,9.808,21.796,21.795,21.796h270.08c11.988,0,21.797-9.808,21.797-21.796
				C412.836,398.436,412.717,283.504,412.717,238.875z"/>
			<path d="M280.828,220.549c-13.917,0-22.75,15.517-24.836,15.517c-1.828,0-10.299-15.517-24.842-15.517
				c-14.145,0-25.694,11.666-26.45,25.792c-0.427,7.979,2.146,14.053,5.773,19.554c7.24,10.988,38.905,37.445,45.565,37.445
				c6.8,0,38.182-26.36,45.472-37.445c3.632-5.525,6.198-11.574,5.77-19.554C306.523,232.215,294.975,220.549,280.828,220.549"/>
		</g>
	</g>
</g>
<g id="Capa_3">
</g>
</svg>
