<?xml version="1.0" encoding="utf-8"?>
<!-- Generator: Adobe Illustrator 17.0.1, SVG Export Plug-In . SVG Version: 6.00 Build 0)  -->
<!DOCTYPE svg PUBLIC "-//W3C//DTD SVG 1.1//EN" "http://www.w3.org/Graphics/SVG/1.1/DTD/svg11.dtd">
<svg version="1.1" xmlns="http://www.w3.org/2000/svg" xmlns:xlink="http://www.w3.org/1999/xlink" x="0px" y="0px" width="512px"
	 height="512px" viewBox="0 0 512 512" enable-background="new 0 0 512 512" xml:space="preserve">
<g id="Artwork">
	<g id="Layer_5">
		<g>
			<path d="M421.375,173.125c0-5-3.182-2.902-3.182-2.902l-103.568,72.965c-0.938,0.75-2.438,1.188-2.395,2.698
				c0.252,8.853-2.369,15.546-6.396,21.67c-8.078,12.284-42.854,41.496-50.39,41.496c-7.379,0-42.47-29.318-50.496-41.496
				c-4.017-6.097-6.787-11.767-6.51-20.618c0.061-2-2.761-3.41-2.75-3.563c-36.595-25.774-79.857-56.215-102.189-71.875
				c-2.555-1.792-3,1-3,1v189c0,12.65,10.351,23,23,23H398.5c12.65,0,23-10.35,23-23C421.5,361.5,421.375,220.219,421.375,173.125z"
				/>
			<path d="M96.499,144.5L206.938,222c2.561,1.688,3.782,1.068,4.354,0.66c4.716-3.365,10.423-5.357,16.573-5.357
				c16.116,0.001,25.501,17.195,27.525,17.196c2.316,0,12.101-17.196,27.525-17.195c5.83-0.001,11.258,1.79,15.824,4.842
				c0.717,0.48,2.51,1.104,5.635-1.146l110.291-77.167c3.584-3.083,2.729-6.504,1.672-7.803c-4.225-5.196-10.66-8.53-17.838-8.53
				H113.499c-7.834,0-14.783,3.971-18.94,9.999C93.737,138.693,92.499,141.5,96.499,144.5z"/>
		</g>
	</g>
</g>
<g id="Capa_3">
</g>
</svg>
