<?xml version="1.0" encoding="utf-8"?>
<!-- Generator: Adobe Illustrator 17.0.1, SVG Export Plug-In . SVG Version: 6.00 Build 0)  -->
<!DOCTYPE svg PUBLIC "-//W3C//DTD SVG 1.1//EN" "http://www.w3.org/Graphics/SVG/1.1/DTD/svg11.dtd">
<svg version="1.1" xmlns="http://www.w3.org/2000/svg" xmlns:xlink="http://www.w3.org/1999/xlink" x="0px" y="0px" width="512px"
	 height="512px" viewBox="0 0 512 512" enable-background="new 0 0 512 512" xml:space="preserve">
<g id="Artwork">
	<g id="Layer_5">
		<g>
			<path d="M281.493,210.033c-14.284,0-23.348,15.927-25.49,15.927c-1.879,0-10.57-15.927-25.497-15.927
				c-14.518,0-26.374,11.975-27.151,26.475c-0.437,8.188,2.207,14.422,5.927,20.068c7.432,11.277,39.931,38.432,46.77,38.432
				c6.979,0,39.185-27.053,46.669-38.432c3.731-5.674,6.36-11.881,5.924-20.068C307.867,222.008,296.011,210.033,281.493,210.033z"
				/>
			<path d="M409.5,252.52c0-24.813-4.711-45.808-15.21-66.571c-0.933-1.704-0.853-2.902-0.688-3.139
				c10.422-14.951,10.898-52.736-20.022-74.29c-27.375-19.081-70.178-19.04-86.867-8.406c-0.787,0.502-1.689,1.131-5.689,0.798
				c-9.247-1.745-15.276-1.892-25.023-1.892c-10.69,0-18.398,0.469-28.477,2.559c-3.5-0.166-4.369-0.717-5.326-1.339
				c-16.549-10.761-59.582-10.876-87.064,8.28c-30.921,21.554-30.444,59.339-20.022,74.29c0.383,0.55,0.802,1.068,1.25,1.561
				c0.448,0.491,1.497,1.623,0.63,3.073c-9.794,20.195-14.49,41.166-14.49,65.076c0,52.882,24.062,97.648,64.875,125.265
				c2.231,2.21,2.231,2.21,1.175,3.586c-3.294,4.291-5.858,9.315-5.858,15.149c0,12.443,10.087,22.53,22.531,22.53
				c11.43,0,20.864-8.513,22.327-19.542c0.056-0.425,0.723-1.097,2.155-0.63c15.199,5.053,29.421,7.142,46.295,7.142
				c18.505,0,34.227-2.565,50.67-8.593c1.937-1.099,2.049,0.186,2.079,0.639c0.794,11.723,10.55,20.984,22.474,20.984
				c12.443,0,22.53-10.087,22.53-22.53c0-7.127-3.313-13.478-8.479-17.605c-0.356-0.285-0.834-1.42,0.416-2.337
				C385.167,348.774,409.5,304.369,409.5,252.52z M256,387.021c-74.164,0-134.5-60.337-134.5-134.5s60.336-134.5,134.5-134.5
				c74.163,0,134.5,60.337,134.5,134.5S330.163,387.021,256,387.021z"/>
			<path d="M150.133,246.152h-15c-4.418,0-8,3.582-8,8c0,4.418,3.582,8,8,8h15c4.419,0,8-3.582,8-8
				C158.133,249.734,154.551,246.152,150.133,246.152z"/>
			<path d="M368.002,246.152h-15c-4.418,0-8,3.582-8,8c0,4.418,3.582,8,8,8h15c4.418,0,8-3.582,8-8
				C376.002,249.734,372.42,246.152,368.002,246.152z"/>
			<path d="M256,346.785c-4.419,0-8,3.582-8,8v15c0,4.418,3.581,8,8,8c4.418,0,8-3.582,8-8v-15
				C264,350.367,260.418,346.785,256,346.785z"/>
			<path d="M256,166.785c4.418,0,8-3.582,8-8v-15c0-4.418-3.582-8-8-8c-4.419,0-8,3.582-8,8v15
				C248,163.203,251.581,166.785,256,166.785z"/>
		</g>
	</g>
</g>
<g id="Capa_3">
</g>
</svg>
