<?xml version="1.0" encoding="utf-8"?>
<!-- Generator: Adobe Illustrator 17.0.1, SVG Export Plug-In . SVG Version: 6.00 Build 0)  -->
<!DOCTYPE svg PUBLIC "-//W3C//DTD SVG 1.1//EN" "http://www.w3.org/Graphics/SVG/1.1/DTD/svg11.dtd">
<svg version="1.1" xmlns="http://www.w3.org/2000/svg" xmlns:xlink="http://www.w3.org/1999/xlink" x="0px" y="0px" width="512px"
	 height="512px" viewBox="0 0 512 512" enable-background="new 0 0 512 512" xml:space="preserve">
<g id="Artwork">
	<g id="Layer_5">
		<path d="M345.44,199.334c1.398-7.746,1.558-13.248,1.238-21.807c-1.8-48.035-31.864-88.047-67.15-89.371
			c-34.631-1.297-61.407,32.607-60.696,79.365c0,0-0.383,2.15-1.989,0.541c-6.737-6.734-15.526-10.027-24.002-9.809
			c-0.094,0.004-0.309,0.094-0.5-0.521l-21.326-52.23c-1.574-3.855-5.89-5.936-9.641-4.646c-3.747,1.291-5.511,5.461-3.938,9.318
			l21.044,51.533c0.246,0.516-0.059,0.773-0.208,0.867c-1.729,1.084-3.36,2.367-4.857,3.863c-1.392,1.393-2.601,2.902-3.636,4.498
			c-0.173,0.268-0.334,0.834-1.351,0.463l-51.279-20.939c-3.857-1.572-8.029,0.191-9.318,3.939
			c-1.291,3.748,0.792,8.064,4.647,9.639l51.576,21.061c1.208,0.52,1.166,1.061,1.163,1.348c-0.12,8.232,2.265,15.859,9.823,23.418
			c2.314,2.314-2.064,2.01-2.064,2.01c-46.757-0.711-79.142,26.047-77.845,60.678c1.322,35.287,41.334,65.352,89.371,67.15
			c8.558,0.32,12.605,0.377,20.352-1.022c3.567-0.299,4.051,1.574,4.035,2.701c-0.255,17.131,6.499,34.822,20.102,48.426
			c25.468,25.469,65.265,26.959,88.894,3.33c11.088-11.086,16.583-23.641,16.73-38.697c-0.238-2.301,1.893-2.348,2.795-2.541
			c5.164-1.109,10.003-3.609,13.929-7.533c4.225-4.225,6.798-9.51,7.763-15.121c0.087-0.514,0.552-1.684,2.324-1.59
			c15.057-0.143,27.602-5.658,38.686-16.742c23.629-23.629,22.138-63.426-3.33-88.895c-13.539-13.537-31.119-20.291-48.174-20.107
			C347.398,201.924,345.251,201.908,345.44,199.334z M294.163,354.99c0,11.762-9.532,21.295-21.293,21.293
			c-11.759,0.002-21.293-9.531-21.294-21.291c0.001-11.764,9.534-21.297,21.295-21.295
			C284.629,333.695,294.163,343.23,294.163,354.99z M201.81,256.412c2.41,9.967,0.873,40.938-2.649,44.459
			c-3.45,3.449-34.622,5.08-44.507,2.695c-4.949-1.191-9.672-3.25-13.904-7.924c-7.499-8.281-8.028-20.777-0.704-28.102
			c7.533-7.533,20.585-3.258,21.532-4.205c1.082-1.082-3.008-14.32,4.199-21.527c7.328-7.328,19.824-6.799,28.106,0.701
			C198.557,246.74,200.606,251.445,201.81,256.412z M249.486,186.906c-7.499-8.281-8.029-20.777-0.703-28.104
			c7.532-7.531,20.582-3.256,21.53-4.203c1.082-1.082-3.008-14.32,4.202-21.529c7.326-7.326,19.822-6.797,28.104,0.701
			c4.673,4.232,6.725,8.936,7.925,13.904c2.412,9.965,0.875,40.936-2.647,44.459c-3.45,3.449-34.622,5.08-44.506,2.695
			C258.44,193.639,253.718,191.58,249.486,186.906z M383.258,265.895c0.001,11.762-9.532,21.295-21.292,21.293
			c-11.76,0.002-21.293-9.531-21.294-21.291c0-11.764,9.534-21.297,21.294-21.295C373.725,244.602,383.259,254.135,383.258,265.895z
			"/>
	</g>
</g>
<g id="Capa_3">
</g>
</svg>
