<?xml version="1.0" encoding="utf-8"?>
<!-- Generator: Adobe Illustrator 17.0.1, SVG Export Plug-In . SVG Version: 6.00 Build 0)  -->
<!DOCTYPE svg PUBLIC "-//W3C//DTD SVG 1.1//EN" "http://www.w3.org/Graphics/SVG/1.1/DTD/svg11.dtd">
<svg version="1.1" xmlns="http://www.w3.org/2000/svg" xmlns:xlink="http://www.w3.org/1999/xlink" x="0px" y="0px" width="512px"
	 height="512px" viewBox="0 0 512 512" enable-background="new 0 0 512 512" xml:space="preserve">
<g id="Artwork">
	<g id="Layer_5">
		<path d="M340.479,123.829c-1.246-23.268-20.269-42.483-43.569-42.483c-22.922,0-37.472,25.558-40.908,25.558
			c-3.01,0-16.961-25.558-40.916-25.558c-23.298,0-42.321,19.216-43.566,42.483c-0.702,13.142,3.534,23.145,9.509,32.206
			c9.674,14.683,45.819,46.128,64.979,57.48c0.729,0.431,2.109,2.181,2.109,4.056v97.375c0,1.938-0.803,1.932-1.226,1.586
			c-24.072-19.697-60.587-11.476-64.466-5.885c-4.112,5.928,14.416,17.037,29.836,46.778c8.153,15.724,23.15,25.87,34.61,26.266
			c0.42,0.015,1.245,0.13,1.245,1.88c0,0,0,29.718,0,39.624c0,4.251,0.552,5.46,3,5.46c2.529,0,7.589,0,10.118,0
			c2.6,0,3-1.626,3-5.626c0-28.751,0-114.333,0-114.333c0-1.688,0.679-1.685,1.026-1.65c9.412,0.929,22.739-8.203,29.174-22.38
			c11.056-24.36,25.368-33.992,21.841-38.547c-3.327-4.297-31.523-7.823-51.162,7.382c-0.307,0.237-0.879,0.5-0.879-2.054V217.57
			c0-2.625,1.243-3.61,1.896-3.994c19.149-11.272,55.092-42.708,64.847-57.541C336.957,146.934,341.184,136.971,340.479,123.829z
			 M245.25,356.186c-1.344,0.724-3.089-1.107-3.57-1.666c-14.752-17.136-21.932-26.806-43.288-36.502
			c-0.544-0.247-1.328-1.136-0.89-1.989c0.524-1.02,1.853-1.329,2.873-1.343c14.044-0.194,37.707,4.74,45.875,32.75
			C247.106,350.375,246.875,355.311,245.25,356.186z M269.25,276.436c8.322-22.585,24.855-25.251,33.583-24.749
			c0.814,0.047,2.845,0.427,3.001,0.833c0.267,0.693-1.58,1.886-1.983,2.142c-15.867,10.06-15.867,10.06-27.226,24.774
			c-0.36,0.467-5.699,7.773-7.125,7.125C268.125,285.936,268.083,279.603,269.25,276.436z M300.417,156.006
			c-7.114,10.817-37.734,36.539-44.369,36.539c-6.5,0-37.398-25.815-44.465-36.539c-3.537-5.367-6.047-11.294-5.631-19.08
			c0.737-13.783,12.008-25.168,25.811-25.168c14.19,0,22.455,15.143,24.24,15.143c2.035,0,10.653-15.143,24.233-15.143
			c13.802,0,25.074,11.385,25.812,25.168C306.466,144.712,303.962,150.614,300.417,156.006z"/>
	</g>
</g>
<g id="Capa_3">
</g>
</svg>
