<?xml version="1.0" encoding="utf-8"?>
<!-- Generator: Adobe Illustrator 17.0.1, SVG Export Plug-In . SVG Version: 6.00 Build 0)  -->
<!DOCTYPE svg PUBLIC "-//W3C//DTD SVG 1.1//EN" "http://www.w3.org/Graphics/SVG/1.1/DTD/svg11.dtd">
<svg version="1.1" xmlns="http://www.w3.org/2000/svg" xmlns:xlink="http://www.w3.org/1999/xlink" x="0px" y="0px" width="512px"
	 height="512px" viewBox="0 0 512 512" enable-background="new 0 0 512 512" xml:space="preserve">
<g id="Artwork">
	<g id="Layer_5">
		<g>
			<path d="M291.018,168.515c-19.623-0.001-32.072,21.875-35.018,21.875c-2.575,0-14.515-21.875-35.019-21.876
				c-19.941,0.001-36.226,16.447-37.293,36.363c-0.6,11.25,3.027,19.811,8.137,27.567c10.211,15.493,54.854,52.79,64.24,52.791
				c9.591,0,53.83-37.163,64.107-52.791c5.124-7.791,8.739-16.316,8.138-27.567C327.244,184.961,310.961,168.514,291.018,168.515"/>
			<path d="M401.773,107.324H110.227c-10.84,0-19.658,8.819-19.658,19.659v216.503c0,10.839,8.818,19.658,19.658,19.658
				c0,0,83.384,0,114.513,0c2.409,0,2.727,0.062,2.727,2.615c0,5.27,0,21.079,0,21.079c0,1.345-1.101,2.446-2.446,2.446h-47.291
				c-1.346,0-2.446,1.101-2.446,2.446v10.499c0,1.345,1.101,2.446,2.446,2.446h156.542c1.346,0,2.446-1.101,2.446-2.446v-10.499
				c0-1.345-1.101-2.446-2.446-2.446h-47.289c-1.346,0-2.445-1.101-2.445-2.446c0,0,0-15.857,0-21.143
				c0-2.211,0.18-2.551,2.768-2.551c31.117,0,114.469,0,114.469,0c10.84,0,19.658-8.819,19.658-19.658V126.983
				C421.431,116.143,412.613,107.324,401.773,107.324z M247.143,337.314c0-4.892,3.966-8.857,8.856-8.857
				c4.893,0,8.859,3.965,8.859,8.857c0,4.892-3.967,8.857-8.859,8.857C251.109,346.171,247.143,342.206,247.143,337.314z
				 M402.08,305.39c0,4.272-3.495,7.766-7.766,7.766H117.687c-4.272,0-7.766-3.494-7.766-7.766V137.153
				c0-4.271,3.494-7.766,7.766-7.766h276.627c4.27,0,7.766,3.495,7.766,7.766V305.39z"/>
		</g>
	</g>
</g>
<g id="Capa_3">
</g>
</svg>
