<?xml version="1.0" encoding="utf-8"?>
<!-- Generator: Adobe Illustrator 17.0.1, SVG Export Plug-In . SVG Version: 6.00 Build 0)  -->
<!DOCTYPE svg PUBLIC "-//W3C//DTD SVG 1.1//EN" "http://www.w3.org/Graphics/SVG/1.1/DTD/svg11.dtd">
<svg version="1.1" xmlns="http://www.w3.org/2000/svg" xmlns:xlink="http://www.w3.org/1999/xlink" x="0px" y="0px" width="512px"
	 height="512px" viewBox="0 0 512 512" enable-background="new 0 0 512 512" xml:space="preserve">
<g id="Artwork">
	<g id="Layer_5">
		<g>
			<path d="M253.689,220.945c-9.179,9.179-4.771,25.236-6.146,26.612c-1.204,1.205-17.024-3.441-26.615,6.15
				c-9.328,9.328-9.251,24.639-0.434,34.452c4.98,5.543,10.682,7.853,16.701,9.089c12.023,2.471,50.353-0.964,54.744-5.355
				c4.484-4.485,7.795-42.563,5.294-54.682c-1.248-6.041-3.546-11.722-9.091-16.701
				C278.328,211.694,263.019,211.617,253.689,220.945"/>
			<path d="M394.592,264.689L252.276,122.374c-3.247-3.248-9.66-5.764-14.249-5.59l-114.396-1.813
				c-4.588,0.176-8.484,4.072-8.659,8.66l1.813,114.397c-0.175,4.588,2.342,11,5.59,14.248L264.69,394.593
				c3.247,3.246,8.561,3.246,11.809,0l118.095-118.094C397.84,273.251,397.84,267.936,394.592,264.689z M132.215,149.142
				c-4.674-4.674-4.674-12.252,0-16.926c4.676-4.676,12.252-4.676,16.927,0c4.675,4.674,4.675,12.252,0,16.926
				S136.891,153.815,132.215,149.142z M368.403,276.882l-91.522,91.521c-3.246,3.248-8.562,3.248-11.81,0l-118.05-118.049
				c-3.248-3.248-3.248-8.563,0-11.811l91.523-91.521c3.248-3.248,8.561-3.248,11.809,0l118.05,118.049
				C371.651,268.319,371.651,273.634,368.403,276.882z"/>
		</g>
	</g>
</g>
<g id="Capa_3">
</g>
</svg>
