<?xml version="1.0" encoding="utf-8"?>
<!-- Generator: Adobe Illustrator 17.0.1, SVG Export Plug-In . SVG Version: 6.00 Build 0)  -->
<!DOCTYPE svg PUBLIC "-//W3C//DTD SVG 1.1//EN" "http://www.w3.org/Graphics/SVG/1.1/DTD/svg11.dtd">
<svg version="1.1" xmlns="http://www.w3.org/2000/svg" xmlns:xlink="http://www.w3.org/1999/xlink" x="0px" y="0px" width="512px"
	 height="512px" viewBox="0 0 512 512" enable-background="new 0 0 512 512" xml:space="preserve">
<g id="Artwork">
	<g id="Layer_5">
		<g>
			<path d="M331.615,161.705c-19.623-0.001-32.072,21.875-35.018,21.875c-2.576-0.001-14.516-21.875-35.02-21.876
				c-19.941,0.001-36.225,16.447-37.293,36.363c-0.6,11.25,3.027,19.811,8.137,27.566c10.211,15.493,54.853,52.79,64.24,52.791
				c9.592,0,53.83-37.163,64.107-52.791c5.123-7.79,8.738-16.316,8.137-27.567C367.84,178.151,351.559,161.704,331.615,161.705"/>
			<path d="M191.379,288.214c0,0-27.441,27.443-35.074,35.075c-0.582,0.582-3.246-0.082-4.053-0.225
				c-7.254-1.292-13.346,0.53-18.951,6.135l-31.953,31.954c-9.113,9.112-9.113,23.886-0.002,32.998l16.5,16.5
				c9.113,9.112,23.887,9.112,32.998,0l31.955-31.954c5.547-5.548,6.457-12.911,5.25-20.1c-0.148-0.879,0.027-2.262,0.662-2.896
				c9.711-9.712,34.943-34.944,34.943-34.944c1.992-1.992,4.48-3.044,7.197-3.043c2.748-0.001,4.785,1.086,5.357,1.427
				c18.723,11.233,40.012,17.17,61.564,17.17c31.586,0,61.539-12.559,84.344-35.364c47.16-47.161,47.16-123.897,0-171.059
				c-22.809-22.808-53.184-35.37-85.531-35.369c-32.346,0-62.723,12.561-85.529,35.369c-39.525,39.525-46.838,98.161-18.189,145.918
				C194.834,279.098,195.205,284.387,191.379,288.214z M227.24,284.761c-38.236-38.236-38.236-100.453,0.002-138.691
				c18.494-18.495,43.123-28.68,69.346-28.68c26.223,0,50.85,10.186,69.344,28.68c18.494,18.495,28.68,43.123,28.68,69.345
				c0,26.224-10.185,50.851-28.682,69.346c-18.494,18.495-43.121,28.68-69.344,28.68
				C270.363,313.441,245.736,303.255,227.24,284.761z"/>
		</g>
	</g>
</g>
<g id="Capa_3">
</g>
</svg>
