<?xml version="1.0" encoding="utf-8"?>
<!-- Generator: Adobe Illustrator 17.0.1, SVG Export Plug-In . SVG Version: 6.00 Build 0)  -->
<!DOCTYPE svg PUBLIC "-//W3C//DTD SVG 1.1//EN" "http://www.w3.org/Graphics/SVG/1.1/DTD/svg11.dtd">
<svg version="1.1" xmlns="http://www.w3.org/2000/svg" xmlns:xlink="http://www.w3.org/1999/xlink" x="0px" y="0px" width="512px"
	 height="512px" viewBox="0 0 512 512" enable-background="new 0 0 512 512" xml:space="preserve">
<g id="Artwork">
	<g id="Layer_5">
		<g>
			<path d="M180.501,133.082l17.333,9.878c1.329,0.757,2.774,1.117,4.201,1.117c2.954,0,5.825-1.543,7.393-4.293
				c2.324-4.079,0.902-9.27-3.176-11.594l-17.333-9.878c-4.081-2.324-9.27-0.902-11.594,3.176
				C175.001,125.567,176.423,130.758,180.501,133.082z"/>
			<path d="M184.718,180.617c1.427,0,2.873-0.359,4.201-1.116l17.333-9.879c4.078-2.324,5.5-7.516,3.176-11.594
				c-2.324-4.078-7.517-5.5-11.594-3.176l-17.333,9.879c-4.078,2.324-5.5,7.516-3.176,11.594
				C178.893,179.075,181.764,180.617,184.718,180.617z"/>
			<path d="M421.409,99.779c-12.475-11.293-30.699-17.262-52.703-17.262c-26.842,0-52.943,14.857-66.113,23.715
				c-2.391,1.608-17.85,12.203-26.804,23.014c-0.369,0.445-0.541,0.701-1.103,0.748c-0.55,0.046-0.799-0.151-1.24-0.51
				c-6.628-5.365-17.285-8.849-29.313-8.849c-20.104,0-19.289,9.727-19.289,21.724c0,11.574-0.745,21.027,17.253,21.681
				c0.292,0.01,0.89,0.058,0.89,1.475l-0.148,13.191c0,0-0.028,1.378-1.528,1.378c-2.165,0-8.661,0-8.661,0c-3.3,0-6,2.7-6,6v14.098
				c0,0-0.098,1.229-0.433,1.646c-0.518,0.645-1.18,0.855-1.981,1.05c-52.919,12.791-92.23,60.45-92.23,117.298
				c0,35.982,28.317,91.644,58.786,91.644c43.55,0,82.616,0,123.465,0c33.847,0,59.112-55.283,59.112-91.644
				c0-54.425-36.029-100.427-85.535-115.475c-0.374-0.114-0.649-0.201-0.914-0.639c-0.179-0.295-0.212-1.078-0.212-1.078v-16.899
				c0-3.3-2.699-6-6-6c0,0-6.485,0-8.648,0c-1.25,0-1.549-1.757-1.549-1.757l-0.368-18.899c0-1.913,0.941-2.465,1.39-2.771
				c0.607-0.413,1.189-0.84,1.742-1.279c0.365-0.29,0.649-0.279,1.098-0.207c0.391,0.063,0.756,0.394,1.178,0.927
				c8.5,10.766,23.23,20.788,27.117,23.337c12.973,8.502,38.801,22.766,66.037,22.766c22.004,0,40.229-5.969,52.703-17.262
				c11.803-10.684,18.041-25.407,18.041-42.579S433.212,110.464,421.409,99.779z M283.644,262.074
				c17.63,0,32.022,14.539,32.966,32.143c0.532,9.945-2.664,17.482-7.192,24.369c-9.085,13.814-48.192,46.666-56.67,46.666
				c-8.298,0-47.761-32.971-56.787-46.666c-4.519-6.855-7.723-14.424-7.192-24.369c0.941-17.603,15.337-32.143,32.966-32.143
				c18.124,0,28.678,19.336,30.956,19.336C255.292,281.41,266.298,262.074,283.644,262.074z"/>
		</g>
	</g>
</g>
<g id="Capa_3">
</g>
</svg>
