<?xml version="1.0" encoding="utf-8"?>
<!-- Generator: Adobe Illustrator 17.0.1, SVG Export Plug-In . SVG Version: 6.00 Build 0)  -->
<!DOCTYPE svg PUBLIC "-//W3C//DTD SVG 1.1//EN" "http://www.w3.org/Graphics/SVG/1.1/DTD/svg11.dtd">
<svg version="1.1" xmlns="http://www.w3.org/2000/svg" xmlns:xlink="http://www.w3.org/1999/xlink" x="0px" y="0px" width="512px"
	 height="512px" viewBox="0 0 512 512" enable-background="new 0 0 512 512" xml:space="preserve">
<g id="Artwork">
	<g id="Layer_5">
		<g>
			<path d="M265.793,229.118c-15.894,2.102-23.636,21.152-26.02,21.468c-2.088,0.276-14.102-16.163-30.708-13.968
				c-16.151,2.137-27.581,17.201-26.313,33.446c0.72,9.177,4.574,15.723,9.544,21.458c9.929,11.456,50.083,36.885,57.688,35.881
				c7.768-1.027,39.623-35.867,46.271-49.625c3.317-6.859,5.333-14.153,3.64-23.201C296.897,238.56,281.946,226.981,265.793,229.118
				"/>
			<path d="M361.519,304.235c-11.324-4.346-23.349,5.521-25.05,4.87c-1.485-0.569-3.532-15.837-15.363-20.376
				c-11.51-4.415-24.547,1.47-29.571,12.727c-2.837,6.359-2.64,12.102-1.409,17.709c2.463,11.201,19.965,42.607,25.384,44.686
				c5.532,2.123,39.289-9.527,48.681-16.27c4.682-3.36,8.653-7.48,10.799-14.105C378.784,321.747,373.028,308.65,361.519,304.235"/>
			<g>
				<path d="M189.595,171.257h181.024c3.439,0,6.24-2.801,6.24-6.242v-7.689c0-3.442-2.801-6.242-6.24-6.242H189.595
					c-3.442,0-6.242,2.8-6.242,6.242v7.689C183.352,168.456,186.152,171.257,189.595,171.257z"/>
				<path d="M370.44,191.394h-68.025c-3.443,0-6.242,2.801-6.242,6.242v7.689c0,3.441,2.799,6.241,6.242,6.241h68.025
					c3.441,0,6.242-2.8,6.242-6.241v-7.689C376.682,194.194,373.881,191.394,370.44,191.394z"/>
				<path d="M416.17,100.255H145.831c-12.675,0-22.987,10.313-22.987,22.99c0.001,1.301,0.007,154.596,0.007,179.629
					c0,1.549-0.029,4.326-0.623,3.376c-1.406-2.25-28.499-110.517-29.184-113.116c-0.028-0.145-0.04-0.262-0.043-0.354
					c0.1-0.018,0.234-0.031,0.406-0.031h11.82c3.334,0,6.922-1.885,6.922-6.021v-8.13c0-4.138-3.578-6.023-6.935-6.023H93.407
					c-6.439,0-12.331,2.715-16.163,7.447c-3.832,4.732-5.261,11.059-3.901,17.441l48.342,194.178
					c1.077,5.065,3.014,8.726,5.759,10.889c4.338,5.777,11.183,9.215,18.388,9.215H416.17c12.676,0,22.99-10.313,22.99-22.99
					v-265.51C439.16,110.568,428.846,100.255,416.17,100.255z M143.017,123.245c0-1.501,1.314-2.816,2.814-2.816H416.17
					c1.5,0,2.818,1.315,2.818,2.816v265.51c0,1.554-1.266,2.816-2.818,2.816H145.831c-1.552,0-2.814-1.263-2.814-2.816V123.245z"/>
			</g>
		</g>
	</g>
</g>
<g id="Capa_3">
</g>
</svg>
