<?xml version="1.0" encoding="utf-8"?>
<!-- Generator: Adobe Illustrator 17.0.1, SVG Export Plug-In . SVG Version: 6.00 Build 0)  -->
<!DOCTYPE svg PUBLIC "-//W3C//DTD SVG 1.1//EN" "http://www.w3.org/Graphics/SVG/1.1/DTD/svg11.dtd">
<svg version="1.1" xmlns="http://www.w3.org/2000/svg" xmlns:xlink="http://www.w3.org/1999/xlink" x="0px" y="0px" width="512px"
	 height="512px" viewBox="0 0 512 512" enable-background="new 0 0 512 512" xml:space="preserve">
<g id="Artwork">
	<g id="Layer_5">
		<g>
			<path d="M297.815,196.163c-23.521,0-38.448,26.227-41.975,26.227c-3.092,0-17.408-26.227-41.986-26.227
				c-23.906,0-43.429,19.718-44.706,43.592c-0.719,13.487,3.628,23.752,9.754,33.049c12.241,18.573,65.759,63.289,77.017,63.289
				c11.491,0,64.532-44.553,76.854-63.289c6.139-9.339,10.475-19.562,9.752-33.049C341.247,215.881,321.724,196.163,297.815,196.163
				"/>
			<circle cx="255.842" cy="101.178" r="25.737"/>
			<path d="M393.491,144.244c0,14.211-11.521,25.737-25.737,25.737c-14.214,0-25.736-11.526-25.736-25.737
				c0-14.214,11.522-25.735,25.736-25.735C381.97,118.509,393.491,130.03,393.491,144.244z"/>
			<path d="M436.559,256.218c0,14.211-11.521,25.735-25.735,25.735c-14.215,0-25.737-11.524-25.737-25.735
				c0-14.216,11.522-25.737,25.737-25.737C425.038,230.48,436.559,242.002,436.559,256.218z"/>
			<path d="M393.491,367.756c0,14.211-11.521,25.737-25.737,25.737c-14.214,0-25.736-11.526-25.736-25.737
				c0-14.216,11.522-25.736,25.736-25.736C381.97,342.02,393.491,353.54,393.491,367.756z"/>
			<path d="M281.519,410.823c0,14.209-11.521,25.735-25.736,25.735c-14.215,0-25.737-11.526-25.737-25.735
				c0-14.215,11.521-25.738,25.737-25.738C269.997,385.085,281.519,396.608,281.519,410.823z"/>
			<path d="M169.667,367.756c0,14.211-11.521,25.737-25.736,25.737c-14.214,0-25.737-11.526-25.737-25.737
				c0-14.216,11.522-25.736,25.737-25.736C158.146,342.02,169.667,353.54,169.667,367.756z"/>
			<path d="M126.914,256.218c0,14.211-11.522,25.735-25.737,25.735c-14.215,0-25.736-11.524-25.736-25.735
				c0-14.216,11.521-25.737,25.736-25.737C115.392,230.48,126.914,242.002,126.914,256.218z"/>
			<path d="M169.667,144.244c0,14.211-11.521,25.737-25.736,25.737c-14.214,0-25.737-11.526-25.737-25.737
				c0-14.214,11.522-25.735,25.737-25.735C158.146,118.509,169.667,130.03,169.667,144.244z"/>
		</g>
	</g>
</g>
<g id="Capa_3">
</g>
</svg>
