<?xml version="1.0" encoding="utf-8"?>
<!-- Generator: Adobe Illustrator 17.0.1, SVG Export Plug-In . SVG Version: 6.00 Build 0)  -->
<!DOCTYPE svg PUBLIC "-//W3C//DTD SVG 1.1//EN" "http://www.w3.org/Graphics/SVG/1.1/DTD/svg11.dtd">
<svg version="1.1" xmlns="http://www.w3.org/2000/svg" xmlns:xlink="http://www.w3.org/1999/xlink" x="0px" y="0px" width="512px"
	 height="512px" viewBox="0 0 512 512" enable-background="new 0 0 512 512" xml:space="preserve">
<g id="Artwork">
	<g id="Layer_5">
		<path d="M390.788,235.659c20.029-22.296,20.205-57.078-0.989-78.272c-20.853-20.853-57.327-10.837-60.458-13.967
			c-2.739-2.739,7.818-38.672-13.969-60.46c-21.193-21.193-55.978-21.021-78.272-0.99c-12.594,11.318-17.84,24.267-20.649,37.942
			c-3.547,17.257-1.791,57.983,2.541,88.436c0.103,0.723,0.337,2.563-0.638,3.538c-16.737,16.737-38.345,38.345-48.701,48.701
			c-1.538,1.539-3.344-0.152-3.344-0.152l-20.406-20.406c-5.774-5.774-15.137-5.775-20.912,0
			c-5.774,5.774-5.774,15.138-0.001,20.912l20.336,20.336c0,0,2.158,1.479,0.06,3.577c-2.044,2.045-6.823,6.823-9.133,9.134
			c-1.31,1.31-2.603-0.008-2.603-0.008l-20.85-20.849c-5.773-5.774-15.137-5.775-20.912,0c-5.774,5.774-5.774,15.138,0,20.912
			l20.709,20.71c0,0,1.458,1.433-0.034,2.924c-2.678,2.677-7.074,7.074-9.557,9.557c-1.189,1.189-2.551-0.245-2.551-0.245
			l-20.756-20.757c-5.774-5.774-15.137-5.774-20.912,0c-5.774,5.774-5.774,15.138,0,20.912c0,0,15.514,15.515,20.686,20.686
			c1.608,1.609,0.176,2.762,0.176,2.762c-11.741,11.741-2.51,21.546,9.231,33.288c11.741,11.741,21.547,20.973,33.289,9.232
			c0,0,103.903-103.903,138.538-138.538c1.049-1.049,2.509-0.782,3.274-0.673c30.375,4.314,71.439,6.008,88.866,2.408
			C366.569,253.472,379.472,248.254,390.788,235.659z M265.989,206.77c-12.745-12.745-12.745-33.409,0-46.154
			c12.745-12.745,33.409-12.745,46.154,0c12.745,12.745,12.746,33.41,0,46.154C299.398,219.516,278.734,219.516,265.989,206.77z"/>
	</g>
</g>
<g id="Capa_3">
</g>
</svg>
