<?xml version="1.0" encoding="utf-8"?>
<!-- Generator: Adobe Illustrator 17.0.1, SVG Export Plug-In . SVG Version: 6.00 Build 0)  -->
<!DOCTYPE svg PUBLIC "-//W3C//DTD SVG 1.1//EN" "http://www.w3.org/Graphics/SVG/1.1/DTD/svg11.dtd">
<svg version="1.1" xmlns="http://www.w3.org/2000/svg" xmlns:xlink="http://www.w3.org/1999/xlink" x="0px" y="0px" width="512px"
	 height="512px" viewBox="0 0 512 512" enable-background="new 0 0 512 512" xml:space="preserve">
<g id="Artwork">
	<g id="Layer_5">
		<g>
			<path d="M429.081,214.708c0-4.775-3.038-2.77-3.038-2.77s-83.493,56.299-114.114,76.625c-1.179,0.782-2.628,1.731-4.279,1.731
				c-1.147,0-55.881,0.167-73.252,0.167c-2.774,0-3.409-0.324-4.288-0.901c-36.756-24.141-93.324-61.806-114.142-76.403
				c-2.439-1.711-2.864,0.956-2.864,0.956v161.39c0,12.081,9.884,21.965,21.964,21.965h272.169c12.08,0,21.964-9.884,21.964-21.965
				C429.2,375.502,429.081,259.683,429.081,214.708z"/>
			<path d="M419.752,184.922c-2.251-1.549-116.736-99.082-143.203-119.425c-3.465-2.661-3.712-2.858-5.421-2.853
				c-1.859,0.007-2.126,0.344-5.867,3.259c-27.235,21.225-140.062,118.723-141.392,120.053c-4.824,4.825-1.764,7.941,1.36,10.131
				c9.034,6.335,22.458,15.087,41.107,27.376c23.502,15.489,46.713,31.246,67.093,44.894c2.119,1.419,4.044,1.979,5.871,1.979
				c0.841,0,50.423,0,62.648,0c2.496,0,4.047-1.153,5.377-2.046c28.557-19.165,112.331-75.417,112.331-75.417
				C421.04,191.959,423.884,187.763,419.752,184.922z M238.908,173.955c-1.414,7.219-11.988,27.33-15.479,28.759
				c-3.418,1.396-25.221-5.533-31.243-9.655c-3.016-2.063-5.608-4.639-7.064-8.822c-2.576-7.41,0.902-15.821,8.161-18.788
				c7.464-3.053,15.066,3.132,16.004,2.749c1.072-0.438,2.349-10.254,9.49-13.175c7.261-2.969,15.637,0.596,18.989,7.685
				C239.66,166.717,239.613,170.356,238.908,173.955z M267.868,149.442c-2.955-1.294-11.875-19.188-12.957-25.474
				c-0.54-3.146-0.503-6.341,1.236-9.802c3.079-6.125,10.473-9.06,16.753-6.313c6.455,2.824,7.204,11.357,8.015,11.712
				c0.928,0.406,7.86-4.768,14.039-2.063c6.28,2.747,9.143,10.169,6.734,16.588c-1.359,3.625-3.674,5.811-6.359,7.559
				C289.94,145.156,270.89,150.764,267.868,149.442z M339.801,213.388c-2.158,5.01-5.563,7.932-9.462,10.21
				c-7.825,4.57-35.023,11.177-39.182,9.112c-4.075-2.021-15.421-27.816-16.516-36.735c-0.549-4.465-0.281-8.963,2.402-13.714
				c4.748-8.414,15.356-12.047,24.008-7.754c8.897,4.413,9.37,16.475,10.489,17.031c1.278,0.633,11.387-6.182,19.902-1.958
				C340.099,193.874,343.625,204.515,339.801,213.388z"/>
		</g>
	</g>
</g>
<g id="Capa_3">
</g>
</svg>
