<?xml version="1.0" encoding="utf-8"?>
<!-- Generator: Adobe Illustrator 17.0.1, SVG Export Plug-In . SVG Version: 6.00 Build 0)  -->
<!DOCTYPE svg PUBLIC "-//W3C//DTD SVG 1.1//EN" "http://www.w3.org/Graphics/SVG/1.1/DTD/svg11.dtd">
<svg version="1.1" xmlns="http://www.w3.org/2000/svg" xmlns:xlink="http://www.w3.org/1999/xlink" x="0px" y="0px" width="512px"
	 height="512px" viewBox="0 0 512 512" enable-background="new 0 0 512 512" xml:space="preserve">
<g id="Artwork">
	<g id="Layer_5">
		<g>
			<path d="M303.139,281.182c-9.697,0-15.85,10.811-17.305,10.811c-1.275,0-7.176-10.811-17.309-10.811
				c-9.855,0-17.904,8.128-18.432,17.973c-0.297,5.559,1.498,9.79,4.023,13.623c5.045,7.656,27.107,26.09,31.75,26.09
				c4.738,0,26.602-18.365,31.682-26.09c2.533-3.852,4.318-8.064,4.022-13.623C321.043,289.31,312.994,281.182,303.139,281.182z"/>
			<path d="M220.75,281.182h-92.889c-5.133,0-9.307,4.175-9.307,9.307c0,5.133,4.174,9.309,9.307,9.309h92.889
				c5.133,0,9.309-4.176,9.309-9.309C230.059,285.356,225.883,281.182,220.75,281.182z"/>
			<path d="M127.861,260.701h137.734c5.131,0,9.307-4.175,9.307-9.309c0-5.131-4.176-9.307-9.307-9.307H127.861
				c-5.133,0-9.307,4.176-9.307,9.307C118.555,256.526,122.729,260.701,127.861,260.701z"/>
			<path d="M182.598,320.275h-54.734c-5.132,0-9.307,4.175-9.307,9.307s4.175,9.307,9.307,9.307h54.734
				c5.132,0,9.307-4.175,9.307-9.307S187.73,320.275,182.598,320.275z"/>
			<path d="M424.363,163.188l-22.18-22.182c-4.025-4.027-9.393-6.244-15.113-6.244c-5.721,0-11.088,2.217-15.113,6.244
				l-44.164,44.162H110.941c-16.295,0-29.551,13.256-29.551,29.549v132.973c0,16.293,13.256,29.549,29.551,29.549h227.941
				c16.293,0,29.549-13.256,29.549-29.549v-98.615c0.75-0.57,1.451-1.182,2.102-1.832l53.83-53.83
				c4.027-4.028,6.246-9.395,6.246-15.113C430.609,172.584,428.391,167.218,424.363,163.188z M349.816,347.689
				c0,6.029-4.904,10.935-10.934,10.935H110.941c-6.029,0-10.936-4.905-10.936-10.935V214.717c0-6.029,4.906-10.934,10.936-10.934
				h198.555c1.859,0,1.859,0.561,1.191,0.952c-2.873,1.683-5.233,4.749-5.943,9.382l-5.265,34.404
				c-0.645,4.188,0.439,8.168,3.048,11.209c2.564,2.986,6.227,4.631,10.313,4.631c0.765,0,1.537-0.059,2.297-0.176l33.469-5.123
				c0,0,1.211-0.461,1.211,1.727V347.689z"/>
		</g>
	</g>
</g>
<g id="Capa_3">
</g>
</svg>
