<?xml version="1.0" encoding="utf-8"?>
<!-- Generator: Adobe Illustrator 17.0.1, SVG Export Plug-In . SVG Version: 6.00 Build 0)  -->
<!DOCTYPE svg PUBLIC "-//W3C//DTD SVG 1.1//EN" "http://www.w3.org/Graphics/SVG/1.1/DTD/svg11.dtd">
<svg version="1.1" xmlns="http://www.w3.org/2000/svg" xmlns:xlink="http://www.w3.org/1999/xlink" x="0px" y="0px" width="512px"
	 height="512px" viewBox="0 0 512 512" enable-background="new 0 0 512 512" xml:space="preserve">
<g id="Artwork">
	<g id="Layer_5">
		<g>
			<path d="M451.616,109.533l-91.265-42.51c-1.256-0.583-2.761-0.035-3.346,1.22l-8.458,18.161c-0.585,1.256-0.036,2.76,1.218,3.344
				l91.265,42.509c1.255,0.585,2.761,0.036,3.345-1.218l8.459-18.163C453.42,111.621,452.871,110.116,451.616,109.533z"/>
			<path d="M436.065,143.222l-91.264-42.509c-1.256-0.584-2.762-0.035-3.346,1.219l-71.803,154.161
				c-0.586,1.255-0.811,3.388-0.501,4.735l14.681,64.095c0.251,0.898-0.892,1.139-1.489,1.072c-3.622-0.4-7.354-0.613-11.179-0.613
				c-22.961,0-39.647,10.258-48.612,15.768c-0.681,0.418-1.433,0.88-2.121,1.293c-0.438-0.277-0.889-0.567-1.307-0.836
				c-8.209-5.267-25.29-16.226-49.786-16.226c-33.708,0-60.656,16.117-62.684,37.489c-1.355,14.275,7.781,23.872,14.771,29.848
				c15.828,13.535,82.647,45.292,98.928,45.292c17.738,0,83.816-32.508,98.738-45.296c6.986-5.984,16.117-15.588,14.763-29.844
				c-1.19-12.534-10.955-23.254-25.62-29.983c-0.274-0.126-0.421-0.485,0.333-0.973l53.611-27.759
				c1.232-0.633,2.718-2.176,3.303-3.431l71.802-154.159C437.867,145.311,437.318,143.805,436.065,143.222z M316.93,364.478
				c0.48,5.06-2.097,9.5-8.899,15.326c-15.138,12.973-77.245,41.206-87.678,41.206c-10.138,0-73.217-28.674-87.88-41.213
				c-8.435-7.211-9.229-11.791-8.895-15.32c0.991-10.45,20.028-22.096,45.76-22.096c19.512,0,33.233,8.804,40.605,13.534
				c4.265,2.736,6.839,4.388,10.313,4.388c3.6,0,6.46-1.758,11.198-4.671c8.063-4.956,21.557-13.251,39.71-13.251
				C296.897,342.382,315.936,354.027,316.93,364.478z M338.859,300.679c-1.211,0.669-3.21,1.733-4.442,2.365
				c0,0-19.984,10.249-27.393,14.049c-3.716,1.904-11.228-1.11-12.16-5.179c-1.89-8.252-6.997-30.551-6.997-30.551
				c-0.31-1.35-0.78-3.566-1.049-4.924c0,0-1.039-5.291-0.835-5.731c0.207-0.442,4.922,1.46,4.922,1.46
				c1.283,0.519,3.359,1.42,4.616,2.004l39.474,18.387c1.256,0.584,3.282,1.594,4.506,2.244c0,0,4.49,2.384,4.285,2.827
				C343.58,298.07,338.859,300.679,338.859,300.679z"/>
		</g>
	</g>
</g>
<g id="Capa_3">
</g>
</svg>
