<?xml version="1.0" encoding="utf-8"?>
<!-- Generator: Adobe Illustrator 17.0.1, SVG Export Plug-In . SVG Version: 6.00 Build 0)  -->
<!DOCTYPE svg PUBLIC "-//W3C//DTD SVG 1.1//EN" "http://www.w3.org/Graphics/SVG/1.1/DTD/svg11.dtd">
<svg version="1.1" xmlns="http://www.w3.org/2000/svg" xmlns:xlink="http://www.w3.org/1999/xlink" x="0px" y="0px" width="512px"
	 height="512px" viewBox="0 0 512 512" enable-background="new 0 0 512 512" xml:space="preserve">
<g id="Artwork">
	<g id="Layer_5">
		<g>
			<path d="M227.879,173.258c0-33.315-27.104-60.42-60.419-60.42c-33.316,0-60.421,27.104-60.421,60.42s27.104,60.42,60.421,60.42
				C200.775,233.678,227.879,206.573,227.879,173.258z M124.04,173.258c0-23.941,19.479-43.42,43.421-43.42
				c23.941,0,43.419,19.479,43.419,43.42s-19.477,43.42-43.419,43.42C143.518,216.678,124.04,197.199,124.04,173.258z"/>
			<path d="M433.262,309.774c-2.576-28.507-41.943-52.052-90.152-52.052c-47.429,0-77.529,31.316-84.641,31.316
				c-4.137,0-15.822-12.781-39.316-22.059c-2.439-1.084-1.647-2.121-1.26-2.689c14.358-21.016,38.446-60.423,38.446-88.219
				c0-49.008-39.872-88.881-88.88-88.881c-49.009,0-88.881,39.873-88.881,88.881c0,27.747,24.164,67.187,38.568,88.227
				c0.998,1.457,3.067,4.432-0.065,5.83c-20.984,9.563-31.918,23.021-33.421,39.646c-1.451,16.105,7.316,28.361,19.668,39.462
				c24.684,22.179,132.598,75.572,155.299,75.572c23.17,0,130.124-53.199,154.971-75.572
				C425.977,338.086,434.72,325.88,433.262,309.774z M95.579,176.072c0-39.636,32.246-71.881,71.881-71.881
				c39.635,0,71.88,32.245,71.88,71.881c0,16.209-12.021,43.518-32.981,74.924c-16.248,24.346-32.057,42.469-38.857,48.609
				c-6.806-6.194-22.604-24.348-38.844-48.63C107.636,219.544,95.579,192.243,95.579,176.072z"/>
		</g>
	</g>
</g>
<g id="Capa_3">
</g>
</svg>
