<?xml version="1.0" encoding="utf-8"?>
<!-- Generator: Adobe Illustrator 17.0.1, SVG Export Plug-In . SVG Version: 6.00 Build 0)  -->
<!DOCTYPE svg PUBLIC "-//W3C//DTD SVG 1.1//EN" "http://www.w3.org/Graphics/SVG/1.1/DTD/svg11.dtd">
<svg version="1.1" xmlns="http://www.w3.org/2000/svg" xmlns:xlink="http://www.w3.org/1999/xlink" x="0px" y="0px" width="512px"
	 height="512px" viewBox="0 0 512 512" enable-background="new 0 0 512 512" xml:space="preserve">
<g id="Artwork">
	<g id="Layer_5">
		<g>
			<path d="M278.368,159.358c-12.531,0-20.485,10.198-22.368,10.198c-1.646,0-9.274-10.198-22.372-10.198
				c-12.739,0-23.142,10.507-23.822,23.232c-0.385,7.186,1.933,12.655,5.198,17.61c6.522,9.896,35.04,33.724,41.039,33.724
				c6.126,0,34.389-23.738,40.953-33.724c3.275-4.979,5.582-10.425,5.197-17.61C301.513,169.865,291.109,159.358,278.368,159.358"/>
			<path d="M337.236,57.049c-8.868,0-16.057,7.189-16.057,16.059v25.785c0,2.466,0,2.396-5.633,2.396H196.452
				c-20.847,0-37.747,16.9-37.747,37.747v245.325c0,20.848,16.9,37.748,37.747,37.748h119.095c20.847,0,37.747-16.9,37.747-37.748
				V140.533v-1.497V73.107C353.294,64.238,346.105,57.049,337.236,57.049z M185.038,161.096c0-15.204,12.326-27.529,27.53-27.529
				h86.86c15.204,0,27.53,12.325,27.53,27.529v62.754c0,15.204-12.326,27.529-27.53,27.529h-86.86
				c-15.204,0-27.53-12.325-27.53-27.529V161.096z M218.675,384.926c0,4.133-3.351,7.484-7.487,7.484H191.41
				c-4.135,0-7.488-3.352-7.488-7.484v-15.9c0-4.135,3.354-7.486,7.488-7.486h19.777c4.137,0,7.487,3.352,7.487,7.486V384.926z
				 M218.675,340.229c0,4.134-3.351,7.486-7.487,7.486H191.41c-4.135,0-7.488-3.353-7.488-7.486v-15.9
				c0-4.133,3.354-7.484,7.488-7.484h19.777c4.137,0,7.487,3.352,7.487,7.484V340.229z M218.675,295.626
				c0,4.134-3.351,7.486-7.487,7.486H191.41c-4.135,0-7.488-3.353-7.488-7.486v-15.899c0-4.135,3.354-7.486,7.488-7.486h19.777
				c4.137,0,7.487,3.352,7.487,7.486V295.626z M273.375,384.926c0,4.133-3.352,7.484-7.486,7.484h-19.779
				c-4.134,0-7.486-3.352-7.486-7.484v-15.9c0-4.135,3.353-7.486,7.486-7.486h19.779c4.135,0,7.486,3.352,7.486,7.486V384.926z
				 M273.375,340.229c0,4.134-3.352,7.486-7.486,7.486h-19.779c-4.134,0-7.486-3.353-7.486-7.486v-15.9
				c0-4.133,3.353-7.484,7.486-7.484h19.779c4.135,0,7.486,3.352,7.486,7.484V340.229z M273.375,295.626
				c0,4.134-3.352,7.486-7.486,7.486h-19.779c-4.134,0-7.486-3.353-7.486-7.486v-15.899c0-4.135,3.353-7.486,7.486-7.486h19.779
				c4.135,0,7.486,3.352,7.486,7.486V295.626z M328.076,384.926c0,4.133-3.354,7.484-7.487,7.484H300.81
				c-4.135,0-7.486-3.352-7.486-7.484v-15.9c0-4.135,3.352-7.486,7.486-7.486h19.779c4.134,0,7.487,3.352,7.487,7.486V384.926z
				 M328.076,340.229c0,4.134-3.354,7.486-7.487,7.486H300.81c-4.135,0-7.486-3.353-7.486-7.486v-15.9
				c0-4.133,3.352-7.484,7.486-7.484h19.779c4.134,0,7.487,3.352,7.487,7.484V340.229z M328.076,295.626
				c0,4.134-3.354,7.486-7.487,7.486H300.81c-4.135,0-7.486-3.353-7.486-7.486v-15.899c0-4.135,3.352-7.486,7.486-7.486h19.779
				c4.134,0,7.487,3.352,7.487,7.486V295.626z"/>
		</g>
	</g>
</g>
<g id="Capa_3">
</g>
</svg>
