<?xml version="1.0" encoding="utf-8"?>
<!-- Generator: Adobe Illustrator 17.0.1, SVG Export Plug-In . SVG Version: 6.00 Build 0)  -->
<!DOCTYPE svg PUBLIC "-//W3C//DTD SVG 1.1//EN" "http://www.w3.org/Graphics/SVG/1.1/DTD/svg11.dtd">
<svg version="1.1" xmlns="http://www.w3.org/2000/svg" xmlns:xlink="http://www.w3.org/1999/xlink" x="0px" y="0px" width="512px"
	 height="512px" viewBox="0 0 512 512" enable-background="new 0 0 512 512" xml:space="preserve">
<g id="Artwork">
	<g id="Layer_5">
		<g>
			<g>
				<path d="M142.146,90.143c-10.443,3.555-13.107,17.452-14.674,17.984c-1.373,0.469-11.69-9.012-22.603-5.298
					c-10.613,3.612-16.302,15.317-13.26,26.112c1.717,6.098,5.199,9.994,9.325,13.196c8.238,6.396,38.758,18.164,43.756,16.46
					c5.103-1.734,21.918-29.531,24.557-39.712c1.316-5.075,1.696-10.266-0.663-16.146C164.408,92.33,152.762,86.528,142.146,90.143"
					/>
				<path d="M262.738,85.834c10.443,3.555,13.107,17.453,14.674,17.986c1.373,0.467,11.691-9.012,22.603-5.299
					c10.614,3.614,16.303,15.316,13.261,26.114c-1.717,6.095-5.199,9.993-9.324,13.192c-8.239,6.399-38.76,18.165-43.757,16.463
					c-5.102-1.735-21.917-29.532-24.557-39.713c-1.315-5.075-1.695-10.265,0.663-16.145
					C240.477,88.023,252.123,82.22,262.738,85.834"/>
			</g>
			<path d="M222.643,204.729c-11.318,0-18.502,12.621-20.198,12.621c-1.488,0-8.377-12.621-20.204-12.621
				c-11.503,0-20.898,9.486-21.513,20.977c-0.345,6.488,1.747,11.429,4.693,15.9c5.89,8.938,31.643,30.455,37.061,30.455
				c5.53,0,31.051-21.439,36.981-30.455c2.954-4.491,5.041-9.412,4.692-15.9C243.541,214.215,234.148,204.729,222.643,204.729"/>
			<path d="M199.261,426.468c58.237,5.596,76.157-19.555,84.51-61.44c2.496-12.721,4.99-25.441,7.477-38.161l8.751-35.934
				c11.712-12.858,48.269,9.944,55.11,12.64c19.207,7.551,36.841,7.335,64.713-14.346l1.385-4.293l-0.555-2.342l-3.939-2.193
				c-32.105,0.166-47.693-26.385-65.576-48.769c-19.998-25.012-47.97-24.802-53.076-6.294c-0.908,3.292-3.232,13.271-3.232,13.271
				c-0.832,2.98-1.543,5.986-2.195,9.017l-23.189,95.212c-1.109,3.906-3.141,3.185-4.157,2.518
				c-17.992-11.799-36.61-17.806-58.177-16.615c-24.447,1.363-50.835,13.236-61.006,34.602
				C125.346,406.972,168.956,423.556,199.261,426.468z"/>
		</g>
	</g>
</g>
<g id="Capa_3">
</g>
</svg>
