<?xml version="1.0" encoding="utf-8"?>
<!-- Generator: Adobe Illustrator 17.0.1, SVG Export Plug-In . SVG Version: 6.00 Build 0)  -->
<!DOCTYPE svg PUBLIC "-//W3C//DTD SVG 1.1//EN" "http://www.w3.org/Graphics/SVG/1.1/DTD/svg11.dtd">
<svg version="1.1" xmlns="http://www.w3.org/2000/svg" xmlns:xlink="http://www.w3.org/1999/xlink" x="0px" y="0px" width="512px"
	 height="512px" viewBox="0 0 512 512" enable-background="new 0 0 512 512" xml:space="preserve">
<g id="Artwork">
	<g id="Layer_5">
		<path d="M345.313,192.899c7.752-4.486,14.521-10.256,18.84-20.174c7.65-17.565,0.737-38.691-16.392-47.27
			c-16.848-8.436-36.948,4.999-39.478,3.732c-2.215-1.109-3.063-25.031-20.669-33.848c-17.125-8.574-38.184-1.454-47.665,15.195
			c-5.353,9.4-5.918,18.313-4.863,27.172c0.903,7.588,5.521,21.341,11.137,34.896c0.685,1.65,2.745,5.263-0.176,3.801l-14.998-7.502
			c-1.307-0.654-4.516-1.092-6.073,2.02l-79.448,158.816c-0.656,1.304-0.957,3.545-0.67,4.977l16.755,83.879
			c0.288,1.431,2.324,2.108,3.641,1.48l76.447-36.907c1.316-0.632,2.931-2.216,3.583-3.524l79.451-158.813
			c1.75-3.495-0.713-5.417-2.018-6.07l-13.51-6.758c-2.365-1.184-0.087-2.607,1.633-3.051
			C324.97,201.313,338.66,196.75,345.313,192.899z M222.494,375.737c-0.23,0.461-5.286,3.072-5.286,3.072
			c-1.297,0.67-3.438,1.734-4.756,2.363c0,0-21.381,10.221-29.309,14.012c-3.975,1.898-11.809-1.502-12.673-5.823
			c-1.749-8.759-6.478-32.432-6.478-32.432c-0.288-1.433-0.72-3.782-0.961-5.224c0,0-0.941-5.611-0.713-6.071
			c0.233-0.461,5.15,1.687,5.15,1.687c1.337,0.584,3.499,1.597,4.809,2.252l41.095,20.557c1.306,0.654,3.415,1.78,4.685,2.501
			C218.057,372.63,222.724,375.278,222.494,375.737z"/>
	</g>
</g>
<g id="Capa_3">
</g>
</svg>
