<?xml version="1.0" encoding="utf-8"?>
<!-- Generator: Adobe Illustrator 17.0.1, SVG Export Plug-In . SVG Version: 6.00 Build 0)  -->
<!DOCTYPE svg PUBLIC "-//W3C//DTD SVG 1.1//EN" "http://www.w3.org/Graphics/SVG/1.1/DTD/svg11.dtd">
<svg version="1.1" xmlns="http://www.w3.org/2000/svg" xmlns:xlink="http://www.w3.org/1999/xlink" x="0px" y="0px" width="512px"
	 height="512px" viewBox="0 0 512 512" enable-background="new 0 0 512 512" xml:space="preserve">
<g id="Artwork">
	<g id="Layer_5">
		<g>
			<path d="M287.216,228.415c-17.492-0.001-28.59,19.5-31.215,19.5c-2.295-0.001-12.938-19.5-31.216-19.501
				c-17.776,0.001-32.292,14.661-33.244,32.414c-0.535,10.029,2.698,17.66,7.253,24.574c9.103,13.811,48.898,47.059,57.265,47.059
				c8.549,0,47.985-33.128,57.145-47.059c4.567-6.944,7.79-14.545,7.254-24.574C319.508,243.075,304.994,228.414,287.216,228.415"/>
			<path d="M412.916,148.861h-48.053c0,0-2.839,0.011-2.839-2.737c0-5.624,0-22.494,0-22.494c0-2.919-2.288-5.308-5.084-5.308
				H149.959c-2.797,0-5.084,2.389-5.084,5.308v22.456c0,0,0.648,2.775-2.918,2.775c-7.645,0-44.452,0-44.452,0
				c-5.451,0-10.616,4.776-10.616,10.615v223.585c0,5.84,4.777,10.616,10.616,10.616h316.99c5.839,0,10.616-4.776,10.616-10.616
				V163.013C425.111,155.05,424.047,148.861,412.916,148.861z M256,360.684c-49.383,0-89.414-40.031-89.414-89.414
				c0-49.382,40.031-89.414,89.414-89.414s89.414,40.032,89.414,89.414C345.414,320.652,305.383,360.684,256,360.684z
				 M399.295,200.991c0,3.057-2.477,5.535-5.534,5.535h-43.752c-3.058,0-5.535-2.479-5.535-5.535v-15.022
				c0-3.057,2.478-5.535,5.535-5.535h43.752c3.057,0,5.534,2.479,5.534,5.535V200.991z"/>
		</g>
	</g>
</g>
<g id="Capa_3">
</g>
</svg>
