<?xml version="1.0" encoding="utf-8"?>
<!-- Generator: Adobe Illustrator 17.0.1, SVG Export Plug-In . SVG Version: 6.00 Build 0)  -->
<!DOCTYPE svg PUBLIC "-//W3C//DTD SVG 1.1//EN" "http://www.w3.org/Graphics/SVG/1.1/DTD/svg11.dtd">
<svg version="1.1" xmlns="http://www.w3.org/2000/svg" xmlns:xlink="http://www.w3.org/1999/xlink" x="0px" y="0px" width="512px"
	 height="512px" viewBox="0 0 512 512" enable-background="new 0 0 512 512" xml:space="preserve">
<g id="Artwork">
	<g id="Layer_5">
		<path d="M380.738,410.15l-16.449-216.896c-0.655-8.26-7.97-15.018-16.257-15.018h-16.365c-0.917,0-0.839-0.495-0.798-0.741
			c0.871-5.303,1.552-10.022,1.839-13.308c1.65-18.762-4.779-37.105-18.103-51.652c-14.962-16.334-36.322-25.703-58.607-25.703
			c-22.283,0-43.644,9.369-58.605,25.703c-13.324,14.547-19.754,32.891-18.104,51.652c0.275,3.128,0.906,7.558,1.717,12.551
			c0.08,0.494,0.431,1.498-1.319,1.498h-15.722c-8.284,0-15.6,6.758-16.254,15.018l-16.45,216.896
			c-0.655,8.26,5.589,15.018,13.873,15.018h221.728C375.149,425.168,381.394,418.41,380.738,410.15z M193.358,162.951
			c-1.299-14.77,3.833-29.285,14.449-40.877c12.113-13.225,30.128-21.119,48.191-21.119s36.079,7.895,48.191,21.119
			c10.616,11.592,15.748,26.107,14.449,40.877c-0.298,3.377-1.072,8.556-2.056,14.362c-0.052,0.306-0.084,0.923-1.417,0.923H197.063
			c-1.313,0-1.635-0.843-1.705-1.26C194.402,171.307,193.649,166.264,193.358,162.951z M181.895,218.537
			c0-3.867,1.518-7.371,3.979-9.975c0.271-0.287,0.955-0.91,1.09,0.385c1.151,5.801,1.756,8.674,1.861,9.184
			c0.792,3.82,4.532,6.271,8.35,5.48c3.818-0.793,6.271-4.529,5.479-8.35c-0.026-0.129-0.647-3.066-1.88-9.287
			c-0.294-1.049,0.486-1.166,0.859-1.025c5.474,2.092,9.363,7.381,9.363,13.588c0,8.035-6.515,14.551-14.551,14.551
			C188.409,233.088,181.895,226.572,181.895,218.537z M317.696,322.357c-9.881,15.025-52.414,50.754-61.633,50.754
			c-9.025,0-51.945-35.859-61.76-50.754c-4.916-7.457-8.402-15.685-7.823-26.502c1.024-19.146,16.68-34.959,35.852-34.959
			c19.712,0,31.19,21.031,33.668,21.031c2.83,0,14.798-21.031,33.664-21.031c19.174,0,34.828,15.813,35.853,34.959
			C326.097,306.672,322.62,314.869,317.696,322.357z M315.553,233.088c-8.036,0-14.55-6.516-14.55-14.551
			c0-6.324,4.038-11.695,9.673-13.701c0.272-0.098,0.967-0.322,0.585,0.955c-1.233,6.221-1.89,9.342-1.917,9.471
			c-0.791,3.82,1.662,7.557,5.48,8.35c0.483,0.1,0.967,0.148,1.441,0.148c3.277,0,6.215-2.293,6.907-5.629
			c0.106-0.51,0.736-3.508,1.888-9.309c0.294-1.014,0.855-0.486,1.154-0.166c2.41,2.596,3.89,6.061,3.89,9.881
			C330.104,226.572,323.589,233.088,315.553,233.088z"/>
	</g>
</g>
<g id="Capa_3">
</g>
</svg>
