<?xml version="1.0" encoding="utf-8"?>
<!-- Generator: Adobe Illustrator 17.0.1, SVG Export Plug-In . SVG Version: 6.00 Build 0)  -->
<!DOCTYPE svg PUBLIC "-//W3C//DTD SVG 1.1//EN" "http://www.w3.org/Graphics/SVG/1.1/DTD/svg11.dtd">
<svg version="1.1" xmlns="http://www.w3.org/2000/svg" xmlns:xlink="http://www.w3.org/1999/xlink" x="0px" y="0px" width="512px"
	 height="512px" viewBox="0 0 512 512" enable-background="new 0 0 512 512" xml:space="preserve">
<g id="Artwork">
	<g id="Layer_5">
		<g>
			<path d="M226.454,259.805c-7.772,0-12.704,8.665-13.87,8.665c-1.021,0-5.751-8.665-13.872-8.665
				c-7.899,0-14.35,6.516-14.771,14.403c-0.239,4.458,1.197,7.848,3.222,10.922c4.045,6.135,21.729,20.909,25.448,20.909
				c3.799,0,21.322-14.72,25.392-20.909c2.029-3.088,3.461-6.464,3.223-10.922C240.804,266.32,234.353,259.805,226.454,259.805"/>
			<path d="M304.343,306.039c-8.111,0-13.258,9.043-14.475,9.043c-1.066,0-6.002-9.043-14.478-9.043
				c-8.243,0-14.976,6.799-15.416,15.033c-0.249,4.65,1.251,8.189,3.364,11.395c4.22,6.404,22.675,21.824,26.557,21.824
				c3.963,0,22.252-15.363,26.501-21.824c2.118-3.221,3.612-6.744,3.363-11.395C319.319,312.838,312.588,306.039,304.343,306.039"/>
			<path d="M290.991,213.501c-6.659,0-10.884,7.424-11.883,7.424c-0.875,0-4.927-7.424-11.885-7.424
				c-6.769,0-12.294,5.581-12.656,12.342c-0.204,3.817,1.026,6.723,2.761,9.354c3.465,5.259,18.615,17.918,21.802,17.918
				c3.255,0,18.27-12.612,21.757-17.918c1.737-2.644,2.967-5.536,2.761-9.354C303.285,219.082,297.76,213.501,290.991,213.501"/>
			<path d="M372.145,163.213h-80.621l57.076-58.772c0.934-0.834,1.543-2.039,1.543-3.393c0-2.523-2.049-4.564-4.563-4.564
				c-1.596,0-2.996,0.824-3.811,2.063l-62.803,64.666h-3.197l-66.158-64.251c-0.834-0.937-2.041-1.541-3.395-1.541
				c-2.523,0-4.563,2.044-4.563,4.562c0,1.597,0.822,2.994,2.055,3.81l59.131,57.421H139.855c-13.51,0-24.5,10.991-24.5,24.5
				v183.165c0,13.509,10.99,24.5,24.5,24.5h49.516c-0.715,1.717-1.111,3.596-1.111,5.568c0,8.033,6.535,14.569,14.572,14.569h106.33
				c8.033,0,14.568-6.536,14.568-14.569c0-1.973-0.398-3.852-1.111-5.568h49.525c13.51,0,24.5-10.991,24.5-24.5V187.713
				C396.645,174.204,385.654,163.213,372.145,163.213z M367.35,355.861c0,7.044-5.881,12.774-13.111,12.774H157.76
				c-7.229,0-13.109-5.73-13.109-12.774V204.891c0-7.045,5.881-12.775,13.109-12.775h196.478c7.23,0,13.111,5.73,13.111,12.775
				V355.861z"/>
		</g>
	</g>
</g>
<g id="Capa_3">
</g>
</svg>
