<?xml version="1.0" encoding="utf-8"?>
<!-- Generator: Adobe Illustrator 17.0.1, SVG Export Plug-In . SVG Version: 6.00 Build 0)  -->
<!DOCTYPE svg PUBLIC "-//W3C//DTD SVG 1.1//EN" "http://www.w3.org/Graphics/SVG/1.1/DTD/svg11.dtd">
<svg version="1.1" xmlns="http://www.w3.org/2000/svg" xmlns:xlink="http://www.w3.org/1999/xlink" x="0px" y="0px" width="512px"
	 height="512px" viewBox="0 0 512 512" enable-background="new 0 0 512 512" xml:space="preserve">
<g id="Artwork">
	<g id="Layer_5">
		<path d="M431.38,265.831c-0.271-5.07-1.305-9.919-2.966-14.445c-0.028-0.096-0.048-0.192-0.08-0.288l-35.756-108.177
			c-0.381-1.151-0.994-3.007-1.53-4.629c-7.819-13.657-24.637-18.833-40.145-13.706c-17.703,5.852-27.345,25.016-21.493,42.719
			c1.56,4.72,6.65,7.28,11.37,5.721c4.72-1.56,7.281-6.65,5.721-11.37c-2.737-8.279,1.773-17.242,10.052-19.979
			c8.28-2.736,17.243,1.773,19.98,10.054l23.47,71.005c-5-1.835-10.379-2.837-15.977-2.837c-16.775,0-28.702,11.3-35.83,18.916
			c-6.871-7.54-18.935-18.916-36.224-18.916c-21.648,0-40.055,14.918-45.665,35.472c-0.115,0.42-0.852,1.361-2.414,1.09
			c-3.32-0.3-4.605-0.288-8.017-0.288c-2.614,0-5.205,0.096-7.767,0.276c-0.7,0.049-1.889,0.253-2.725-2.163
			c-5.197-21.193-23.276-34.386-45.358-34.386c-16.775,0-28.702,11.3-35.83,18.916c-6.871-7.54-18.935-18.916-36.224-18.916
			c-4.845,0-9.525,0.754-13.939,2.145l26.37-79.779c2.737-8.28,11.7-12.79,19.98-10.053c8.279,2.736,12.789,11.699,10.052,19.98
			c-1.56,4.72,1.001,9.809,5.721,11.37c4.72,1.559,9.81-1.002,11.37-5.721c5.852-17.704-3.79-36.868-21.493-42.72
			c-15.509-5.126-32.327,0.05-40.145,13.707c-0.536,1.622-1.149,3.476-1.53,4.629c0,0-25.42,81.878-35.616,107.753
			c-3.114,7.901-7.631,15.494-8.119,24.621c-0.839,15.628,5.217,26.771,9.845,33.792c6.453,9.793,22.382,24.559,35.138,35.113
			c28.094,23.245,35.902,23.245,38.468,23.245c2.6,0,10.513,0,38.458-23.201c12.658-10.509,28.503-25.265,35.015-35.165
			c3.48-5.292,7.759-12.925,9.31-23.025c0.098-0.64,0.241-1.847,1.42-2.064c2.847-0.302,4.616-0.353,7.603-0.353
			c3.076,0,4.997,0.066,7.924,0.386c1.232,0.122,1.198,1.01,1.261,1.452c1.472,10.405,5.854,18.225,9.405,23.612
			c6.453,9.793,22.382,24.559,35.138,35.113c28.094,23.245,35.902,23.245,38.468,23.245c2.6,0,10.513,0,38.458-23.201
			c12.658-10.509,28.503-25.265,35.015-35.165C426.166,292.583,432.216,281.431,431.38,265.831z M222.504,289.723
			c-9.238,14.046-48.387,46.589-58.411,50.1c-10.121-3.594-49.406-36.158-58.599-50.107c-5.27-7.995-7.333-14.851-6.899-22.925
			c0.851-15.932,14.028-28.893,29.376-28.893c11.496,0,20.086,9.78,25.218,15.624c3.377,3.845,6.045,6.882,10.813,6.882
			c4.805,0,7.574-3.021,11.407-7.203c5.246-5.724,14.026-15.303,24.615-15.303c15.349,0,28.529,12.962,29.381,28.896
			C229.837,274.852,227.774,281.71,222.504,289.723z M406.504,289.723c-9.238,14.046-48.387,46.589-58.411,50.1
			c-10.121-3.594-49.406-36.158-58.599-50.107c-5.27-7.995-7.333-14.851-6.899-22.925c0.851-15.932,14.028-28.893,29.376-28.893
			c11.496,0,20.086,9.78,25.218,15.624c3.377,3.845,6.045,6.882,10.814,6.882c4.805,0,7.574-3.021,11.407-7.203
			c5.246-5.724,14.026-15.303,24.615-15.303c15.349,0,28.529,12.962,29.381,28.896C413.837,274.852,411.774,281.71,406.504,289.723z
			"/>
	</g>
</g>
<g id="Capa_3">
</g>
</svg>
