<?xml version="1.0" encoding="utf-8"?>
<!-- Generator: Adobe Illustrator 17.0.1, SVG Export Plug-In . SVG Version: 6.00 Build 0)  -->
<!DOCTYPE svg PUBLIC "-//W3C//DTD SVG 1.1//EN" "http://www.w3.org/Graphics/SVG/1.1/DTD/svg11.dtd">
<svg version="1.1" xmlns="http://www.w3.org/2000/svg" xmlns:xlink="http://www.w3.org/1999/xlink" x="0px" y="0px" width="512px"
	 height="512px" viewBox="0 0 512 512" enable-background="new 0 0 512 512" xml:space="preserve">
<g id="Artwork">
	<g id="Layer_5">
		<g>
			<path d="M292.024,192.959c-20.184,0-32.993,22.506-36.022,22.506c-2.654,0-14.938-22.506-36.031-22.506
				c-20.515,0-37.27,16.92-38.364,37.414c-0.621,11.57,3.113,20.377,8.372,28.357c10.502,15.935,56.429,54.31,66.091,54.31
				c9.864,0,55.377-38.232,65.953-54.31c5.271-8.016,8.989-16.787,8.37-28.357C329.297,209.879,312.543,192.959,292.024,192.959z"/>
			<path d="M128.583,385.85l83.889,9.502c2.688,0.213,4.715-1.814,4.502-4.502l-9.501-83.887c-0.211-2.689-1.946-3.332-3.854-1.426
				l-22.192,22.193c-1.893,1.893-4.984,1.906-6.895,0.035c-44.327-44.744-44.202-117.201,0.38-161.783
				c44.713-44.713,117.462-44.713,162.174-0.002c44.711,44.711,44.712,117.463,0,162.176
				c-11.954,11.953-25.998,20.924-41.739,26.658c-9.303,3.389-14.092,13.676-10.706,22.975c3.389,9.299,13.675,14.092,22.973,10.703
				c20.692-7.539,39.136-19.313,54.816-34.992c58.688-58.688,58.688-154.178,0.001-212.865
				c-58.687-58.686-154.177-58.686-212.865,0.002c-58.545,58.545-58.68,153.713-0.415,212.436l-0.014,0.014
				c1.908,1.908,1.906,5.027,0.001,6.934l-21.975,21.975C125.254,383.902,125.895,385.637,128.583,385.85z"/>
		</g>
	</g>
</g>
<g id="Capa_3">
</g>
</svg>
