<?xml version="1.0" encoding="utf-8"?>
<!-- Generator: Adobe Illustrator 17.0.1, SVG Export Plug-In . SVG Version: 6.00 Build 0)  -->
<!DOCTYPE svg PUBLIC "-//W3C//DTD SVG 1.1//EN" "http://www.w3.org/Graphics/SVG/1.1/DTD/svg11.dtd">
<svg version="1.1" xmlns="http://www.w3.org/2000/svg" xmlns:xlink="http://www.w3.org/1999/xlink" x="0px" y="0px" width="512px"
	 height="512px" viewBox="0 0 512 512" enable-background="new 0 0 512 512" xml:space="preserve">
<g id="Artwork">
	<g id="Layer_5">
		<path d="M329.44,211.865c-1.112-1.035-0.483-1.779-0.174-2.207c2.498-3.455,3.976-7.693,3.976-12.282c0-11.598-9.402-21-21-21
			c-7.901,0-14.775,4.368-18.357,10.819c-0.637,1.146-1.412,3.469-3.561,2.98c-3.348-1.131-2.781-0.986-6.259-1.805
			c-1.987-0.623-0.92-1.351-0.372-1.795c12.694-10.296,26.065-23.057,30.899-30.41c4.51-6.86,7.695-14.369,7.164-24.277
			c-0.938-17.538-15.279-32.023-32.844-32.023c-17.277,0-28.244,19.267-30.836,19.267c-2.271,0-12.787-19.267-30.842-19.267
			c-17.563,0-31.904,14.485-32.844,32.023c-0.527,9.908,2.666,17.448,7.166,24.277c4.743,7.195,17.918,19.729,30.527,29.971
			c0.418,0.34,0.827,0.902-0.278,1.324c-3.363,0.684-3.237,0.658-6.486,1.631c-2.222,0.51-2.68-1.227-3.156-2.064
			c-3.607-6.357-10.425-10.651-18.257-10.651c-11.598,0-21,9.402-21,21c0,3.481,0.855,6.759,2.357,9.648
			c0.32,0.616,0.896,1.765-0.279,2.843c-26.722,20.811-42.616,52.225-42.616,88.639c0,62.655,50.975,113.629,113.63,113.629
			s113.63-50.974,113.63-113.629C369.63,263.288,354.672,232.724,329.44,211.865z M256,387.135c-48.871,0-88.63-39.759-88.63-88.629
			c0-48.871,39.759-88.63,88.63-88.63s88.63,39.759,88.63,88.63C344.63,347.376,304.871,387.135,256,387.135z"/>
	</g>
</g>
<g id="Capa_3">
</g>
</svg>
