<?xml version="1.0" encoding="utf-8"?>
<!-- Generator: Adobe Illustrator 17.0.1, SVG Export Plug-In . SVG Version: 6.00 Build 0)  -->
<!DOCTYPE svg PUBLIC "-//W3C//DTD SVG 1.1//EN" "http://www.w3.org/Graphics/SVG/1.1/DTD/svg11.dtd">
<svg version="1.1" xmlns="http://www.w3.org/2000/svg" xmlns:xlink="http://www.w3.org/1999/xlink" x="0px" y="0px" width="512px"
	 height="512px" viewBox="0 0 512 512" enable-background="new 0 0 512 512" xml:space="preserve">
<g id="Artwork">
	<g id="Layer_5">
		<g>
			<path d="M237.818,156.446c-15.249,0-22.074,14.65-22.074,29.169c0,13.626,6.873,28.292,21.964,28.292
				c15.248,0,22.073-14.594,22.073-29.057C259.781,171.17,252.908,156.446,237.818,156.446z"/>
			<path d="M408.667,119.735H162.144c-5.933,0-14.084,3.563-18.113,7.917l-48.463,49.359c-4.029,4.354-4.029,11.479,0,15.834
				l48.463,49.358c4.029,4.354,12.181,7.917,18.113,7.917h78.901v147.258c0,5.607,4.587,10.194,10.194,10.194h60.698
				c5.607,0,10.194-4.587,10.194-10.194V250.121h86.535c5.933,0,10.786-4.854,10.786-10.787V130.523
				C419.453,124.59,414.6,119.735,408.667,119.735z M202.631,218.073c0,2.969-2.415,5.384-5.384,5.384h-33.158
				c-2.969,0-5.384-2.415-5.384-5.384v-65.791c0-2.969,2.415-5.384,5.384-5.384h1.727c2.969,0,5.384,2.415,5.384,5.384v57.824
				c0,1.314,1.069,2.384,2.384,2.384h23.664c2.969,0,5.384,2.415,5.384,5.384V218.073z M237.161,224.657
				c-20.353,0-34.567-15.965-34.567-38.824c0-23.631,14.664-40.136,35.659-40.136c20.677,0,34.569,15.56,34.569,38.717
				C272.822,212.214,254.911,224.657,237.161,224.657z M337.689,152.561l-23.686,66.243c-0.933,2.608-3.833,4.652-6.604,4.652h-2.71
				c-2.787,0-5.649-2.076-6.515-4.727l-21.599-66.174c-0.467-1.43-0.284-2.871,0.501-3.954c0.786-1.083,2.1-1.704,3.603-1.704h2.492
				c2.794,0,5.642,2.087,6.484,4.751l9.116,28.828c0.645,2.038,1.692,5.375,2.329,7.415c0.039,0.126,3.254,10.44,5.479,18.869
				c1.063-3.641,4.306-14.623,6.993-22.504l11.185-32.67c0.899-2.63,3.781-4.689,6.561-4.689h2.382c1.513,0,2.819,0.624,3.586,1.711
				C338.052,149.697,338.198,151.138,337.689,152.561z M389.414,218.073c0,2.969-2.415,5.384-5.384,5.384h-33.595
				c-2.969,0-5.384-2.415-5.384-5.384v-65.791c0-2.969,2.415-5.384,5.384-5.384h31.958c2.969,0,5.384,2.415,5.384,5.384v0.199
				c0,2.969-2.415,5.384-5.384,5.384H359.93c-1.314,0-2.384,1.069-2.384,2.384v15.48c0,1.314,1.069,2.384,2.384,2.384h20.825
				c2.969,0,5.384,2.415,5.384,5.384c0,3.058-2.415,5.473-5.384,5.473H359.93c-1.314,0-2.384,1.069-2.384,2.384v18.754
				c0,1.314,1.069,2.384,2.384,2.384h24.101c2.969,0,5.384,2.415,5.384,5.384V218.073z"/>
		</g>
	</g>
</g>
<g id="Capa_3">
</g>
</svg>
