<?xml version="1.0" encoding="utf-8"?>
<!-- Generator: Adobe Illustrator 17.0.1, SVG Export Plug-In . SVG Version: 6.00 Build 0)  -->
<!DOCTYPE svg PUBLIC "-//W3C//DTD SVG 1.1//EN" "http://www.w3.org/Graphics/SVG/1.1/DTD/svg11.dtd">
<svg version="1.1" xmlns="http://www.w3.org/2000/svg" xmlns:xlink="http://www.w3.org/1999/xlink" x="0px" y="0px" width="512px"
	 height="512px" viewBox="0 0 512 512" enable-background="new 0 0 512 512" xml:space="preserve">
<g id="Artwork">
	<g id="Layer_5">
		<path d="M339,118.5c0-23.435-19.065-42.5-42.5-42.5c-20.327,0-37.355,14.349-41.517,33.447c-0.131,0.599,0.017,1.81-1.546,1.81
			c0,0-32.051,0-43.23,0c-0.959,0-1.714-1.23-1.714-1.23l-7.781-18.558c5.639-9.322,13.341-28.091,14.311-35.849
			c0.629-5.031,0.347-10.058-2.648-15.402c-5.302-9.463-17.195-13.578-26.927-8.79c-9.574,4.711-10.396,18.373-11.832,19.08
			c-1.259,0.619-12.336-7.188-22.34-2.266c-9.729,4.787-13.727,16.722-9.464,26.696c2.406,5.634,6.232,8.939,10.588,11.495
			c6.561,3.853,25.648,9.052,36.606,10.41c0,0,3.495,9.485,4.704,13.105c0.413,1.237-0.544,1.413-0.544,1.413
			c-5.316,0.203-8.984,2.485-11.929,6.493c-3.08,4.194-3.883,9.675-2.201,15.035c1.774,5.664,6.381,22.445,6.381,31.945
			c0,6.578-2.936,19.368-6.044,32.91c-3.081,13.42-6.572,28.632-8.007,41.51c-1.862,16.72,7.188,33.431,26.9,49.668
			c13.472,11.097,26.979,17.445,27.642,18.079c0.355,0.34,0.561,0.914,0.683,1.209c10.947,26.456,4.451,86.722-0.692,91.838
			c-1.918,1.908-13.431,4.86-21.591,7.472c-6.726,2.152-13.68,4.377-18.978,6.275c-8.482,3.039-11.124,4.472-11.124,7.516
			c0,4.281,4.745,6.016,20.31,7.427c11.887,1.077,28.563,1.646,48.227,1.646c19.663,0,36.34-0.569,48.226-1.646
			c15.565-1.411,20.311-3.146,20.311-7.427c0-3.744-2.336-4.825-27.767-12.852c-9.086-2.868-21.901-6.227-23.872-8.339
			c-2.05-2.197-4.607-17.355-5.83-37.908c-0.81-13.605-1.226-38.712,5.085-54.005c0.121-0.295,0.303-0.607,0.525-0.819
			c0.75-0.719,14.373-7.402,27.81-18.466c19.729-16.244,28.772-32.961,26.877-49.685c-1.471-12.992-5.072-28.508-8.251-42.197
			c-2.851-12.279-5.798-24.976-5.798-30.496c0-1.707-0.001-2.303,0.241-4.383c0.324-1.205,1.096-1.449,1.567-1.509
			C322.778,158.007,339,140.115,339,118.5z M197.591,130.652c0,0-0.368-0.947,0.592-0.947c0.764,0,2.004-0.025,2.672-0.025
			c0.77,0,0.98,0.821,0.98,0.821l22.725,51.281c0.314,0.687-0.296,0.838-0.62,0.857c-8.854,0.51-16.697,1.556-22.038,3.16
			c-0.365,0.11-1.068,0.202-0.85-0.671c1.781-8.493,2.789-14.792,2.789-20.291C203.841,153.092,199.407,136.848,197.591,130.652z
			 M296.5,92c14.612,0,26.5,11.888,26.5,26.5c0,11.684-7.609,21.606-18.127,25.119c-0.416,0.14-1.373,0.568-0.914-1.051
			c1.13-4.73,1.92-7.404,2.623-9.742c1.613-5.361,0.761-10.829-2.341-15.002c-3.103-4.173-8.093-6.566-13.691-6.566h-17.925
			c-1.188,0-1.238-1.174-1.031-1.747C275.283,99.314,285.046,92,296.5,92z M287.251,129.68c1,0,0.852,0.743,0.734,1.168
			c-1.986,7.157-6.347,24.176-6.347,35.699c0,5.205,1.125,11.632,3.054,20.467c0.184,1.028-0.568,0.751-0.99,0.602
			c-9.521-3.367-27.168-5.192-44.266-5.334c-0.218-0.002-0.561-0.031-0.984-0.795l-21.378-50.991c0,0-0.543-0.815,0.676-0.815
			C235.391,129.68,287.251,129.68,287.251,129.68z"/>
	</g>
</g>
<g id="Capa_3">
</g>
</svg>
