<?xml version="1.0" encoding="utf-8"?>
<!-- Generator: Adobe Illustrator 17.0.1, SVG Export Plug-In . SVG Version: 6.00 Build 0)  -->
<!DOCTYPE svg PUBLIC "-//W3C//DTD SVG 1.1//EN" "http://www.w3.org/Graphics/SVG/1.1/DTD/svg11.dtd">
<svg version="1.1" xmlns="http://www.w3.org/2000/svg" xmlns:xlink="http://www.w3.org/1999/xlink" x="0px" y="0px" width="512px"
	 height="512px" viewBox="0 0 512 512" enable-background="new 0 0 512 512" xml:space="preserve">
<g id="Artwork">
	<g id="Layer_5">
		<g>
			<path d="M257.712,194.138c0.064,0.119,0.419,0.404,0.781-0.196c1.171-1.942,1.986-3.68,2.521-5.033
				c2.564-6.497,3.013-11.703,1.5-17.408c-2.279-8.598-9.535-15.108-17.92-16.503c-0.275-0.046-0.822-0.205-0.846,0.666
				c-0.1,2.702,0.196,4.784,0.847,7.976C245.792,169.511,250.983,181.618,257.712,194.138z"/>
			<path d="M248.51,144.05c12.779,2.156,21.637,11.416,25.107,24.507c2.77,10.448,0.43,18.619-1.919,24.57
				c-1.373,3.48-3.906,7.91-6.935,12.559c-0.076,0.116-0.215,0.278,0.228,1.079c4.146,6.69,6.658,9.67,8.002,10.769
				c0.127,0.008,0.297,0.015,0.515,0.015c10.677,0.001,47.003-12.311,57.161-19.373c6.336-4.406,9.938-8.927,12.045-15.119
				c4.191-12.314-1.865-26.131-13.502-30.8c-1.914-0.768-3.937-1.141-6.182-1.141c-6.353,0-12.72,3.056-16.933,5.077
				c-3.007,1.443-4.821,2.313-6.884,2.313c-0.001,0-0.001,0-0.002,0c-0.842,0.001-1.651-0.153-2.408-0.456
				c-2.912-1.169-3.823-3.755-5.086-7.335c-2.074-5.881-5.545-15.724-14.333-19.249c-2.721-1.091-5.589-1.645-8.524-1.645
				c-8.817,0-17.016,4.859-21.467,12.551C247.144,142.802,246.339,143.654,248.51,144.05z"/>
			<path d="M389.295,272.321c-11.467-2.768-22.138-4.846-35.704-6.79c-1.674-0.447-1.163-1.306-0.757-1.813
				c6.526-8.127,11.709-15.967,16.723-25.563c0.756-1.405,1.42-1.555,1.773-1.659c26.855-7.884,68.727-44.206,66.352-80.41
				c-2.315-35.326-25.072-39.14-34.749-39.14c-2.948,0-5.887,0.307-8.727,0.808c-1.214,0.214-2.29,1.246-3.581-2.593
				c-10.432-50.264-57.622-31.448-133.72-31.448c-86.736,0-135.922-20.122-135.922,59.929c0,41.955,13.518,86.11,38.865,118.641
				c0.682,0.874,1.818,2.551-1.064,3.042c-14.532,2.008-24.93,4.055-37.112,6.996c-41.05,9.909-61.865,23.744-61.865,41.12
				c0,17.377,20.815,31.211,61.865,41.12c35.857,8.655,83.379,13.422,133.811,13.422s97.954-4.767,133.812-13.422
				c41.051-9.909,61.865-23.744,61.865-41.12C451.16,296.065,430.346,282.229,389.295,272.321z M392.828,143.642
				c0-2.516,0.048-2.61-0.049-4.932c-0.029-2.21,1.113-2.65,1.729-2.799c2.742-0.662,5.621-1.104,8.425-1.104
				c4.625,0,15.455,0,16.927,22.447c1.349,20.568-19.781,42.775-38.098,54.543c-0.281,0.181-0.7,0.328-0.232-1.203
				C389.371,188.553,392.828,166.636,392.828,143.642z M158.657,192.545c-1.297-8.454,0.604-17.041,5.353-24.181
				c4.834-7.269,12.1-12.232,20.458-13.976c1.792-0.373,3.633-0.563,5.472-0.563c9.766,0,17.708,5.206,22.59,8.795
				c3.689-6.135,10.29-15.92,20.571-18.317c1.467-0.474,1.603-1.861,1.924-2.668c0.273-0.688,0.571-1.382,0.896-2.081
				c5.989-12.89,18.919-21.219,32.939-21.219c4.407,0,8.715,0.832,12.801,2.471c12.674,5.084,17.808,17.508,20.361,24.604
				c4.908-2.34,12.574-5.779,21.008-5.779c3.686,0,7.205,0.662,10.458,1.967c8.5,3.41,15.241,10.015,18.983,18.601
				c3.679,8.438,4.075,17.871,1.117,26.561c-3.742,10.998-10.71,16.92-16.362,20.85c-12.101,8.413-50.805,21.429-63.718,21.429
				c-0.001,0-0.001,0-0.002,0c-1.93-0.001-3.504-0.255-4.813-0.781c-1.26-0.506-4.383-1.76-11.039-11.651
				c-0.087-0.13-0.329-0.372-0.75,0.257c-1.655,2.224-2.824,3.719-4.405,5.705c-15.959,20.053-21.299,21.167-23.054,21.534
				c-0.617,0.129-1.255,0.191-1.952,0.191h-0.001c-6.716-0.001-21.04-7.121-28.98-11.365c-9.967-5.328-22.627-13.019-28.268-18.626
				C166.068,210.148,160.319,203.373,158.657,192.545z M384.773,335.828c-34.42,8.308-80.336,12.883-129.29,12.883
				s-94.87-4.575-129.29-12.883c-38.459-9.283-47.115-19.53-47.115-22.387c0-2.857,8.656-13.103,47.115-22.387
				c15.416-3.721,33.143-6.691,52.412-8.839c0.292,0.254,0.59,0.5,0.884,0.751c-4.261,4.417-6.739,9.654-6.739,15.275
				c0,15.751,19.377,28.521,43.28,28.521h81.751c23.902,0,43.279-12.77,43.279-28.521c0-5.621-2.477-10.858-6.738-15.275
				c0.183-0.156,0.367-0.309,0.549-0.466c18.299,2.123,35.158,4.995,49.902,8.554c38.46,9.283,47.115,19.529,47.115,22.387
				C431.889,316.298,423.233,326.545,384.773,335.828z"/>
			<path d="M203.894,222.778c12.831,6.861,20.744,9.683,23.205,9.998c2.131-1.254,8.241-6.97,17.203-18.358
				c2.226-2.829,4.352-5.666,6.307-8.399c0.102-0.143,0.277-0.43-0.091-1.124c-0.817-1.439-1.273-2.27-2.16-3.902
				c-6.087-11.195-13.23-26.283-15.018-35.057c-0.503-2.464-0.939-4.375-1.023-7.741c0.099-1.182-0.327-0.888-0.469-0.793
				c-4.744,3.181-8.008,8.668-10.173,12.312c-1.977,3.327-3.405,5.73-6.469,6.37c-0.408,0.085-0.83,0.128-1.252,0.128
				c-0.001,0-0.002,0-0.003,0c-2.444,0-4.156-1.287-6.746-3.233c-3.815-2.867-10.2-7.665-17.265-7.665
				c-1.051,0-2.103,0.108-3.125,0.321c-11.041,2.304-18.579,13.595-16.803,25.169c0.898,5.847,3.39,10.438,8.334,15.352
				C182.201,209.987,192.468,216.667,203.894,222.778z"/>
		</g>
	</g>
</g>
<g id="Capa_3">
</g>
</svg>
