<?xml version="1.0" standalone="no"?>
<!DOCTYPE svg PUBLIC "-//W3C//DTD SVG 1.1//EN" "http://www.w3.org/Graphics/SVG/1.1/DTD/svg11.dtd" >
<svg xmlns="http://www.w3.org/2000/svg" xmlns:xlink="http://www.w3.org/1999/xlink" version="1.1">
<metadata></metadata>
<defs>
<font id="ts-klinsee_npregular" horiz-adv-x="0" >
<font-face units-per-em="2048" ascent="1434" descent="-614" />
<missing-glyph horiz-adv-x="465" />
<glyph unicode="&#x3b;&#x3b;For&#x20;Education&#x20;Used&#x20;Only&#x3b;&#x3b;" horiz-adv-x="445" d="M48 201q0 41 15.5 78.5t42.5 65t64 43.5t79 16q43 0 79.5 -16t64 -43.5t43 -65t15.5 -78.5q0 -43 -15.5 -79.5t-43 -63.5t-64 -42.5t-79.5 -15.5t-79.5 15.5t-63.5 42.5t-42.5 64t-15.5 79zM61 201q0 -39 14.5 -73t40.5 -59.5t60 -40t73 -14.5q38 0 72 14.5t59.5 40 t40 59.5t14.5 73q0 38 -14.5 72t-40 59.5t-59.5 41t-72 15.5q-39 0 -73 -15.5t-60 -41t-40.5 -59.5t-14.5 -72zM145 191q0 46 22 83t72 37q14 0 31 -7q17 -5 32 -5q7 0 12 1.5t15 10.5q-10 -38 -32 -38q-7 0 -13 3.5t-14 6.5q-2 0 -12 4q-7 3 -11 3q-15 0 -26 -10t-18 -24 t-9.5 -31t-2.5 -29q0 -14 2.5 -30t9.5 -29.5t18 -23t26 -9.5q39 0 69 58v-78l-19 18q-14 -12 -30 -15t-26 -3q-49 0 -72.5 29.5t-23.5 77.5z" />
<glyph unicode="&#x3b;&#x3b;Registered&#x3b;&#x3b;" horiz-adv-x="450" d="M49 195q0 39 15.5 74.5t42 62t61.5 43t74 16.5q41 0 77 -16.5t63.5 -43t42.5 -62t15 -74.5q0 -41 -15 -77t-42.5 -61.5t-63.5 -41t-77 -15.5q-39 0 -74 15.5t-61.5 41t-42 61.5t-15.5 77zM65 195q0 -38 13.5 -71.5t37.5 -57t56.5 -38t69.5 -14.5q38 0 72 14.5t58 38 t38.5 57t14.5 71.5t-14.5 70t-38.5 56.5t-58 39t-72 14.5t-70 -14.5t-56 -39t-37.5 -57t-13.5 -69.5zM145 92l15 12v179q-14 12 -13 21q0 2 1 3v5q9 -9 16 -10.5t15 -1.5q15 0 30.5 2.5t31.5 2.5q29 0 56 -11.5t27 -44.5q0 -36 -56 -54q19 -12 25.5 -20.5t10.5 -19.5 q2 -5 2.5 -9t2.5 -9q5 -17 14.5 -32t36.5 -15h6.5t12.5 2q-19 -9 -28.5 -12t-21.5 -3q-34 0 -43.5 17t-17.5 37q0 9 -1 13t-4 11q-3 3 -5 8.5t-5 8.5q-7 9 -16.5 14t-24.5 5q-7 0 -14 -2v-85l14 -12h-67zM198 208q7 -2 12 -1h12q19 0 40 9t21 33q0 22 -18.5 30t-37.5 8 h-14.5t-14.5 -4v-75z" />
<glyph unicode="&#x3b;&#x3b;Trademark&#x3b;&#x3b;" horiz-adv-x="590" d="M111 393v34h282l32 -159l38 159h100v-220h-44v186h-29l-43 -186h-41l-49 186h-29v-186h-45v186h-46v-186h-42v186h-84z" />
<glyph unicode="&#x3b;&#x3b;Multiply&#x3b;&#x3b;" horiz-adv-x="404" d="M96 130l99 97l-99 99l41 39l99 -97l97 97l42 -39l-102 -99l102 -97l-42 -41l-97 99l-99 -99z" />
<glyph unicode="&#x3b;&#x3b;Divide&#x3b;&#x3b;" horiz-adv-x="640" d="M121 220v48h510v-48h-510zM324 140q0 17 13 30t28 13q19 0 30 -13t11 -30q0 -24 -11 -37t-30 -13q-15 0 -28 13t-13 37zM333 353q0 24 13 37t28 13q17 0 28 -13t11 -37q0 -15 -11 -28.5t-28 -13.5q-15 0 -28 13.5t-13 28.5z" />
<glyph unicode="&#x2018;&#x2018;" horiz-adv-x="392" d="M137 527q3 43 38 78t78 47q7 0 16 -3.5t15 -10.5t5 -16t-14 -20q-15 -9 -29.5 -19.5t-23.5 -32.5q-9 -32 3 -48t26 -24q-3 -19 -15 -32.5t-36 -10.5q-31 3 -48 29t-15 63zM282 527q2 43 36.5 78t77.5 47q7 0 16.5 -3.5t15 -10.5t5 -16t-12.5 -20q-17 -9 -31.5 -19.5 t-24.5 -32.5q-7 -32 4 -48t25 -24q-2 -19 -14 -32.5t-36 -10.5q-32 3 -48.5 29t-12.5 63z" />
<glyph unicode="&#x2019;&#x2019;" horiz-adv-x="450" d="M142 453.5q0 9.5 13 19.5q14 9 28.5 20.5t23.5 35.5q5 34 -8 48t-27 22q3 17 14.5 31.5t35.5 11.5q32 -2 49 -26t17 -60q0 -44 -33 -81.5t-76 -51.5q-7 0 -16 3.5t-15 10.5t-6 16.5zM295 453.5q0 9.5 14 19.5q15 9 29 20.5t22 35.5q5 34 -7 48t-25 22q2 17 13 31.5 t34 11.5q32 -2 50.5 -26t18.5 -60q0 -44 -33.5 -81.5t-77.5 -51.5q-7 0 -16.5 3.5t-15.5 10.5t-6 16.5z" />
<glyph unicode="&#xe24;&#xe32;" horiz-adv-x="733" d="M128 196q-2 60 0.5 122.5t6 120.5t7.5 93q39 3 99.5 3.5t123.5 -4.5q49 -3 82 -21t53 -47l5 51q38 5 73.5 6.5t64.5 -4.5t49.5 -24t29.5 -50q5 -26 7.5 -75.5t3.5 -110t-1 -127t-4.5 -128t-5.5 -111t-7 -74.5l-60 -4q3 17 6 58t5.5 92.5t4 108.5t1.5 108t-0.5 90.5 t-4.5 54.5q-5 27 -39 34q-20 3 -45 3.5t-49 -1.5q3 -31 2.5 -78.5t-5 -101.5t-10.5 -111t-12.5 -106.5t-12.5 -88t-10 -53.5l-70 13q3 22 11 69.5t15 105.5t9.5 120t-3.5 115t-25.5 89t-57.5 41q-10 2 -33 2.5t-48.5 0.5t-47 -1t-26.5 -1q-2 -19 -4.5 -52t-4 -69.5t-1.5 -71 t3 -52.5q3 -24 14.5 -29t25 -1t26.5 15t21 20q7 -9 24 -30t10 -44q-5 -19 -29.5 -37.5t-54.5 -22t-59 17t-41 78.5q-10 39 -12 99z" />
<glyph unicode="&#xe26;&#xe32;" horiz-adv-x="749" d="M107 69q-1 35 7 61q10 -2 21.5 -5.5t21.5 -2.5t17 9.5t7 34.5q2 26 -1.5 60.5t-10.5 72t-14 71t-10 53.5q-3 31 2 54t24 28q39 14 93.5 25t126.5 2q46 -3 78.5 -21t52.5 -43l5 46q38 5 74 6.5t65 -4.5t48.5 -24t26.5 -50q5 -26 8.5 -74.5t5 -109t0.5 -127t-1.5 -127 t-3 -110t-6.5 -75.5l-61 -5q2 17 4 57t4 92t2 108.5v107.5t-2 90.5t-3 54.5q-5 27 -38 34q-22 3 -44 3.5t-46 -1.5q3 -31 2 -78.5t-5 -103t-11 -112t-14.5 -106.5t-15 -88t-13.5 -53l-58 19q26 114 39 210.5t9.5 167.5t-27.5 110t-73 43q-20 2 -47 1.5t-51 -0.5t-43.5 -1.5 t-26.5 -3.5q12 -55 19 -123t3 -131q-3 -70 -32 -86t-90 -5q-17 14 -18 49z" />
<glyph unicode="&#xd;" horiz-adv-x="390" />
<glyph unicode=" "  horiz-adv-x="465" />
<glyph unicode="&#x09;" horiz-adv-x="465" />
<glyph unicode="&#xa0;" horiz-adv-x="465" />
<glyph unicode="!" horiz-adv-x="276" d="M77 90q0 41 29 69.5t68 28.5t68 -28.5t29 -69.5q0 -39 -29 -67t-68 -28t-68 28t-29 67zM102 753h130q-2 -10 -2.5 -44.5t-1.5 -83t-1 -105t-1 -111t-1.5 -101.5t-2.5 -76h-106q3 17 3 60t-0.5 97.5t-4 115t-6 112.5t-4.5 88.5t-2 47.5z" />
<glyph unicode="&#x22;" horiz-adv-x="344" d="M89 811h51h48q0 -7 -2 -41t-2.5 -75t-1.5 -81.5t-1 -60.5h-82q2 14 0 53t-4.5 82.5t-4 79.5t-1.5 43zM232 811h50h49q0 -7 -1.5 -41t-2.5 -75t-2 -81.5t-1 -60.5h-82q0 14 -1.5 53t-3 82.5t-3.5 79.5t-2 43z" />
<glyph unicode="#" horiz-adv-x="776" d="M92 224l9 42h160l38 142h-154l15 48l152 -2l57 183h80l-58 -183h130l52 176h84l-56 -176h174l-16 -43h-172l-41 -138h181l-14 -51l-181 2l-64 -224h-81l67 222h-130l-63 -222h-77l62 222zM338 270h130l42 141h-131z" />
<glyph unicode="$" horiz-adv-x="616" d="M73 80l122 156q32 -27 72 -46t79 -28v111q-44 7 -86.5 19t-74 33t-47 56t-7.5 87q15 85 74.5 122.5t134.5 44.5v60l35 5v-65q72 0 140.5 -18t112.5 -42q-5 -5 -13.5 -29t-18 -51t-15.5 -50t-6 -29q-104 46 -196 62q0 -27 1.5 -54.5t1.5 -56.5q39 -7 71.5 -12t55.5 -10 q44 -10 74.5 -41t32.5 -101q2 -48 -18.5 -84.5t-53 -63t-73.5 -41t-78 -17.5v-77l-41 -9v84q-65 2 -137 23t-142 62zM186 426q9 -11 32 -20.5t56 -17t71 -14.5q-2 29 -2 56v53q-53 5 -92 -1t-60 -30q-14 -15 -5 -26zM384 268l7 -109q46 -5 85 7t51 41q7 17 -2.5 26t-30 16 t-49.5 10.5t-61 8.5z" />
<glyph unicode="%" horiz-adv-x="544" d="M77 484.5q2 37.5 31 67.5t88 27q48 -2 73.5 -33.5t25 -68.5t-28 -66.5t-85.5 -26.5q-53 0 -79.5 31.5t-24.5 69zM99 -73l365 766l74 -14l-379 -768zM144 452q-1 -12 8.5 -20.5t28.5 -8.5q20 0 29.5 9.5t8.5 21.5t-11 21.5t-29 7.5q-17 0 -25.5 -9.5t-9.5 -21.5z M320 126.5q1 37.5 31 68t88 29.5q49 -3 74.5 -35t25 -68.5t-29 -66.5t-86.5 -28q-53 0 -78.5 31.5t-24.5 69zM387 96.5q0 -11.5 8.5 -20.5t27.5 -9q20 0 30.5 10t10 22t-11.5 21.5t-30 9.5q-15 -2 -25 -12t-10 -21.5z" />
<glyph unicode="&#x26;" horiz-adv-x="733" d="M187 139.5q-11 55.5 20.5 111.5t106.5 85q-38 34 -55.5 85.5t-7.5 98.5t54.5 78.5t129.5 29.5q67 -3 96.5 -40t27 -84.5t-36.5 -93t-94 -64.5l122 -124q38 68 29 113l136 -59q-9 -39 -20 -72t-43 -73l82 -80l-113 -44l-42 53q-41 -34 -86.5 -48.5t-91.5 -11.5 q-96 0 -149.5 42t-64.5 97.5zM251 160q9 -24 31 -38t53.5 -17.5t71.5 6.5t83 39l-147 155q-70 -34 -86 -75t-6 -70zM338.5 465.5q2.5 -32.5 55.5 -78.5q15 2 32.5 19t24 37t-4.5 36.5t-52 18.5q-58 0 -55.5 -32.5z" />
<glyph unicode="'" horiz-adv-x="245" d="M106 620l5 133q56 14 89.5 -2.5t43.5 -53.5t-1 -89t-43 -110l-41 4q20 38 23.5 62.5t-6 38t-28 17t-42.5 0.5z" />
<glyph unicode="(" horiz-adv-x="324" d="M135.5 248.5q4.5 101.5 36 197t86.5 170.5q22 -3 34.5 -5t35.5 -5q-48 -65 -77 -157t-34 -193.5t17 -200t77 -173.5q-20 -3 -37.5 -5.5t-31.5 -6.5q-61 79 -86 178t-20.5 200.5z" />
<glyph unicode=")" horiz-adv-x="324" d="M114 606q24 3 36 5t34 5q53 -75 85.5 -170.5t37.5 -197t-20.5 -200.5t-85.5 -178q-15 3 -31.5 6t-38.5 6q55 75 77 173.5t17 200t-34 193.5t-77 157z" />
<glyph unicode="*" horiz-adv-x="457" d="M82 1077l128 73l-128 72l32 53l125 -72v145h58v-145l125 72l34 -53l-127 -72l127 -73l-34 -53l-125 73v-143h-58v143l-125 -73z" />
<glyph unicode="+" horiz-adv-x="442" d="M145 268l2 101h114l-3 99h71v-99h110v-101h-111v-97h-65l-2 97h-116z" />
<glyph unicode="," horiz-adv-x="245" d="M102 3l6 132q58 14 84 -9.5t30.5 -68.5t-9 -103t-39.5 -116l-39 2q19 56 25 90t0.5 51t-20 20.5t-38.5 1.5z" />
<glyph unicode="-" horiz-adv-x="423" d="M121 268l2 97h299v-92z" />
<glyph unicode="." horiz-adv-x="349" d="M150 94q0 39 29 68t68 29t68.5 -29t29.5 -68q0 -41 -29 -68.5t-69 -27.5q-39 0 -68 27.5t-29 68.5z" />
<glyph unicode="/" horiz-adv-x="436" d="M48 -73l339 792l74 -11l-359 -797z" />
<glyph unicode="0" horiz-adv-x="682" d="M140.5 308q2.5 81 35 151t96.5 116t160 45q87 -2 144 -50.5t84.5 -121.5t24 -155.5t-37 -151.5t-97 -113t-157.5 -37q-85 0 -141.5 47t-85 118t-26 152zM250 221.5q-1 -44.5 15.5 -82.5t48.5 -64.5t84 -26.5q55 -2 90.5 23t54 63t18 83.5t-17.5 84.5t-53 65t-89 26 q-49 0 -82.5 -25t-50.5 -63.5t-18 -83z" />
<glyph unicode="1" horiz-adv-x="343" d="M102 517q44 24 94.5 54t79.5 52l76 -2q-5 -24 -8 -74t-3.5 -114t0 -133.5t1.5 -130t1 -104v-55.5l-82 -3q-2 19 -2.5 63t-0.5 103t-1 129t-1 140q0 -2 -10 -8t-24.5 -13.5t-31 -16t-30.5 -13.5q-3 2 -13 19.5t-20.5 40t-18 42t-6.5 24.5z" />
<glyph unicode="2" horiz-adv-x="698" d="M137 490q29 38 68 65t83.5 45t90.5 24.5t89 5.5q90 -7 150 -54t70 -131q5 -46 -20 -88.5t-72.5 -81.5t-116.5 -76t-155 -69q90 9 174 17t195 19q-2 -5 -2 -25v-43v-45t-2 -33q-43 -2 -105 -4t-132 -4.5t-140 -4.5t-126 -2q-5 12 -12 31t-10.5 37.5t1 35.5t21.5 28 q89 26 163 56.5t128 62t82 60.5t23 53q-9 41 -37 59.5t-65.5 22t-80 -7t-81 -29t-69.5 -41.5t-42 -45z" />
<glyph unicode="3" horiz-adv-x="698" d="M174 139q-12 62 43 156l59 -34q-17 -19 -16 -33.5t11.5 -26.5t26.5 -19.5t31 -12.5q43 -14 90 -14t87 11t67.5 29t29 40.5t-29 46t-105.5 46.5q68 51 85 81.5t1 46t-57 17t-90.5 -6t-97.5 -23.5t-77 -35q-2 7 -7 30t-11 49.5t-11 50t-7 34.5q46 27 113.5 40t133.5 10.5 t122 -20.5t81 -50.5t9.5 -80.5t-92.5 -109q80 -34 106.5 -80t19.5 -103q-5 -63 -57.5 -105t-123.5 -60.5t-146 -11.5t-125.5 41t-62.5 96z" />
<glyph unicode="4" horiz-adv-x="638" d="M125 239h5q22 22 55 58t71 77.5t76 84.5t68 78t49 59t19 27l92 -15q-5 -19 -7 -54t-3.5 -80.5t-0.5 -98t1 -107.5h52t50 3v-169q-27 0 -50 2t-52 2q3 -44 3 -69v-34l-102 4q-2 14 -2 35t2 66q-67 0 -139.5 -3.5t-156.5 -8.5q-2 12 -6 31.5t-9 40.5t-9.5 41t-5.5 30z M253 261q46 -3 99.5 -0.5t98.5 2.5v227q2 3 -15.5 -18t-45.5 -56t-63.5 -76t-73.5 -79z" />
<glyph unicode="5" horiz-adv-x="667" d="M135 85l66 162q56 -49 129 -72t136 -23t105.5 22t39.5 67q-2 38 -26.5 60.5t-63 33t-85.5 12t-94.5 -3.5t-93 -12.5t-77.5 -16.5l36 302l430 5v-131l-383 8l-7 -71q125 20 210.5 4t135.5 -53t68 -86.5t10 -95.5q-15 -85 -77 -130.5t-142 -56.5t-166 9.5t-151 66.5z" />
<glyph unicode="6" horiz-adv-x="667" d="M145 246q-3 70 21.5 137.5t76.5 121t131.5 87.5t185.5 38l54 -115q-90 -3 -151.5 -14t-102.5 -29t-65 -43.5t-39 -61.5q31 20 76 29.5t93.5 7t96.5 -17t84 -41t56.5 -66.5t15.5 -95q-3 -36 -19.5 -67.5t-45.5 -57t-70 -41.5t-96 -18q-77 -3 -133 15.5t-93.5 52.5 t-56.5 80.5t-19 97.5zM248 251q6 -34 47 -61.5t111 -27.5q85 2 127 33.5t39.5 68t-47.5 65.5t-134 24q-80 -7 -114.5 -37.5t-28.5 -64.5z" />
<glyph unicode="7" horiz-adv-x="614" d="M118 451q2 5 3.5 28t2.5 51t2.5 53.5t3.5 36.5q46 -5 105.5 -5.5t123.5 2.5l128 6t117 7q0 -10 2 -29t3.5 -39.5l3 -41t1.5 -34.5q-46 -32 -88.5 -95t-76 -135t-53 -141t-21.5 -110l-95 5q10 48 30.5 110.5t50.5 126.5t66 122.5t75 98.5q-36 -5 -88 -10.5t-106.5 -9 t-106 -3.5t-83.5 6z" />
<glyph unicode="8" horiz-adv-x="682" d="M157 124.5q-17 51.5 12 104.5t107 83q-60 31 -81 84t-1.5 104t80.5 88t163 33q82 -3 134 -39t70.5 -84.5t1.5 -98t-75 -78.5q46 -17 75 -48t37.5 -68.5t-3 -75t-46 -68t-90 -49t-135.5 -15.5q-108 0 -170 38t-79 89.5zM245.5 206.5q3.5 -30.5 49 -54.5t127.5 -22 q85 2 122.5 28t32.5 57t-49.5 56.5t-121.5 23.5q-85 -3 -124.5 -30.5t-36 -58zM293.5 392q1.5 -23 33 -41t95.5 -15q79 2 108.5 22.5t21.5 44.5t-48 42t-101 16q-56 -3 -83.5 -24.5t-26 -44.5z" />
<glyph unicode="9" horiz-adv-x="663" d="M130 445q5 34 20.5 66.5t44.5 57.5t69.5 41t97.5 20q77 5 133 -14.5t93 -54t56.5 -80.5t22.5 -97q2 -70 -22.5 -137.5t-77.5 -121t-132.5 -88.5t-183.5 -37l-56 114q90 2 151.5 13t102.5 29t65 44.5t39 62.5q-48 -29 -123 -35t-145 15.5t-117 71t-38 130.5zM234.5 364.5 q2.5 -36.5 48.5 -65t135 -23.5q80 7 114.5 38.5t28.5 65t-48 60t-112 24.5q-85 0 -127 -31.5t-39.5 -68z" />
<glyph unicode=":" horiz-adv-x="276" d="M118 89q0 39 24 65.5t58 26.5q32 0 56 -26.5t24 -65.5t-24 -66.5t-56 -27.5q-34 0 -58 27t-24 67zM118 408q0 39 24 66.5t58 27.5q32 0 56 -27.5t24 -66.5q0 -38 -24 -65t-56 -27q-34 0 -58 27t-24 65z" />
<glyph unicode=";" horiz-adv-x="252" d="M85 365q0 39 23.5 65.5t57.5 26.5t57 -26.5t23 -65.5t-23 -66.5t-57 -27.5t-57.5 27.5t-23.5 66.5zM102 3l6 132q58 14 87.5 -2.5t39 -53t-0.5 -88t-34 -109.5l-41 4q17 60 4 91.5t-61 25.5z" />
<glyph unicode="&#x3c;" horiz-adv-x="522" d="M96 379l423 266v-85q-26 -15 -64.5 -39t-81 -50t-83.5 -50.5t-72 -41.5l304 -178v-87z" />
<glyph unicode="=" horiz-adv-x="448" d="M145 200l2 97h300l-2 -90zM145 343l2 96h300l-2 -89z" />
<glyph unicode="&#x3e;" horiz-adv-x="558" d="M145 114v87l302 178q-29 17 -70.5 41.5t-83.5 50.5t-80.5 49.5t-62.5 39.5v85l422 -266z" />
<glyph unicode="?" horiz-adv-x="600" d="M111 519q-2 36 17 72.5t54 65.5t86 48t114 17q97 -3 148.5 -32.5t67 -75.5t2.5 -102t-43 -113.5t-69 -107.5t-75 -84q-9 -5 -26 -4.5t-13 10.5q15 17 33 49t34 68.5t25.5 74t6 67.5t-23 48.5t-62.5 18.5q-72 0 -119.5 -23.5t-57.5 -52t20.5 -53t114.5 -28.5 q20 -3 10 -17.5t-31 -18.5q-89 -17 -149.5 26.5t-63.5 146.5zM280 89q0 39 32.5 68t78.5 29q44 0 75.5 -29t31.5 -68t-31.5 -68.5t-75.5 -29.5q-46 0 -78.5 29t-32.5 69z" />
<glyph unicode="@" horiz-adv-x="759" d="M138 258q2 60 32.5 110t77 87t102.5 57t113 20q63 0 119 -13.5t101 -55.5q32 -31 48.5 -67t18 -74.5t-12 -75t-42.5 -69.5q-27 -27 -62 -42q-29 -14 -58 -12t-48 31q-20 -7 -39 -13t-39 -11q-61 -10 -100.5 -3.5t-61.5 26t-28 48t0 58.5q9 32 29.5 64t52 57.5t72.5 41 t90 15.5q24 0 47 -7.5t37 -26.5q27 -43 22 -108q-3 -32 -8 -63.5t-14 -69.5q46 22 71.5 59.5t30 79.5t-12 82t-55.5 69q-56 41 -129.5 43t-140 -26.5t-112.5 -83t-48 -129.5q-2 -46 15.5 -88.5t52.5 -76t87 -53t122 -18.5q72 0 144 25t125 74q17 9 28.5 4t11.5 -19 q-60 -65 -136 -94t-163 -32q-80 -3 -144 19.5t-107.5 63t-66.5 91.5t-22 106zM308.5 246q-4.5 -36 19.5 -55q17 -15 43.5 -18.5t55.5 0t55.5 13t43.5 22.5q20 67 12.5 109.5t-34 59t-66 4.5t-81.5 -55q-44 -44 -48.5 -80z" />
<glyph unicode="A" horiz-adv-x="566" d="M112 288q1 74 11 139.5t38 114.5q28 48 76 74q35 19 86 19q18 0 37 -2q72 -9 116.5 -49.5t67.5 -100.5q23 -61 29 -131q4 -45 4 -87q1 -25 -1 -50q-4 -67 -14.5 -123t-18.5 -85l-67 15q5 22 13.5 63t8.5 103h-307q7 -55 12 -103.5t10 -74.5q-22 0 -46 -5t-36 -5 q-7 65 -13 140q-6 65 -6 129v19zM191 287h302q-2 44 -19 74t-40.5 48.5t-52 26.5t-52.5 9h-11q-60 1 -92 -31q-36 -34 -35 -127z" />
<glyph unicode="B" horiz-adv-x="534" d="M84 575q67 31 141 41q36 5 69 5q34 0 66 -5q62 -10 102 -37.5t40 -69.5q0 -47 -36 -91q-38 -46 -109 -68q36 -5 68 -20.5t56 -37.5t37 -49.5t11 -54.5q-7 -60 -36.5 -96t-72.5 -54q-42 -19 -92 -25q-40 -5 -77 -5h-18q-45 2 -81 7t-50 7q2 9 3 44t1 82.5v101.5t-1 103.5 t-2 87t-1 52.5q-3 19 -10 43.5t-8 38.5zM174 169q26 -9 70 -11q14 -1 28 -1q30 -1 59 3q43 6 75.5 21t35.5 43q3 17 -14 39t-76 32q-30 4 -67 4q-11 -1 -22 -1q-50 -2 -89 -8v-121zM174 350q102 14 156 34t68 53q7 15 -16.5 26t-59.5 15q-27 3 -56 4h-21q-42 -2 -71 -11 v-121z" />
<glyph unicode="C" horiz-adv-x="534" d="M89 312q0 75 23 142t67.5 115.5t112.5 60.5q21 4 47 3q23 0 49 -2q56 -6 107 -42l-32 -167q-39 26 -91 36q-29 6 -57 6q-23 0 -45 -4q-48 -8 -83 -39.5t-40 -91.5v-9q0 -58 35 -98q38 -42 94 -60q31 -9 62 -9q25 -1 52 5q59 14 100 66l32 -23q-3 -29 -15 -65.5t-38.5 -68 t-68.5 -51.5q-30 -14 -72 -13q-17 0 -36 2q-67 9 -112 55t-68 111.5t-23 140.5z" />
<glyph unicode="D" horiz-adv-x="534" d="M73 592q95 40 171 40q12 0 24 -2q84 -8 142 -48.5t87.5 -107t31.5 -138.5v-11q1 -67 -23 -131q-26 -69 -81 -117t-139 -64q-28 -5 -58 -5q-62 0 -138 21q2 9 3 44.5t2 83.5q0 24 1 50q0 25 -1 53q-1 56 -1 107t-1 90.5t-1 54.5q-5 20 -11 43t-8 37zM152 130 q54 -14 100 -14q33 0 61 7q69 17 109 55q39 36 45 86q1 8 1 16q0 40 -26 76q-30 42 -102 68q-48 17 -117 17q-33 0 -71 -4v-307z" />
<glyph unicode="E" horiz-adv-x="462" d="M117 304q4 73 8 135q2 67 11 97.5t38 52.5q31 20 71 29.5t82 11.5q16 1 32 1q25 0 48 -2q38 -4 66 -9l-17 -175q-61 9 -110 14q-22 2 -42 2q-23 0 -42 -3q-35 -6 -53 -27t-18 -64q2 0 35 1t74 1.5t75.5 2.5t35.5 2l7 -82q-2 0 -37 -2t-76.5 -2.5t-76.5 -2.5t-37 -2 q0 -24 -4 -47.5t4 -39.5q12 -29 45.5 -37.5t73.5 -8.5t80 6t66 10q1 -15 1 -31q0 -23 -2 -49q-3 -36 -3 -65v-14q-24 -3 -60 -5q-24 -1 -50 -1h-26q-38 1 -73 6t-57 19q-31 20 -46 56t-22 84q-3 36 -3 75q0 31 2 63z" />
<glyph unicode="F" horiz-adv-x="442" d="M106 411q0 61 13.5 110t50.5 77t101 35q17 2 36 1q55 0 130 -14l5 -168q-61 6 -108 14q-31 5 -55 5q-13 0 -23 -1q-32 -4 -48 -27q-14 -20 -13 -64v-12h32.5t67 1t67.5 1h31v-98l-31 2t-67.5 4.5t-67.5 4t-32 1.5q-2 -29 -1.5 -61t1.5 -68q3 -70 12 -140l-77 1 q-5 34 -9.5 85.5t-8 106t-5 109t-1.5 95.5z" />
<glyph unicode="G" horiz-adv-x="539" d="M84 328q0 71 22 134q22 64 66.5 110t110.5 58q20 3 47.5 2t58.5 -7.5t62.5 -18.5t57.5 -31l-41 -143q-15 15 -39.5 24.5t-50.5 14.5t-52 5t-44 -5q-85 -22 -118 -73q-26 -38 -26 -79q0 -12 2 -24q7 -51 47 -83.5t91 -45.5q30 -7 61 -7q21 0 43 3q52 9 86 41 q2 26 2.5 38.5t1.5 23t1.5 20.5t2.5 31q-14 0 -38.5 -2.5t-51 -6t-50.5 -6t-36 -2.5q2 19 2 51t3 51q26 0 57 -1.5t63 -3.5t63 -3.5t55 -1.5q-5 -17 -8 -71t-3.5 -115.5t-1.5 -114t-1 -66.5q-84 -26 -137 -30h-21q-42 0 -88 11q-65 17 -109 65.5t-66 114.5q-24 67 -24 143z " />
<glyph unicode="H" horiz-adv-x="539" d="M108 3q2 15 2 57q0 14 -1 29q0 31 1 69q1 57 2 122.5t1.5 130.5t1.5 121.5t1 93.5l79 -3q-3 -31 -3.5 -79.5t-0.5 -121.5h273q1 31 1 59q0 37 -2 66q-2 23 -2 39q0 20 3 30l60 10q0 -38 1 -95t2.5 -121t2.5 -130.5t3.5 -122.5t5 -98t5.5 -56l-81 7q-3 13 -3 60v16 q0 62 3 165h-275v-166.5t-4 -79.5z" />
<glyph unicode="I" horiz-adv-x="179" d="M109 62q0 42 1 100t2 126.5t1 132.5t0.5 116t0.5 79l62 10v-93v-118t0.5 -127t1.5 -119.5t3 -96t3 -53.5l-73 -9q-2 10 -2 52z" />
<glyph unicode="J" horiz-adv-x="298" d="M5 48l72 179q12 -14 31.5 -26t41 -18.5t40 -6.5t27.5 10q15 17 19 75q2 45 2 97v31q-1 70 -6 136.5t-8 102.5l59 2q0 -34 3.5 -90.5t5.5 -121.5q3 -54 3 -110q0 -12 -1 -23q0 -68 -7 -126q-3 -29 -8.5 -54.5t-15 -45.5t-25.5 -33.5t-42 -20.5q-5 -2 -22 -2.5t-43.5 3 t-59 12.5t-66.5 30z" />
<glyph unicode="K" horiz-adv-x="559" d="M114 10q0 15 1 59t2 102.5t1 125.5v129t-1 112.5t-3 77.5l81 10q-3 -17 -5 -45t-4 -60.5t-2.5 -66.5t-2.5 -63q32 17 75 49.5t84 68t74 70.5t49 56l97 -27q-15 -14 -50.5 -39t-78 -56.5t-84.5 -64.5t-71 -64q48 -10 90 -41t76 -69t59.5 -80t42.5 -77t24 -58t4 -23 l-159 -29q-12 41 -40 88.5t-63 88t-70 64.5q-26 18 -47 17q-7 0 -14 -2q0 -41 -1 -86.5t-1.5 -82t-1.5 -60.5l-1 -24h-60z" />
<glyph unicode="L" horiz-adv-x="435" d="M102 10q0 10 2 52t3 101t1.5 127t0.5 132t-1.5 116.5t-5.5 77.5l86 10q0 -43 -2 -101.5t-4 -122.5q-1 -38 0 -76v-50q1 -62 4 -114q31 3 72 6t78.5 3.5t66.5 1.5t34 1l14 -160q-61 5 -120 5q-29 1 -57 -1q-85 -4 -172 -8z" />
<glyph unicode="M" horiz-adv-x="655" d="M92 616l145 10q26 -137 50.5 -208.5t48.5 -97t45.5 -13.5t39.5 46t33 80.5t26.5 88t17.5 71.5l5 30h164q-2 -36 -3.5 -90.5t-3 -117t-2.5 -127t-1 -120t1.5 -96t5.5 -53.5l-77 -9q-2 5 -2.5 31.5t-0.5 66.5t-1 88t-1 95t1 89.5t1 70.5q-26 -84 -52.5 -162.5t-56.5 -136.5 t-62 -90q-23 -23 -50 -22q-11 0 -21 3q-38 12 -81 72.5t-92 186.5q0 -36 2.5 -86t5 -95.5t2.5 -78t-3 -32.5l-77 -3q2 39 2.5 92t0.5 111t-1.5 119.5t-2.5 116t-2.5 99t-3.5 71.5z" />
<glyph unicode="N" horiz-adv-x="604" d="M97 601q19 9 37 12t38 10q0 -2 -1 -24t0 -55.5t3 -74.5t4.5 -80t6 -71.5t6.5 -49.5q12 27 43.5 87t71 121.5t80.5 105.5q38 41 71 41h4q56 -5 87 -45q32 -40 44 -99q11 -53 10 -114v-15q-2 -70 -9.5 -136.5t-16.5 -121t-13 -82.5l-73 12q3 24 11 70t14.5 98t10.5 104 q3 33 3 62q-1 16 -1 30q-2 40 -13 57t-37 2q-10 -17 -33 -64.5t-50.5 -104t-53 -110t-41.5 -81.5q-24 -43 -51 -61.5t-52 -16t-42.5 25t-23.5 59.5q-14 113 -22 242t-12 267z" />
<glyph unicode="O" horiz-adv-x="568" d="M102 319q2 82 30 151t83 116t137 47q73 -9 122.5 -60.5t73.5 -123.5q24 -71 25 -150q-1 -83 -29 -151q-28 -66 -82 -108q-48 -36 -117 -36q-12 0 -24 1q-73 0 -123 47t-74 116q-22 65 -22 141v10zM156 296q0 -34 18 -64q20 -32 56 -52q33 -18 84 -18h10q68 3 112 26.5 t64 56.5q17 29 17 62q-1 4 -1 8q-2 37 -26 67t-68 50q-39 17 -92 17h-16q-51 -3 -87 -25q-36 -24 -53 -56q-18 -34 -18 -72z" />
<glyph unicode="P" horiz-adv-x="544" d="M111 10q3 145 7 304q2 53 2 104q0 102 -6 198q32 2 76 6q35 3 71 2h21q48 -1 96.5 -8.5t86 -26.5t61.5 -52.5t24 -84.5q0 -85 -23.5 -133.5t-68.5 -71.5t-110 -26q-20 -1 -41 -1q-49 0 -107 5q1 -27 0 -50q0 -53 -2 -90q-2 -21 -2 -36q0 -24 4 -35zM196 346q39 -3 75 -3 q25 -1 48 1q56 4 98 14.5t66 26.5q26 17 26 39q0 28 -72 50q-62 19 -186 20q-26 0 -55 -1v-147z" />
<glyph unicode="Q" horiz-adv-x="552" d="M91 320q1 81 29 151t83.5 116t139.5 46q56 -7 99 -40t70 -82.5t41 -110.5q11 -48 11 -96v-24q-4 -60 -23 -115.5t-55 -94.5q43 -15 87 -22q2 0 -5.5 -15.5t-18 -35t-20.5 -35t-12 -15.5q-26 2 -55.5 20.5t-58.5 46.5q-20 -7 -43.5 -8t-48.5 -1q-73 0 -123 47t-74 117 q-23 67 -23 145v6zM152 303v-8q0 -32 14 -59q17 -31 50 -52.5t86 -21.5q-13 41 -13 74q0 9 1 18q12 -27 25.5 -48.5t29.5 -39.5q60 9 96.5 33.5t52.5 56.5q12 25 12 51q0 8 -2 16q-4 35 -28.5 64t-67.5 47q-37 15 -86 15h-17q-48 -2 -82 -24t-51.5 -53.5t-19.5 -68.5z" />
<glyph unicode="R" horiz-adv-x="552" d="M106 10q2 145 7 304q2 53 2 104q0 102 -7 198q31 2 75 6q34 3 71 2h22q48 -1 96 -8.5t86.5 -26.5t62 -52.5t23.5 -84.5q0 -65 -15 -107.5t-43.5 -70t-69.5 -40t-92 -16.5q60 -26 115.5 -35t104.5 -17q2 0 -3 -25t-12 -55.5t-14.5 -55.5t-9.5 -25q-22 -3 -59.5 15.5 t-80 50t-85.5 72t-73 81.5h-16.5t-16.5 1q1 -39 1 -71q1 -40 -1 -69q-1 -24 -2 -41q0 -20 2 -30zM172 346q39 -3 76 -3q26 -1 50 1q60 4 106 14q45 12 71 28q28 18 28 37q1 31 -81 53q-68 18 -192 18q-27 0 -58 -1v-147z" />
<glyph unicode="S" horiz-adv-x="605" d="M73 80l122 156q39 -34 91 -54t102 -24q13 -1 24 -1q36 1 64 9q38 12 51 41q10 26 -18 36.5t-76.5 17.5t-105.5 15.5t-104 29t-75 58.5q-20 26 -21 67q0 17 4 37q15 87 76 124.5t138 41.5q14 1 27 1q64 1 128 -15q78 -18 128 -45q-5 -5 -13.5 -29t-18 -51t-15.5 -50 t-6 -29q-63 29 -123 46q-60 18 -112 23q-19 2 -37 2q-29 1 -53 -5q-38 -8 -59 -30q-15 -17 -4 -29t38.5 -22t65.5 -18.5t79 -14.5t78 -12t61 -11q44 -10 73 -55.5t31 -94.5v-9q0 -42 -17 -75q-19 -36 -50.5 -60t-72 -36.5t-79.5 -14.5q-17 -2 -35 -2q-55 0 -119 16 q-86 20 -167 66z" />
<glyph unicode="T" horiz-adv-x="390" d="M24 613q51 -3 103 -3q43 0 85 2q96 4 181 8q-2 -9 -2 -42.5v-79.5q0 -5 -24 -9t-52 -7.5t-52 -8t-24 -9.5q0 -60 -1 -127t-1 -131t1 -115.5t4 -76.5l-83 -11q0 43 1.5 101t2.5 122t1 127t-4 115q-63 -9 -86 -13t-35 -4z" />
<glyph unicode="U" horiz-adv-x="549" d="M102 380q0 4 -1 8q0 102 13 245l48 -3q-5 -76 -5 -136t5 -102q10 -86 34 -127t62.5 -51.5t84.5 -10.5q44 0 71.5 25.5t41.5 63.5q14 40 18 88q3 38 3 74v21q-1 47 -5 87t-4 66l70 2q2 -34 7 -95t5 -130v-10q0 -63 -6 -129q-6 -70 -28.5 -128.5t-64 -95.5t-108.5 -37 q-38 0 -73.5 5t-65.5 25.5t-53 61t-36 110t-13 173.5z" />
<glyph unicode="V" horiz-adv-x="518" d="M63 620l58 10q9 -65 24 -142t39 -141t58 -102q26 -29 61 -29q10 0 21 2q10 2 25 20t33.5 62.5t40 121t45.5 194.5l54 -8q-5 -22 -13.5 -77t-22 -122.5t-31.5 -140.5t-43.5 -134t-57 -100t-71.5 -39h-4q-40 1 -71 37q-32 38 -55 97.5t-39.5 132.5t-25.5 142.5t-15 128 t-10 87.5z" />
<glyph unicode="W" horiz-adv-x="754" d="M39 620l60 10q31 -210 73 -302q39 -84 76 -84h7q40 8 70 106.5t33 269.5l48 3q27 -188 62 -283q34 -96 74 -98q1 0 3 -1q39 0 78 91q41 93 80 284l53 -8q-5 -22 -11 -76t-15.5 -120.5t-23 -138.5t-35 -131.5t-50.5 -98t-68 -38.5q-38 0 -66 26.5t-47.5 71.5t-33 102.5 t-22.5 118.5q-3 -58 -11.5 -115t-23 -102.5t-38 -73.5t-55.5 -28h-4q-40 0 -72 35q-32 37 -55 96t-38 130.5t-24.5 140.5t-14.5 126.5t-9 86.5z" />
<glyph unicode="X" horiz-adv-x="573" d="M31 10q9 17 28.5 48.5t45 71t56 86.5t63.5 96q-27 48 -54.5 95t-51.5 88t-43 73.5t-31 51.5l180 10q10 -15 22.5 -40t28 -54t32 -60t31.5 -58q20 27 41.5 58t42 59t37.5 53t27 42l64 -17q-24 -34 -70.5 -99t-100.5 -152q36 -56 70 -114.5t62 -108t48.5 -84.5t31.5 -45 l-190 -5q-3 5 -18.5 30t-36 59t-44.5 75t-46 78q-24 -38 -47 -78.5t-42.5 -75.5t-34 -60.5t-18.5 -32.5z" />
<glyph unicode="Y" horiz-adv-x="503" d="M14 621l152 9q10 -15 29.5 -43.5t42.5 -61.5t47 -68t39 -63q19 29 37 64t33.5 67.5t26.5 60.5t18 44l70 -16q-9 -15 -30.5 -54t-48 -86t-53.5 -95t-46 -79q2 -48 3 -94t1.5 -85t1.5 -69t3 -42l-82 -3q2 12 1.5 36.5t-1 57t-2.5 70t-3 76.5q-26 48 -62 105.5t-71.5 111 t-64.5 96t-41 61.5z" />
<glyph unicode="Z" horiz-adv-x="593" d="M55 116q43 41 101.5 89.5t118.5 99t114.5 97.5t90.5 84l-407 -18q0 5 1 27t2 48.5t2.5 49.5t3.5 30l509 3q2 -10 3.5 -25.5t1.5 -31.5t0.5 -31.5t4.5 -25.5q-7 -5 -35 -29t-67.5 -58t-84.5 -75t-86 -78.5t-74.5 -68.5t-46.5 -44h361q2 -10 3.5 -31.5t3.5 -45.5t3.5 -45.5 t5.5 -31.5l-502 2q0 5 -3.5 23t-8.5 37.5t-9.5 34t-5.5 14.5z" />
<glyph unicode="[" horiz-adv-x="305" d="M130 -147v743v78h175v-78h-81v-666h81v-77h-175z" />
<glyph unicode="\" horiz-adv-x="455" d="M90 -67l294 642h79l-294 -642h-79z" />
<glyph unicode="]" horiz-adv-x="266" d="M89 -70h83v666h-83v78h174v-78v-743h-174v77z" />
<glyph unicode="^" horiz-adv-x="667" d="M133 162v79l266 201l267 -201v-79l-267 200z" />
<glyph unicode="_" horiz-adv-x="411" d="M63 -55q0 26 26 26h290q27 0 27 -26v-3q0 -27 -27 -27h-290q-26 0 -26 27v3z" />
<glyph unicode="`" horiz-adv-x="184" d="M24 539q3 44 38 80t80 47q7 0 15.5 -3.5t14 -11.5t5 -17t-14.5 -20q-14 -7 -29.5 -19t-24.5 -34q-7 -32 4 -47.5t26 -23.5q-3 -17 -16 -31t-35 -10q-31 3 -48 28t-15 62z" />
<glyph unicode="a" horiz-adv-x="442" d="M61 197q0 57 21.5 107.5t65 86.5t110.5 41q24 3 59 -7t58 -31q0 14 2 24t2 19l66 -29q-3 -15 -4.5 -49.5t-1.5 -76t1.5 -87t2.5 -84.5t3.5 -67.5t2.5 -36.5l-80 3v45q-24 -27 -60.5 -41t-62.5 -14q-14 -2 -28 -2q-42 0 -73 22q-41 28 -62.5 74t-21.5 103zM113 209 q-1 -30 17 -54q18 -25 56 -37q23 -8 54 -7q20 0 43 3q51 7 77 38q25 30 25 62q1 35 -29 66q-28 29 -85 34q-12 1 -24 1q-36 1 -62 -11q-35 -16 -53 -40.5t-19 -54.5z" />
<glyph unicode="b" horiz-adv-x="472" d="M101 70q1 46 2 104t3.5 124t4.5 127t3.5 114t1.5 87l80 -6q-7 -32 -7.5 -93t-4.5 -133q7 5 19 9.5t25.5 8t27.5 6t24 4.5h12q62 0 102 -30q44 -32 66 -82q21 -48 21 -104q-1 -60 -23 -109q-22 -48 -64 -77q-32 -22 -75 -22q-13 0 -27 2q-10 0 -25.5 1t-31 3.5t-28 6.5 t-19.5 9q0 -3 1.5 -6.5t1.5 -6.5l-89 -10q-1 17 -1 44v29zM176 121q15 -14 49 -19t58 -3q65 2 104.5 24t54 52t4 60.5t-43.5 50.5q-34 19 -90 21h-7q-54 0 -126 -25q-2 -29 -2.5 -49t-0.5 -37v-34v-41z" />
<glyph unicode="c" horiz-adv-x="411" d="M57 216q1 56 23 104.5t66.5 80t111.5 31.5q65 0 95.5 -13t47.5 -16l-27 -120q-32 19 -72 25q-18 2 -34 3q-20 0 -36 -4q-68 -15 -104 -49q-38 -35 -37 -71q0 -34 35 -59q31 -23 93 -23q10 0 20 1q12 0 27.5 4t29 12t24.5 18t15 22l87 -82q-9 -15 -25 -31.5t-40 -29 t-55 -18.5q-17 -3 -36 -3q-16 0 -34 2q-58 0 -98 32t-59 80q-18 46 -18 98v6z" />
<glyph unicode="d" horiz-adv-x="421" d="M52 201v5q0 56 20 104q22 50 66 82q43 31 111 30h4q19 -3 49.5 -10.5t43.5 -17.5q-3 72 -4 132.5t-7 93.5l78 6q2 -34 2.5 -86t1.5 -112.5t1.5 -124.5t2 -122t1.5 -104v-72l-77 -10q2 3 0 12.5t-2 12.5q-14 -10 -43.5 -17.5t-58.5 -11.5q-9 -1 -17 -1q-49 0 -85 26 q-42 30 -64 78.5t-23 106.5zM99 200q5 -38 41 -60t78 -24h11q37 0 71 16q39 18 53 59q2 22 2 29t-1 11.5t-1.5 13t-0.5 37.5q-64 19 -112 19h-4q-50 -1 -81.5 -15.5t-45 -37.5t-10.5 -48z" />
<glyph unicode="e" horiz-adv-x="421" d="M63 174q-2 15 -2 30q-1 32 7 62q10 46 35 83t64.5 60t95.5 23q49 -5 80 -28t49 -55.5t24.5 -71t6.5 -74.5l-305 -15q0 -3 -1 -6q1 -36 35 -54q36 -19 81 -19q1 -1 2 -1q47 0 93 19.5t63 53.5l41 -147q-56 -24 -117 -34q-24 -4 -47 -3q-35 1 -67 9q-53 14 -90.5 54.5 t-47.5 113.5zM130 224l245 22q-11 43 -49 63q-33 18 -70 18q-4 -1 -8 -1q-40 -2 -75.5 -27.5t-42.5 -74.5z" />
<glyph unicode="f" horiz-adv-x="283" d="M38 311v107h59q2 19 2 34.5t3 30.5q2 41 20 69t42.5 45t52 22.5t51.5 3.5l15 -123q-15 2 -37 4.5t-42 -2t-33.5 -16.5t-15.5 -37v-31h128v-107h-131q0 -65 1 -120.5t2.5 -97.5t3 -69t3.5 -33l-60 12q-2 7 -3.5 34.5t-3 68.5t-1.5 94t2 111h-58z" />
<glyph unicode="g" horiz-adv-x="435" d="M70 213q2 53 22.5 99t58.5 79.5t95 40.5q68 -5 112 -39q9 22 15 37t6 19l101 -67q0 -2 -7 -8.5t-16.5 -17t-19 -21.5t-15.5 -21q15 -34 20 -72q2 -20 2 -38.5t-2 -37.5q-5 -36 -21.5 -69.5t-41.5 -57.5q46 -24 64 -61q10 -22 10 -44q0 -15 -5 -30q-13 -37 -57.5 -67 t-119.5 -40q-16 -2 -34 -2q-22 0 -46 3q-44 6 -94 25l17 138q14 -9 35.5 -15.5t43.5 -11t42.5 -6t32.5 -1.5q61 3 82.5 23.5t-12.5 49.5q-7 -2 -20 -2.5t-27.5 -0.5t-28.5 0.5t-21 2.5q-60 5 -98.5 36.5t-56.5 77.5q-16 41 -16 88v11zM120 216q-1 -4 -1 -7q0 -31 27 -59 q30 -31 93 -32h11q75 0 110 27q37 28 37 63q0 37 -37 68t-104 31h-8q-59 0 -91 -27q-34 -29 -37 -64z" />
<glyph unicode="h" horiz-adv-x="435" d="M85 -3q2 24 3 70.5t2.5 105.5t2.5 124t2 127t1 115v87l85 -6q-9 -32 -11.5 -93t-9.5 -133q7 5 21 9.5t29 8t29.5 6t23.5 4.5q9 1 17 0q68 0 100 -36q36 -41 48 -106q8 -43 7 -91q0 -25 -2 -51q-6 -77 -11 -143l-57 10q10 70 10 122q0 85 -27 123q-26 36 -86 36 q-43 0 -103 -18q-2 -31 -2.5 -67.5t-0.5 -72.5t1.5 -68.5t4.5 -54.5z" />
<glyph unicode="i" horiz-adv-x="150" d="M34.5 518.5q-3.5 25.5 11.5 49.5t56 29q38 3 55 -17t15.5 -47.5t-19.5 -51.5t-51 -25q-27 -3 -45.5 17t-22 45.5zM90 0q2 3 3 29.5t2 66t1 87v93t0.5 84.5t0.5 62h48v-45.5t1 -78t1.5 -93t0.5 -91v-72.5t-1 -37z" />
<glyph unicode="j" horiz-adv-x="150" d="M-53 -20q17 -3 32 -3q30 0 51 13q31 19 48.5 57t22.5 89q4 42 4 85v18q-1 53 -5 101.5t-4 82.5l49 -1q-1 -12 -1 -26q0 -31 4 -74q4 -61 5 -128v-21q0 -57 -5 -115q-5 -67 -24.5 -117t-57.5 -75q-26 -17 -62 -17q-19 0 -40 4zM26.5 521.5q-2.5 26.5 12 50.5t53.5 29 q38 3 56 -17.5t16 -47.5t-20.5 -52t-51.5 -27q-27 -3 -45 17.5t-20.5 47z" />
<glyph unicode="k" horiz-adv-x="447" d="M96 0q0 5 0.5 44.5t0.5 98v128.5t1 137.5t1 125.5v92l63 -3q0 -14 -1 -49t-1 -82.5t-0.5 -104t-0.5 -111.5q20 22 48.5 49.5t54.5 52.5t46 41t21 16q14 -7 27 -10t26 -7q-3 -5 -36.5 -34t-98.5 -89q27 -20 58 -53.5t59.5 -72t51.5 -76.5t36 -71q-34 -5 -73 -12t-74 -10 q5 2 -6 26.5t-32 58t-49.5 68.5t-58.5 57q-3 -3 -2.5 -33t2 -66t3.5 -69t0 -42h-66z" />
<glyph unicode="l" horiz-adv-x="145" d="M89 0q1 4 1 44v29q0 31 1 69q1 58 1 128.5t1 138t1 125.5t2 92l49 -3q-2 -15 -2 -64.5v-114.5v-137.5t1 -135.5t1 -108.5v-55.5z" />
<glyph unicode="m" horiz-adv-x="593" d="M96 -3q2 38 2.5 90.5t0.5 112v120.5v112q27 -2 40 -3t18 -1t7 -0.5t5 -0.5q-2 -2 -2 -7v-9.5t2 -16.5q14 10 40.5 19.5t46.5 13.5q18 3 32 2q22 1 38 -5q26 -10 41 -30q26 14 49 19t35 9q15 2 29 2q56 0 82 -33q32 -41 36 -107q1 -11 1 -22q0 -56 -16 -124 q-18 -80 -39 -147l-44 14q22 81 26 137q1 16 1 31q-1 35 -7 57q-8 32 -25 45t-34 12q-5 0 -16.5 -1t-24 -3.5t-23 -6t-13.5 -10.5q0 -15 1 -34t1 -48.5t-1 -74t-3 -109.5l-58 5q2 7 2 37.5v67.5t-1 71t-1 51q0 24 -14.5 41t-37.5 24.5t-52 5t-58 -19.5q0 -31 -1 -69v-38.5 v-39.5q1 -40 3 -74.5t5 -56.5z" />
<glyph unicode="n" horiz-adv-x="401" d="M73 -3q2 38 3 90.5t1 112v120.5v112q27 -2 40 -3t18 -1t6 -0.5t4 -0.5v-33q7 5 20.5 9.5t30 8t31.5 6t26 4.5h14q43 0 71 -16q32 -20 48.5 -55t20.5 -81q3 -33 3 -68v-27q-2 -49 -9 -96t-10 -84l-60 10q22 98 22 163q0 67 -24 97t-72 30q-46 0 -115 -27q-2 -31 -2 -66.5 v-71.5t1 -68.5t1 -56.5z" />
<glyph unicode="o" horiz-adv-x="431" d="M84 320q24 49 67.5 80.5t109.5 31.5q56 -7 94 -43t56.5 -85.5t18.5 -105t-22 -100.5t-64 -74q-36 -25 -88 -25q-9 0 -19 1q-60 0 -99 32q-38 32 -58 80q-19 47 -20 101q0 57 24 107zM99 206.5q0 -40.5 35 -74.5q32 -31 95 -30h12q75 2 107 36q29 31 30 67v8q-4 41 -42 73 q-36 31 -97 31h-7q-65 -2 -99 -36t-34 -74.5z" />
<glyph unicode="p" horiz-adv-x="452" d="M83 352v29q0 25 1 42l75 12q0 -3 1.5 -13.5t-0.5 -13.5q19 10 48 18.5t58 10.5q11 1 22 1q46 0 80 -24q43 -30 64.5 -78.5t22.5 -106.5v-5q0 -55 -21 -102q-21 -50 -66 -84q-41 -31 -106 -31h-8q-10 2 -23.5 4.5t-27.5 5.5t-25.5 7.5t-18.5 9.5q3 -72 4 -131.5t9 -88.5 l-80 -9q0 34 -1 86.5t-2.5 113t-2.5 124.5t-1.5 121t-1.5 102zM148 208q0 -7 1 -11t3 -13.5t3 -36.5q64 -18 112 -18h5q49 1 79.5 14.5t44.5 36.5t10 49q-5 38 -40 59t-78 24h-12q-37 0 -72 -15q-40 -17 -54 -58q-2 -24 -2 -31z" />
<glyph unicode="q" horiz-adv-x="452" d="M78 229q1 58 23 106.5t64 78.5q34 24 81 24q10 0 22 -1q26 -2 56.5 -10.5t44.5 -18.5q0 3 9 11t6 9l102 -6q-27 -27 -37 -76q-12 -56 -15 -132q-2 -63 -2 -127v-25q1 -77 4 -146q3 -53 3 -91v-20l-81 9q7 29 9.5 88.5t6.5 131.5q-14 -10 -45.5 -17t-48.5 -10h-8 q-65 0 -108 31q-45 34 -66 84q-20 47 -20 102v5zM126 229q-3 -26 10.5 -49t45 -36.5t80.5 -14.5h5q48 0 112 18q0 27 1 36.5t1 13.5v11t-2 31q-14 41 -53 58q-33 15 -70 15h-12q-43 -3 -78 -24.5t-40 -58.5z" />
<glyph unicode="r" horiz-adv-x="267" d="M89 0q0 3 0.5 29.5t0.5 66v87v93t1 84.5t1 62h58v-31q17 12 39.5 23t66.5 14l24 -117q-19 2 -42 1t-42.5 -8t-32.5 -20.5t-13 -36.5q0 -44 1 -86.5t2.5 -78.5t2.5 -59t-1 -28z" />
<glyph unicode="s" horiz-adv-x="411" d="M48 48l34 111q20 -15 60 -27q40 -13 84 -18q29 -3 55 -3q13 1 24 1q35 2 45 14q20 22 8 34t-42.5 20.5t-72.5 16.5t-78.5 21.5t-60.5 36.5q-22 20 -22 54v8q3 41 23.5 65t49.5 36t65 14h17q28 0 54 -4q35 -5 66.5 -15t53.5 -22q-2 -5 -9.5 -19.5t-15 -30t-13.5 -28.5 t-6 -14q-29 7 -61.5 12.5t-63 7.5t-55.5 -3t-37 -19q-15 -17 -0.5 -24.5t43.5 -13.5t67.5 -12t74 -20t60.5 -37t27 -60q0 -34 -13 -60.5t-36 -43.5t-53 -26t-62 -9q-46 0 -103.5 14t-106.5 43z" />
<glyph unicode="t" horiz-adv-x="242" d="M44 299l11 119h41q-3 75 -3.5 130.5t-0.5 64.5l63 8q-3 -9 -4 -66t-4 -137h100l-10 -119h-90q0 -27 0.5 -41t1.5 -25t2 -24t1 -38q2 -27 10.5 -40t22 -16t29.5 -2.5t33 -1.5l-11 -120q-26 -3 -48 -1.5t-39.5 13t-28.5 35t-14 64.5q-2 26 -3 46.5t-2.5 42.5t-2.5 48t-1 60 h-53z" />
<glyph unicode="u" horiz-adv-x="418" d="M75 231.5q0 48.5 3.5 98t6.5 93.5l60 -1q-11 -68 -11 -120q0 -90 33 -128q23 -28 67 -28q51 0 128 38q3 61 5 126t2 113l53 16q-2 -38 -3 -91t-1 -112v-119.5v-111.5h-39t-16.5 -1t-3.5 -1t-2 0v31q-9 -5 -23.5 -9.5t-31.5 -7.5t-32.5 -5.5t-23.5 -4.5q-16 -2 -30 -2 q-32 0 -56 11q-34 16 -52.5 48t-25.5 75.5t-7 92z" />
<glyph unicode="v" horiz-adv-x="372" d="M31 422l43 10q7 -46 17.5 -96.5t28.5 -91.5q18 -42 44 -66q19 -18 44 -18q8 0 17 2q7 2 17.5 12t25 37.5t31.5 78t36 132.5l39 -6q-3 -15 -10 -52.5t-17.5 -84.5t-25 -97.5t-33 -91.5t-43.5 -68t-54 -27q-32 -2 -56 23.5t-41 66.5t-28 90.5t-18 97.5t-11.5 88t-5.5 61z " />
<glyph unicode="w" horiz-adv-x="549" d="M36 422l41 10q23 -147 53 -212q28 -60 55 -60h5q30 6 51.5 75t24.5 187l34 1q18 -131 44 -197q26 -67 55 -67q27 1 57 65t59 198l38 -6q-3 -15 -7.5 -52.5t-11.5 -84.5t-17 -97.5t-25.5 -91.5t-37 -68t-48.5 -27t-46.5 18.5t-35 50.5t-25 72t-16.5 82q-3 -41 -8 -81 t-15.5 -71.5t-27.5 -51t-41 -19.5q-31 -2 -54 23.5t-40 66.5t-27 90.5t-17 97.5t-11 88t-6 61z" />
<glyph unicode="x" horiz-adv-x="435" d="M38 0q15 24 54 82t87 125q-39 70 -75.5 130.5t-55.5 84.5l131 6q14 -20 36 -64.5t48 -81.5q29 39 59 80.5t45 65.5l46 -12q-17 -22 -49.5 -67t-71.5 -107q26 -39 49.5 -79t44 -73.5t36 -58t23.5 -31.5l-140 -3q-3 3 -13 20t-25.5 41t-32.5 51.5t-33 52.5q-15 -26 -32 -53 t-31.5 -52t-24 -42t-11.5 -20z" />
<glyph unicode="y" horiz-adv-x="435" d="M15 422l132 6q9 -15 25 -43t35.5 -60.5t39 -66t35.5 -58.5q15 29 30.5 62t28 64.5t22 58t16.5 43.5l58 -15q-9 -19 -33.5 -66.5t-55.5 -109t-66 -130t-62 -127.5t-45 -101.5t-16 -52.5l-70 -5q9 12 25.5 46t35.5 74t36 77.5t27 56.5q-24 46 -53.5 99t-58.5 101.5t-52 88 t-34 58.5z" />
<glyph unicode="z" horiz-adv-x="343" d="M29 73q26 27 57.5 58l63 62t60.5 61.5t51 56.5l-222 -14v21t1 40.5t2 41t2 23.5l301 4q2 -7 2.5 -20.5t0.5 -29t1 -29t3 -20.5q-5 -3 -21.5 -18t-38 -35.5t-46 -44t-47.5 -47t-41 -42t-27 -27.5l207 4q2 -5 2 -21.5v-34.5t0.5 -34t2.5 -23l-295 2q0 3 -3.5 14t-6.5 23 q-5 14 -9 29z" />
<glyph unicode="{" horiz-adv-x="296" d="M116 283q41 29 54 61.5t16 71.5v81q0 20 1 39.5t4 38.5q9 39 35.5 68t70.5 26v-73q-22 -3 -29 -18t-10 -34q-3 -17 -3.5 -33t-0.5 -35q2 -19 3 -35t-1 -35q-2 -32 -9.5 -63t-34.5 -60q27 -27 34.5 -57.5t9.5 -65.5q2 -17 1 -34t-3 -36v-33t4 -33q3 -17 10 -31.5t29 -18.5 v-75q-44 -2 -70.5 26.5t-35.5 67.5q-3 19 -4 39.5t-1 39.5v80q-3 38 -16 71t-54 60z" />
<glyph unicode="|" horiz-adv-x="206" d="M145 0v606h62v-606h-62z" />
<glyph unicode="}" horiz-adv-x="296" d="M137 -26q19 3 26.5 18t8.5 32q3 17 3.5 33t0.5 33q0 19 -1 36t-1 34q2 34 10.5 65t35.5 58q-27 29 -35.5 60t-10.5 63q0 19 1 35t1 35v35t-4 33q-2 19 -9.5 33.5t-25.5 18.5v73q43 3 69 -26t35 -68q3 -19 4 -38.5t1 -39.5v-42t1 -39q3 -39 15.5 -71.5t51.5 -61.5 q-39 -27 -51.5 -60t-15.5 -71q-2 -19 -1.5 -39.5t0.5 -40.5q0 -19 -1 -39.5t-4 -39.5q-9 -39 -35.5 -67t-68.5 -27v75z" />
<glyph unicode="~" horiz-adv-x="447" d="M92 224q9 46 28.5 65.5t53.5 19.5h17.5t18.5 -4q19 -2 53 -15q60 -29 89 -29q36 0 51 60q17 14 33 7t13 -38q-7 -48 -33.5 -66.5t-58.5 -18.5h-16q-3 0 -7.5 1t-9.5 1q-19 3 -46 17q-31 14 -54 22t-36 8q-39 0 -50 -61q-20 -7 -34.5 0.5t-11.5 30.5z" />
<glyph unicode="&#xad;" horiz-adv-x="423" d="M121 268l2 97h299v-92z" />
<glyph unicode="&#xde;" horiz-adv-x="727" d="M110.5 183q-1.5 59 0.5 122.5t6 121.5t8 95q38 3 97.5 3.5t123.5 -3.5q60 -3 91.5 -28.5t44.5 -66t13 -89t-5 -99.5h40t50.5 1t49.5 1.5t37 4.5q3 9 4 47t-0.5 82.5t-5 85.5t-5.5 54l65 -3q2 -29 3.5 -75t1 -98t-4 -104t-12.5 -95q-10 -44 -24.5 -55.5t-60.5 -11.5 q-14 -2 -40.5 -3.5t-54.5 -2t-53.5 -1.5t-37.5 1q-14 3 -19 12.5t-5 21.5t2.5 25.5t2.5 25.5q12 67 13 107t-9.5 62t-30.5 30.5t-51 13.5h-32h-48.5h-47h-26.5q-2 -19 -4.5 -52t-4 -69.5t-1.5 -71.5t5 -56q3 -22 14.5 -27t24 0t25.5 16t21 21q9 -9 25 -31t11 -44 q-5 -19 -30.5 -36.5t-55.5 -21t-59 16t-41 75.5q-9 39 -10.5 98zM380.5 -50q-1.5 18 4.5 35.5t17 30.5t25 13q20 -19 51.5 -27.5t70 -7.5t81 11.5t83.5 30.5q0 -5 3 -14.5t5.5 -20.5t4 -19.5t1.5 -10.5q-34 -39 -82 -58t-95.5 -22.5t-90.5 5t-65 27.5q-12 9 -13.5 27z" />
<glyph unicode="&#xe0d;" horiz-adv-x="727" d="M110.5 183q-1.5 59 0.5 122.5t6 121.5t8 95q38 3 97.5 3.5t123.5 -3.5q60 -3 91.5 -28.5t44.5 -66t13 -89t-5 -99.5h40t50.5 1t49.5 1.5t37 4.5q3 9 4 47t-0.5 82.5t-5 85.5t-5.5 54l65 -3q2 -29 3.5 -75t1 -98t-4 -104t-12.5 -95q-10 -44 -24.5 -55.5t-60.5 -11.5 q-14 -2 -40.5 -3.5t-54.5 -2t-53.5 -1.5t-37.5 1q-14 3 -19 12.5t-5 21.5t2.5 25.5t2.5 25.5q12 67 13 107t-9.5 62t-30.5 30.5t-51 13.5h-32h-48.5h-47h-26.5q-2 -19 -4.5 -52t-4 -69.5t-1.5 -71.5t5 -56q3 -22 14.5 -27t24 0t25.5 16t21 21q9 -9 25 -31t11 -44 q-5 -19 -30.5 -36.5t-55.5 -21t-59 16t-41 75.5q-9 39 -10.5 98zM380.5 -50q-1.5 18 4.5 35.5t17 30.5t25 13q20 -19 51.5 -27.5t70 -7.5t81 11.5t83.5 30.5q0 -5 3 -14.5t5.5 -20.5t4 -19.5t1.5 -10.5q-34 -39 -82 -58t-95.5 -22.5t-90.5 5t-65 27.5q-12 9 -13.5 27z" />
<glyph unicode="&#xff;" horiz-adv-x="1435" d="M191 597.5q0 25.5 19 44.5l536 537q19 19 45 19t45 -19l536 -537q19 -19 19 -44.5t-19 -44.5l-536 -536q-19 -19 -45 -19t-45 19l-536 536q-19 19 -19 44.5zM228.5 595.5q0.5 -15.5 13.5 -28.5l524 -524q12 -12 28.5 -12t29.5 12l524 524q26 29 0 58l-524 524 q-14 12 -30 12t-28 -12l-524 -524q-14 -14 -13.5 -29.5zM238.5 594.5q0.5 14.5 8.5 25.5l524 522q9 10 23.5 10t24.5 -10l522 -522q9 -10 9 -25t-9 -25l-522 -521q-10 -10 -24.5 -10t-23.5 10l-524 521q-9 10 -8.5 24.5zM275 614q-3 0 6 -6.5t13 -5.5q2 0 -2.5 0t-8 -0.5 t-3.5 -2.5t8 -3q3 0 3.5 -2.5t3.5 -2.5q5 -3 12 -4.5t12 -1.5t4.5 0t-11.5 -1q-9 0 -2.5 -2.5t16.5 -3.5t22 -2t17 3q9 2 24 7.5t15 19.5v2q-5 -9 -17 -13t-23 -5t-18.5 0.5t-5.5 5.5q0 -3 9 -1.5t21 4.5t22.5 8.5t10.5 10.5q-2 -2 -13 -5.5t-21 0.5l4 1q4 2 10 4l10.5 3.5 t4.5 3.5q-9 14 -26 13t-31 -8q-5 -3 -12.5 -8.5t-11.5 -7.5q-7 -5 -22 -2.5t-20 2.5zM404 616l88 29l3 -3l-87 -29v-4q24 7 50.5 14t50.5 14q-10 14 -14 29q-2 0 -2.5 -1t-2.5 -1q0 -12 5 -17q-2 0 -3 2q-2 0 -4 5t-3 8l-81 -39v-7zM502 669q0 -7 4 -15.5t8 -15.5 q12 3 18.5 5t20.5 7v-13v-2v-2q5 -14 17 -19t26 -1h1v1h2v-3l2 -5q3 -17 16 -20.5t28 1.5h2v-2v-1v-2q9 -15 25.5 -18t28.5 11l2 2v2l2 -2v-2l2 -2l1 -1q9 -7 20 -6t20 7q3 2 6 9h2l3 -2q17 -10 27.5 -22t20.5 -26q0 2 5 0.5t9 -0.5l-14 14q0 3 -3.5 5t-8.5 9q9 3 24.5 4 t20.5 8q-5 -3 -18 -5t-25 0q-5 0 -12.5 6t-11.5 9q-14 9 -25.5 14t-28.5 10q-12 3 -27.5 5t-29.5 5q-9 3 -15.5 4t-18.5 1q-10 2 -19.5 3t-14.5 7q-9 9 -12 21t3 24q7 5 16.5 5h12.5q17 0 21 -7q0 -9 -2.5 -20t-1.5 -23q-2 -3 -12 -1.5t-6 0.5q5 -2 12.5 -3t11.5 3 q-2 10 -0.5 23.5t1.5 24.5q-3 5 -10 6.5t-14 1.5q-12 2 -20.5 -2.5t-6.5 -4.5q-3 7 6 10.5t16 5.5q41 9 79 3q14 -2 28 -8t28 -9q14 -2 31 -5.5t32 2.5q7 2 -7.5 1.5t-17.5 8.5q-5 9 -2.5 24t-1.5 20l2 -5q29 10 63 22t68 26q3 -2 7 -2t7 -3q12 -5 21.5 -18t19.5 -30 t21 -36.5t27 -35.5q9 -7 19.5 -18t21 -23.5t19 -24.5t13.5 -21v7q-7 14 -17 29q-14 20 -38.5 45t-43.5 54l-2 5l-1 5q-10 15 -19.5 32.5t-23.5 29.5l-5 3l-2 2l-13 7q60 20 96.5 34.5t75.5 24.5q9 7 9.5 13t-9.5 3q-43 -12 -91.5 -26.5t-116.5 -36.5q-7 0 -17 5l-9 1h-2h-1 h-2h-2h-1q-15 0 -34 2t-36 3.5t-28 3.5l-10 2h-2h-1h-2h-2h-1h-2h-2h-2h-1l-2 -2q-46 -9 -84 -26h-1h-2h-2v-1h-1h-2v-2h-2l-2 -2l-1 -1h-2l-2 -2l-3 -2q-15 -10 -32.5 -19.5t-35.5 -12.5l-4 -7v-2v-2l-1 -1v-2q0 -17 11 -27h2v-2q-14 -3 -34 -14.5t-27 -14.5zM509 328 q-7 -10 2.5 -13t17.5 9q10 14 38.5 51.5t69.5 85.5v5q19 2 42 3t43 -1q19 0 18 10t-18 12q-5 0 -24 -1t-44.5 -2.5t-53.5 -3.5t-52 -5q-9 -3 -13 -11t11 -11q7 0 22.5 2.5t37.5 4.5q-5 -7 -17 -22.5t-25.5 -35t-29 -40t-25.5 -37.5zM561 732q19 5 41.5 18t35.5 23 q3 3 7.5 3.5t8.5 1.5q36 14 65 21q7 3 15 5t17 -2q22 -2 42.5 -5t54.5 -3q3 0 10.5 -2t10.5 -2q-32 -10 -67.5 -21t-65.5 -21q-3 7 -1.5 18t-2.5 11q-3 -5 -3 -15.5t-2 -17.5q-15 -3 -29.5 -6.5t-30.5 -8.5q-3 5 -2 12.5t-3 14.5q-5 2 -0.5 -11t-1.5 -16q-3 -2 -5.5 -5.5 t-5.5 -4.5q-15 -14 -31 -16.5t-34 -1.5q-14 -2 -21.5 8t-1.5 23zM565 630q-13 22 14 34q-3 -29 23 -41q-9 -3 -17 -3t-20 10zM570.5 373.5q-3.5 -6.5 1.5 -15.5q12 -14 30.5 -22t49.5 -10q31 0 72 10t68 28q19 12 16.5 26t-31.5 16q-10 2 -30 -0.5t-41.5 -6t-41 -7 t-29.5 -3.5q-9 2 -8 5.5t4 6.5q36 27 84 37.5t75 10.5q9 0 7 -7q0 -2 -12 -9q-5 -3 -8 -5q0 -5 6.5 -10t11.5 -2t13.5 10t7.5 16q-3 9 -11 18t-40 8q-14 -2 -33 -4.5t-37 -9.5q-19 -7 -36 -14.5t-31 -16t-21.5 -18t-5.5 -16.5q2 -17 22 -18.5t46.5 2.5t55.5 11t48 7 q26 -3 2 -17q-24 -10 -60.5 -17t-60.5 -9q-29 -2 -45.5 8.5t-24.5 18.5q-10 5 -13.5 -1.5zM609 611q2 5 2 2.5t2 2.5q14 -2 20.5 -2t20.5 -1q-3 -9 -2.5 -10t-6.5 -6q-31 -14 -36 14zM655 591q0 8 5 22q9 -5 22.5 -7t24.5 -5q-3 -7 -6 -12t-12 -12q-29 -12 -34 14zM708 591 q2 5 3 5.5t1 5.5q9 -3 15.5 -5.5t20.5 -7.5q-3 -7 -2.5 -6t-6.5 -4q-26 -12 -31 12zM713 700q14 5 31 12t31 12q-7 -22 -2 -40q-14 3 -30 7t-30 9zM817 345q-7 -14 3.5 -14t12.5 2q5 7 23 36t37 59q9 0 20.5 2t40.5 3q19 2 22.5 10t-12.5 9q-9 -2 -26.5 -1.5t-31.5 -1.5 q7 10 12 17t9 14q24 2 52 1.5t55 -0.5q17 -2 22.5 8.5t-10.5 12.5q-5 0 -23.5 -1t-44.5 -2t-54 -3.5t-48 -5.5q-9 -2 -13.5 -7t9.5 -7q3 0 11 1t16 1q-9 -14 -21.5 -32.5t-24.5 -39t-21 -37.5t-15 -24zM864 348q5 -19 20 -18t32.5 9.5t32 19.5t17.5 13q3 5 -6 -6t-8 -18 q0 -3 5.5 -5t8.5 0q5 7 17 17t26 15q-3 -3 -9.5 -10t-2.5 -13q3 -10 17 -9q7 3 14.5 7.5t15.5 9.5q-2 -2 -1.5 -2.5t-1.5 -2.5q-3 -9 3.5 -12t15.5 -2q3 0 12.5 5.5t20 12t19.5 15t13 13.5q3 3 -0.5 6t-6.5 0q-5 -3 -13 -8.5t-15.5 -11.5t-15 -11t-11.5 -7q2 3 15.5 23.5 t32.5 43.5q9 2 20 2.5t19 2.5q5 2 8 6t-6 4h-11.5t-20.5 -2q14 19 26.5 34.5t17.5 18.5q2 5 -4 12t-13 0t-22.5 -25t-30.5 -42h-21q-10 0 -13.5 -5.5t7.5 -5.5h18q-5 -7 -10 -13t-8 -13q-12 -9 -26 -20.5t-22 -15.5q0 -2 4 5t18 21q2 3 -2.5 8t-7.5 4q-7 -2 -14 -5.5 t-15 -6.5q5 3 10 7.5t7 4.5q-3 10 -17 6q-14 -7 -29 -17q-2 -2 1.5 1t1.5 5q-3 9 -12 11q-2 2 -1 4l-4 3q-5 5 -14.5 4.5t-16.5 -4.5q-29 -9 -47.5 -27.5t-16.5 -35.5zM881 350q7 14 23.5 28t35.5 23q5 2 10.5 1t1.5 -6q-12 -17 -34 -34t-32 -19q-7 0 -5 7z" />
<glyph unicode="&#x152;" d="M-224 741q3 12 4.5 19.5t16.5 12.5q55 14 81 9t35.5 -20.5t9.5 -37t4 -40.5q67 12 151 35t183 25q2 -5 3.5 -20.5t1.5 -34v-36v-27.5q-72 9 -180 -9t-226 -38q3 14 2.5 40t-9.5 40q-5 14 -24.5 14.5t-45.5 -4.5q-2 17 -4.5 35t-2.5 37z" />
<glyph unicode="&#xf70b;" d="M-224 741q3 12 4.5 19.5t16.5 12.5q55 14 81 9t35.5 -20.5t9.5 -37t4 -40.5q67 12 151 35t183 25q2 -5 3.5 -20.5t1.5 -34v-36v-27.5q-72 9 -180 -9t-226 -38q3 14 2.5 40t-9.5 40q-5 14 -24.5 14.5t-45.5 -4.5q-2 17 -4.5 35t-2.5 37z" />
<glyph unicode="&#x153;" d="M-353.5 933q-3.5 19 0.5 38q0 14 0.5 21.5t17.5 11.5q55 15 81.5 10t36 -20.5t8.5 -37.5t1 -41q68 14 167 19.5t200 9.5q2 -5 3.5 -21.5t2.5 -35t2 -36t-1 -27.5q-36 3 -87.5 5t-109.5 1t-121 -7t-121 -16q3 17 2.5 43.5t-5.5 36.5q-9 14 -28.5 15t-45.5 -3q0 15 -3.5 34 z" />
<glyph unicode="&#xf714;" d="M-353.5 933q-3.5 19 0.5 38q0 14 0.5 21.5t17.5 11.5q55 15 81.5 10t36 -20.5t8.5 -37.5t1 -41q68 14 167 19.5t200 9.5q2 -5 3.5 -21.5t2.5 -35t2 -36t-1 -27.5q-36 3 -87.5 5t-109.5 1t-121 -7t-121 -16q3 17 2.5 43.5t-5.5 36.5q-9 14 -28.5 15t-45.5 -3q0 15 -3.5 34 z" />
<glyph unicode="&#x160;" d="M-287 703q-5 36 11.5 61.5t61.5 35t132 -7.5l-22 -109q-63 12 -89.5 9t-13.5 -49l-63 -8q-12 32 -17 68z" />
<glyph unicode="&#xf709;" d="M-287 703q-5 36 11.5 61.5t61.5 35t132 -7.5l-22 -109q-63 12 -89.5 9t-13.5 -49l-63 -8q-12 32 -17 68z" />
<glyph unicode="&#x161;" d="M-401 659q-2 31 23 65t73 42q73 19 126 15.5t71 -4.5v-18t1 -31t2 -29.5t3 -15.5q-49 3 -80 4t-69 -3q-26 0 -46 -7.5t-34 -17t-16.5 -18t7.5 -11.5t25.5 1t31 10t31 11t27.5 3q10 -2 20 -7.5t22 -10t22.5 -2.5t20.5 17q7 0 19 -8.5t7 -22.5q-9 -14 -19 -20.5t-20.5 -9 t-20 -1.5t-14.5 1q-15 2 -23.5 7.5t-25.5 7.5q-14 3 -44.5 -6t-53.5 -13q-24 -3 -45 17.5t-21 54.5z" />
<glyph unicode="&#xf712;" d="M-401 659q-2 31 23 65t73 42q73 19 126 15.5t71 -4.5v-18t1 -31t2 -29.5t3 -15.5q-49 3 -80 4t-69 -3q-26 0 -46 -7.5t-34 -17t-16.5 -18t7.5 -11.5t25.5 1t31 10t31 11t27.5 3q10 -2 20 -7.5t22 -10t22.5 -2.5t20.5 17q7 0 19 -8.5t7 -22.5q-9 -14 -19 -20.5t-20.5 -9 t-20 -1.5t-14.5 1q-15 2 -23.5 7.5t-25.5 7.5q-14 3 -44.5 -6t-53.5 -13q-24 -3 -45 17.5t-21 54.5z" />
<glyph unicode="&#x178;" horiz-adv-x="245" d="M-238 810.5q-1 34.5 20.5 58.5t70 32.5t137.5 -10.5l-24 -109q-31 7 -56.5 11t-42.5 2.5t-25 -11t-2 -31.5l-65 -9q-12 32 -13 66.5z" />
<glyph unicode="&#xf717;" horiz-adv-x="245" d="M-238 810.5q-1 34.5 20.5 58.5t70 32.5t137.5 -10.5l-24 -109q-31 7 -56.5 11t-42.5 2.5t-25 -11t-2 -31.5l-65 -9q-12 32 -13 66.5z" />
<glyph unicode="&#x17d;" d="M-155 649v80h70l-4 56h70v-56h67v-80h-67l-1 -52h-65v52h-70z" />
<glyph unicode="&#xf70d;" d="M-155 649v80h70l-4 56h70v-56h67v-80h-67l-1 -52h-65v52h-70z" />
<glyph unicode="&#x17e;" d="M-247 881v80h68v56h71l-3 -56h70v-80h-70v-52h-66v52h-70z" />
<glyph unicode="&#xf716;" d="M-247 881v80h68v56h71l-3 -56h70v-80h-70v-52h-66v52h-70z" />
<glyph unicode="&#x192;" d="M-572 698q9 31 40.5 44.5t77.5 13.5t102.5 -13.5t114.5 -37.5q2 27 18 46.5t45 23.5q26 0 43 -13t24.5 -32.5t5 -41.5t-12.5 -39q10 -10 12.5 -25.5t-2.5 -27.5t-14.5 -17.5t-21.5 5.5q-82 26 -147.5 37.5t-111.5 16.5t-71 5h-25q0 -9 46 -20.5t106 -9.5l3 -16 q-41 -7 -86 -6t-80 13t-54.5 35t-11.5 59zM-190 693.5q1 -9.5 9.5 -17t20.5 -9.5q10 0 16.5 7t6.5 16.5t-5.5 16t-17.5 6.5q-19 2 -25 -4t-5 -15.5z" />
<glyph unicode="&#xf703;" d="M-572 698q9 31 40.5 44.5t77.5 13.5t102.5 -13.5t114.5 -37.5q2 27 18 46.5t45 23.5q26 0 43 -13t24.5 -32.5t5 -41.5t-12.5 -39q10 -10 12.5 -25.5t-2.5 -27.5t-14.5 -17.5t-21.5 5.5q-82 26 -147.5 37.5t-111.5 16.5t-71 5h-25q0 -9 46 -20.5t106 -9.5l3 -16 q-41 -7 -86 -6t-80 13t-54.5 35t-11.5 59zM-190 693.5q1 -9.5 9.5 -17t20.5 -9.5q10 0 16.5 7t6.5 16.5t-5.5 16t-17.5 6.5q-19 2 -25 -4t-5 -15.5z" />
<glyph unicode="&#x2c6;" d="M-350 698q0 34 22.5 54.5t45.5 17.5q29 -3 46.5 -12.5t20.5 -9.5q15 5 39 17.5t55 0.5q24 -9 21.5 -35t-8.5 -52q17 5 33.5 9.5t34.5 7t42 5t58 4.5v-82q-38 3 -94 5t-140 -14q9 15 14.5 41t0.5 34q-12 -3 -34 -12.5t-29 -9.5q-3 0 -14 5.5t-23 9.5t-22.5 5t-15.5 -8 q-7 -14 12.5 -28t43.5 -14q0 -9 -4 -20t-18 -13q-49 7 -69 36t-18 58z" />
<glyph unicode="&#xf707;" d="M-350 698q0 34 22.5 54.5t45.5 17.5q29 -3 46.5 -12.5t20.5 -9.5q15 5 39 17.5t55 0.5q24 -9 21.5 -35t-8.5 -52q17 5 33.5 9.5t34.5 7t42 5t58 4.5v-82q-38 3 -94 5t-140 -14q9 15 14.5 41t0.5 34q-12 -3 -34 -12.5t-29 -9.5q-3 0 -14 5.5t-23 9.5t-22.5 5t-15.5 -8 q-7 -14 12.5 -28t43.5 -14q0 -9 -4 -20t-18 -13q-49 7 -69 36t-18 58z" />
<glyph unicode="&#x2dc;" d="M-287 683q2 22 22.5 47.5t46.5 39.5q17 10 27 10t17 -7t11 -18t8 -21l-17.5 -7.5t-18 -9.5t-12 -9.5t1.5 -7.5q14 -7 44.5 -7t69.5 4t82.5 12t83 16.5t68.5 17t41 13.5q2 2 7.5 -12t15 -32.5l19 -37t16.5 -25.5q-36 -14 -95 -26t-124 -19.5t-127 -9.5t-103 7 q-39 9 -65 27.5t-19 54.5z" />
<glyph unicode="&#xf710;" d="M-287 683q2 22 22.5 47.5t46.5 39.5q17 10 27 10t17 -7t11 -18t8 -21l-17.5 -7.5t-18 -9.5t-12 -9.5t1.5 -7.5q14 -7 44.5 -7t69.5 4t82.5 12t83 16.5t68.5 17t41 13.5q2 2 7.5 -12t15 -32.5l19 -37t16.5 -25.5q-36 -14 -95 -26t-124 -19.5t-127 -9.5t-103 7 q-39 9 -65 27.5t-19 54.5z" />
<glyph unicode="&#xe01;" horiz-adv-x="505" d="M120.5 163.5q-2.5 54.5 2.5 112t24.5 105t59 78.5t105.5 33q68 2 108.5 -27.5t60 -75.5t24 -104t-1 -113.5t-14.5 -104t-16 -76.5l-70 12q5 22 17 72.5t12.5 103.5t-18 96.5t-74.5 52.5q-48 10 -76 -9.5t-42.5 -54.5t-19 -78.5t-3.5 -84t3.5 -69.5t0.5 -34l-63 -1 q-3 22 -10 67t-9.5 99.5z" />
<glyph unicode="&#xe02;" horiz-adv-x="406" d="M55 413q20 44 51.5 67t66.5 28.5t66 -7.5t48 -40q17 -29 16 -57.5t-10.5 -55.5t-22 -53.5t-19.5 -52.5q-10 -32 -6 -58.5t38 -31.5q20 -3 37.5 2t17.5 32v58v92.5v99v78.5l63 -14q-2 -19 -1 -69t2 -109t1.5 -114.5t-0.5 -86.5q0 -70 -37 -98t-86 -26q-34 0 -57 11.5 t-36 32t-16.5 48t0.5 58.5q2 36 12 65t22.5 57t26.5 56t22 59q5 24 -22 24q-24 -2 -48.5 -26.5t-43.5 -74.5q-7 2 -24 15t-33 29t-25.5 33t-2.5 29z" />
<glyph unicode="&#xe03;" horiz-adv-x="406" d="M75 428q3 17 11 34.5t17.5 30t18.5 18.5t18 1q14 -10 37.5 -17t58.5 10q14 9 27 -7.5t27 -40.5q17 -29 15.5 -56t-12 -53.5t-25 -53t-21.5 -52.5q-9 -32 -4 -58.5t39 -31.5q22 -3 39 2t15 32v54v89.5v100v84.5l62 -14q0 -19 0.5 -69t1.5 -109t2 -114.5t1 -86.5 q0 -70 -38.5 -98t-88.5 -26q-67 0 -90.5 45t-16.5 105q2 36 13 65t23.5 57t25.5 56t22 59q2 7 -22 0t-55 -9.5t-61 7t-40 46.5z" />
<glyph unicode="&#xe04;" horiz-adv-x="834" d="M108 171q3 61 29.5 123.5t77 112t125.5 78.5t177 24q131 -7 204.5 -57.5t104.5 -124.5t27.5 -162t-24.5 -172l-56 14q41 164 -34 251.5t-261 87.5q-48 0 -93 -9t-83.5 -25.5t-67.5 -41t-45 -55.5q-29 -58 -16 -98t47 -50q17 -3 43.5 11t60.5 39t71.5 52t75.5 50t73 34.5 t64 2.5q7 -3 15 -19.5t15 -37t12 -41t7 -33.5q-26 10 -67.5 -12.5t-91 -54t-103.5 -61t-101 -35.5q-34 -3 -68.5 9t-61.5 39.5t-42.5 67.5t-13.5 93z" />
<glyph unicode="&#xe05;" horiz-adv-x="744" d="M104 307.5q5 56.5 26.5 104t61.5 74t100.5 25t144.5 -46.5q24 -14 49 -13q24 0 45.5 10t43 21t42.5 20.5t43 9.5q32 -2 52 -31t28.5 -75t8 -103t-9.5 -116t-23.5 -113.5t-32.5 -95.5q-17 2 -31.5 2.5t-31.5 4.5q15 44 27.5 101t18 109t-0.5 89t-30 40q-29 3 -56.5 -8.5 t-55.5 -22.5t-57 -14.5t-58 18.5q-68 53 -113.5 60t-71 -14.5t-33 -62.5t-3.5 -82t19 -73.5t35 -39.5q14 0 36.5 16.5t52.5 41t63.5 53t66.5 50.5t66.5 34t60.5 3q12 -9 21.5 -21.5t14.5 -28t6 -29t-3 -23.5q-51 -7 -95.5 -34.5t-86 -58t-83.5 -58t-88 -33.5q-41 -7 -75 20 t-56.5 72.5t-32.5 103.5t-5 114.5z" />
<glyph unicode="&#xe06;" horiz-adv-x="534" d="M68 418q2 14 21 43t32 53q2 5 9 0.5t14.5 -10.5t16 -12.5t13.5 -8.5q17 9 25 20t12 20t8.5 15t16.5 6q27 -9 41.5 -41t19.5 -75.5t5 -91v-85.5q10 -2 34 -8.5t52 -15.5t54.5 -16.5t40.5 -10.5q3 9 2.5 54.5t-4 100.5t-8 102.5t-5.5 61.5l66 -4q2 -34 4.5 -92t3.5 -122 t-1 -126t-10 -105q-10 -44 -35 -55.5t-69 0.5q-27 9 -62.5 22.5t-59.5 22.5q-5 -31 -17 -60t-49 -29q-26 0 -50.5 20.5t-42.5 51t-29 65.5t-11 63q0 60 31.5 82.5t103.5 9.5q0 26 -2 58t-10 54q-15 -7 -39 -12t-49 -2t-44.5 15.5t-28.5 41.5zM191 84q-3 -5 0.5 -14.5 t9.5 -18t12.5 -14.5t10.5 -6q10 0 12.5 13.5t0.5 32.5q-10 5 -26 7.5t-20 -0.5z" />
<glyph unicode="&#xe07;" horiz-adv-x="534" d="M75 271l104 132q10 -17 29 -48t43.5 -65t52 -66.5t54 -54.5t49.5 -30.5t38 6.5q19 19 27 66.5t-1 87.5q-19 67 -53 95.5t-56 27.5q-19 -2 -31 -10t-21.5 -18t-16 -22t-11.5 -22q-9 2 -21 10.5t-23 19.5t-18.5 25.5t-6.5 29.5q20 58 70 71t101 -4t86 -58t52 -92.5 t17 -107.5t-17 -105.5t-52 -85.5t-86 -48q-39 -9 -87 18.5t-92.5 71t-79.5 93t-50 83.5z" />
<glyph unicode="&#xe08;" horiz-adv-x="604" d="M68 457q17 9 37 18.5t45.5 17t57 13.5t74.5 8q104 5 171.5 -23t105 -76t47.5 -108t-2 -116q-10 -53 -31.5 -90.5t-48 -61.5t-54.5 -33t-52 -6q-46 7 -74 34t-57 57t-67.5 52.5t-103.5 18.5q-2 22 -1 53.5t30 47.5q63 12 112.5 -14.5t87 -64t65 -70t47.5 -30.5 q12 -3 26.5 7.5t25 29.5t15.5 45.5t-2 55.5q-10 53 -60.5 83t-117 37.5t-136.5 -4.5t-119 -43z" />
<glyph unicode="&#xe09;" horiz-adv-x="501" d="M75 463q38 15 86.5 29.5t135.5 24.5q68 9 109 -8t62.5 -49.5t28 -74.5t6.5 -83t-3 -76t0 -54q48 3 75 -18t27 -62q0 -20 -8.5 -46t-24.5 -48t-38 -37.5t-48 -15.5t-38.5 10.5t-18.5 23t-7 26.5t-1 21q-14 -2 -39.5 -5.5t-55 -7t-56 -6t-40.5 -4.5q-44 -9 -75 -1t-27 37 q0 27 6 63t8.5 70.5t-3.5 60t-28 30.5q9 9 19.5 20t21.5 19.5t20.5 13.5t16.5 1q20 -10 27 -36.5t6 -55.5t-4 -53.5t-3 -33.5q14 2 46 6t67 7.5t64.5 7t38.5 3.5q2 27 4.5 56t1 53t-8.5 43t-22 29q-27 17 -64 21.5t-79 -2.5t-84.5 -23t-81.5 -39zM492 30q1 -8 3 -14.5t6 -12 t9 -1.5q12 -2 20 7.5t8 19t-10.5 15.5t-34.5 -3q-2 -3 -1 -11z" />
<glyph unicode="&#xe0a;" horiz-adv-x="373" d="M26 418q29 58 67 75t76 12t67.5 -22t39.5 -27q22 36 53 67.5t61 56t54.5 41t38.5 21.5q2 0 8.5 -14.5t13.5 -33.5t10.5 -34.5t1.5 -15.5q-14 -3 -37.5 -11.5t-52.5 -24t-59 -38.5t-54 -54q58 -80 81 -144t19.5 -113.5t-26.5 -83.5t-58 -53t-76 -22t-78 9q-24 7 -31.5 45 t1 93.5t32 122t59.5 131.5q-15 12 -34 12q-14 0 -26.5 -10t-23.5 -24.5t-19.5 -32.5t-12.5 -34q-3 -5 -21 6t-36 30t-31 38.5t-7 31.5zM212 201q-7 -34 10 -42.5t41 0t45 28.5t21 40q0 67 -16.5 97.5t-30.5 49.5q-10 -15 -20.5 -37.5t-21 -46.5t-18 -48t-10.5 -41z" />
<glyph unicode="&#xe0b;" horiz-adv-x="387" d="M51 435q3 15 11 32.5t17.5 30t19 18t15.5 -0.5q14 -9 39.5 -14.5t56.5 11.5q14 5 28.5 -10.5t27.5 -38.5v-6q24 36 54 68.5t60 57.5t54.5 40t38.5 19q2 0 7.5 -14.5t12.5 -32.5t11.5 -33.5t0.5 -17.5l-30 -10t-48.5 -19.5t-56 -34t-54.5 -52.5q-3 2 -6 0.5t-13 -13.5 q87 -119 97 -204.5t-24 -136t-94.5 -67t-116.5 1.5q-24 7 -32 44t0 91t30 119t56 128q-14 -3 -37.5 -7.5t-48.5 -3.5t-46 12.5t-30 42.5zM195 201q-7 -34 11 -42.5t41.5 0t45 28.5t21.5 40q0 67 -17.5 97.5t-31.5 49.5q-10 -15 -20.5 -37.5t-21 -46.5t-18 -48t-10.5 -41z M297 415v1q2 0 2 -0.5t-2 -0.5z" />
<glyph unicode="&#xe0c;" horiz-adv-x="727" d="M119.5 183q-1.5 59 0 122.5t5 121.5t5.5 95q41 3 99.5 3.5t123.5 -3.5q60 -3 94 -28.5t49.5 -64t16.5 -86.5t-4 -97q19 -7 43.5 -13t48.5 -10.5t42.5 -7.5t27.5 -5q3 10 3 53.5t-1 95t-2.5 97.5t-3.5 59l65 -3q2 -29 3.5 -83t1.5 -116t-3.5 -123.5t-11.5 -104.5 q-9 -44 -33.5 -53.5t-68.5 -0.5q-12 3 -29.5 7.5t-33.5 8.5t-31.5 7.5t-22.5 6.5q-3 -31 -15 -63t-51 -32q-26 0 -50.5 21.5t-43.5 53t-30 66.5t-11 62q2 38 15.5 58t35 28t46 7t48.5 -4q5 88 -94 107h-33h-48h-46h-26q-2 -19 -4.5 -52t-4.5 -69.5t-2.5 -71.5t2.5 -56 q5 -22 13.5 -29t18 -5t19 9.5t14.5 16.5q5 -3 12.5 -12t14.5 -19t12 -19.5t4 -16.5q-5 -19 -28.5 -36t-50.5 -18t-52.5 20.5t-37.5 77.5q-9 39 -10.5 98zM384 82q-3 -7 5.5 -22t18.5 -24q5 -5 8.5 -1t6 12t3.5 17t1 16q-10 3 -25 4t-18 -2z" />
<glyph unicode="&#xe0e;" horiz-adv-x="500" d="M84.5 77q-2.5 34 5.5 60q10 0 22.5 -4.5t22.5 -3t17 10t7 34.5q2 26 -2.5 57.5t-10.5 64t-13 62t-8 50.5q-7 31 -10.5 52t15.5 26q39 14 102 27t135 4q67 -7 101 -42t37 -110q3 -53 2.5 -126t-5 -146t-9.5 -135t-10 -93q-3 -15 -11 -18.5t-19 -2t-24 7t-23 8.5 q-31 14 -66 20.5t-69.5 6t-67 -12t-58.5 -34.5l-29 111q68 43 147.5 53.5t171.5 -43.5q0 12 4.5 53t7 93.5t0.5 108t-12 95.5q-7 27 -20.5 37t-32.5 10q-53 2 -104 -4.5t-75 -15.5q10 -56 18 -105.5t4 -114.5q-2 -34 -9.5 -54.5t-22 -30t-37.5 -9.5t-54 5q-15 14 -17.5 48z " />
<glyph unicode="&#xe0f;" horiz-adv-x="500" d="M79.5 77q-2.5 34 5.5 60q10 0 22 -4.5t22.5 -3t17.5 10t8 34.5q2 26 -2.5 57.5t-10 64t-12.5 62t-12 50.5q-5 31 -9.5 50.5t12.5 24.5q39 15 104 29t137 5q67 -7 100 -42t38 -110q3 -53 1.5 -126t-5 -146t-8.5 -135t-10 -93q-7 -17 -17 -23t-20.5 -5t-20 7t-14.5 14 q-17 12 -30.5 25t-25.5 13q-24 -22 -54 -33t-59.5 -15.5t-57 -2t-44.5 7.5l-19 116q15 0 47.5 -5t67 -6.5t66 6t46.5 36.5q24 3 43.5 -11.5t45.5 -27.5q2 12 5 53t5.5 93.5t1 108t-11.5 95.5q-9 27 -23.5 37t-33.5 10q-51 2 -103 -4.5t-72 -15.5q10 -56 17.5 -105.5 t4.5 -114.5q-3 -70 -33 -85.5t-92 -3.5q-15 14 -17.5 48z" />
<glyph unicode="&#xe10;" horiz-adv-x="527" d="M59.5 360.5q1.5 20.5 6 42.5t9.5 42.5t9 30.5q5 22 40.5 33.5t94.5 13t136.5 -3.5t168.5 -17q2 -9 2 -31t-1 -46t-1 -43.5v-23.5q-56 5 -128.5 13t-136.5 12t-106 0t-37 -21q3 -9 33 -15.5t74.5 -15t95.5 -22.5t95.5 -34.5t77.5 -52t40 -77.5q-2 -38 -17 -65t-38 -44 t-51 -23t-54 -3q-44 9 -77.5 29.5t-61.5 41t-55.5 35.5t-59.5 14q-2 22 -1 52t30 47q26 3 56.5 -9t61 -30t60.5 -37.5t55.5 -30.5t44.5 -11t27 20q14 29 -10 50.5t-67.5 38t-98 29t-101.5 24.5t-80.5 25t-33.5 30q-3 12 -1.5 32.5zM90 -31q15 0 54 -5t82.5 -6.5t81.5 6 t54 36.5q24 3 43.5 -11.5t43.5 -27.5q10 -12 30.5 -24t23.5 -7q2 5 -2 26.5t-33 33.5q-5 15 6.5 34.5t40.5 9.5q22 -9 34 -33.5t15 -53.5t-5 -58t-26 -46t-46 -16t-65 31q-12 12 -27.5 25t-27.5 13q-22 -22 -59.5 -33t-76 -15.5t-72.5 -2t-51 7.5z" />
<glyph unicode="&#xe11;" horiz-adv-x="614" d="M24 406q-2 17 5 33.5t17 29t22 18t21 -0.5q15 -12 41 -15q9 24 23 43.5t38 16.5q17 -2 31.5 -15.5t19.5 -32.5q7 -26 9.5 -64t2.5 -78.5t-0.5 -78.5t0.5 -66q10 15 25 46t32.5 67.5t38 75t43 69.5t43.5 50.5t44 17.5q55 -5 86 -40t46.5 -86t17 -111.5t-3.5 -117 t-12.5 -102t-12.5 -65.5l-84 7q10 41 18.5 104t13 123.5t0 106t-21.5 50.5q-12 2 -27 -18.5t-32 -54t-36 -74.5t-35 -78.5t-28 -65.5t-19 -37q-24 -38 -49.5 -53t-48.5 -12.5t-39.5 21.5t-21.5 51v287q-7 -3 -17 -10t-22 -15t-25 -13t-25 -5q-29 2 -51 31.5t-27 60.5z" />
<glyph unicode="&#xe12;" horiz-adv-x="959" d="M95.5 252.5q-10.5 68.5 1.5 126.5q10 49 34 89.5t64.5 60t97.5 13.5t134 -47q22 -12 49 -12q22 0 44.5 9.5t43.5 21.5t42.5 20.5t43.5 8.5q31 -2 50 -27.5t28 -66.5t11 -92.5t0 -102.5q14 -5 37 -11.5t47 -13.5t46 -14t34 -8q5 9 4 54.5t-3.5 100t-6.5 103.5t-6 62l65 -5 q2 -34 4.5 -92t3 -122t-2 -126.5t-10.5 -104.5q-9 -44 -33 -56t-68 1q-27 9 -63 21.5t-62 23.5q-3 -32 -14 -60.5t-51 -28.5q-26 0 -50.5 20.5t-42 51t-29 64.5t-11.5 62q0 60 33.5 82t99.5 10h11q-2 43 -7 67.5t-22 24.5q-19 2 -48 -11t-64 -25t-70 -15.5t-62 19.5 q-99 49 -149.5 43t-64.5 -50q-14 -36 -11 -78t19 -78.5t46 -63t74 -28.5q38 -2 56.5 16.5t16 44.5t-29.5 54.5t-84 48.5q0 17 9.5 33.5t25 28.5t33.5 16t33 -3q65 -24 94 -74t24 -103t-42.5 -94t-104.5 -44q-72 -3 -124 34t-82.5 95t-41 126.5zM613 76q3 -9 9 -18t13 -15.5 t10 -6.5q10 3 10 12q3 9 3.5 14.5t0.5 12.5v7q-12 7 -27.5 9.5t-18.5 -1.5q-3 -5 0 -14z" />
<glyph unicode="&#xe13;" horiz-adv-x="747" d="M114.5 191q-1.5 60 0 122t5 119.5t6.5 94.5q39 3 100 3.5t124 -3.5q65 -5 98 -34.5t45 -74t8.5 -100t-11.5 -108.5q-2 -2 -2 -3v-6q14 2 39.5 4.5t51 4.5t48.5 4.5t32 3.5q2 38 3.5 84t3 89.5t5 81t7.5 58.5l78 -4q-5 -14 -10 -51t-9.5 -81.5t-8 -90.5t-4.5 -79 q27 2 50 2t40 -7t27.5 -22t10.5 -44t-10.5 -68.5t-27.5 -75.5t-36.5 -59t-36.5 -19q-27 0 -43.5 10t-26 25.5t-13.5 33.5t-6 33q-9 -2 -27.5 -3.5t-41 -3t-46 -3.5t-42.5 -4q-14 -2 -29 -3.5t-28 1t-20.5 10.5t-6.5 23q2 41 13 95.5t13 105t-16 85t-71 32.5q-10 0 -33 0.5 t-48 0.5h-46.5t-26.5 -1q-2 -17 -4.5 -49.5t-5 -70t-2.5 -72t4 -52.5q5 -24 12 -26t15.5 8.5t17.5 26.5t18 26q3 -5 14 -17.5t22.5 -28t18 -31.5t5.5 -28q-5 -19 -30 -37t-55.5 -21.5t-59.5 16t-41 77.5q-9 41 -10.5 101zM733.5 31.5q0.5 -7.5 2 -17t5 -16.5t7.5 -5 q5 -2 9 6t7.5 17.5t6 18t2.5 9.5q-9 -2 -15 -3q-7 -2 -13 -2h-9t-2.5 -7.5z" />
<glyph unicode="&#xe14;" horiz-adv-x="699" d="M85 242q-9 67 7.5 125t62 100t121.5 64t185 17q68 -3 128.5 -31.5t92 -91.5t25 -164t-71.5 -247q-17 2 -33.5 4t-29.5 4q20 51 36.5 102.5t19.5 96.5t-11.5 79.5t-53.5 52.5q-15 7 -50 15.5t-78.5 12t-89.5 0t-84.5 -19t-63.5 -46t-25 -79.5q0 -38 18 -72t44.5 -61.5 t56.5 -44.5t52 -19q24 -2 37.5 22t10 56.5t-25.5 66.5t-70 55q0 17 10.5 32.5t26.5 27.5t35 16t34 -3q56 -24 80 -77.5t17.5 -109t-44.5 -99t-104 -48.5q-49 -5 -94.5 21.5t-81.5 67.5t-59 88.5t-30 86.5z" />
<glyph unicode="&#xe15;" horiz-adv-x="711" d="M85 379q10 49 35 89.5t64.5 60t97.5 13.5t134 -47q22 -12 47 -12q24 0 46 9.5t42.5 21.5t41.5 20.5t44 8.5q31 -2 50.5 -31t28.5 -74t8.5 -103.5t-8.5 -117t-23 -114t-34 -96.5q-15 0 -31.5 1.5t-30.5 5.5q15 44 29 102t19 111t-1.5 89.5t-30.5 40.5q-24 2 -47 -7 t-46 -19t-46 -17t-46 -3q-19 2 -36.5 9.5t-35.5 16.5l-36 18t-38 12q-48 9 -73.5 -4t-37.5 -42q-12 -34 -7 -77t23 -79.5t47 -63t66 -28.5q38 -2 63.5 14.5t26.5 42t-30 54.5t-104 53q0 27 10 46t25.5 27.5t33.5 9.5t33 -8q43 -15 70.5 -42.5t37.5 -60.5t6 -67t-23 -63.5 t-51.5 -49t-76.5 -22.5q-72 -3 -119.5 35t-75 96t-37 124t-4.5 117z" />
<glyph unicode="&#xe16;" horiz-adv-x="501" d="M105.5 191q-1.5 60 1 122t6 119.5t3.5 94.5q41 3 101.5 3.5t125.5 -3.5q68 -5 105 -37.5t52 -80t14.5 -105.5t-10 -114.5t-22.5 -104t-19 -75.5l-70 12q5 34 18.5 89.5t17 110t-13.5 96.5t-75 51q-9 2 -32 2.5t-47.5 0.5t-46 -1t-26.5 -2q-3 -17 -6 -49.5t-4.5 -70 t-1.5 -72t3 -52.5q5 -24 16.5 -30t25 -2t26 15t21.5 22q7 -9 23 -31t9 -44q-5 -19 -29.5 -37t-54.5 -21.5t-59 16t-41 77.5q-9 41 -10.5 101z" />
<glyph unicode="&#xe17;" horiz-adv-x="597" d="M96 423q2 39 6 62.5t10 34.5t13.5 12.5t19.5 -0.5q34 -7 54.5 -30.5t24.5 -59.5q5 -31 5.5 -66t0 -68t-1.5 -61.5t-1 -45.5q10 15 24.5 46t33.5 68t39.5 75t41.5 69t43.5 50.5t42.5 17.5q55 -5 86.5 -40.5t46 -87t17 -112t-2.5 -117t-12.5 -101.5t-11.5 -64l-85 9 q7 27 13 64.5t11 79.5t8.5 83t2.5 74t-7 54.5t-18 24.5q-10 3 -26.5 -17t-33.5 -54.5t-35 -74.5t-34 -77.5t-28 -65.5t-19 -37q-24 -38 -53 -53t-54.5 -12.5t-44 21.5t-22.5 51q0 56 3.5 132t-1.5 145q0 24 -11 43.5t-45 27.5z" />
<glyph unicode="&#x2219;" horiz-adv-x="597" d="M96 423q2 39 6 62.5t10 34.5t13.5 12.5t19.5 -0.5q34 -7 54.5 -30.5t24.5 -59.5q5 -31 5.5 -66t0 -68t-1.5 -61.5t-1 -45.5q10 15 24.5 46t33.5 68t39.5 75t41.5 69t43.5 50.5t42.5 17.5q55 -5 86.5 -40.5t46 -87t17 -112t-2.5 -117t-12.5 -101.5t-11.5 -64l-85 9 q7 27 13 64.5t11 79.5t8.5 83t2.5 74t-7 54.5t-18 24.5q-10 3 -26.5 -17t-33.5 -54.5t-35 -74.5t-34 -77.5t-28 -65.5t-19 -37q-24 -38 -53 -53t-54.5 -12.5t-44 21.5t-22.5 51q0 56 3.5 132t-1.5 145q0 24 -11 43.5t-45 27.5z" />
<glyph unicode="&#xe18;" horiz-adv-x="508" d="M75 338q-3 12 0.5 30t11 37.5t17 38.5t17.5 32q31 43 126.5 45.5t279.5 -21.5q2 -9 0.5 -32t-3.5 -48.5t-3.5 -47.5t-1.5 -27q-55 17 -119.5 28t-122 12.5t-96.5 -4.5t-41 -21q12 -10 46 -17t78.5 -13.5t93 -15.5t88.5 -21.5t65 -30.5t23 -45q3 -67 -22.5 -112t-66.5 -69 t-91 -30t-96 4t-83 35t-50 61q-9 20 -10.5 41.5t0 41t4 36.5t2.5 31q7 5 22.5 10t35.5 5q0 -41 5 -83q0 -15 38.5 -30t86.5 -18t93 9.5t59 51.5q5 14 -23 25t-72.5 21.5t-96.5 19.5t-96.5 19.5t-72.5 22.5t-25 29z" />
<glyph unicode="&#xe19;" horiz-adv-x="493" d="M89 473q14 20 36 41.5t41 19.5q27 -20 42.5 -60.5t20.5 -88t4 -98.5t-3 -94q14 2 39.5 7t52 9t49.5 7.5t33 5.5q-3 31 -2 76t1.5 89.5t3.5 83.5t6 60l80 -4q-3 -14 -7.5 -48.5t-8 -78t-6 -87t-2.5 -76.5q70 10 98.5 -5t28.5 -73q0 -29 -8.5 -68.5t-22.5 -75t-32 -60.5 t-35 -22q-26 -2 -43.5 10.5t-28 29.5t-14.5 35.5t-4 30.5q-12 -2 -35 -6t-49.5 -8.5t-51.5 -8.5t-36 -6q-20 -3 -37.5 -5.5t-30.5 0t-19.5 12.5t-6.5 34q0 31 8.5 92.5t8.5 128t-14 123.5t-56 78zM479.5 47.5q0.5 -8.5 2 -17t5 -14.5t6.5 -4q5 -2 9.5 6t8.5 18t6 18l2 9 q-9 3 -20 0t-18 -5q-2 -2 -1.5 -10.5z" />
<glyph unicode="&#xe1a;" horiz-adv-x="508" d="M51 486.5q-2 32.5 24 35.5q41 2 66 -18.5t38.5 -54.5t18.5 -75t5 -79.5t-2.5 -68.5t-4.5 -40q0 -10 8 -13.5t14 -3.5h39.5t54 -1t55 -1.5t39.5 -0.5q36 0 36 25q2 39 3.5 88t2.5 96.5t2.5 87.5t1.5 64h57q-2 -22 -3 -81t-2 -129.5t-1 -140.5t2 -115q3 -20 -6 -38t-50 -18 h-60.5h-80.5h-80.5h-58.5q-39 0 -51 25t-4 55q0 12 6 41t11.5 66t7 76t-5.5 71.5t-24 54t-49 22.5q-7 38 -9 70.5z" />
<glyph unicode="&#xe1b;" horiz-adv-x="508" d="M51 486.5q-2 32.5 24 35.5q41 2 66 -18.5t38.5 -54.5t18.5 -75t5 -79.5t-2.5 -68.5t-4.5 -40q0 -10 8 -13.5t14 -3.5h39.5t54 -1t55 -1.5t39.5 -0.5q36 0 36 25q0 26 1.5 76t2.5 111.5t2 127.5t2 124t1.5 101.5t0.5 58.5h57q-2 -15 -3 -66.5t-2 -122t-1 -153.5v-159 v-137.5t2 -90.5q3 -20 -6 -38t-50 -18h-60.5h-80.5h-80.5h-58.5q-39 0 -51 25t-4 55q0 12 6 41t11.5 66t7 76t-5.5 71.5t-24 54t-49 22.5q-7 38 -9 70.5z" />
<glyph unicode="&#xe1c;" horiz-adv-x="614" d="M99 242.5q3 61.5 23.5 117.5t57.5 100.5t88 63.5q58 22 114.5 -1t78.5 -81q2 -10 -7 -18.5t-22.5 -17t-29 -15.5t-27.5 -12q-12 20 -32 38t-36 22q-32 5 -57.5 -11.5t-44.5 -46t-31 -67.5t-16 -71t-1 -59.5t15 -33.5q27 -15 54 6t55 52t59.5 59t67.5 28q12 -2 31.5 -11 t42.5 -25.5t47 -37t43 -42.5q3 27 2 77.5t-3.5 102t-6 95.5t-4.5 63l54 9q3 -19 8.5 -57.5t10 -87t7 -100.5t0.5 -98t-8 -80.5t-19 -44.5q-9 -14 -22.5 -23t-26.5 -15t-24 -8.5t-13 -1.5q-12 7 -29 21.5t-34 30t-32 27t-24 13.5q-5 3 -17 -12t-32.5 -33.5t-49.5 -35 t-68 -14.5q-53 3 -85.5 37.5t-46 85.5t-10.5 112.5z" />
<glyph unicode="&#xe1d;" horiz-adv-x="614" d="M99 242.5q3 61.5 23.5 117.5t57.5 100.5t88 63.5q58 22 114.5 -1t78.5 -81q2 -14 -6 -24t-21.5 -18.5t-30 -13.5t-28.5 -7q-12 20 -32 38t-36 22q-32 5 -57.5 -11.5t-44.5 -46t-31 -67.5t-16 -71t-1 -59.5t15 -33.5q27 -15 54 6t55 52t59.5 59t67.5 28q12 -2 31.5 -11 t42.5 -25.5t47 -37t43 -42.5q0 19 -1 67.5t-2.5 110t-4.5 130t-6 128t-6.5 102t-7.5 54.5l60 7q3 -19 8.5 -76t11.5 -133t10 -161t3.5 -159.5t-6 -127.5t-18.5 -63q-9 -14 -22.5 -23t-26.5 -15t-24 -8.5t-13 -1.5q-12 7 -29 21.5t-34 30t-32 27t-24 13.5q-5 3 -17 -12 t-32.5 -33.5t-49.5 -35t-68 -14.5q-53 3 -85.5 37.5t-46 85.5t-10.5 112.5z" />
<glyph unicode="&#xe1e;" horiz-adv-x="638" d="M38 468q-4 30 20 44q43 5 72 -20.5t47 -66.5t25.5 -88.5t10.5 -85.5q44 48 86 83t83 28q29 -5 56.5 -24t50.5 -43t42 -50.5t30 -48.5q0 10 1 42.5t4.5 77t7 97.5t8.5 104l72 -2q-3 -22 -7.5 -81t-8 -128t-7 -135.5t-5.5 -102.5q-2 -29 -18.5 -43.5t-39 -18t-44.5 2 t-34 15.5q-38 67 -60 105t-45 41.5t-55.5 -30.5t-88.5 -109q-17 -27 -46 -25.5t-50 25.5q-3 38 -3 79.5t-1 82.5t-2.5 79.5t-8.5 70.5q-7 29 -28.5 46t-50.5 17q-9 32 -13 62z" />
<glyph unicode="&#xe1f;" horiz-adv-x="638" d="M38 468q-4 30 20 44q43 5 72 -20.5t47 -66.5t25.5 -88.5t10.5 -85.5q44 48 86 83t83 28q29 -5 57.5 -25t52 -45.5t42.5 -53.5t33 -50q0 7 0.5 46t0.5 94.5v122t1 129t1 113.5t2 78h71v-66.5t-0.5 -124t-2.5 -153t-4.5 -154.5t-5 -129.5t-4.5 -75.5q-5 -29 -22 -43.5 t-38.5 -18t-42.5 2t-33 15.5q-38 67 -60 105t-45 41.5t-55.5 -30.5t-88.5 -109q-17 -27 -46 -25.5t-50 25.5q2 38 4.5 78.5t1.5 81.5t-5 80.5t-16 71.5q-12 27 -31 45t-48 18q-9 32 -13 62z" />
<glyph unicode="&#xe20;" horiz-adv-x="523" d="M78 54q-3 35 6 60q10 0 22 -3t22 -3t17 9t7 35q2 24 -2.5 59.5t-10.5 72.5t-13 70t-10 54q-7 32 -1 54.5t25 27.5q39 17 93.5 26.5t126.5 0.5q70 -7 108.5 -41t54 -82.5t12 -106.5t-14.5 -113.5t-25.5 -101.5t-23.5 -72l-63 14q5 22 13.5 54.5t15.5 69t9.5 73t-4.5 67.5 t-25 51.5t-52 23.5q-22 2 -48.5 3t-51 1t-43.5 -1.5t-26 -3.5q14 -56 20 -124.5t2 -130.5q-3 -70 -33 -86t-89 -4q-15 12 -18 47z" />
<glyph unicode="&#xe21;" horiz-adv-x="563" d="M99 159q0 58 48 73t116 5q2 10 -1.5 38.5t-18 57.5t-41 53.5t-72.5 29.5q0 10 5 26.5t13.5 32t19.5 25.5t23 9q34 -3 59.5 -34t43 -74.5t26.5 -92t9 -86.5q9 -2 33 -7t50.5 -10t52 -10.5t38.5 -8.5q5 9 5.5 56.5t-0.5 103t-3.5 105t-4.5 63.5l63 -5q0 -32 2 -88.5 t2.5 -120t-2 -125.5t-9.5 -105q-10 -44 -34.5 -55.5t-70.5 0.5q-26 9 -52.5 13t-48.5 13q-3 -14 -6.5 -31t-12 -31.5t-26 -24t-47.5 -9.5q-26 0 -53.5 23t-51 55.5t-39 69.5t-15.5 66zM191 63q0 -9 6 -19t13.5 -18.5t16.5 -13.5t14 -5q10 -2 15 17.5t2 36.5q-5 3 -15.5 6 t-22.5 3t-20.5 -1t-8.5 -6z" />
<glyph unicode="&#xe22;" horiz-adv-x="498" d="M58 411q5 34 33 57.5t65 36t76 16t70 -1.5q20 -5 29 -20.5t10.5 -32.5t-1 -34t-5.5 -26q-20 5 -50.5 5t-60 -3.5t-53.5 -10t-31 -15.5q2 -10 15.5 -16t33 -10t40 -8.5t36 -10.5t21.5 -14.5t-3 -20.5q-12 -15 -27 -36.5t-19 -55.5q-2 -22 27.5 -38.5t65 -20.5t66.5 9.5 t32 52.5q0 26 1 63.5t1 77.5t-1.5 78.5t-3.5 64.5l75 -9q2 -26 2.5 -76t0 -104.5t-2.5 -105t-5 -72.5q-5 -38 -33.5 -65t-68.5 -42.5t-85 -18t-86 6.5t-70 31.5t-36 59.5q-7 46 6 78t32.5 53t39 33t28.5 17q-27 7 -59 13t-57.5 18t-40 35t-7.5 62z" />
<glyph unicode="&#xe23;" horiz-adv-x="513" d="M94.5 370.5q1.5 20.5 4.5 43.5t9 42.5t10 29.5q10 44 116.5 47t287.5 -21q2 -9 1 -32.5t-2.5 -49.5t-3.5 -47t0 -25q-56 7 -119 16.5t-117 14t-90.5 1.5t-38.5 -18q12 -10 45 -23t76.5 -27.5t90.5 -32.5t85.5 -38.5t62.5 -43t22 -48.5q-7 -61 -38.5 -100t-75 -57.5 t-94 -20t-94 12t-75.5 38t-41 58.5q5 29 21.5 50.5t33.5 34.5t30.5 16.5t11.5 -3.5q22 -24 56.5 -42t70 -28t65.5 -10t46 13q20 17 0.5 36t-59.5 37.5t-93 37.5t-99 37t-77 35t-27 34q-3 12 -1.5 32.5z" />
<glyph unicode="&#xe24;" horiz-adv-x="501" d="M105.5 191q-1.5 60 1 122t6 119.5t3.5 94.5q41 3 101.5 3.5t125.5 -3.5q68 -5 105 -40.5t52 -93t12.5 -128t-14.5 -143.5t-28 -142.5t-28 -124.5l-70 14q12 41 25 93t21.5 105.5t11.5 105t-3.5 93t-27.5 70t-59 33.5q-9 2 -32 2.5t-47.5 0.5t-46 -1t-26.5 -2 q-3 -17 -6 -49.5t-4.5 -70t-1.5 -72t3 -52.5q5 -24 16.5 -30t25 -2t26 15t21.5 22q7 -9 23 -31t9 -44q-5 -19 -29.5 -37t-54.5 -21.5t-59 16t-41 77.5q-9 41 -10.5 101z" />
<glyph unicode="&#xe25;" horiz-adv-x="761" d="M95.5 131.5q10.5 42.5 49 76t102.5 45.5q58 12 125 1.5t132.5 -30t123.5 -45t99 -44.5q10 67 -8.5 113t-90.5 76q-31 12 -89 16.5t-127 -0.5t-140.5 -20t-129.5 -37l-36 159q36 14 86 25t105 18.5t107.5 11t95.5 1.5q22 0 50.5 -5t57.5 -14.5t54.5 -23t44.5 -30.5 q43 -41 62 -95.5t23.5 -109t-2 -104.5t-13.5 -77q-5 -19 -26 -26.5t-46 1.5q-41 15 -107.5 45t-138.5 57t-138.5 41.5t-103.5 2.5q-55 -17 -55 -47.5t33.5 -50t92 -17t125.5 53.5q2 -3 13 -15t24 -27.5t22 -31.5t4 -28q-10 -29 -47.5 -43t-83.5 -15.5t-92 7t-77 25.5 q-51 31 -71 74.5t-9.5 86z" />
<glyph unicode="&#xe26;" horiz-adv-x="523" d="M78 54q-3 35 6 60q10 0 22 -3t22 -3t17 9t7 35q2 24 -2.5 59.5t-10.5 72.5t-13 70t-10 54q-7 32 -1 54.5t25 27.5q39 17 93.5 26.5t126.5 0.5q70 -7 106.5 -55.5t50.5 -121t9.5 -157t-17 -163t-29 -141t-24.5 -87.5l-62 17q10 39 23 93.5t22.5 113.5t13 118t-3.5 106 t-26.5 77.5t-57.5 35.5q-22 2 -48.5 3t-51 1t-43.5 -1.5t-26 -3.5q14 -56 20 -124.5t2 -130.5q-3 -70 -33 -86t-89 -4q-15 12 -18 47z" />
<glyph unicode="&#xe27;" horiz-adv-x="653" d="M53 480q72 27 146 40.5t180 13.5q99 0 163 -37.5t96.5 -94.5t32.5 -123.5t-28.5 -124.5t-85.5 -100t-139 -47q-60 -3 -116 2.5t-101.5 19.5t-76 34.5t-35.5 45.5q5 31 18.5 49.5t29 28t28 11.5t16.5 -2q22 -17 70.5 -33t105 -25.5t109.5 -7t85 23.5q36 22 49.5 53.5 t3.5 62t-44 57t-92 38.5q-67 14 -164 9t-219 -53z" />
<glyph unicode="&#xe28;" horiz-adv-x="800" d="M114 196q-3 58 21 117t73.5 106t125.5 74t178 22q106 -5 172 -39q12 15 35 38.5t47 50.5t45.5 57t31.5 57q2 2 18 -7.5t35 -20.5t34 -21l15 -10q0 -12 -21 -38.5t-51 -57.5t-61.5 -59t-52.5 -43q34 -39 48 -88t13 -103t-14.5 -112t-34.5 -116l-73 7q51 128 31.5 206.5 t-106.5 118.5q-60 -29 -107 -43t-59 10q24 12 48 25t43 26q-19 3 -37.5 5t-42.5 4q-46 2 -89 -7t-78.5 -26.5t-61.5 -43.5t-36 -58q-22 -58 -2.5 -90.5t50.5 -40.5q19 -2 60 33t90.5 76t101.5 70.5t94 16.5q14 -9 22.5 -21.5t13.5 -28t5 -30t-1 -24.5q-51 -5 -95.5 -32.5 t-86.5 -58t-84 -58t-88 -34.5q-24 -3 -53 6t-53.5 33t-42.5 62.5t-20 89.5z" />
<glyph unicode="&#xe29;" horiz-adv-x="529" d="M74 494.5q-1 32.5 23 36.5q39 2 65 -19.5t39.5 -55t18.5 -75t6 -80t-1.5 -68.5t-2.5 -42q0 -9 6 -12t13 -3q29 3 70 0.5t70 -2.5q48 0 66.5 13t20.5 64q-36 -7 -81.5 0t-70 30.5t-15 64.5t82.5 103q9 7 15.5 6t13.5 -6t15.5 -11t18.5 -8q-24 -9 -42 -22.5t-29 -26 t-16 -24t-2 -12.5q12 -12 43.5 -9.5t66.5 10.5q3 58 5.5 110.5t2.5 77.5h55q0 -17 -1 -64t-3 -105q14 3 27 6.5t21 7.5q3 -9 10 -43t16 -53q-14 -2 -32 -7.5t-42 -12.5q-2 -10 0 -34t2 -52.5t-2.5 -59t-13 -55t-28 -38.5t-48.5 -10q-24 3 -57.5 3t-68.5 -1t-67 -1.5 t-53 -0.5q-38 0 -49 24.5t-7 57.5q3 12 9 41t11 65.5t7 75t-5 71t-25 53.5t-50 21q-7 39 -8 71.5z" />
<glyph unicode="&#xe2a;" horiz-adv-x="810" d="M114 447q44 14 107.5 27.5t132.5 20.5t139 6t127 -15q12 7 48.5 38.5t75.5 69t72.5 72t38.5 46.5q2 2 18 -7t35 -21t34 -21t15 -11q0 -10 -29 -41t-64.5 -65t-70.5 -64t-49 -37q43 -41 60 -99.5t18.5 -117.5t-6 -111t-14.5 -81q-7 -20 -27.5 -28t-44.5 1 q-41 17 -110.5 46.5t-145.5 57t-146 44.5t-111 9q-51 -12 -46 -39.5t43.5 -48t99 -20.5t121.5 44q7 0 24 -17t31.5 -40t23 -46t0.5 -37q-15 -24 -55.5 -36.5t-89 -14t-99 7.5t-82.5 32q-51 34 -68.5 85t-3.5 99.5t55 85.5t105 44q34 2 96.5 -8t132.5 -27t137.5 -40 t113.5 -47q7 70 -24 118t-121 74q-12 3 -19.5 4t-19.5 4q-34 -19 -66 -33.5t-59 -21t-46 -6t-26 14.5q53 26 96 53q-31 -2 -72 -7t-85 -12.5t-88.5 -19t-80.5 -24.5z" />
<glyph unicode="&#xe2b;" horiz-adv-x="539" d="M85 413q3 39 7.5 62t10.5 35t14 14t20 0q36 -7 54.5 -31.5t21.5 -57.5q5 -31 2.5 -69t-5.5 -72.5t-7.5 -60.5t-4.5 -37q7 0 25.5 10.5t41.5 26.5t46.5 37.5t40.5 41.5q-24 41 -27.5 80.5t11 69.5t48.5 47t89 13q46 -3 67 -33t20.5 -73.5t-22.5 -95.5t-65 -100 q12 -26 29 -54.5t33 -56t32.5 -49.5l28.5 -38q-3 -9 -20.5 -19t-41.5 -12q-9 12 -21.5 32.5t-28 45.5t-30.5 52t-27 51q-9 -10 -32 -32t-51 -47.5t-59.5 -49.5t-59.5 -36q-39 -14 -68 -1t-36 57q0 29 4.5 66.5t9.5 76t9 75t3 64.5q0 24 -14 43.5t-48 24.5zM393.5 410 q0.5 -22 12.5 -41q3 3 15 23.5t18 39.5q9 19 5 29t-13 11.5t-19.5 -4t-13.5 -17.5q-5 -19 -4.5 -41z" />
<glyph unicode="&#xe2c;" horiz-adv-x="619" d="M44.5 442q-1.5 14 1 26t14.5 18q43 10 71.5 -12.5t46 -61t24 -87.5t8.5 -89q49 46 97 72.5t86 22.5q29 -2 53.5 -16.5t45 -35t37.5 -45t31 -46.5q3 5 6.5 25.5t6 47.5t3.5 56t-1 50q-32 -14 -55 -20t-47 -9q-51 -5 -87 8.5t-55.5 38.5t-22.5 56.5t16 60.5q12 22 48 29 t77 2.5t79.5 -19t58.5 -31.5q19 41 22.5 87t3.5 79q0 2 15 -1t34 -6.5t34.5 -7t15.5 -4.5q-3 -39 -25.5 -97.5t-56.5 -104.5q10 -26 9 -82t-7.5 -117.5t-17 -113.5t-20.5 -67q-19 -34 -52 -46t-59 5q-43 53 -62.5 88t-35.5 41t-39 -20.5t-75 -95.5q-14 -29 -40 -31.5 t-50 18.5q-3 39 -7.5 85t-9.5 89.5t-10.5 81t-11.5 61.5q-9 29 -31 43.5t-51 11.5q-5 17 -9.5 33t-6 30zM409.5 403q3.5 -12 19.5 -21.5t44 -6.5q27 3 47.5 11t27.5 20q0 5 -10.5 12t-25.5 11t-32.5 7t-32.5 1q-24 0 -32.5 -11t-5 -23z" />
<glyph unicode="&#xe2d;" horiz-adv-x="744" d="M102 461q43 12 81.5 23t77.5 18.5t83.5 11t100.5 1.5q109 -5 179.5 -45t102 -99t26.5 -125.5t-45.5 -123.5t-116 -95.5t-183.5 -40.5q-75 -2 -133 14.5t-96.5 44t-57.5 62.5t-15 69q3 39 33 65.5t74.5 42.5t99 22t109.5 3q19 -2 26.5 -18t5.5 -37.5t-9.5 -42t-17.5 -28.5 q-15 9 -46 10.5t-65 -0.5t-67.5 -8t-55.5 -14.5t-25.5 -18.5t20.5 -22q32 -14 74 -22.5t84.5 -12t82 -2.5t66.5 4q22 3 50 8.5t54.5 15t48 23t28.5 32.5q7 20 1 45t-23 49t-43.5 43.5t-60.5 31.5q-75 26 -184.5 13.5t-220.5 -58.5z" />
<glyph unicode="&#xe2e;" horiz-adv-x="708" d="M111 191q2 38 30 61.5t71.5 37.5t94 19t94.5 5q19 0 33.5 -14.5t19.5 -33.5t0 -37.5t-26 -28.5q-5 10 -17.5 11.5t-26.5 1.5q-32 0 -74 -5t-73.5 -14.5t-45.5 -22t9 -29.5q27 -14 69 -21.5t86 -11t83.5 -2.5t61.5 4q36 3 75 22t51 58q12 43 -6 92.5t-76 74.5 q-5 2 -12.5 4.5t-17.5 4.5q-41 -15 -91.5 -28t-100 -20.5t-90.5 -10.5t-61 3q-19 3 -29.5 16t-14.5 29t-5 31.5t-1 25.5q2 29 22.5 48.5t53 32.5t71.5 20t76.5 10t68.5 4t48 1q43 0 78.5 -10t64.5 -29q36 31 59 62.5t35 55.5q0 2 16 -6t36 -19t35 -21.5t15 -11.5 q0 -24 -40 -55.5t-100 -62.5q39 -56 43.5 -130.5t-25 -141t-93 -112.5t-157.5 -48q-65 -2 -123 14.5t-101.5 43.5t-69 62t-23.5 71zM191 335q24 3 57.5 8t66.5 11t64 13t49 15q-34 3 -76.5 2.5t-78.5 -6.5t-60 -16t-22 -27z" />
<glyph unicode="&#xe2f;" horiz-adv-x="452" d="M63 393q-10 38 10.5 67.5t55.5 44t76.5 10t76.5 -34.5q2 -9 -19.5 -21t-35.5 -17q-20 22 -51 24t-50 -9q-12 -5 -17 -14.5t-2.5 -18t13 -14.5t30.5 -4q48 5 103.5 28t137.5 69q12 9 30.5 6.5t23.5 -29.5q2 -38 4 -108t2 -143.5t-3 -136.5t-6 -87l-70 -5q0 15 1.5 55.5 t3.5 91.5t3 107.5t-1 105.5q-58 -26 -111 -37.5t-95 -9t-71 22t-39 57.5z" />
<glyph unicode="&#xe30;" horiz-adv-x="317" d="M105.5 105q-8.5 37 2.5 102q5 14 25.5 21.5t47.5 -3.5q-2 -19 -2 -30.5t12 -20.5t31 -8.5t38.5 4.5t36.5 9t27 9q2 -7 3 -26t1.5 -40t1.5 -40.5t1 -26.5q-14 -2 -38.5 -9.5t-52.5 -12t-56.5 -3t-49 19.5t-29 55zM105.5 365.5q-8.5 37.5 2.5 102.5q5 14 25.5 21.5 t47.5 -3.5q-2 -19 -2 -30.5t12 -20.5t31 -8.5t38.5 4.5t36.5 9t27 9q2 -9 3 -27.5t1.5 -39t1.5 -40t1 -26.5q-14 -2 -38.5 -9t-52.5 -12t-56.5 -3t-49 19t-29 54.5z" />
<glyph unicode="&#xe31;" d="M-225 683q3 22 23.5 47.5t42.5 39.5q19 10 31 10t19 -7t10 -18t9 -21q-9 -3 -19 -7.5t-19 -9t-12 -8.5t0 -6q22 -12 79.5 -7.5t121.5 15.5t118.5 24.5t71.5 20.5q0 2 7 -12t16 -32.5t18.5 -37t14.5 -25.5q-36 -14 -94 -26t-122.5 -19.5t-127 -9.5t-105.5 7 q-39 9 -63 27.5t-20 54.5z" />
<glyph unicode="&#xe32;" horiz-adv-x="273" d="M49 329l19 159l11 4q41 7 75.5 6.5t60.5 -9.5t42 -30.5t18 -59.5q2 -39 1.5 -93.5t-1 -111.5t-4 -112t-8.5 -92l-60 -9q3 26 7.5 71t6 92t1.5 89.5t-5 66.5q-5 27 -39 35q-65 7 -125 -6z" />
<glyph unicode="&#xe33;" horiz-adv-x="273" d="M-218.5 687q1.5 37 30.5 66.5t87 26.5q48 -2 73 -33.5t24 -68t-28.5 -65.5t-83.5 -26q-51 0 -77.5 31.5t-25 68.5zM-154 654.5q0 -11.5 8.5 -20.5t29.5 -8q20 0 30.5 10.5t9.5 21.5t-12 19.5t-30 6.5q-17 0 -26.5 -9t-9.5 -20.5zM36 329l17 161q38 5 73.5 6t64.5 -5 t48.5 -23t28.5 -50q9 -39 10.5 -96t-0.5 -118.5t-6 -119t-9 -94.5l-60 -9q3 26 7.5 71t6 92t1.5 89.5t-5 66.5q-5 27 -39 35q-34 3 -74 2t-64 -8z" />
<glyph unicode="&#xe34;" d="M-561 708q7 27 37.5 41t77.5 17.5t104 -2t116.5 -15.5t116 -22.5t100.5 -26.5q5 -12 1 -36t-11.5 -44.5t-17 -31.5t-12.5 4q-97 26 -175 38.5t-133.5 18.5t-85.5 6h-30q-14 -7 -1 -18t41.5 -17.5t67.5 -6t80 16.5v-22q-41 -20 -93 -23t-95.5 10.5t-70 42.5t-17.5 70z" />
<glyph unicode="&#xe35;" d="M-561 698q12 41 64.5 52t124.5 5t152 -24.5t147 -37.5v97l73 4v-180q3 -19 -15.5 -24t-47.5 2q-97 26 -173 37t-128 14.5t-80 1.5l-27 -2q0 -3 15.5 -9t41 -11t58 -7.5t66.5 -2.5l5 -16q-48 -5 -101.5 -4t-95.5 12t-66 34t-13 59z" />
<glyph unicode="&#xe36;" d="M-561 698q10 31 47.5 44.5t92 13.5t122 -13.5t137.5 -37.5q0 27 18.5 46.5t53.5 23.5q31 0 50.5 -13t28.5 -32.5t8.5 -41.5t-12.5 -39q12 -10 13.5 -25.5t-4.5 -27.5t-17 -18t-26 4q-97 26 -176 38.5t-133.5 17.5t-84.5 5h-30q0 -3 15.5 -9t41 -11t58 -7.5t66.5 -2.5 l7 -16q-49 -7 -103 -6t-96 13t-65.5 35t-11.5 59zM-109.5 693.5q1.5 -9.5 11.5 -17t25 -9.5q14 0 21.5 7t8 16.5t-5.5 16t-21 6.5q-22 2 -31.5 -4t-8 -15.5z" />
<glyph unicode="&#xe37;" d="M-563 698q10 32 47.5 45t90.5 13t116 -10t125 -24v68h68v-45t-2 -42q22 -9 41 -10v97q17 0 44.5 1t29.5 1v-178q5 -19 -15.5 -24t-44.5 2q-99 26 -175 37t-128 14.5t-80 1.5l-27 -2q-2 -3 13.5 -9t41 -11t59 -7.5t67.5 -2.5l5 -16q-49 -5 -103 -4t-95.5 12t-64.5 34 t-13 59z" />
<glyph unicode="&#xe38;" d="M-160 -53q49 10 96 -1t55 -62q7 -51 5.5 -101.5t-5.5 -98.5l-58 -10q0 12 1 31.5t1 41t-1 42t-4 34.5q-2 5 -6 11t-13.5 11t-24 6.5t-38.5 -3.5z" />
<glyph unicode="&#xe39;" d="M-340 -145l9 75q58 10 90.5 0t49.5 -30.5t21 -48t5 -51.5t2 -40t11 -16q27 0 41 24.5t19 57t4 62.5t-2 39l70 3q0 -14 -2 -55.5t-14 -86t-39 -79.5t-80 -35q-44 0 -70 13.5t-38.5 32.5t-17 41t-4.5 39q0 29 -11 45.5t-44 9.5z" />
<glyph unicode="&#xe3a;" d="M-152 -147q0 39 22.5 66.5t56.5 27.5t56 -27.5t22 -66.5t-22 -66.5t-56 -27.5t-56.5 27.5t-22.5 66.5z" />
<glyph unicode="&#xe3b;" />
<glyph unicode="&#xe3c;" />
<glyph unicode="&#xe3d;" />
<glyph unicode="&#xe3e;" />
<glyph unicode="&#xe3f;" horiz-adv-x="762" d="M111 577v34l194 128l23 -17l94 2v70l30 17v-87h24q48 0 93 -15.5t80 -41t57.5 -60.5t27.5 -73q2 -24 -11 -43.5t-33.5 -36.5t-43.5 -32.5t-40 -27.5q44 -15 80 -46t56.5 -66.5t24 -69t-13.5 -53.5q-77 -84 -143 -121.5t-130 -37.5h-28v-63l-30 -17v80h-253l-3 608z M316 111h106v200h-106v-200zM316 423h106v190h-106v-190zM452 111h98q44 -2 62 26.5t7 64t-52 67t-115 38.5v-196zM452 423h86q29 0 44 30t7.5 65t-40 65t-97.5 30v-190z" />
<glyph unicode="&#xe40;" horiz-adv-x="223" d="M131 285q0 68 2 128t4 85l73 14q-3 -24 -5 -70t-3 -99t0 -102.5t5 -78.5q2 -24 18.5 -25.5t32.5 1.5q3 0 6.5 -18t5 -41t-2.5 -44t-16 -26q-26 -10 -46.5 -10.5t-34 7.5t-21 20t-9.5 22q-5 38 -7 103.5t-2 133.5z" />
<glyph unicode="&#xe41;" horiz-adv-x="394" d="M134 171q-1 65 0 131.5t2.5 122.5t0.5 78l73 9q-3 -24 -5 -70t-3 -99t0 -102.5t5 -78.5q0 -14 11.5 -21.5t25.5 -10t25 -1t13 8.5q2 9 0 -11.5t-6.5 -48t-12.5 -52t-22 -26.5q-26 -3 -45 3t-30.5 16t-17.5 23.5t-8 24.5q-5 39 -6 104zM307 299.5q0 65.5 2 123t5 80.5 l72 -10q-3 -24 -5 -67.5t-2 -92t1 -95.5t4 -76q3 -24 21 -28t25 1q2 2 5.5 -18t3.5 -45.5t-3.5 -47.5t-15.5 -24q-27 -3 -46 3t-31 16t-18 23.5t-8 24.5q-7 39 -8.5 103t-1.5 129.5z" />
<glyph unicode="&#xe42;" horiz-adv-x="218" d="M0 874q-3 12 3 30t14.5 36.5t18.5 35.5t17 28q27 49 113.5 51.5t231.5 -29.5q24 -10 30.5 -36t4 -53t-10 -50t-11.5 -27q-77 19 -142.5 32t-114 17t-77 0t-29.5 -20q9 -5 37 -15t60 -26q27 -14 52 -32.5t20 -49.5q-3 -75 -7.5 -170.5t-6.5 -185t-2 -159.5t6 -92 q3 -9 12.5 -19t33.5 -14q10 -2 15 -23t4 -45t-8.5 -44.5t-22.5 -22.5q-26 -3 -45 4t-30.5 17t-17.5 23t-8 25q-3 22 -5 73t-2 117t1 139.5t2.5 141.5t4 124.5t6.5 88.5q-5 24 -31 39.5t-53 28t-47.5 26.5t-15.5 36z" />
<glyph unicode="&#xe43;" horiz-adv-x="201" d="M-195 964q27 26 70 47.5t89 33t94 14.5t87 -7.5t65.5 -33.5t31.5 -62q5 -26 2 -47.5t-11 -37.5t-17 -29t-15 -23q-2 -43 -4 -104t-5 -128.5t-4.5 -136.5t-2.5 -128t1 -102t5 -60q3 -10 12 -19.5t33 -10.5q10 -2 15 -23.5t3.5 -47t-8.5 -46t-22 -22.5q-27 -3 -46 4t-31 17 t-18 23.5t-8 24.5q-3 24 -5 82.5t-2 134t2 158t4.5 157.5t5 132.5t5.5 81.5q-2 7 4.5 15t14 17.5t14.5 19t8 19.5q5 22 -12.5 31.5t-47.5 10.5t-67.5 -3.5t-71 -12t-59 -14.5t-32.5 -8q-7 -17 1.5 -29t26.5 -15.5t39.5 3.5t40.5 27q10 2 13.5 -9t1.5 -22 q-34 -41 -71.5 -44.5t-67.5 19t-48 64t-13 89.5z" />
<glyph unicode="&#xe44;" horiz-adv-x="221" d="M-88 984.5q9 37.5 33 66.5q27 -20 56.5 -33.5t83.5 -3.5q17 2 40 10.5t48 17t47 13.5t38 1q48 -9 62.5 -31.5t8.5 -53.5t-25 -64t-36 -59t-29 -77.5t-20.5 -117.5t-13.5 -139.5t-6 -141t0.5 -123.5t7.5 -87q0 -9 8.5 -19t31.5 -13q10 -2 14 -22.5t1 -44.5t-10.5 -45 t-22.5 -23q-26 -3 -44.5 2.5t-30 17t-17.5 24t-7 22.5q-5 72 -7 179.5t4 220t24 217.5t50 174q3 14 10 24t13 17q10 26 2 31.5t-25.5 0.5t-41.5 -16t-45 -18q-27 -9 -57 -9t-56.5 5.5t-49.5 15.5t-36 24q-12 20 -3 57.5z" />
<glyph unicode="&#xe45;" horiz-adv-x="273" d="M36 329l17 161q38 5 73.5 6t64.5 -5t48.5 -23t28.5 -50q5 -26 7.5 -69.5t1.5 -96t-3.5 -109t-5.5 -109.5t-7.5 -96.5t-7.5 -68.5l-62 -9q3 26 9.5 90t10.5 134t5.5 131t-3.5 85q-5 27 -39 35q-34 3 -74 2t-64 -8z" />
<glyph unicode="&#xe46;" horiz-adv-x="506" d="M128 409.5q5 42.5 26 70.5q7 5 16 9t18 4q17 -2 35 -9.5t34 -15t30.5 -13.5t24.5 -3q34 7 54 22.5t33 18.5q49 2 76 -25.5t27 -73.5q0 -10 -1 -42.5t-2 -77.5t-1.5 -98t-1.5 -101.5t-2 -89t-2 -60.5q0 -14 -6 -20t-14 -6.5t-14.5 4.5t-8.5 15q-2 32 -4.5 91t-5 123 t-3.5 123t1 90q-3 27 -13.5 29.5t-26.5 -6t-35 -22t-36 -17.5q-26 -2 -50.5 5t-45 15.5t-34 14.5t-19.5 5q0 -5 3 -16.5t8 -21.5t13.5 -17t18.5 -5q19 -3 24 -24.5t-7 -40.5q-41 -7 -66.5 18.5t-36.5 65t-6 82z" />
<glyph unicode="&#xe47;" d="M-358 664q0 31 28 65t84 42q85 17 137.5 14t94.5 -5q0 -3 1 -17t2 -30t1.5 -31t0.5 -18q-31 2 -53.5 3t-41.5 2.5t-37 1.5t-38 -2q-31 0 -55.5 -7.5t-40 -17t-20 -18t7.5 -11.5q14 -5 32 0t36.5 11t36.5 11t32 3q12 -2 24.5 -8.5t25.5 -11.5t26 -2.5t25 17.5 q9 0 21.5 -8.5t7.5 -23.5q-19 -27 -45.5 -29.5t-40.5 -1.5q-19 2 -29 9t-27 10q-19 3 -54 -8t-64 -14q-27 -3 -52 17t-26 58z" />
<glyph unicode="&#xe48;" d="M-84 924v91q43 20 89 0q0 -44 -1 -91t-1 -93q-48 -20 -85 2q-2 44 -2 91z" />
<glyph unicode="&#xe49;" d="M-241 976q2 12 2 20.5t17 12.5q56 15 82.5 10t36 -20.5t8.5 -37t1 -39.5q32 5 76 9t91.5 7.5t98 5t99.5 3.5q2 -5 4.5 -20.5t3.5 -34t1 -36.5t-2 -27q-34 3 -85 5t-110 0.5t-122 -6.5t-121 -16q3 17 3 43.5t-5 37.5q-9 14 -28.5 15.5t-43.5 -2.5q-3 14 -5 33.5t-2 36.5z " />
<glyph unicode="&#xe4a;" d="M-285 893q3 39 27 59.5t51 16.5q31 -3 50 -14t26 -10q15 7 40.5 19t59.5 2q26 -9 26 -32t-5 -50q24 5 41 7.5t35 4.5t41.5 2.5t63.5 4.5v-16t-1 -25t-1 -26.5v-19.5q-41 3 -104 4t-150 -13q7 14 12.5 39.5t2.5 37.5q-5 -2 -16 -5t-22 -7.5t-20.5 -7t-13.5 -0.5 q-3 0 -15 5t-25 9t-25.5 5t-17.5 -9q-9 -14 12.5 -29.5t50.5 -15.5q0 -9 -5 -20.5t-19 -14.5q-55 9 -77 38.5t-22 60.5z" />
<glyph unicode="&#xe4b;" d="M-137 887v79h67v55h70v-55h67v-79h-67l-3 -52h-64v52h-70z" />
<glyph unicode="&#xe4c;" d="M-110.5 790q-0.5 34 21 59t71 33.5t136.5 -8.5l-22 -108q-32 5 -57 8.5t-41.5 2t-22.5 -12t-1 -32.5l-70 -8q-14 32 -14.5 66z" />
<glyph unicode="&#xe4d;" d="M-218.5 687q1.5 37 30.5 66.5t87 26.5q48 -2 73 -33.5t24 -68t-28.5 -65.5t-83.5 -26q-51 0 -77.5 31.5t-25 68.5zM-154 654.5q0 -11.5 8.5 -20.5t29.5 -8q20 0 30.5 10.5t9.5 21.5t-12 19.5t-30 6.5q-17 0 -26.5 -9t-9.5 -20.5z" />
<glyph unicode="&#xe4e;" d="M-3.5 561q-3.5 18 8.5 35q10 17 33 29t58 15q-36 0 -50 18t-8 37q9 19 36 34t71 15h24l-7 -19h-14q-24 0 -39 -12.5t-19 -28.5q-2 -14 8 -25.5t32 -11.5h15l-2 -19h-17q-29 0 -45 -13t-21 -28q-5 -19 6 -31.5t36 -12.5h17l-3 -22h-26q-20 0 -37 3q-10 3 -17 5t-14 5 q-22 9 -25.5 27z" />
<glyph unicode="&#xe4f;" horiz-adv-x="638" d="M85 398q0 67 25 124t67.5 98.5t100 66.5t120.5 25t121 -24t100.5 -66t68 -99.5t25.5 -124.5q0 -65 -24.5 -122.5t-66.5 -100t-100 -66.5t-124 -24q-65 0 -121.5 25t-99 66.5t-67.5 99t-25 122.5zM131 398q0 -55 20.5 -103t56.5 -85.5t84.5 -58.5t105.5 -21q56 0 105.5 21 t86 58.5t57 85.5t20.5 103t-21 103.5t-58 84t-86.5 57t-103.5 21.5q-55 0 -103 -21.5t-84.5 -57t-58 -84.5t-21.5 -103zM207 398q0 39 15 74t41.5 60.5t60.5 41t74 15.5q41 0 76.5 -15.5t62 -41t41 -60.5t14.5 -74t-14.5 -74.5t-41 -61t-62 -40.5t-76.5 -15q-39 0 -73.5 15 t-61 40.5t-41.5 60.5t-15 75z" />
<glyph unicode="&#xe50;" horiz-adv-x="682" d="M140.5 308q2.5 81 35 151t96.5 116t160 45q87 -2 144 -50.5t84.5 -121.5t24 -155.5t-37 -151.5t-97 -113t-157.5 -37q-85 0 -141.5 47t-85 118t-26 152zM250 221.5q-1 -44.5 15.5 -82.5t48.5 -64.5t84 -26.5q55 -2 90.5 23t54 63t18 83.5t-17.5 84.5t-53 65t-89 26 q-49 0 -82.5 -25t-50.5 -63.5t-18 -83z" />
<glyph unicode="&#xe51;" horiz-adv-x="343" d="M102 517q44 24 94.5 54t79.5 52l76 -2q-5 -24 -8 -74t-3.5 -114t0 -133.5t1.5 -130t1 -104v-55.5l-82 -3q-2 19 -2.5 63t-0.5 103t-1 129t-1 140q0 -2 -10 -8t-24.5 -13.5t-31 -16t-30.5 -13.5q-3 2 -13 19.5t-20.5 40t-18 42t-6.5 24.5z" />
<glyph unicode="&#xe52;" horiz-adv-x="698" d="M137 490q29 38 68 65t83.5 45t90.5 24.5t89 5.5q90 -7 150 -54t70 -131q5 -46 -20 -88.5t-72.5 -81.5t-116.5 -76t-155 -69q90 9 174 17t195 19q-2 -5 -2 -25v-43v-45t-2 -33q-43 -2 -105 -4t-132 -4.5t-140 -4.5t-126 -2q-5 12 -12 31t-10.5 37.5t1 35.5t21.5 28 q89 26 163 56.5t128 62t82 60.5t23 53q-9 41 -37 59.5t-65.5 22t-80 -7t-81 -29t-69.5 -41.5t-42 -45z" />
<glyph unicode="&#xe53;" horiz-adv-x="698" d="M174 139q-12 62 43 156l59 -34q-17 -19 -16 -33.5t11.5 -26.5t26.5 -19.5t31 -12.5q43 -14 90 -14t87 11t67.5 29t29 40.5t-29 46t-105.5 46.5q68 51 85 81.5t1 46t-57 17t-90.5 -6t-97.5 -23.5t-77 -35q-2 7 -7 30t-11 49.5t-11 50t-7 34.5q46 27 113.5 40t133.5 10.5 t122 -20.5t81 -50.5t9.5 -80.5t-92.5 -109q80 -34 106.5 -80t19.5 -103q-5 -63 -57.5 -105t-123.5 -60.5t-146 -11.5t-125.5 41t-62.5 96z" />
<glyph unicode="&#xe54;" horiz-adv-x="638" d="M125 239h5q22 22 55 58t71 77.5t76 84.5t68 78t49 59t19 27l92 -15q-5 -19 -7 -54t-3.5 -80.5t-0.5 -98t1 -107.5h52t50 3v-169q-27 0 -50 2t-52 2q3 -44 3 -69v-34l-102 4q-2 14 -2 35t2 66q-67 0 -139.5 -3.5t-156.5 -8.5q-2 12 -6 31.5t-9 40.5t-9.5 41t-5.5 30z M253 261q46 -3 99.5 -0.5t98.5 2.5v227q2 3 -15.5 -18t-45.5 -56t-63.5 -76t-73.5 -79z" />
<glyph unicode="&#xe55;" horiz-adv-x="667" d="M135 85l66 162q56 -49 129 -72t136 -23t105.5 22t39.5 67q-2 38 -26.5 60.5t-63 33t-85.5 12t-94.5 -3.5t-93 -12.5t-77.5 -16.5l36 302l430 5v-131l-383 8l-7 -71q125 20 210.5 4t135.5 -53t68 -86.5t10 -95.5q-15 -85 -77 -130.5t-142 -56.5t-166 9.5t-151 66.5z" />
<glyph unicode="&#xe56;" horiz-adv-x="667" d="M145 246q-3 70 21.5 137.5t76.5 121t131.5 87.5t185.5 38l54 -115q-90 -3 -151.5 -14t-102.5 -29t-65 -43.5t-39 -61.5q31 20 76 29.5t93.5 7t96.5 -17t84 -41t56.5 -66.5t15.5 -95q-3 -36 -19.5 -67.5t-45.5 -57t-70 -41.5t-96 -18q-77 -3 -133 15.5t-93.5 52.5 t-56.5 80.5t-19 97.5zM248 251q6 -34 47 -61.5t111 -27.5q85 2 127 33.5t39.5 68t-47.5 65.5t-134 24q-80 -7 -114.5 -37.5t-28.5 -64.5z" />
<glyph unicode="&#xe57;" horiz-adv-x="614" d="M118 451q2 5 3.5 28t2.5 51t2.5 53.5t3.5 36.5q46 -5 105.5 -5.5t123.5 2.5l128 6t117 7q0 -10 2 -29t3.5 -39.5l3 -41t1.5 -34.5q-46 -32 -88.5 -95t-76 -135t-53 -141t-21.5 -110l-95 5q10 48 30.5 110.5t50.5 126.5t66 122.5t75 98.5q-36 -5 -88 -10.5t-106.5 -9 t-106 -3.5t-83.5 6z" />
<glyph unicode="&#xe58;" horiz-adv-x="682" d="M157 124.5q-17 51.5 12 104.5t107 83q-60 31 -81 84t-1.5 104t80.5 88t163 33q82 -3 134 -39t70.5 -84.5t1.5 -98t-75 -78.5q46 -17 75 -48t37.5 -68.5t-3 -75t-46 -68t-90 -49t-135.5 -15.5q-108 0 -170 38t-79 89.5zM245.5 206.5q3.5 -30.5 49 -54.5t127.5 -22 q85 2 122.5 28t32.5 57t-49.5 56.5t-121.5 23.5q-85 -3 -124.5 -30.5t-36 -58zM293.5 392q1.5 -23 33 -41t95.5 -15q79 2 108.5 22.5t21.5 44.5t-48 42t-101 16q-56 -3 -83.5 -24.5t-26 -44.5z" />
<glyph unicode="&#xe59;" horiz-adv-x="663" d="M130 445q5 34 20.5 66.5t44.5 57.5t69.5 41t97.5 20q77 5 133 -14.5t93 -54t56.5 -80.5t22.5 -97q2 -70 -22.5 -137.5t-77.5 -121t-132.5 -88.5t-183.5 -37l-56 114q90 2 151.5 13t102.5 29t65 44.5t39 62.5q-48 -29 -123 -35t-145 15.5t-117 71t-38 130.5zM234.5 364.5 q2.5 -36.5 48.5 -65t135 -23.5q80 7 114.5 38.5t28.5 65t-48 60t-112 24.5q-85 0 -127 -31.5t-39.5 -68z" />
<glyph unicode="&#xe5a;" horiz-adv-x="604" d="M63 393q-10 38 10.5 67.5t55.5 44t76.5 10t76.5 -34.5q2 -9 -19.5 -21t-35.5 -17q-20 22 -51 24t-50 -9q-12 -5 -17 -14.5t-2.5 -18t13 -14.5t30.5 -4q48 5 103.5 28t137.5 69q12 9 30.5 6.5t23.5 -29.5q2 -38 4 -108t2 -143.5t-3 -136.5t-6 -87l-70 -5q0 15 1.5 55.5 t3.5 91.5t3 107.5t-1 105.5q-58 -26 -111 -37.5t-95 -9t-71 22t-39 57.5zM524 0q0 14 1 49t2.5 80t2.5 95.5t1 97.5t-2 86t-5 60q-3 12 7 23t23.5 14.5t25.5 -1.5t14 -24q5 -38 6.5 -108t1.5 -143.5t-1.5 -136.5t-6.5 -87z" />
<glyph unicode="&#xe5b;" horiz-adv-x="1032" d="M99 278q7 58 41 101t80 60.5t96.5 8.5t86.5 -52q17 -20 23.5 -45t5 -48t-10 -42.5t-22.5 -30.5q-29 -22 -54.5 -21t-44 14t-29 31.5t-8.5 32.5l12 24q3 -31 18.5 -38.5t29 1t18.5 29.5t-13 49q-19 26 -45.5 36.5t-50.5 4.5t-40 -29t-15 -64q2 -43 20 -79.5t44.5 -61 t58 -33t60.5 4.5q39 20 71.5 56.5t63.5 99.5q2 -10 8.5 -28t16 -36t20 -33.5t18.5 -23.5q17 27 33.5 54t34.5 56q9 -29 22.5 -56t32.5 -49q14 27 27.5 52.5t27.5 54.5q9 -29 21.5 -50t27.5 -40q19 29 43.5 37.5t57.5 4.5q17 -2 35.5 -5t36.5 -5.5t35 -2.5t31 7 q-9 -24 -40.5 -43t-77.5 -15q-26 2 -47 5t-40 0.5t-32.5 -13.5t-23.5 -39q-15 12 -43 79q-14 -29 -29 -55.5t-31 -55.5q-14 20 -27 43.5t-22 50.5q-19 -29 -38.5 -57t-41.5 -57q-5 5 -16.5 22t-22.5 35.5t-19.5 35.5t-9.5 23q-29 -51 -73.5 -87t-92.5 -40q-46 -3 -85.5 14 t-66 47.5t-39 72.5t-7.5 88z" />
<glyph unicode="&#x2000;" horiz-adv-x="674" />
<glyph unicode="&#x2001;" horiz-adv-x="1348" />
<glyph unicode="&#x2002;" horiz-adv-x="674" />
<glyph unicode="&#x2003;" horiz-adv-x="1348" />
<glyph unicode="&#x2004;" horiz-adv-x="449" />
<glyph unicode="&#x2005;" horiz-adv-x="337" />
<glyph unicode="&#x2006;" horiz-adv-x="224" />
<glyph unicode="&#x2007;" horiz-adv-x="224" />
<glyph unicode="&#x2008;" horiz-adv-x="168" />
<glyph unicode="&#x2009;" horiz-adv-x="269" />
<glyph unicode="&#x200a;" horiz-adv-x="74" />
<glyph unicode="&#x200b;" />
<glyph unicode="&#x2010;" horiz-adv-x="423" d="M121 268l2 97h299v-92z" />
<glyph unicode="&#x2011;" horiz-adv-x="423" d="M121 268l2 97h299v-92z" />
<glyph unicode="&#x2012;" horiz-adv-x="423" d="M121 268l2 97h299v-92z" />
<glyph unicode="&#x2013;" horiz-adv-x="517" d="M124 265.5q-1 19.5 21 36.5h343q14 -3 20 -14.5t5 -23t-8 -23t-17 -14.5h-343q-20 19 -21 38.5z" />
<glyph unicode="&#x2014;" horiz-adv-x="759" d="M124 265.5q-1 19.5 21 36.5h585q14 -3 20 -14.5t5 -23t-7 -23t-18 -14.5h-585q-20 19 -21 38.5z" />
<glyph unicode="&#x2018;" horiz-adv-x="240" d="M143 527q2 44 37 79.5t78 45.5q7 0 16 -3.5t15 -10.5t5.5 -16t-12.5 -20q-17 -9 -32.5 -20.5t-24.5 -31.5q-7 -32 4.5 -48t24.5 -24q-2 -19 -13.5 -32.5t-35.5 -10.5q-32 3 -48.5 29t-13.5 63z" />
<glyph unicode="&#x2019;" horiz-adv-x="244" d="M142 453.5q0 9.5 13 19.5q14 9 28.5 20.5t23.5 35.5q5 32 -7 47t-26 23q2 17 13 31.5t35 11.5q32 -2 49 -26t17 -60q0 -44 -33 -81.5t-76 -51.5q-7 0 -16 3.5t-15 10.5t-6 16.5z" />
<glyph unicode="&#x201a;" d="M-556 698q10 39 51 51t97 5.5t118.5 -24.5t115.5 -37v97l58 2l-2 -178q5 -17 -10 -21t-34 -1q-77 26 -137.5 37t-101.5 14.5t-63 1.5l-21 -2q0 -3 11 -8t31.5 -10t46.5 -8.5t53 -3.5l3 -16q-39 -5 -80 -3t-74 13t-52 33t-10 58z" />
<glyph unicode="&#xf702;" d="M-556 698q10 39 51 51t97 5.5t118.5 -24.5t115.5 -37v97l58 2l-2 -178q5 -17 -10 -21t-34 -1q-77 26 -137.5 37t-101.5 14.5t-63 1.5l-21 -2q0 -3 11 -8t31.5 -10t46.5 -8.5t53 -3.5l3 -16q-39 -5 -80 -3t-74 13t-52 33t-10 58z" />
<glyph unicode="&#x201e;" d="M-575 698q10 32 41.5 45t76 13t98.5 -10t106 -24v68h58v-87q15 -9 33 -10v97q14 0 37.5 1t27.5 1l-4 -178q7 -19 -10 -24t-39 2q-84 26 -149 37t-109 14.5t-67 1.5l-23 -2q0 -3 12.5 -9t34 -11t49 -7.5t56.5 -2.5l6 -16q-41 -5 -87 -4t-82.5 12t-56 34t-9.5 59z" />
<glyph unicode="&#xf704;" d="M-575 698q10 32 41.5 45t76 13t98.5 -10t106 -24v68h58v-87q15 -9 33 -10v97q14 0 37.5 1t27.5 1l-4 -178q7 -19 -10 -24t-39 2q-84 26 -149 37t-109 14.5t-67 1.5l-23 -2q0 -3 12.5 -9t34 -11t49 -7.5t56.5 -2.5l6 -16q-41 -5 -87 -4t-82.5 12t-56 34t-9.5 59z" />
<glyph unicode="&#x2020;" d="M-203 724v90q43 17 87 0q-2 -46 -2 -93v-93q-48 -20 -83 2q-2 48 -2 94z" />
<glyph unicode="&#xf705;" d="M-203 724v90q43 17 87 0q-2 -46 -2 -93v-93q-48 -20 -83 2q-2 48 -2 94z" />
<glyph unicode="&#x2021;" d="M-328 754q0 12 1 20t16 11q55 14 80.5 9.5t35 -19t8.5 -34t1 -38.5q67 12 163 18t194 6q2 -5 2.5 -18.5t2 -31t2 -33t-1.5 -24.5q-34 3 -83.5 4.5t-107 0t-118 -6t-118.5 -12.5q3 14 5 37.5t-7 35.5q-9 14 -27.5 14t-43.5 -4q-2 17 -3.5 33.5t-0.5 31.5z" />
<glyph unicode="&#xf706;" d="M-328 754q0 12 1 20t16 11q55 14 80.5 9.5t35 -19t8.5 -34t1 -38.5q67 12 163 18t194 6q2 -5 2.5 -18.5t2 -31t2 -33t-1.5 -24.5q-34 3 -83.5 4.5t-107 0t-118 -6t-118.5 -12.5q3 14 5 37.5t-7 35.5q-9 14 -27.5 14t-43.5 -4q-2 17 -3.5 33.5t-0.5 31.5z" />
<glyph unicode="&#x2022;" horiz-adv-x="605" d="M143 234q0 48 18 90.5t49.5 74t73.5 50.5t91 19q48 0 90 -19t73.5 -50.5t49.5 -74t18 -90.5t-18 -90.5t-49.5 -74t-73.5 -49.5t-90 -18q-49 0 -91 18t-73.5 49.5t-49.5 74t-18 90.5z" />
<glyph unicode="&#x2026;" horiz-adv-x="810" d="M126 53q0 24 17 39.5t41 15.5t40.5 -15.5t16.5 -39.5t-16.5 -40t-40.5 -16t-41 16t-17 40zM403 53q0 24 17 39.5t41 15.5t40 -15.5t16 -39.5t-16 -40t-40 -16t-41 16t-17 40zM689 53q0 24 17.5 39.5t41.5 15.5t41 -15.5t17 -39.5t-17.5 -40t-40.5 -16q-24 0 -41.5 16 t-17.5 40z" />
<glyph unicode="&#x202f;" horiz-adv-x="269" />
<glyph unicode="&#x2030;" d="M-290 683l3 83h65v55h56v-55h65v-82h-68v-51h-56l7 50h-72z" />
<glyph unicode="&#xf708;" d="M-290 683l3 83h65v55h56v-55h65v-82h-68v-51h-56l7 50h-72z" />
<glyph unicode="&#x2039;" d="M-114 606v184q44 20 90 0q-2 -48 -2 -93v-93q-51 -20 -88 2z" />
<glyph unicode="&#xf70a;" d="M-114 606v184q44 20 90 0q-2 -48 -2 -93v-93q-51 -20 -88 2z" />
<glyph unicode="&#x203a;" d="M-188 934v90q20 12 36.5 7.5t35.5 -7.5v-184q-24 -10 -37.5 -10.5t-32.5 10.5q-2 48 -2 94z" />
<glyph unicode="&#xf713;" d="M-188 934v90q20 12 36.5 7.5t35.5 -7.5v-184q-24 -10 -37.5 -10.5t-32.5 10.5q-2 48 -2 94z" />
<glyph unicode="&#x205f;" horiz-adv-x="337" />
<glyph unicode="&#x20ac;" horiz-adv-x="527" d="M59.5 360.5q1.5 20.5 6 42.5t9.5 42.5t9 30.5q5 22 40.5 33.5t94.5 13t136.5 -3.5t168.5 -17q2 -9 2 -31t-1 -46t-1 -43.5v-23.5q-56 5 -128.5 13t-136.5 12t-106 0t-37 -21q3 -9 33 -15.5t74.5 -15t95.5 -22.5t95.5 -34.5t77.5 -52t40 -77.5q-2 -38 -17 -65t-38 -44 t-51 -23t-54 -3q-44 9 -77.5 29.5t-61.5 41t-55.5 35.5t-59.5 14q-2 22 -1 52t30 47q26 3 56.5 -9t61 -30t60.5 -37.5t55.5 -30.5t44.5 -11t27 20q14 29 -10 50.5t-67.5 38t-98 29t-101.5 24.5t-80.5 25t-33.5 30q-3 12 -1.5 32.5z" />
<glyph unicode="&#xf700;" horiz-adv-x="527" d="M59.5 360.5q1.5 20.5 6 42.5t9.5 42.5t9 30.5q5 22 40.5 33.5t94.5 13t136.5 -3.5t168.5 -17q2 -9 2 -31t-1 -46t-1 -43.5v-23.5q-56 5 -128.5 13t-136.5 12t-106 0t-37 -21q3 -9 33 -15.5t74.5 -15t95.5 -22.5t95.5 -34.5t77.5 -52t40 -77.5q-2 -38 -17 -65t-38 -44 t-51 -23t-54 -3q-44 9 -77.5 29.5t-61.5 41t-55.5 35.5t-59.5 14q-2 22 -1 52t30 47q26 3 56.5 -9t61 -30t60.5 -37.5t55.5 -30.5t44.5 -11t27 20q14 29 -10 50.5t-67.5 38t-98 29t-101.5 24.5t-80.5 25t-33.5 30q-3 12 -1.5 32.5z" />
<glyph unicode="&#x2122;" d="M-307 687q2 37 31 66.5t88 26.5q48 -2 73 -33.5t25 -68t-28.5 -65.5t-84.5 -26q-53 0 -79.5 31.5t-24.5 68.5zM-241 654.5q0 -11.5 8.5 -20.5t29.5 -8q20 0 29.5 10.5t8.5 21.5t-12 19.5t-30 6.5q-17 0 -25.5 -9t-8.5 -20.5z" />
<glyph unicode="&#xf711;" d="M-307 687q2 37 31 66.5t88 26.5q48 -2 73 -33.5t25 -68t-28.5 -65.5t-84.5 -26q-53 0 -79.5 31.5t-24.5 68.5zM-241 654.5q0 -11.5 8.5 -20.5t29.5 -8q20 0 29.5 10.5t8.5 21.5t-12 19.5t-30 6.5q-17 0 -25.5 -9t-8.5 -20.5z" />
<glyph unicode="&#x25cc;" horiz-adv-x="527" d="M53 212q0 19 10 30t26 11q19 0 29 -11.5t10 -29.5q0 -15 -10 -25.5t-29 -10.5q-15 0 -25.5 10t-10.5 26zM103 88.5q1 15.5 11 27.5q10 10 25.5 10t27.5 -10q9 -10 9 -26.5t-9 -28.5q-12 -10 -27.5 -10t-25.5 10q-12 12 -11 27.5zM103 335.5q-1 14.5 11 26.5 q10 10 25.5 10t27.5 -10q9 -10 9 -25.5t-9 -25.5q-12 -14 -27.5 -13t-25.5 13q-10 10 -11 24.5zM227 39q0 15 9.5 25.5t26.5 10.5q15 0 26 -10t11 -26q0 -17 -11 -27t-26 -10q-36 0 -36 37zM227 387q0 14 9.5 25t26.5 11q15 0 26 -11t11 -25q0 -17 -11 -27t-26 -10 q-36 0 -36 37zM348 335.5q0 14.5 12 26.5q12 10 26.5 10t24.5 -10t10.5 -25.5t-10.5 -25.5q-25 -29 -51 0q-12 10 -12 24.5zM349 89.5q-1 16.5 11 26.5q26 22 51 0q10 -10 10.5 -26.5t-10.5 -28.5q-25 -22 -51 0q-10 12 -11 28.5zM398 212q0 19 12 30t27 11t27 -11.5 t12 -29.5q0 -15 -12 -25.5t-27 -10.5t-27 10t-12 26z" />
<glyph unicode="&#x25fc;" horiz-adv-x="426" d="M0 0v427h427v-427h-427z" />
<glyph unicode="&#xf701;" d="M-546 708q10 41 60.5 52t116 4.5t135.5 -25.5t123 -39q14 -7 14.5 -28.5t-6 -42.5t-18.5 -34t-24 -3q-77 26 -136.5 38.5t-102.5 18.5q-49 7 -89 6q-2 -5 10 -11t32 -11t45.5 -7.5t54.5 -2.5l2 -15q-38 -7 -79 -5.5t-74 12.5t-53 34t-11 59z" />
<glyph unicode="&#xf70c;" d="M-300 683q0 38 23.5 59t51.5 17q31 -3 49.5 -14t23.5 -8q15 5 41.5 17t61.5 2q26 -9 26.5 -31t-8.5 -51q26 3 43 6t35 4.5t41 3t62 5.5v-15v-26.5v-27.5v-18q-39 3 -104 4t-152 -13q7 14 13 39.5t3 37.5q-12 -3 -37 -13.5t-33 -10.5q-5 0 -17 6t-25 11t-24 6t-16 -9 q-9 -14 11.5 -29t49.5 -15q0 -9 -6 -21t-20 -15q-55 7 -75 37.5t-18 61.5z" />
<glyph unicode="&#xf70e;" d="M-132.5 666.5q-2.5 41.5 25 70t91.5 31.5t180 -38l-50 -109q-39 14 -77.5 26t-64 13.5t-32.5 -13t19 -53.5l-70 -7q-19 38 -21.5 79.5z" />
<glyph unicode="&#xf70f;" horiz-adv-x="713" d="M110.5 183q-1.5 59 0.5 122.5t6 121.5t8 95q38 3 97.5 3.5t123.5 -3.5q60 -3 90 -40t42 -89t9.5 -110.5t-7.5 -110.5h42.5t51 1t47.5 2t34 4q5 9 7 57.5t3 106.5t-1 108.5t-4 63.5l65 -3q2 -29 2 -85.5t-2.5 -120.5t-7 -127t-12.5 -106q-3 -22 -8.5 -35.5t-15 -20.5 t-24 -9.5t-37.5 -2.5q-14 0 -40.5 -1t-54.5 -1.5t-54 -1.5t-36 -1q-15 2 -21 11t-6 22t3.5 26.5t6.5 24.5q22 138 5 205t-78 76h-32h-48.5h-47h-26.5q-2 -19 -4.5 -52t-4 -69.5t-1.5 -71.5t5 -56q3 -22 14.5 -27t24 0t25.5 16t21 21q9 -9 25 -31t11 -44q-5 -19 -30.5 -36.5 t-55.5 -21t-59 16t-41 75.5q-9 39 -10.5 98z" />
<glyph unicode="&#xf715;" d="M-382 898q2 34 26.5 55.5t50.5 17.5q32 -3 50.5 -13.5t22.5 -10.5q9 3 20 9.5t23.5 11.5t27 6t31.5 -5q26 -9 27 -31t-8 -49q26 3 44 5t35.5 3.5t40.5 3.5t61 4q2 -5 2 -16.5v-25t-1 -26.5t-1 -18q-39 3 -102.5 6t-153.5 -14q7 14 13 40t2 36q-12 -3 -35.5 -12.5 t-32.5 -9.5q-5 0 -17 5.5t-25 10.5t-24.5 5.5t-18.5 -9.5q-9 -14 12.5 -28t50.5 -14q0 -10 -6 -21.5t-18 -14.5q-55 7 -76 36.5t-21 62.5z" />
<glyph unicode="&#xf718;" d="M-159 -162q26 5 51.5 5t47 -7t35 -21.5t16.5 -39.5q3 -26 4.5 -44.5t1.5 -34t0.5 -30t2.5 -33.5l-60 -12q0 24 -0.5 43.5t-9.5 48.5q0 3 -3.5 10t-12 12.5t-24 6t-37.5 -4.5z" />
<glyph unicode="&#xf719;" d="M-331 -169q58 9 91 3t49.5 -21.5t21.5 -36t6 -38.5t2 -30.5t9 -12.5q27 0 41.5 17t20 40t4.5 44t-3 30h69q0 -12 -1 -44.5t-12 -67.5t-38.5 -61.5t-80.5 -26.5q-44 0 -70.5 13t-39.5 32.5t-16.5 41t-3.5 40.5q0 29 -12.5 30.5t-36.5 -1.5v49z" />
<glyph unicode="&#xf71a;" d="M-150 -218q0 24 21.5 40t53.5 16q29 0 50.5 -16.5t21.5 -39.5q0 -26 -21.5 -42t-50.5 -16q-32 0 -53.5 16t-21.5 42z" />
<glyph horiz-adv-x="619" d="M44.5 442q-1.5 14 1 26t14.5 18q43 10 71.5 -12.5t46 -61t24 -87.5t8.5 -89q49 46 97 72.5t86 22.5q29 -2 53.5 -16.5t45 -35t37.5 -45t31 -46.5q3 5 6.5 25.5t6 47.5t3.5 56t-1 50q-32 -14 -55 -20t-47 -9q-51 -5 -87 8.5t-55.5 38.5t-22.5 56.5t16 60.5q12 22 48 29 t77 2.5t79.5 -19t58.5 -31.5q19 41 22.5 87t3.5 79q0 2 15 -1t34 -6.5t34.5 -7t15.5 -4.5q-3 -39 -25.5 -97.5t-56.5 -104.5q10 -26 9 -82t-7.5 -117.5t-17 -113.5t-20.5 -67q-19 -34 -52 -46t-59 5q-43 53 -62.5 88t-35.5 41t-39 -20.5t-75 -95.5q-14 -29 -40 -31.5 t-50 18.5q-3 39 -7.5 85t-9.5 89.5t-10.5 81t-11.5 61.5q-9 29 -31 43.5t-51 11.5q-5 17 -9.5 33t-6 30zM409.5 403q3.5 -12 19.5 -21.5t44 -6.5q27 3 47.5 11t27.5 20q0 5 -10.5 12t-25.5 11t-32.5 7t-32.5 1q-24 0 -32.5 -11t-5 -23z" />
<glyph horiz-adv-x="273" d="M-307 687q2 37 31 66.5t88 26.5q48 -2 73 -33.5t25 -68t-28.5 -65.5t-84.5 -26q-53 0 -79.5 31.5t-24.5 68.5zM-241 654.5q0 -11.5 8.5 -20.5t29.5 -8q20 0 29.5 10.5t8.5 21.5t-12 19.5t-30 6.5q-17 0 -25.5 -9t-8.5 -20.5zM36 329l17 161q38 5 73.5 6t64.5 -5t48.5 -23 t28.5 -50q9 -39 10.5 -96t-0.5 -118.5t-6 -119t-9 -94.5l-60 -9q3 26 7.5 71t6 92t1.5 89.5t-5 66.5q-5 27 -39 35q-34 3 -74 2t-64 -8z" />
<glyph d="M-261 502q0 24 24.5 41t41.5 17h4l17 5q-19 14 -27.5 22.5t-8.5 18.5q0 19 15.5 31t36 19.5t42.5 10t36 2.5q38 0 71 -10q17 -5 14.5 -19t-7.5 -20q-26 5 -44.5 6.5t-47.5 1.5q-9 0 -15.5 1t-13.5 -1q-9 -3 -15.5 -8.5t-6.5 -17.5q0 -9 6 -12t13 -6q9 -5 16.5 -7t13.5 -2 q9 -3 15 -17t-4 -17q-5 -9 -14 -9h-12q-10 0 -19.5 1t-19.5 1q-20 0 -37.5 -6t-17.5 -28q0 -15 14 -19q5 -3 10 -2t10 1t16.5 1.5t22.5 6t19.5 9.5t8.5 12l2 -2q3 -3 3 -4q5 0 5 -5q3 -3 4 -8q0 -2 0.5 -2t0.5 -2t2 -1q0 -14 -25.5 -25t-59.5 -13q-14 0 -29.5 2t-28 8.5 t-22 17t-9.5 27.5z" />
</font>
</defs>
</svg>
