<?xml version="1.0"?><svg width="640" height="480" xmlns="http://www.w3.org/2000/svg" xmlns:xlink="http://www.w3.org/1999/xlink">
 <title>love birds</title>
 <metadata id="metadata7">image/svg+xml</metadata>
 <g>
  <title>Layer 1</title>
  <defs>
   <filter id="svg_682">
    <feGaussianBlur id="svg_683" stdDeviation="0.028007"/>
   </filter>
   <pattern id="svg_482" patternTransform="translate(-84.1377 510.395)" xlink:href="#svg_511"/>
   <pattern id="svg_676" patternTransform="matrix(0.880062 0 0 0.880062 -58.8481 577.678)" xlink:href="#svg_511"/>
   <pattern id="svg_674" patternTransform="matrix(0.880062 0 0 0.880062 -58.8481 577.678)" xlink:href="#svg_511"/>
   <pattern id="svg_672" patternTransform="matrix(0.880062 0 0 0.880062 -58.8481 577.678)" xlink:href="#svg_511"/>
   <pattern id="svg_670" patternTransform="matrix(0.880062 0 0 0.880062 -58.8481 577.678)" xlink:href="#svg_511"/>
   <pattern id="svg_668" patternTransform="matrix(0.880062 0 0 0.880062 -58.8481 577.678)" xlink:href="#svg_511"/>
   <pattern id="svg_681" patternTransform="translate(0.0672191 0.0671756)" xlink:href="#svg_736"/>
   <pattern id="svg_736" patternTransform="translate(-79.9494 517.532)" xlink:href="#svg_684"/>
   <pattern id="svg_507" patternTransform="translate(-212.763 474.817)" xlink:href="#svg_712"/>
   <pattern id="svg_509" patternTransform="matrix(0.893653 0 0 0.815661 -53.4473 517.427)" xlink:href="#svg_735"/>
   <pattern id="svg_735" patternTransform="matrix(0.893653 0 0 0.815661 -50.3653 517.419)" xlink:href="#svg_723"/>
   <pattern id="svg_723" patternTransform="matrix(0.692326 0 0 0.69244 3.54248e-007 -1.90234e-005)" xlink:href="#svg_724"/>
   <pattern id="svg_726" patternTransform="matrix(0.73209 0 0 0.714954 -6.45752e-007 1.75391e-005)" xlink:href="#svg_727"/>
   <pattern id="svg_727" patternUnits="userSpaceOnUse" patternTransform="matrix(0.73209 0 0 0.714954 -50.3262 517.536)" width="3.55138" height="3.6359">
    <path id="svg_734" fill="#800000" d="m2.19847,0.29226c0.28594,0.31889 0.36332,0.78009 0.17283,1.03011c-0.19049,0.25002 -0.57671,0.19418 -0.86265,-0.12472c-0.28594,-0.31889 -0.36332,-0.78008 -0.17283,-1.0301c0.19049,-0.25002 0.57671,-0.19419 0.86265,0.12471z"/>
    <path id="svg_733" fill="#800000" d="m1.25987,2.07843c-0.26906,0.3736 -0.68656,0.53954 -0.93251,0.37063c-0.24595,-0.16892 -0.22721,-0.60871 0.04186,-0.98231c0.26907,-0.3736 0.68656,-0.53954 0.93251,-0.37063c0.24595,0.16891 0.22721,0.6087 -0.04186,0.98231z"/>
    <path id="svg_732" fill="#800000" d="m2.09614,3.11828c-0.37625,0.13239 -0.73541,-0.03663 -0.80221,-0.37752c-0.06679,-0.3409 0.18409,-0.72455 0.56035,-0.85694c0.37626,-0.13238 0.73541,0.03664 0.80221,0.37753c0.06678,0.34089 -0.18409,0.72455 -0.56035,0.85693z"/>
    <path id="svg_731" fill="#800000" d="m0.90538,0.59997c-0.07413,0.34353 -0.33108,0.63208 -0.57393,0.64449c-0.24285,0.01241 -0.37962,-0.25602 -0.3055,-0.59955c0.07413,-0.34354 0.33108,-0.63209 0.57393,-0.6445c0.24285,-0.01241 0.37962,0.25602 0.3055,0.59956z"/>
    <path id="svg_730" fill="#800000" d="m3.12962,1.48654c-0.27786,0.13239 -0.5431,-0.03663 -0.59243,-0.37753c-0.04932,-0.34089 0.13595,-0.72454 0.41381,-0.85693c0.27787,-0.13238 0.54311,0.03664 0.59243,0.37753c0.04932,0.34089 -0.13594,0.72455 -0.41381,0.85693z"/>
    <path id="svg_729" fill="#800000" d="m3.51902,2.71922c0.03585,0.35104 -0.117,0.72001 -0.3414,0.8241c-0.2244,0.10409 -0.43537,-0.0961 -0.47122,-0.44715c-0.03585,-0.35104 0.117,-0.72 0.3414,-0.8241c0.2244,-0.10409 0.43537,0.0961 0.47122,0.44715z"/>
    <path id="svg_728" fill="#800000" d="m0.48139,3.62673c-0.32262,-0.05105 -0.53317,-0.30081 -0.47028,-0.55787c0.06288,-0.25705 0.37539,-0.42406 0.69801,-0.37302c0.32262,0.05105 0.53317,0.30081 0.47028,0.55787c-0.06289,0.25706 -0.37539,0.42406 -0.69801,0.37302z"/>
   </pattern>
   <pattern id="svg_724" patternUnits="userSpaceOnUse" patternTransform="matrix(0.692326 0 0 0.69244 -50.3262 517.536)" width="2.59993" height="2.5995">
    <rect id="svg_725" fill="url(#svg_726)" x="0" y="0" width="2.59993" height="2.5995"/>
   </pattern>
   <pattern id="svg_721" patternUnits="userSpaceOnUse" patternTransform="translate(-50.3262 517.536)" width="1.8" height="1.8">
    <rect id="svg_722" fill="url(#svg_723)" x="0" y="0" width="1.8" height="1.8"/>
   </pattern>
   <pattern id="svg_712" patternUnits="userSpaceOnUse" patternTransform="translate(-50.4178 517.402)" width="2.34123" height="2.17521">
    <path id="svg_720" fill="#333333" d="m0.64745,0.54334c-0.08455,0.11809 -0.21624,0.19802 -0.34541,0.20961c-0.12916,0.01161 -0.23614,-0.04686 -0.28059,-0.15336c-0.04447,-0.10649 -0.01961,-0.24482 0.06516,-0.36279c0.08454,-0.11808 0.21624,-0.19802 0.3454,-0.2096c0.12916,-0.01162 0.23615,0.04686 0.28059,0.15336c0.04447,0.10649 0.01961,0.24482 -0.06515,0.36278z"/>
    <path id="svg_719" fill="#333333" d="m0.80062,1.02685c0.08028,0.12676 0.09675,0.27154 0.04313,0.37971c-0.0536,0.10817 -0.16909,0.16329 -0.30292,0.14455c-0.13382,-0.01871 -0.26562,-0.10845 -0.34567,-0.23533c-0.08029,-0.12676 -0.09675,-0.27154 -0.04312,-0.37971c0.05359,-0.10818 0.16909,-0.16329 0.30291,-0.14455c0.13383,0.01871 0.26562,0.10845 0.34567,0.23533z"/>
    <path id="svg_718" fill="#333333" d="m1.50426,0.31448c0.10504,0.15122 0.14242,0.33267 0.09799,0.47589c-0.04439,0.14323 -0.16382,0.22645 -0.31321,0.21827c-0.14939,-0.00815 -0.30602,-0.10649 -0.41081,-0.25788c-0.10504,-0.15121 -0.14242,-0.33266 -0.09799,-0.47588c0.0444,-0.14323 0.16382,-0.22646 0.31321,-0.21828c0.14939,0.00815 0.30602,0.1065 0.41081,0.25788z"/>
    <path id="svg_717" fill="#333333" d="m0.41985,2.17521c-0.13756,0.00015 -0.26477,-0.05301 -0.3336,-0.13946c-0.06886,-0.08643 -0.0689,-0.19299 -0.00009,-0.27946c0.06878,-0.08649 0.19595,-0.13974 0.33351,-0.13967c0.13756,-0.00016 0.26477,0.05301 0.33361,0.13946c0.06886,0.08643 0.06889,0.19299 0.00009,0.27947c-0.06878,0.08649 -0.19596,0.13973 -0.33352,0.13966z"/>
    <path id="svg_716" fill="#333333" d="m1.53942,1.83097c-0.13687,0.10252 -0.30415,0.14336 -0.43873,0.10706c-0.13459,-0.03627 -0.21601,-0.14413 -0.21354,-0.28288c0.00244,-0.13876 0.08842,-0.2873 0.22546,-0.3896c0.13687,-0.10252 0.30416,-0.14335 0.43874,-0.10705c0.13459,0.03627 0.21601,0.14413 0.21353,0.28288c-0.00243,0.13875 -0.08842,0.28729 -0.22546,0.38959z"/>
    <path id="svg_715" fill="#333333" d="m2.21879,0.54951c-0.08196,0.11604 -0.20138,0.18919 -0.31323,0.19179c-0.11185,0.00263 -0.1991,-0.06564 -0.22884,-0.17907c-0.02977,-0.11342 0.00252,-0.25475 0.08466,-0.37064c0.08195,-0.11605 0.20139,-0.18919 0.31323,-0.19179c0.11185,-0.00263 0.19911,0.06564 0.22885,0.17907c0.02976,0.11342 -0.00253,0.25474 -0.08467,0.37064z"/>
    <path id="svg_714" fill="#333333" d="m2.30187,1.87822c-0.05208,0.1289 -0.14818,0.22612 -0.25206,0.25494c-0.10388,0.02884 -0.19974,-0.01507 -0.25141,-0.11518c-0.05168,-0.10009 -0.05131,-0.24116 0.00097,-0.36996c0.05207,-0.12891 0.14818,-0.22612 0.25207,-0.25494c0.10388,-0.02884 0.19974,0.01507 0.2514,0.11518c0.05169,0.10009 0.0513,0.24115 -0.00097,0.36996z"/>
    <path id="svg_713" fill="#333333" d="m2.03204,0.80549c0.11235,0.007 0.21344,0.05793 0.26511,0.13362c0.05168,0.07568 0.04611,0.16458 -0.01463,0.23317c-0.06072,0.0686 -0.16738,0.10644 -0.27972,0.09926c-0.11234,-0.00699 -0.21343,-0.05793 -0.2651,-0.13362c-0.05169,-0.07567 -0.04611,-0.16458 0.01463,-0.23317c0.06072,-0.0686 0.16738,-0.10643 0.27971,-0.09926z"/>
   </pattern>
   <pattern id="svg_497" patternUnits="userSpaceOnUse" patternTransform="translate(-50.3935 512.782)" width="4" height="4">
    <g id="svg_703" fill="#800000">
     <path id="svg_711" fill="#800000" d="m1.120296,0.96818c-0.233918,0.330135 -0.635904,0.464081 -0.898104,0.300273c-0.262149,-0.165729 -0.284995,-0.566841 -0.051022,-0.898785c0.233748,-0.330141 0.635897,-0.464081 0.898104,-0.300273c0.261979,0.165724 0.284995,0.566841 0.051022,0.898785z"/>
     <path id="svg_710" fill="#800000" d="m1.359838,1.870884c0.203177,0.369704 0.13174,0.782716 -0.159678,0.920088c-0.291463,0.139294 -0.692453,-0.04737 -0.895807,-0.417079c-0.20318,-0.369591 -0.131794,-0.780681 0.159675,-0.919975c0.291463,-0.139294 0.692453,0.04737 0.89581,0.416966z"/>
     <path id="svg_709" fill="#800000" d="m2.604928,0.589689c0.267162,0.442061 0.237831,0.973138 -0.065417,1.186174c-0.303122,0.214963 -0.765599,0.030014 -1.032588,-0.411928c-0.267162,-0.44206 -0.237827,-0.973251 0.06542,-1.186287c0.303119,-0.21485 0.765429,-0.030019 1.032585,0.412041z"/>
     <path id="svg_708" fill="#800000" d="m0.648182,3.978811c-0.365398,-0.011325 -0.655494,-0.252027 -0.647995,-0.539171c0.007619,-0.285217 0.309907,-0.50756 0.675312,-0.496236c0.365398,0.011324 0.655494,0.252027 0.648046,0.53725c-0.007619,0.285217 -0.309958,0.509482 -0.675363,0.498158z"/>
     <path id="svg_707" fill="#800000" d="m2.590454,3.399423c-0.371723,0.28321 -0.831066,0.270898 -1.025906,-0.024328c-0.195017,-0.295231 -0.051715,-0.763491 0.319954,-1.044892c0.371501,-0.281294 0.830892,-0.27079 1.025732,0.024436c0.195016,0.295231 0.051714,0.763491 -0.319781,1.044785z"/>
     <path id="svg_706" fill="#800000" d="m3.821914,1.062997c-0.226725,0.324814 -0.582614,0.434279 -0.794895,0.244186c-0.2125,-0.188289 -0.200632,-0.606768 0.026087,-0.931582c0.226896,-0.324809 0.582791,-0.434274 0.795072,-0.244181c0.212323,0.188284 0.200629,0.606881 -0.026264,0.931577z"/>
     <path id="svg_705" fill="#800000" d="m3.899051,3.529021c-0.148441,0.364238 -0.459615,0.558472 -0.695119,0.432603c-0.235337,-0.125978 -0.30601,-0.521105 -0.157518,-0.887264c0.148441,-0.364238 0.459738,-0.556659 0.695119,-0.432603c0.23551,0.12587 0.305961,0.522914 0.157518,0.887264z"/>
     <path id="svg_704" fill="#800000" d="m3.48821,1.527279c0.297797,0.029595 0.522965,0.245996 0.502655,0.484546c-0.020258,0.236628 -0.278128,0.406606 -0.575924,0.377011c-0.297964,-0.029713 -0.522968,-0.246109 -0.502822,-0.484664c0.020307,-0.238436 0.278121,-0.406606 0.576092,-0.376893z"/>
    </g>
   </pattern>
   <pattern id="svg_494" patternUnits="userSpaceOnUse" patternTransform="translate(-50.6334 507.297)" width="4.53199" height="4.50855">
    <g id="svg_693">
     <path id="svg_702" fill="#800000" d="m0.79009,2.82555c-0.43626,0.00012 -0.78998,-0.23455 -0.79008,-0.52419c-0.00011,-0.28965 0.35345,-0.52451 0.7897,-0.52464c0.43626,-0.00012 0.78998,0.23455 0.79008,0.52419c0.00011,0.28965 -0.35345,0.52452 -0.7897,0.52464z"/>
     <path id="svg_701" fill="#800000" d="m3.82611,1.481c-0.45448,0.31616 -0.8984,0.29682 -0.99156,-0.04324c-0.09315,-0.34001 0.19974,-0.87197 0.65422,-1.18813c0.45447,-0.31616 0.89841,-0.29677 0.99156,0.04324c0.09316,0.34005 -0.19974,0.87197 -0.65422,1.18813z"/>
     <path id="svg_700" fill="#800000" d="m2.31355,1.64747c0.32663,0.02919 0.57908,0.33114 0.56388,0.67444c-0.01519,0.34331 -0.29228,0.59792 -0.61891,0.56873c-0.32662,-0.02919 -0.57908,-0.33112 -0.56388,-0.67444c0.01519,-0.34329 0.29228,-0.59792 0.61891,-0.56873z"/>
     <path id="svg_699" fill="#800000" d="m3.74229,2.77869c-0.43626,0.00012 -0.78998,-0.23455 -0.79008,-0.52419c-0.0001,-0.28965 0.35345,-0.52451 0.7897,-0.52464c0.43626,-0.00012 0.78998,0.23455 0.79008,0.52419c0.00011,0.28965 -0.35345,0.52452 -0.7897,0.52464z"/>
     <path id="svg_698" fill="#800000" d="m2.79041,0.7897c0.00012,0.43625 -0.23456,0.78997 -0.52419,0.79007c-0.28964,0.00011 -0.52452,-0.35345 -0.52464,-0.7897c-0.00012,-0.43626 0.23455,-0.78998 0.52419,-0.79008c0.28963,-0.0001 0.52451,0.35345 0.52464,0.78971z"/>
     <path id="svg_697" fill="#800000" d="m2.81383,3.71846c0.00013,0.43626 -0.23455,0.78998 -0.52418,0.79008c-0.28964,0.0001 -0.52452,-0.35345 -0.52464,-0.78971c-0.00012,-0.43625 0.23455,-0.78997 0.52419,-0.79007c0.28964,-0.00011 0.52451,0.35345 0.52464,0.7897l-0.00001,0z"/>
     <path id="svg_696" fill="#800000" d="m1.04964,4.2809c-0.45448,0.31616 -0.8984,0.29682 -0.99157,-0.04324c-0.09315,-0.34001 0.19974,-0.87197 0.65422,-1.18813c0.45448,-0.31616 0.89842,-0.29677 0.99157,0.04324c0.09316,0.34005 -0.19974,0.87197 -0.65422,1.18813z"/>
     <path id="svg_695" fill="#800000" d="m1.49665,0.72009c0.31616,0.45448 0.2968,0.89841 -0.04323,0.99157c-0.34006,0.09316 -0.87197,-0.19974 -1.18813,-0.65422c-0.31616,-0.45448 -0.29682,-0.89841 0.04323,-0.99157c0.34004,-0.09316 0.87197,0.19974 1.18813,0.65422z"/>
     <path id="svg_694" fill="#800000" d="m4.24969,3.4497c0.31616,0.45448 0.2968,0.89841 -0.04323,0.99156c-0.34006,0.09317 -0.87197,-0.19973 -1.18813,-0.65421c-0.31616,-0.45448 -0.29682,-0.89841 0.04323,-0.99157c0.34004,-0.09316 0.87197,0.19974 1.18813,0.65422z"/>
    </g>
   </pattern>
   <pattern id="svg_684" patternUnits="userSpaceOnUse" patternTransform="translate(-82.2386 518.899)" width="5.6" height="5.60289">
    <path id="svg_692" fill="#800000" d="m1.54863,1.40171c-0.20223,0.304 -0.51722,0.5098 -0.82617,0.53963c-0.30894,0.0299 -0.56484,-0.12065 -0.67114,-0.39483c-0.10637,-0.27416 -0.04692,-0.63028 0.15584,-0.93397c0.20222,-0.30401 0.51723,-0.50979 0.82617,-0.53962c0.30894,-0.0299 0.56484,0.12064 0.67115,0.39482c0.10636,0.27416 0.04689,0.63027 -0.15585,0.93397z"/>
    <path id="svg_691" fill="#800000" d="m1.98906,2.64646c0.19203,0.32635 0.23141,0.69908 0.10315,0.97755c-0.12819,0.27849 -0.40445,0.42039 -0.72454,0.37215c-0.3201,-0.04817 -0.63535,-0.2792 -0.82681,-0.60585c-0.19206,-0.32634 -0.23142,-0.69908 -0.10316,-0.97755c0.12819,-0.2785 0.40445,-0.4204 0.72454,-0.37216c0.3201,0.04818 0.63533,0.27922 0.82682,0.60586z"/>
    <path id="svg_690" fill="#740000" d="m3.59807,0.6644c0.25122,0.3893 0.34064,0.85643 0.23437,1.22515c-0.10619,0.36874 -0.39184,0.583 -0.74916,0.56193c-0.35732,-0.02098 -0.73199,-0.27415 -0.98262,-0.6639c-0.25125,-0.38929 -0.34065,-0.85644 -0.23438,-1.22515c0.1062,-0.36874 0.39184,-0.583 0.74916,-0.56193c0.35733,0.02098 0.73197,0.27417 0.98263,0.6639z"/>
    <path id="svg_689" fill="#7b0000" d="m1.00426,5.60289c-0.32903,0.00038 -0.6333,-0.13648 -0.79795,-0.35904c-0.16471,-0.22251 -0.16479,-0.49684 -0.00022,-0.719471c0.16452,-0.22267 0.46871,-0.35975 0.79774,-0.35957c0.32903,-0.0004 0.6333,0.13648 0.79795,0.35904c0.16471,0.22252 0.16479,0.49685 0.00022,0.71947c-0.16452,0.22267 -0.46871,0.35973 -0.79774,0.35957z"/>
    <path id="svg_688" fill="#800000" d="m3.68215,4.71665c-0.3274,0.26392 -0.72752,0.36907 -1.04942,0.27561c-0.32191,-0.09337 -0.51666,-0.37105 -0.51075,-0.72826c0.00583,-0.35722 0.21149,-0.73965 0.53928,-1.00299c0.32738,-0.26395 0.72752,-0.36906 1.04942,-0.27561c0.32192,0.09337 0.51666,0.37105 0.51075,0.72827c-0.00583,0.35721 -0.2115,0.73961 -0.53928,1.00298z"/>
    <path id="svg_687" fill="#800000" d="m5.30715,1.41758c-0.19604,0.29874 -0.48169,0.48704 -0.74922,0.49375c-0.26753,0.00678 -0.47624,-0.169 -0.54737,-0.46102c-0.0712,-0.29199 0.00604,-0.65583 0.20251,-0.9542c0.19602,-0.29876 0.48169,-0.48705 0.74922,-0.49375c0.26753,-0.00678 0.47624,0.169 0.54738,0.46101c0.07119,0.29199 -0.00607,0.65582 -0.20252,0.95421z"/>
    <path id="svg_686" fill="#800000" d="m5.50586,4.8383c-0.12457,0.33184 -0.35443,0.58212 -0.60292,0.65632c-0.24847,0.07426 -0.47775,-0.0388 -0.60133,-0.29651c-0.12363,-0.25768 -0.12273,-0.62086 0.00232,-0.95247c0.12455,-0.33185 0.35443,-0.58212 0.60292,-0.65631c0.24847,-0.07426 0.47775,0.03879 0.60133,0.29651c0.12363,0.25768 0.12271,0.62085 -0.00232,0.95246z"/>
    <path id="svg_685" fill="#800000" d="m4.86045,2.0766c0.26873,0.01801 0.51052,0.14914 0.63411,0.344c0.12363,0.19482 0.11029,0.42371 -0.03499,0.60028c-0.14524,0.17661 -0.40036,0.27404 -0.66905,0.25555c-0.26872,-0.01799 -0.51052,-0.14914 -0.63411,-0.34399c-0.12363,-0.19483 -0.11029,-0.42371 0.03499,-0.60029c0.14524,-0.17661 0.40036,-0.27401 0.66905,-0.25555z"/>
   </pattern>
   <pattern id="svg_511" patternUnits="userSpaceOnUse" patternTransform="translate(-80.0166 517.465)" width="5.73443" height="5.73733">
    <rect id="svg_680" fill="url(#svg_681)" x="0.067217" y="0.067217" width="5.6" height="5.60289" filter="url(#svg_682)"/>
   </pattern>
  </defs>
  <g id="svg_990">
   <g id="svg_982">
    <path id="svg_989" clip-rule="evenodd" fill="#aaffd4" fill-rule="evenodd" d="m158.159195,75.294167c-0.502991,1.355217 -1.410721,1.874031 -1.177872,3.411972c0.263382,1.739182 0.552841,3.072365 0.00145,4.842049c-1.139023,3.655815 -4.742355,5.207825 -7.719315,6.999229c-1.580429,0.950974 -2.755295,2.311867 -3.940765,3.69252c-1.273941,1.48365 -2.781784,2.844856 -3.776932,4.536163c-0.978668,1.663177 -1.602554,3.541336 -2.445587,5.274933c-0.970261,1.995224 -1.896286,3.957161 -2.497742,6.09819c-0.462494,1.646324 -0.641235,3.339073 -0.621399,5.044235c-0.507248,-1.871765 0.82933,-4.603279 1.280701,-6.387238c0.696808,-2.754684 1.393707,-5.509171 2.090607,-8.263847c-2.491302,3.813301 -4.98259,7.626625 -7.473892,11.439934c1.016479,-2.658104 3.031998,-4.679497 4.508789,-7.064583c1.574936,-2.543716 2.620697,-5.422913 4.021362,-8.068291c-1.908951,2.389221 -4.169571,4.339577 -6.498947,6.301918c0.014542,-0.482628 -0.238159,-0.976929 -0.040726,-1.404953c0.211151,-0.457596 0.844696,-0.706619 1.096558,-1.204239c0.851044,-1.680954 1.467239,-2.933273 2.713974,-4.429123c2.635971,-3.162331 5.357895,-5.93367 7.095062,-9.71048c0.861725,-1.873611 1.701752,-3.756531 2.701508,-5.56179c0.98616,-1.780548 2.215347,-3.213112 3.290604,-4.904411c0.882294,-1.387787 1.35527,-2.297501 2.741806,-3.211143c0.96933,-0.638779 3.24678,-0.371765 4.082336,0.401443c0.385223,0.356461 0.456985,1.076515 0.812393,1.36483c0.514633,0.417473 1.576385,0.086555 2.071487,0.601959c-0.720993,0.24437 -1.560699,0.170944 -2.31546,0.200722"/>
    <path id="svg_988" fill="#aaffd4" stroke="#000000" stroke-linecap="square" stroke-miterlimit="10" stroke-width="0.3806" d="m158.159195,75.294167c-0.502991,1.355217 -1.410721,1.874031 -1.177872,3.411972c0.263382,1.739182 0.552841,3.072365 0.00145,4.842049c-1.139023,3.655815 -4.742355,5.207825 -7.719315,6.999229c-1.580429,0.950974 -2.755295,2.311867 -3.940765,3.69252c-1.273941,1.48365 -2.781784,2.844856 -3.776932,4.536163c-0.978668,1.663177 -1.602554,3.541336 -2.445587,5.274933c-0.970261,1.995224 -1.896286,3.957161 -2.497742,6.09819c-0.462494,1.646324 -0.641235,3.339073 -0.621399,5.044235c-0.507248,-1.871765 0.82933,-4.603279 1.280701,-6.387238c0.696808,-2.754684 1.393707,-5.509171 2.090607,-8.263847c-2.491302,3.813301 -4.98259,7.626625 -7.473892,11.439934c1.016479,-2.658104 3.031998,-4.679497 4.508789,-7.064583c1.574936,-2.543716 2.620697,-5.422913 4.021362,-8.068291c-1.908951,2.389221 -4.169571,4.339577 -6.498947,6.301918c0.014542,-0.482628 -0.238159,-0.976929 -0.040726,-1.404953c0.211151,-0.457596 0.844696,-0.706619 1.096558,-1.204239c0.851044,-1.680954 1.467239,-2.933273 2.713974,-4.429123c2.635971,-3.162331 5.357895,-5.93367 7.095062,-9.71048c0.861725,-1.873611 1.701752,-3.756531 2.701508,-5.56179c0.98616,-1.780548 2.215347,-3.213112 3.290604,-4.904411c0.882294,-1.387787 1.35527,-2.297501 2.741806,-3.211143c1.007446,-0.663803 3.19931,-0.336197 4.082336,0.401443c0.084534,0.070633 0.17012,0.158844 0.243652,0.240852"/>
    <path id="svg_987" fill="#aaffd4" stroke="#000000" stroke-linecap="square" stroke-miterlimit="10" stroke-width="0.3806" d="m157.834335,73.367508c0.194931,0.321609 0.379089,1.131424 0.756714,1.184784c0.608307,0.086044 1.47876,0.11985 1.883514,0.541153c-0.720901,0.244263 -1.560608,0.170944 -2.315369,0.200623"/>
    <path id="svg_986" clip-rule="evenodd" fill="#aaffd4" fill-rule="evenodd" d="m153.528793,92.674797c-0.46373,-0.248085 -0.926834,-0.500923 -1.421738,-0.682304c0.144257,0.03743 0.423965,0.203613 0.528137,0.240845c0.04216,-0.016136 -0.081955,-0.082733 -0.040726,-0.080353c-0.041534,0.167526 -0.091904,0.384071 -0.121933,0.642288c-0.503922,-1.078789 -0.418655,-1.078484 -1.584076,-0.96328c-0.949585,0.093796 -1.215256,0.237228 -2.031189,0.762665c0.410355,-0.938774 1.129791,-1.134743 2.031189,-0.722641c-0.276581,-0.902374 -1.44635,-1.124603 -2.274643,-1.204132c0.989059,-0.466179 1.822861,0.614059 2.701096,0.903099c0.810944,0.267006 1.779434,0.255531 2.213882,1.103813"/>
    <path id="svg_985" fill="#aaffd4" stroke="#000000" stroke-linecap="square" stroke-miterlimit="10" stroke-width="0.3806" d="m153.528793,92.674797c-0.46373,-0.248085 -0.926834,-0.500923 -1.421738,-0.682304c0.144257,0.03743 0.423965,0.203613 0.528137,0.240845c0.04216,-0.016136 -0.081955,-0.082733 -0.040726,-0.080353c-0.041534,0.167526 -0.091904,0.384071 -0.121933,0.642288c-0.503922,-1.078789 -0.418655,-1.078484 -1.584076,-0.96328c-0.949585,0.093796 -1.215256,0.237228 -2.031189,0.762665c0.410355,-0.938774 1.129791,-1.134743 2.031189,-0.722641c-0.276581,-0.902374 -1.44635,-1.124603 -2.274643,-1.204132c0.989059,-0.466179 1.822861,0.614059 2.701096,0.903099c0.810944,0.267006 1.779434,0.255531 2.213882,1.103813"/>
    <path id="svg_984" clip-rule="evenodd" fill="#aaffd4" fill-rule="evenodd" d="m153.528793,90.667885c-0.468613,-0.250977 -0.943466,-0.490173 -1.421738,-0.722435c0.140213,0.034233 0.378159,0.21489 0.528137,0.280975c-0.273788,0.082001 -0.054733,0.068451 -0.162552,0.561829c-0.513474,-1.098953 -0.412323,-1.079514 -1.584076,-0.96328c-0.907211,0.089973 -1.259094,0.170219 -2.031189,0.722443c0.408585,-0.979828 1.151398,-1.022438 2.031189,-0.722443c-0.318222,-0.883858 -1.435455,-1.083649 -2.274643,-1.164101c0.9095,-0.506828 1.900742,0.531326 2.701096,0.883133c0.768982,0.338051 1.820679,0.231018 2.213776,1.123878"/>
    <path id="svg_983" fill="#aaffd4" stroke="#000000" stroke-linecap="square" stroke-miterlimit="10" stroke-width="0.3806" d="m153.528793,90.667885c-0.468613,-0.250977 -0.943466,-0.490173 -1.421738,-0.722435c0.140213,0.034233 0.378159,0.21489 0.528137,0.280975c-0.273788,0.082001 -0.054733,0.068451 -0.162552,0.561829c-0.513474,-1.098953 -0.412323,-1.079514 -1.584076,-0.96328c-0.907211,0.089973 -1.259094,0.170219 -2.031189,0.722443c0.408585,-0.979828 1.151398,-1.022438 2.031189,-0.722443c-0.318222,-0.883858 -1.435455,-1.083649 -2.274643,-1.164101c0.9095,-0.506828 1.900742,0.531326 2.701096,0.883133c0.768982,0.338051 1.820679,0.231018 2.213776,1.123878"/>
   </g>
  </g>
  <metadata id="svg_679">image/svg+xml</metadata>
  <metadata transform="matrix(0.2672028850578294,-0.37900329001444355,-0.46790611361595547,-0.32988068121945635,479.6293951964985,325.2197648275393) " fill="#7f0000" id="svg_1006">image/svg+xml</metadata>
  <g id="svg_1007">
   <g id="svg_1008">
    <path id="svg_1009" fill="#7f0000" fill-rule="nonzero" stroke-width="1px" d="m146.407791,101.467354c-0.166428,1.154594 -0.394775,2.278801 -0.394547,3.457947c0.076843,2.573715 0.533066,5.026825 1.346359,7.450096c0.922424,2.773033 2.818207,4.76046 5.108078,6.435974c2.593491,1.47094 5.395752,1.542831 8.288818,1.05442c3.192795,-0.829994 6.114075,-2.395309 8.556992,-4.635582c2.609894,-2.546715 4.195557,-5.763138 5.409836,-9.141701c1.021927,-3.192734 1.032074,-6.425644 0.099228,-9.580559c-1.232819,-3.181763 -3.897156,-4.440865 -7.016617,-5.1763c-3.954727,-0.517876 -7.955872,0.066902 -11.915482,0.408401c-4.130859,0.528671 -8.246384,0.322327 -12.320862,-0.314552c-2.262848,-0.829971 -5.122223,-1.161842 -6.863937,-2.804146c-0.147354,-0.138962 -0.34729,0.075073 -0.199707,0.213699l0,0c2.165405,2.032951 3.455353,3.971542 6.840012,4.048943c4.173019,0.49012 8.383087,0.21447 12.586212,0.240829c3.786499,-0.054184 7.612518,-0.192238 11.354874,0.386841c2.417938,0.502167 4.480087,1.435921 5.707779,3.702896c1.232986,2.729187 1.324112,5.564491 0.558807,8.504509c-0.969147,3.264023 -2.551041,6.252373 -4.977448,8.69194c-2.343262,2.14769 -4.703278,4.117233 -7.936035,4.593376c-2.629181,0.375069 -5.234024,0.263229 -7.550415,-1.120583c-2.256271,-1.368233 -3.82338,-3.348663 -4.769745,-5.840691c-0.718842,-2.299812 -1.127167,-4.723419 -1.108185,-7.151161c-0.015076,-1.018997 -0.271454,-2.179298 0.140625,-3.136139c0.281906,-0.653809 -0.844147,-0.991226 -0.944641,-0.28846z"/>
    <path id="svg_1010" fill="#7f0000" fill-rule="nonzero" stroke-width="1px" d="m207.848358,108.694313c0.999649,-0.541092 1.824142,-1.303467 2.644211,-2.0839c1.628113,-1.679604 2.88147,-3.648705 3.891418,-5.745819c0.800095,-2.182198 0.568268,-4.351601 0.091431,-6.53891c-0.687347,-2.114769 -1.928009,-3.462196 -4.091171,-3.963852c-2.443115,-0.362083 -4.735107,0.773315 -6.952454,1.705536c-2.654373,1.207588 -5.244583,2.550362 -7.855225,3.852425c-2.875763,1.591217 -5.937469,2.673721 -9.05365,3.628151c-3.659546,1.032799 -7.424042,1.288879 -11.179169,1.114151c-3.590393,-0.077843 -6.923233,-1.195992 -10.113785,-2.710831c-2.465225,-1.040558 -4.181763,-2.909874 -5.657684,-5.078789c-0.114502,-0.168159 -0.353104,-0.000175 -0.238525,0.167793l0,0c1.501724,2.201881 3.347748,4.061531 5.577713,5.533226c3.226349,1.731979 6.710297,2.587105 10.398071,2.73214c3.827698,0.096115 7.682571,0.084129 11.444412,-0.864037c3.211517,-0.821815 6.356415,-1.931847 9.379318,-3.32814c2.589722,-1.23764 5.166977,-2.530678 7.864471,-3.503685c1.880432,-0.67347 3.80278,-1.295082 5.809174,-1.072044c1.345078,0.381607 2.450089,1.002831 3.04245,2.35466c0.823563,1.761604 0.868256,3.69886 0.435913,5.609962c-0.452759,2.221878 -1.44957,4.161163 -3.15744,5.703354c-0.80574,0.711388 -1.64801,1.40152 -2.593857,1.914986c-0.41037,0.223755 -0.097458,0.795853 0.314377,0.573624l0,0z"/>
    <path id="svg_1011" fill="#7f0000" fill-rule="nonzero" stroke-width="1px" d="m178.923523,95.687653c0.592392,0.001762 1.127167,-0.40535 1.633286,-0.709167c1.4366,-0.833809 3.014389,-1.297249 4.61734,-1.63974c2.223129,-0.439377 4.442993,-0.338165 6.66153,-0.089066c2.099457,0.379822 4.055588,1.296951 5.748199,2.570442c1.047394,1.030045 2.079239,2.109993 1.935013,3.668045c-0.019211,0.204674 0.270004,0.225937 0.287338,0.020447l0,0c0.178207,-2.020363 0.616241,-3.734283 -1.407639,-4.948456c-2.005203,-1.122345 -4.218323,-1.490616 -6.481415,-1.819221c-2.259384,-0.382607 -4.56456,-0.442749 -6.8526,-0.130562c-1.699783,0.225868 -3.389404,0.527794 -5.050842,0.977615c-0.541275,0.141495 -1.230042,0.265938 -1.59082,0.683746c-0.702698,0.815819 -0.560272,1.414032 0.50061,1.415916z"/>
    <path id="svg_1012" fill="#7f0000" fill-rule="nonzero" stroke-width="1px" d="m149.149124,93.250473c0.647995,0.23613 1.412552,-0.020264 2.112228,-0.083649c1.86232,-0.077209 3.610962,0.347923 5.355865,0.913963c1.894623,0.854706 3.550659,2.061829 4.835876,3.693954c1.079758,1.352982 1.729752,2.977936 1.959747,4.701118c0.200562,1.810158 -0.608475,3.222176 -1.787872,4.533188c-0.842865,0.882378 -1.844788,1.40583 -2.934601,1.890381c-0.18866,0.083191 -0.076416,0.348473 0.112259,0.265274l0,0c1.117569,-0.49955 2.272171,-0.936905 3.300522,-1.619614c1.789246,-1.354805 3.115662,-2.975266 3.063721,-5.333771c-0.271149,-2.134491 -1.106598,-3.976616 -2.586075,-5.535011c-1.684708,-1.476097 -3.557251,-2.626656 -5.758011,-3.175873c-1.783752,-0.629257 -3.635483,-1.196953 -5.524811,-1.398094c-0.743683,-0.08287 -1.602356,-0.277641 -2.233261,0.157928c-0.58403,0.400452 -0.569244,0.751831 0.084412,0.990204z"/>
    <path id="svg_1013" fill="#7f0000" fill-rule="nonzero" stroke-width="1px" d="m164.425125,92.515366c0.618652,-0.181641 1.253738,-0.108177 1.884171,-0.073334c1.659195,0.110039 3.325455,0.022133 4.986374,-0.10688c2.399261,-0.174164 4.775665,-0.576874 7.137543,-1.052963c2.12854,-0.653114 4.257278,-0.819321 6.44783,-0.923668c2.24118,0.070908 3.773239,-0.71389 4.413757,-2.937683c0.192963,-1.254883 -0.451599,-2.177795 -0.96785,-3.237465c-0.010162,-0.194313 -0.020477,-0.388474 -0.030762,-0.582619c-0.010269,-0.204651 -0.044174,-0.243584 -0.234238,-0.16539l0,0c-0.207184,0.085159 -0.414413,0.170303 -0.621613,0.255463c-1.200684,0.540909 -1.927536,1.65538 -2.11615,2.970207c0.480469,0.811218 -0.302383,1.462318 -0.945145,2.088684c-1.84491,1.28775 -3.78299,1.935112 -5.997467,2.247307c-2.350372,0.473671 -4.713959,0.875648 -7.102509,1.048584c-1.648148,0.12825 -3.30188,0.215721 -4.948975,0.105965c-0.620895,-0.034401 -1.264465,-0.008873 -1.850403,-0.22506c-0.385574,-0.142059 -0.455658,0.705421 -0.054565,0.588852z"/>
    <path id="svg_1014" fill="#7f0000" fill-rule="nonzero" stroke-width="1px" d="m168.165604,114.80899c-0.245911,0.421875 -0.480957,0.856178 -0.737778,1.276123c-0.886902,1.23362 -2.100266,2.189232 -3.289505,3.110512c-2.585495,1.684044 -5.471527,2.757385 -8.363159,3.737823c-3.994385,1.288528 -8.135117,1.953026 -12.296494,1.742165c-2.992874,-0.093788 -4.360352,-2.955864 -6.783249,-3.917221c-0.138901,-0.380531 -0.279495,-0.762245 -0.418518,-1.142609c-0.07077,-0.191925 -0.34201,-0.085533 -0.270813,0.105705l0,0c0.147217,0.396652 0.294281,0.793449 0.441483,1.190102c0.106552,3.599777 3.958176,4.229088 7.013321,4.123253c4.198456,0.057381 8.37323,-0.488419 12.4021,-1.825775c2.915359,-0.989777 5.824173,-2.0746 8.432175,-3.773094c1.369675,-0.798073 2.684738,-1.6717 3.829742,-2.784256c0.384247,-0.395485 0.793411,-0.81575 0.966141,-1.342606c0.23555,-0.720284 -0.542175,-1.155098 -0.925446,-0.500122z"/>
    <path id="svg_1015" fill="#7f0000" fill-rule="nonzero" stroke-width="1px" d="m154.886002,89.553047c0.729431,-0.105537 1.460419,-0.241295 2.180054,-0.419891c1.880615,-0.548576 3.796707,-0.813339 5.721207,-1.131805c2.281326,-0.10775 4.525528,-0.719658 6.759445,-1.212547c2.682251,-0.697411 4.147141,-1.964485 5.243515,-4.51123c0.449905,-0.151054 0.899826,-0.302086 1.351364,-0.451973c0.195175,-0.064575 0.108093,-0.341171 -0.085571,-0.275276l0,0c-0.455887,0.15258 -0.913437,0.304001 -1.369476,0.456734c-2.609879,-1.04409 -4.485016,-0.739922 -6.835526,0.88559c-1.78096,1.350113 -3.66803,2.513176 -5.481216,3.811523c-1.708206,0.937187 -3.417999,1.83493 -5.350555,2.143959c-0.697205,0.087669 -1.379349,0.17495 -2.057877,-0.024841c-0.491364,-0.145004 -0.585876,0.803246 -0.075363,0.729759z"/>
    <path id="svg_1016" fill="#7f0000" fill-rule="nonzero" stroke-width="1px" d="m213.947021,97.24514c-0.063965,0.497803 -0.095673,1.005554 -0.161514,1.506035c-0.015564,1.239899 -0.216064,2.470673 -0.445236,3.690018c-0.191208,1.231552 -0.511215,2.44397 -0.598511,3.688156c-0.096603,1.034714 0.129944,1.927727 0.795975,2.698418c1.319946,0.726906 2.454315,-0.624611 3.338104,-1.498924c1.255737,-1.137436 2.202515,-2.536034 3.09845,-3.959953c0.632248,-0.987259 1.060059,-1.99765 0.923981,-3.168602c-0.45752,-1.390038 -1.68573,-0.921402 -2.524155,-0.153152c-0.175888,0.117264 -0.353409,0.23336 -0.529312,0.350601c-0.171295,0.11422 -0.015671,0.356232 0.155869,0.241669l0,0c0.166962,-0.111526 0.333908,-0.223053 0.500839,-0.334595c0.538162,-0.084808 0.999664,-0.165306 1.435577,0.155807c0.303421,0.923149 0.155106,1.825951 -0.272064,2.734581c-0.746506,1.4729 -1.779327,2.777771 -2.97403,3.915649c-0.764252,0.576027 -1.521667,1.180679 -2.504044,1.022202c-0.529221,-0.543709 -0.743927,-1.182098 -0.757462,-1.984055c0.032272,-1.218353 0.177536,-2.429962 0.421646,-3.628731c0.192505,-1.226395 0.391113,-2.458 0.720825,-3.659813c0.100006,-0.54203 0.281631,-1.0849 0.23967,-1.637817c-0.046143,-0.613014 -0.784271,-0.589012 -0.864609,0.022507z"/>
   </g>
  </g>
  <g id="svg_981">
   <g id="svg_973">
    <path id="svg_980" clip-rule="evenodd" fill="#aaffd4" fill-rule="evenodd" d="m175.890137,72.287476c0.649307,1.652168 1.821075,2.284668 1.520493,4.159607c-0.340012,2.120277 -0.713654,3.745583 -0.001892,5.903053c1.470352,4.456886 6.121765,6.348969 9.964615,8.532906c2.040131,1.159355 3.556732,2.818459 5.087006,4.50164c1.644501,1.808746 3.590927,3.468231 4.875549,5.530128c1.263336,2.027611 2.068695,4.317322 3.156937,6.430786c1.252472,2.432426 2.447845,4.824257 3.224243,7.434441c0.597015,2.007065 0.827744,4.070732 0.802139,6.149529c0.654663,-2.281898 -1.070541,-5.611954 -1.653214,-7.786819c-0.899475,-3.358292 -1.799088,-6.716339 -2.6987,-10.074631c3.215942,4.648888 6.43187,9.297783 9.647797,13.946671c-1.312134,-3.240547 -3.913895,-5.704865 -5.820236,-8.612579c-2.033035,-3.101112 -3.38298,-6.611198 -5.19104,-9.836235c2.464203,2.912758 5.38237,5.290466 8.389282,7.6828c-0.018768,-0.588371 0.307419,-1.190994 0.052551,-1.712807c-0.272568,-0.557861 -1.090393,-0.861443 -1.415512,-1.468102c-1.098557,-2.049294 -1.893997,-3.576019 -3.50351,-5.399651c-3.402557,-3.855263 -6.916214,-7.233864 -9.158661,-11.838249c-1.112381,-2.284164 -2.196747,-4.579681 -3.487289,-6.78051c-1.272995,-2.1707 -2.859711,-3.917175 -4.247742,-5.979073c-1.138916,-1.691879 -1.749481,-2.800934 -3.539307,-3.91478c-1.251266,-0.77874 -4.191147,-0.453224 -5.269745,0.48941c-0.497269,0.43457 -0.589905,1.312408 -1.048691,1.663895c-0.664322,0.508949 -2.034912,0.105522 -2.674026,0.733864c0.93071,0.297905 2.014664,0.208397 2.988953,0.244705"/>
    <path id="svg_979" fill="#aaffd4" stroke="#000000" stroke-linecap="square" stroke-miterlimit="10" stroke-width="0.3806" d="m175.890137,72.287476c0.649307,1.652168 1.821075,2.284668 1.520493,4.159607c-0.340012,2.120277 -0.713654,3.745583 -0.001892,5.903053c1.470352,4.456886 6.121765,6.348969 9.964615,8.532906c2.040131,1.159355 3.556732,2.818459 5.087006,4.50164c1.644501,1.808746 3.590927,3.468231 4.875549,5.530128c1.263336,2.027611 2.068695,4.317322 3.156937,6.430786c1.252472,2.432426 2.447845,4.824257 3.224243,7.434441c0.597015,2.007065 0.827744,4.070732 0.802139,6.149529c0.654663,-2.281898 -1.070541,-5.611954 -1.653214,-7.786819c-0.899475,-3.358292 -1.799088,-6.716339 -2.6987,-10.074631c3.215942,4.648888 6.43187,9.297783 9.647797,13.946671c-1.312134,-3.240547 -3.913895,-5.704865 -5.820236,-8.612579c-2.033035,-3.101112 -3.38298,-6.611198 -5.19104,-9.836235c2.464203,2.912758 5.38237,5.290466 8.389282,7.6828c-0.018768,-0.588371 0.307419,-1.190994 0.052551,-1.712807c-0.272568,-0.557861 -1.090393,-0.861443 -1.415512,-1.468102c-1.098557,-2.049294 -1.893997,-3.576019 -3.50351,-5.399651c-3.402557,-3.855263 -6.916214,-7.233864 -9.158661,-11.838249c-1.112381,-2.284164 -2.196747,-4.579681 -3.487289,-6.78051c-1.272995,-2.1707 -2.859711,-3.917175 -4.247742,-5.979073c-1.138916,-1.691879 -1.749481,-2.800934 -3.539307,-3.91478c-1.300476,-0.80925 -4.129883,-0.409859 -5.269745,0.48941c-0.109131,0.086105 -0.219604,0.193649 -0.314529,0.293625"/>
    <path id="svg_978" fill="#aaffd4" stroke="#000000" stroke-linecap="square" stroke-miterlimit="10" stroke-width="0.3806" d="m176.309509,69.938637c-0.251648,0.392082 -0.489365,1.379349 -0.976837,1.444397c-0.785248,0.104897 -1.90889,0.146118 -2.431351,0.659737c0.930573,0.297783 2.014526,0.208397 2.988815,0.244576"/>
    <path id="svg_977" clip-rule="evenodd" fill="#aaffd4" fill-rule="evenodd" d="m181.867371,93.476585c0.598618,-0.302444 1.196442,-0.610687 1.835281,-0.831818c-0.186218,0.045639 -0.547272,0.24823 -0.681747,0.293617c-0.054428,-0.019661 0.105789,-0.100853 0.052551,-0.097954c0.053635,0.204231 0.118652,0.468231 0.15741,0.783028c0.650497,-1.315178 0.540436,-1.314796 2.04483,-1.174355c1.2258,0.114342 1.568741,0.289207 2.621994,0.929779c-0.529709,-1.144478 -1.458405,-1.383385 -2.621994,-0.880989c0.357025,-1.100105 1.86705,-1.371033 2.936264,-1.467979c-1.276749,-0.568329 -2.353058,0.748611 -3.486755,1.100983c-1.046814,0.325516 -2.297012,0.311523 -2.857834,1.345688"/>
    <path id="svg_976" fill="#aaffd4" stroke="#000000" stroke-linecap="square" stroke-miterlimit="10" stroke-width="0.3806" d="m181.867371,93.476585c0.598618,-0.302444 1.196442,-0.610687 1.835281,-0.831818c-0.186218,0.045639 -0.547272,0.24823 -0.681747,0.293617c-0.054428,-0.019661 0.105789,-0.100853 0.052551,-0.097954c0.053635,0.204231 0.118652,0.468231 0.15741,0.783028c0.650497,-1.315178 0.540436,-1.314796 2.04483,-1.174355c1.2258,0.114342 1.568741,0.289207 2.621994,0.929779c-0.529709,-1.144478 -1.458405,-1.383385 -2.621994,-0.880989c0.357025,-1.100105 1.86705,-1.371033 2.936264,-1.467979c-1.276749,-0.568329 -2.353058,0.748611 -3.486755,1.100983c-1.046814,0.325516 -2.297012,0.311523 -2.857834,1.345688"/>
    <path id="svg_975" clip-rule="evenodd" fill="#aaffd4" fill-rule="evenodd" d="m181.867371,91.029915c0.604919,-0.305977 1.217896,-0.59758 1.835281,-0.880737c-0.181,0.041733 -0.488144,0.261978 -0.681747,0.342537c0.353409,0.099976 0.070663,0.083458 0.209824,0.684944c0.662842,-1.33976 0.532257,-1.316055 2.04483,-1.174355c1.171097,0.10968 1.62532,0.207512 2.622009,0.880737c-0.527435,-1.194527 -1.486298,-1.246468 -2.622009,-0.880737c0.410797,-1.077538 1.852982,-1.321106 2.936264,-1.419189c-1.174057,-0.617874 -2.453613,0.647758 -3.486755,1.076653c-0.992645,0.412132 -2.35025,0.281647 -2.857697,1.370148"/>
    <path id="svg_974" fill="#aaffd4" stroke="#000000" stroke-linecap="square" stroke-miterlimit="10" stroke-width="0.3806" d="m181.867371,91.029915c0.604919,-0.305977 1.217896,-0.59758 1.835281,-0.880737c-0.181,0.041733 -0.488144,0.261978 -0.681747,0.342537c0.353409,0.099976 0.070663,0.083458 0.209824,0.684944c0.662842,-1.33976 0.532257,-1.316055 2.04483,-1.174355c1.171097,0.10968 1.62532,0.207512 2.622009,0.880737c-0.527435,-1.194527 -1.486298,-1.246468 -2.622009,-0.880737c0.410797,-1.077538 1.852982,-1.321106 2.936264,-1.419189c-1.174057,-0.617874 -2.453613,0.647758 -3.486755,1.076653c-0.992645,0.412132 -2.35025,0.281647 -2.857697,1.370148"/>
   </g>
  </g>
  <g id="svg_9" transform="rotate(138.31300354003906 183.01014709472656,107.45166778564452) matrix(0.257528,0,0,0.223869,18.9398,19.1052) " opacity="0.5">
   <g id="svg_11">
    <path id="svg_12" fill="#ff0000" stroke="#000000" stroke-miterlimit="4" stroke-width="0" d="m627.813416,376.543945c-5.663696,0 -10.260193,4.596558 -10.260193,10.260223c0,11.521881 11.622559,14.542847 19.542542,25.933594c7.487427,-11.320923 19.542358,-14.77951 19.542358,-25.933594c0,-5.663666 -4.596619,-10.260223 -10.260254,-10.260223c-4.108398,0 -7.64386,2.425781 -9.282104,5.915619c-1.638184,-3.489838 -5.174255,-5.915619 -9.282349,-5.915619z"/>
   </g>
  </g>
  <g id="svg_13" opacity="0.5">
   <g id="svg_15">
    <path id="svg_16" fill="#ff0000" stroke="#000000" stroke-miterlimit="4" stroke-width="0" d="m163.731186,61.344925c-1.119263,0 -2.027664,0.864281 -2.027664,1.929199c0,2.166489 2.296829,2.734482 3.862,4.876213c1.479858,-2.128555 3.862183,-2.778854 3.862183,-4.876213c0,-1.064919 -0.908386,-1.929199 -2.027664,-1.929199c-0.81189,0 -1.510757,0.456253 -1.834518,1.112343c-0.323746,-0.65609 -1.02243,-1.112343 -1.834335,-1.112343z"/>
   </g>
  </g>
  <text xml:space="preserve" text-anchor="middle" font-family="serif" font-size="24" id="svg_1" y="146" x="236" stroke-width="0" stroke="#000000" fill="#000000"/>
 </g>
</svg>