<?xml version="1.0" encoding="UTF-8" standalone="no"?>
<!-- Created with Inkscape (http://www.inkscape.org/) -->
<svg
   xmlns:svg="http://www.w3.org/2000/svg"
   xmlns="http://www.w3.org/2000/svg"
   version="1.0"
   width="2000"
   height="1650"
   id="svg2">
  <defs
     id="defs5" />
  <path
     d="M 846.62556,1644.207 C 844.39798,1642.7913 840.49486,1632.3229 831.88807,1604.6802 C 827.17215,1589.534 822.96697,1576.7632 822.54325,1576.3008 C 822.11951,1575.8383 821.46942,1576.8413 821.09859,1578.5297 C 820.04513,1583.326 817.08243,1582.516 809.67432,1575.4065 C 776.22087,1543.3012 735.04386,1476.0488 708.83958,1410.7182 C 674.19086,1324.3345 636.04595,1257.0314 577.4613,1178.9141 C 565.59137,1163.0866 559.18889,1155.4454 521.84918,1112.5428 C 416.06872,991.00307 365.207,927.23113 317.22055,855.9733 C 281.43729,802.83669 261.80998,765.89866 243.74,717.6851 C 220.2037,654.88648 208.18193,592.42035 208.1078,532.53723 C 208.03317,472.249 219.34976,422.06107 244.17627,372.57732 C 256.64233,347.7302 270.1052,329.27356 289.7701,310.07143 C 309.29459,291.00637 325.4199,279.47306 348.55334,268.02787 C 383.97187,250.50466 418.22998,243.04935 462.96947,243.12844 C 522.07318,243.23292 587.04529,260.9763 655.64424,295.74642 C 704.6205,320.57056 740.12353,344.93802 772.31134,375.82075 C 811.73998,413.65071 841.26326,454.25097 865.30358,503.70313 C 869.65021,512.64438 873.56664,519.54461 874.01851,519.05767 C 874.46987,518.57127 879.2996,507.47465 884.75125,494.39852 C 918.85107,412.60787 946.48393,364.34501 981.28709,325.79143 C 1010.6041,293.31528 1047.8817,264.60767 1094.539,238.57582 C 1099.4712,235.82401 1107.7181,230.59131 1112.8654,226.94758 C 1194.9286,168.85704 1294.8297,153.42276 1429.8106,177.98097 C 1557.3414,201.18374 1633.539,256.9365 1654.4858,342.3727 C 1656.1509,349.16464 1658.426,358.5108 1659.5413,363.14192 C 1660.6566,367.77305 1663.3422,377.46716 1665.5092,384.68438 C 1670.0901,399.94114 1674.5753,421.42659 1677.1422,440.40996 C 1679.9757,461.36562 1679.709,512.7643 1676.6386,537.44672 C 1664.7766,632.80515 1639.9297,713.67906 1594.7031,804.13753 C 1550.0644,893.42033 1473.9574,1001.8312 1390.7598,1094.645 C 1347.6194,1142.7718 1273.1386,1217.6654 1215.297,1271.0804 C 1191.7144,1292.8581 1147.0677,1332.9222 1132.5655,1345.3202 C 1130.0051,1347.509 1120.3901,1355.7842 1111.1987,1363.7094 C 1094.1308,1378.426 1062.7591,1404.9233 1049.4141,1415.8941 C 1026.9932,1434.3262 1016.7185,1442.6917 1002.8551,1453.8015 C 994.41009,1460.5692 983.26566,1469.5076 978.08969,1473.6647 C 966.73174,1482.7867 924.987,1514.1283 911.22313,1523.8676 C 898.07215,1533.1731 884.70051,1541.2335 873.15084,1546.8173 C 865.05612,1550.7307 862.82682,1551.3856 857.60018,1551.3856 C 852.99047,1551.3856 850.9891,1550.9243 849.41364,1549.4985 C 846.82005,1547.1513 846.80515,1546.3949 849.75945,1567.066 C 851.09651,1576.4214 852.6552,1589.2024 853.22321,1595.468 C 854.48486,1609.3853 854.53951,1634.191 853.32011,1639.4477 C 852.17945,1644.3649 849.67527,1646.1451 846.62556,1644.207 z M 284.06528,1616.868 C 283.7443,1616.0315 284.24163,1609.8714 285.17044,1603.1787 C 287.35152,1587.4627 287.37677,1565.3307 285.22839,1552.3786 C 280.9029,1526.3012 267.24927,1498.7251 248.91303,1479.0328 C 213.77589,1441.2972 196.39644,1422.0235 191.97537,1415.8891 C 160.44915,1372.1458 156.4574,1314.3966 182.25403,1275.2494 C 188.22422,1266.1894 202.77289,1251.6354 211.95253,1245.5399 C 243.45476,1224.6218 285.22482,1221.1649 320.96391,1236.5183 C 342.23264,1245.6552 361.32684,1263.1306 369.46557,1280.9079 C 370.89078,1284.021 372.37595,1286.195 372.76591,1285.739 C 373.15588,1285.283 376.10122,1280.898 379.31111,1275.9944 C 394.49045,1252.8059 415.83608,1236.9031 440.68904,1230.267 C 449.52888,1227.9066 452.38671,1227.6202 467.42724,1227.5866 C 482.55276,1227.5527 485.37681,1227.8255 495.15891,1230.265 C 530.17346,1238.9971 562.67974,1267.8077 572.81826,1299.0951 C 578.98998,1318.1409 578.47985,1344.0061 571.44538,1368.7046 C 558.12714,1415.4657 519.50593,1464.8306 458.14937,1513.5178 C 417.95168,1545.4151 368.82026,1576.3734 313.88179,1604.4225 C 286.27909,1618.5152 284.91572,1619.0842 284.06528,1616.868 z M 1390.6627,1507.2732 C 1390.2884,1506.6675 1390.2822,1504.1701 1390.6491,1501.7234 C 1391.8708,1493.5769 1391.3507,1477.0568 1389.6681,1470.5636 C 1385.9027,1456.0325 1380.5858,1447.888 1361.3674,1427.2128 C 1346.9245,1411.6751 1343.6121,1407.2767 1338.9963,1397.5065 C 1321.1369,1359.7043 1343.1615,1319.5644 1382.9795,1317.3466 C 1397.9263,1316.5141 1409.1255,1319.6729 1420.1803,1327.8397 C 1425.4194,1331.71 1430.2982,1337.0924 1432.6739,1341.6227 C 1433.3167,1342.8486 1434.1613,1343.8508 1434.5509,1343.8498 C 1434.9403,1343.8488 1436.5148,1341.8602 1438.0497,1339.4306 C 1444.3126,1329.5172 1457.4884,1320.473 1469.2134,1318.0388 C 1477.3149,1316.3569 1492.3473,1317.3298 1499.2981,1319.986 C 1511.327,1324.5826 1523.9267,1335.0214 1529.2491,1344.8004 C 1534.4851,1354.4207 1535.9374,1366.5638 1533.4201,1379.6742 C 1525.7773,1419.4781 1484.7366,1459.6363 1412.1906,1498.2973 C 1394.1776,1507.8968 1391.6893,1508.9342 1390.6627,1507.2732 z M 1732.5737,1280.6625 C 1732.3084,1280.2333 1732.7247,1275.664 1733.4988,1270.5087 C 1735.3448,1258.2141 1735.327,1233.5135 1733.4644,1222.8329 C 1730.6994,1206.9767 1725.3662,1192.7284 1717.0257,1178.9141 C 1710.9529,1168.8556 1700.3437,1156.4401 1667.4654,1120.9151 C 1652.8764,1105.1516 1647.8148,1098.2553 1641.3259,1085.3009 C 1631.0465,1064.779 1627.3545,1048.2796 1628.1699,1026.508 C 1629.1543,1000.2214 1637.2907,981.19092 1655.2471,963.17623 C 1668.9524,949.42649 1683.6696,941.54609 1703.2205,937.48879 C 1717.1759,934.59271 1740.6723,935.34775 1753.2466,939.09634 C 1779.003,946.77472 1798.6154,961.92237 1807.7769,981.21285 C 1809.3485,984.52222 1810.8799,987.22989 1811.1799,987.22989 C 1811.4799,987.22989 1813.1294,984.88256 1814.8454,982.0136 C 1819.3784,974.43494 1829.126,962.6583 1835.1738,957.45382 C 1845.8043,948.30559 1854.1969,943.56485 1867.6628,939.10173 C 1875.7338,936.42665 1876.884,936.31044 1895.4,936.29926 C 1913.5056,936.28835 1915.2451,936.45154 1923.1372,938.90153 C 1958.7871,949.96843 1985.2029,976.32044 1990.002,1005.605 C 1993.0892,1024.443 1991.1635,1051.1035 1985.4842,1068.1505 C 1979.5242,1086.0406 1966.5184,1108.7345 1951.2435,1127.8973 C 1942.5711,1138.7772 1916.8772,1164.5065 1902.3913,1176.8171 C 1864.9401,1208.644 1815.9458,1240.2998 1757.563,1270.3922 C 1736.9651,1281.009 1733.6339,1282.378 1732.5737,1280.6625 z M 75.099153,1193.2065 C 74.738107,1192.6223 74.993866,1187.6449 75.667508,1182.1458 C 77.676197,1165.7483 75.563086,1151.0828 69.182011,1137.1351 C 64.443368,1126.7775 61.297295,1122.6387 42.749632,1102.3617 C 19.026898,1076.4274 14.357217,1068.9885 11.727135,1052.9423 C 8.8691679,1035.5058 10.613846,1015.7107 15.885485,1005.7617 C 20.149962,997.71357 32.140866,986.3906 40.967121,982.07721 C 51.635704,976.86347 59.411736,975.11036 71.676212,975.15385 C 79.491055,975.18156 83.802093,975.7266 89.011989,977.34559 C 104.4374,982.13908 116.71417,991.07407 123.00177,1002.0833 L 125.82322,1007.0234 L 130.61637,1000.0084 C 138.5578,988.3857 151.53953,979.36832 164.74264,976.30353 C 172.22792,974.566 187.81653,974.78142 195.41224,976.72735 C 215.3004,981.82246 234.88582,1000.4056 239.51947,1018.5772 C 246.41073,1045.6027 232.13915,1080.5782 201.98579,1110.5616 C 172.44658,1139.9342 140.73267,1161.8945 92.011341,1186.7133 C 83.853888,1190.8687 76.859206,1194.2686 76.467605,1194.2686 C 76.076003,1194.2686 75.4602,1193.7906 75.099153,1193.2065 z M 706.11215,183.0975 C 706.14481,165.75337 706.10323,165.40476 703.05664,157.48256 C 697.96888,144.2526 692.73343,137.29622 668.00018,110.90284 C 659.6744,102.01822 652.3798,89.055668 649.69782,78.379404 C 647.82644,70.929998 647.80416,56.195621 649.65375,49.246445 C 653.14781,36.118751 663.24197,23.21232 674.86416,17.012323 C 687.86502,10.076855 715.28134,9.7059411 728.18891,16.290895 C 734.77839,19.652593 742.17922,26.14629 746.0287,31.944012 L 749.71248,37.492187 L 751.71384,34.656364 C 755.71803,28.982666 765.51957,19.344888 769.89062,16.783282 C 777.78815,12.155019 795.92875,10.193611 809.13006,12.540612 C 818.18339,14.15016 828.35058,19.52572 834.82348,26.12513 C 846.43025,37.958784 849.58363,45.426649 849.55144,61.004101 C 849.50959,81.249771 841.47207,99.539411 822.9961,121.43166 C 814.81775,131.12222 794.35952,149.0765 778.88839,160.1409 C 758.12826,174.9878 713.40653,200.584 708.10357,200.65414 C 706.1384,200.68015 706.07999,200.16529 706.11215,183.0975 z "
     style="fill:#fed0d0"
     id="path3760" />
  <path
     d="M 846.10669,1640.2934 C 843.67921,1635.7736 841.62499,1629.7263 828.93751,1589.7496 C 825.74285,1579.6835 822.73029,1571.8026 822.15097,1571.9957 C 821.578,1572.1867 820.74142,1574.2028 820.2919,1576.4758 C 819.78654,1579.0312 818.93079,1580.6088 818.04993,1580.6088 C 815.91313,1580.6088 802.85404,1567.8041 793.59609,1556.6313 C 771.88945,1530.4351 748.44434,1492.8609 728.51169,1452.324 C 719.4244,1433.8433 717.85247,1430.2501 705.10947,1398.8308 C 682.20997,1342.3693 654.90325,1290.7212 619.80845,1237.4918 C 588.26068,1189.6423 568.74238,1163.9025 531.87705,1121.532 C 486.62991,1069.5281 442.81715,1018.296 428.79322,1000.9918 C 405.07657,971.72763 376.70565,935.91673 367.27035,923.33517 C 335.34359,880.76222 305.86091,837.38149 287.13977,805.43125 C 230.06791,708.03012 200.78205,584.8265 211.91127,488.95013 C 217.18803,443.49177 230.8702,399.258 250.67241,363.63723 C 282.54807,306.29843 338.06639,265.06595 402.62423,250.78529 C 440.56584,242.39232 485.86436,242.87586 530.45962,252.14986 C 597.48653,266.08874 678.18623,303.30634 735.98113,346.93359 C 789.92447,387.65344 835.6326,444.48502 865.66062,508.17164 C 869.41028,516.12433 872.99309,522.63107 873.62241,522.63107 C 874.25173,522.63107 877.57892,515.83297 881.01616,507.52418 C 899.44445,462.97779 919.24804,420.85613 933.52837,395.83225 C 965.82016,339.24632 1004.6121,298.01146 1059.8156,261.59207 C 1067.4433,256.55981 1079.7022,248.98118 1087.0575,244.75065 C 1094.4128,240.52013 1106.003,233.15574 1112.8135,228.38534 C 1159.7087,195.53767 1205.5138,178.15137 1265.8636,170.29203 C 1283.3207,168.0186 1343.7406,167.71168 1363.4393,169.79636 C 1418.4939,175.62272 1457.7744,183.17507 1494.0814,194.9146 C 1583.3617,223.78247 1635.1468,271.75137 1653.625,342.70091 C 1655.2051,348.7675 1656.7911,355.95996 1657.1495,358.68415 C 1657.508,361.40835 1659.9775,371.31438 1662.6373,380.69756 C 1673.4449,418.82427 1676.4682,439.28086 1677.1714,479.04398 C 1677.5784,502.05495 1677.3389,511.74176 1676.0444,524.6123 C 1663.6268,648.078 1622.9053,762.80031 1549.6347,880.73869 C 1531.3604,910.15345 1507.0111,946.29768 1489.9072,969.39881 C 1452.6266,1019.7507 1430.6491,1046.9396 1390.8667,1091.924 C 1334.9177,1155.1888 1226.0666,1261.6736 1148.0238,1329.4877 C 1143.0078,1333.8464 1133.5906,1342.0979 1127.0968,1347.8246 C 1064.6991,1402.8505 964.07448,1484.0208 913.17852,1520.3848 C 889.37607,1537.3911 867.96272,1548.9268 858.78396,1549.6879 C 849.28135,1550.4759 846.74278,1547.1674 845.72341,1532.6655 C 845.35564,1527.4337 844.6652,1523.1531 844.1891,1523.1531 C 843.71301,1523.1531 842.80547,1524.29 842.17236,1525.6794 C 841.23155,1527.7444 841.59119,1531.2282 844.1409,1544.7488 C 850.05557,1576.1132 852.2794,1596.8192 852.28065,1620.5377 C 852.28143,1635.006 851.08397,1644.9988 849.34947,1644.9988 C 848.95591,1644.9988 847.49665,1642.8814 846.10669,1640.2934 z M 284.65862,1614.4249 C 284.65862,1613.4096 285.06868,1610.4007 285.56989,1607.7383 C 286.07108,1605.0759 286.9899,1596.7926 287.61173,1589.3307 C 290.05251,1560.0417 284.23884,1532.3443 270.2902,1506.8079 C 261.99521,1491.6219 260.86972,1490.2819 212.51308,1438.0249 C 195.05296,1419.1564 188.41211,1410.2171 180.96055,1395.5517 C 171.03314,1376.0136 166.53314,1357.0999 166.53876,1334.936 C 166.54253,1320.0416 167.62519,1312.4601 171.41911,1300.7598 C 177.64378,1281.5633 187.98915,1266.2259 203.29727,1253.4993 C 224.60274,1235.7868 245.64235,1228.5355 275.74308,1228.531 C 289.03894,1228.529 292.49221,1228.8785 301.49909,1231.1371 C 333.11869,1239.0662 358.37663,1258.4156 368.93638,1282.7989 C 370.257,1285.8484 371.6139,1288.3509 371.95172,1288.3602 C 372.28954,1288.3695 375.03881,1284.4764 378.0612,1279.7087 C 394.14226,1254.3418 415.15321,1238.083 440.68061,1231.2522 C 449.65537,1228.8506 452.21672,1228.6033 467.92255,1228.6225 C 483.317,1228.6411 486.32036,1228.9261 494.74225,1231.1671 C 514.21073,1236.3473 529.30202,1244.7191 544.63364,1258.8439 C 559.4892,1272.5301 568.86183,1287.7887 573.54271,1305.9074 C 575.88109,1314.9589 576.01828,1316.7638 575.56097,1332.4595 C 575.02248,1350.9416 573.77048,1358.2913 568.35379,1374.7676 C 546.18917,1442.1874 472.42883,1513.6243 355.48765,1580.9284 C 333.07957,1593.8252 289.3238,1616.2709 286.59111,1616.2709 C 285.36621,1616.2709 284.65862,1615.595 284.65862,1614.4249 z M 1391.7869,1500.6165 C 1393.0065,1491.3894 1392.5428,1477.5693 1390.7815,1470.6504 C 1387.0102,1455.8363 1380.5378,1446.1012 1359.4976,1423.5962 C 1343.2002,1406.1641 1338.2468,1397.7832 1335.1196,1382.3491 C 1331.1003,1362.5131 1336.5188,1344.5179 1350.3049,1331.9181 C 1366.6578,1316.9726 1391.1313,1313.7396 1411.7636,1323.7994 C 1418.4942,1327.0811 1427.9813,1335.6288 1431.4361,1341.5238 C 1432.8249,1343.8938 1434.2634,1345.8328 1434.6325,1345.8328 C 1435.0017,1345.8328 1436.1244,1344.3089 1437.1274,1342.4463 C 1439.4425,1338.1475 1447.5753,1329.8148 1453.3,1325.876 C 1460.0135,1321.257 1467.8149,1318.8425 1477.742,1318.3113 C 1494.3164,1317.4245 1507.5678,1322.5109 1519.357,1334.2845 C 1530.4141,1345.327 1534.6924,1356.6793 1533.443,1371.6612 C 1532.5463,1382.4146 1530.4658,1389.5423 1524.9343,1400.812 C 1513.3161,1424.4829 1489.6899,1448.2327 1453.5853,1472.5345 C 1432.5898,1486.6664 1397.1462,1506.3126 1392.6462,1506.3126 C 1391.2566,1506.3126 1391.1379,1505.526 1391.7869,1500.6165 z M 1733.6092,1279.7092 C 1733.3685,1279.3006 1733.8267,1274.9543 1734.6271,1270.0507 C 1735.6933,1263.5195 1735.9571,1256.1017 1735.6136,1242.3135 C 1735.1058,1221.9411 1733.1562,1211.1943 1727.437,1197.2422 C 1718.7885,1176.144 1717.844,1174.9261 1664.1186,1115.5842 C 1646.4341,1096.0508 1637.3196,1079.6508 1631.7781,1057.3925 C 1629.802,1049.4554 1629.4821,1045.7087 1629.5084,1030.817 C 1629.5438,1010.8658 1630.9847,1003.7242 1637.8891,989.28207 C 1643.275,978.01621 1649.0458,970.1804 1658.4265,961.39606 C 1676.5627,944.41265 1697.1806,936.7488 1724.8082,936.7215 C 1752.931,936.69371 1775.4955,945.46019 1793.4448,963.38737 C 1800.26,970.19406 1802.7938,973.59226 1806.2371,980.54324 C 1808.5987,985.31058 1810.7924,989.20239 1811.112,989.19172 C 1811.4315,989.18104 1814.1218,985.28049 1817.0903,980.52383 C 1824.3097,968.95562 1838.8442,954.38254 1849.1962,948.33239 C 1853.4777,945.83005 1861.5017,942.30243 1867.0273,940.49323 C 1876.9377,937.24829 1877.3216,937.20379 1895.4,937.20379 C 1912.611,937.20379 1914.2919,937.37292 1923.0181,939.98257 C 1947.5831,947.32899 1968.7291,963.30779 1981.1219,983.88796 C 1988.0574,995.40557 1991.486,1009.1965 1991.4883,1025.5862 C 1991.4976,1087.6122 1946.4212,1148.2804 1851.3176,1214.2415 C 1840.164,1221.9773 1818.3407,1235.5862 1800.3009,1246.0551 C 1786.5188,1254.0533 1736.1282,1280.4522 1734.6434,1280.4522 C 1734.3151,1280.4522 1733.8497,1280.1178 1733.6092,1279.7092 z M 76.332447,1186.096 C 77.529976,1176.7363 77.206626,1158.7964 75.729842,1152.6627 C 71.775882,1136.2402 65.914642,1126.3935 48.982784,1107.7284 C 22.745484,1078.8053 21.075934,1076.6403 15.852434,1064.7671 C 10.182213,1051.8785 8.8191611,1030.9811 12.706135,1016.5303 C 17.395424,999.09667 35.620963,982.40964 54.948715,977.85361 C 63.234226,975.90051 79.5175,975.9057 87.070284,977.86385 C 101.55696,981.61969 116.33743,992.04819 122.40056,1002.7915 C 124.02748,1005.6743 125.65038,1008.0272 126.007,1008.0202 C 126.36362,1008.0133 128.21561,1005.5149 130.12255,1002.4681 C 137.48186,990.71014 150.25936,981.25945 163.43801,977.82685 C 170.19073,976.06799 186.22194,975.86077 193.72086,977.43543 C 214.22726,981.74145 232.70369,999.01297 238.63685,1019.4223 C 241.13338,1028.0101 240.21624,1044.2949 236.60039,1055.5824 C 225.95932,1088.8001 193.46243,1123.6887 142.00994,1157.1346 C 121.64781,1170.3706 81.17186,1192.2874 77.089554,1192.2874 C 75.765043,1192.2874 75.65521,1191.3892 76.332447,1186.096 z M 707.38419,186.39867 C 708.01181,171.42952 707.05251,164.65796 702.83668,154.29844 C 699.03944,144.96756 694.54217,138.59663 682.19269,125.05379 C 663.8751,104.96613 660.33882,100.61236 656.67061,93.631742 C 647.40872,76.006327 646.73547,54.645346 654.92698,38.309479 C 658.34423,31.49465 668.46457,21.487624 676.00245,17.469969 C 692.48736,8.6836101 717.79589,9.9884991 732.93639,20.405442 C 738.59372,24.297786 743.81648,29.894319 746.48395,34.922548 C 747.73508,37.280951 749.01973,39.210553 749.33874,39.210553 C 749.65774,39.210553 751.6209,36.739088 753.70132,33.718409 C 765.87824,16.038064 784.03829,8.7807071 806.63202,12.565547 C 827.24457,16.018507 845.2345,33.449933 848.38683,53.024077 C 850.54753,66.440861 846.01798,85.125376 836.86705,100.54345 C 818.48881,131.50827 780.04171,162.68971 723.34201,192.61476 C 715.96859,196.50632 709.23629,199.69031 708.38134,199.69031 C 707.0187,199.69031 706.89567,198.05023 707.38419,186.39867 z "
     style="fill:#fe8f8f"
     id="path3758" />
  <path
     d="M 285.946,1611.0702 C 286.26168,1608.2098 287.04946,1601.1888 287.69663,1595.468 C 289.1139,1582.9397 288.33922,1558.4991 286.19145,1547.9807 C 283.88497,1536.6851 280.09312,1525.7174 274.35416,1513.7422 C 264.92892,1494.075 262.82616,1491.4744 211.80274,1436.3804 C 195.77509,1419.074 188.29078,1408.8492 181.15383,1394.5087 C 166.02398,1364.108 162.69355,1328.5789 172.27312,1299.7692 C 184.31611,1263.5511 215.74731,1237.1852 255.03967,1230.3411 C 268.4705,1228.0016 290.57335,1228.8789 303.73801,1232.2739 C 314.67298,1235.094 328.91342,1241.5023 338.27333,1247.8151 C 351.23812,1256.5593 363.67938,1271.2066 368.95668,1283.9389 C 370.19422,1286.9248 371.56024,1289.3677 371.99226,1289.3677 C 372.42428,1289.3677 373.53558,1288.1418 374.46181,1286.6435 C 390.27564,1261.0625 402.81923,1248.621 422.64363,1238.8543 C 438.57312,1231.0066 446.01131,1229.4697 467.92255,1229.4993 C 483.64672,1229.5205 487.44455,1229.8376 494.66917,1231.7324 C 510.17736,1235.7998 523.9042,1242.4896 535.09012,1251.4318 C 569.96734,1279.3132 581.49014,1310.8226 572.93953,1354.932 C 558.52087,1429.3125 482.44194,1507.7911 353.50642,1581.2865 C 335.66244,1591.4578 287.83921,1616.2709 286.07959,1616.2709 C 285.69044,1616.2709 285.63033,1613.9306 285.946,1611.0702 z M 805.69048,1568.969 C 774.17227,1536.9103 735.14307,1471.9488 710.61257,1410.7182 C 687.1792,1352.2261 663.5373,1305.3845 632.17047,1255.3012 C 611.24036,1221.8823 579.92661,1177.6412 559.52505,1152.6654 C 444.09898,1011.3598 411.32016,968.81694 369.85309,906.4947 C 316.44685,826.22872 268.93118,736.22579 250.01316,679.49711 C 241.55367,654.12999 234.74082,622.58113 232.10789,596.58161 C 230.72679,582.94371 231.41284,535.89455 233.10675,528.07946 C 233.69722,525.35527 234.61673,515.54817 235.1501,506.28591 C 237.90866,458.38228 247.35375,420.62754 266.35483,381.55159 C 277.10058,359.45284 289.22023,342.60051 306.92885,325.13355 C 341.50485,291.02939 381.93299,272.09092 434.19656,265.51527 C 451.85632,263.29337 486.98686,263.97041 506.55656,266.90981 C 570.21172,276.4709 642.44265,305.10859 703.54812,345.01183 C 741.8049,369.99437 775.65119,401.1615 803.38159,436.9428 C 826.28626,466.49734 846.90558,502.05894 862.65528,539.17058 C 867.84468,551.39855 869.46864,553.45575 874.11088,553.68231 L 877.24905,553.83547 L 886.09867,532.04192 C 927.03003,431.2422 952.22367,383.35738 984.86469,344.32022 C 998.17092,328.4066 1019.0926,308.20662 1037.0314,293.95302 C 1043.5695,288.75807 1057.4591,276.17409 1067.8973,265.98863 C 1078.3355,255.80316 1089.9257,245.33223 1093.6533,242.7199 C 1097.3809,240.10758 1106.2259,233.85038 1113.3088,228.81502 C 1195.2703,170.54723 1294.5061,154.99299 1428.5472,179.40452 C 1527.4206,197.41132 1594.004,233.62658 1629.7598,288.84574 C 1641.1273,306.40102 1651.5971,332.37159 1655.119,351.74984 C 1656.0102,356.65339 1657.6673,365.11842 1658.8014,370.56101 C 1660.3678,378.07776 1661.0454,386.29364 1661.6199,404.73726 C 1662.036,418.0916 1662.6489,429.68654 1662.982,430.5038 C 1664.3475,433.85426 1666.6872,459.9752 1667.2412,478.05336 C 1669.44,549.81994 1646.6117,655.56646 1610.1219,742.64358 C 1591.7368,786.51667 1563.9901,840.96952 1541.0168,878.26215 C 1503.5315,939.11218 1453.9201,1006.1511 1400.6583,1067.9255 C 1327.8386,1152.3838 1217.3214,1260.8509 1109.3463,1353.8333 C 1030.0388,1422.1288 973.57371,1465.9797 948.46005,1478.7778 C 937.96648,1484.1255 932.44641,1484.9677 930.31024,1481.5472 C 928.49354,1478.6382 927.31734,1479.0702 923.62039,1484.0043 C 918.14644,1491.31 910.2821,1495.3971 901.67308,1495.4103 C 899.68957,1495.4133 893.67158,1494.2442 888.29976,1492.8122 C 882.92793,1491.3801 875.50258,1489.6601 871.79898,1488.9899 C 866.81884,1488.0885 864.31112,1487.0488 862.16974,1484.9972 C 860.03208,1482.9492 859.16384,1482.5884 858.85212,1483.6188 C 851.66456,1507.3761 847.8773,1516.9216 843.08674,1523.354 C 841.74886,1525.1504 840.36007,1527.863 840.00054,1529.382 C 839.64101,1530.9011 837.46504,1535.5837 835.16505,1539.7881 C 827.72551,1553.3874 819.59116,1572.9366 819.59116,1577.2165 C 819.59116,1581.7138 816.30142,1579.7619 805.69048,1568.969 z M 1392.8244,1494.1575 C 1393.5491,1479.8602 1392.3711,1471.5921 1388.0531,1460.6648 C 1384.3381,1451.2637 1377.5071,1442.0873 1361.0814,1424.4323 C 1344.6028,1406.7204 1339.2992,1398.3495 1336.1827,1385.1335 C 1334.2504,1376.939 1334.3041,1362.4385 1336.2919,1355.6711 C 1340.0443,1342.8956 1350.2574,1330.2104 1361.2928,1324.6183 C 1372.8673,1318.7531 1389.5957,1317.0584 1401.6278,1320.5322 C 1414.605,1324.2788 1427.1718,1333.7138 1431.2599,1342.78 C 1432.2628,1345.0039 1433.5728,1346.8093 1434.1712,1346.792 C 1434.7694,1346.7748 1437.2448,1343.8154 1439.6719,1340.2157 C 1450.1811,1324.6296 1467.5105,1316.9175 1487.1742,1319.0761 C 1504.7346,1321.0037 1521.8577,1333.0091 1529.0901,1348.4643 C 1533.364,1357.5975 1534.0881,1371.1421 1530.9645,1383.5243 C 1522.3449,1417.6935 1486.1813,1454.3273 1427.9319,1487.8968 C 1415.942,1494.8066 1393.9293,1506.3126 1392.6995,1506.3126 C 1392.4294,1506.3126 1392.4855,1500.8428 1392.8244,1494.1575 z M 1734.3291,1276.2421 C 1737.5638,1260.15 1737.4304,1231.7813 1734.0509,1217.0528 C 1729.0036,1195.0562 1718.9455,1175.3081 1704.8663,1159.7524 C 1701.5093,1156.0433 1688.9557,1142.1805 1676.9692,1128.9462 C 1664.9828,1115.7118 1653.3146,1102.2296 1651.0399,1098.9856 C 1628.1587,1066.3537 1622.9031,1022.8 1637.9319,990.35675 C 1642.8741,979.688 1648.7199,971.60463 1657.7918,962.8955 C 1670.3489,950.8404 1681.5664,944.58656 1698.7712,940.04906 C 1707.4756,937.7534 1710.5798,937.43749 1724.5188,937.4287 C 1738.4975,937.41989 1741.538,937.72698 1750.2748,940.0301 C 1755.9769,941.53326 1764.9648,944.99826 1771.4535,948.19482 C 1781.5397,953.1637 1783.7401,954.7541 1792.3621,963.30705 C 1800.5189,971.39856 1802.6412,974.19658 1806.1874,981.53385 C 1808.4916,986.30119 1810.7418,990.20174 1811.1879,990.20174 C 1811.6341,990.20174 1813.324,987.86141 1814.9434,985.00101 C 1824.6609,967.83578 1840.2133,953.05569 1856.8539,945.1715 C 1869.8021,939.03677 1877.9564,937.3767 1895.4,937.32426 C 1909.1639,937.28288 1911.7807,937.55989 1920.6607,939.99819 C 1946.5,947.0933 1968.1679,963.16538 1980.7488,984.5685 C 1996.3224,1011.0628 1994.8556,1046.7155 1976.6164,1085.021 C 1950.8786,1139.0745 1889.4669,1194.297 1794.7657,1248.5444 C 1778.0618,1258.1129 1736.7658,1279.4616 1734.9607,1279.4616 C 1734.0457,1279.4616 1733.866,1278.5459 1734.3291,1276.2421 z M 77.11683,1184.6101 C 79.409205,1160.1773 75.59677,1142.1058 64.601291,1125.2849 C 62.771691,1122.486 53.756717,1112.0102 44.568016,1102.0054 C 22.540807,1078.0219 17.429762,1070.4239 13.232874,1055.4225 C 4.6900756,1024.8873 16.178742,996.28307 42.153958,983.41559 C 59.110883,975.01553 77.137506,974.12117 94.043595,980.84116 C 107.31057,986.11464 117.8926,994.87897 122.26549,1004.2153 C 123.50411,1006.8597 124.99854,1009.0196 125.58646,1009.0148 C 126.17437,1009.01 128.3246,1006.415 130.36475,1003.248 C 143.86381,982.2928 166.50499,972.87528 191.70124,977.73521 C 204.39892,980.18438 215.49054,986.35429 224.46288,995.95947 C 240.48251,1013.1089 243.70371,1032.6147 234.80722,1058.5988 C 229.00386,1075.5488 218.70537,1091.15 202.26341,1107.8993 C 179.19238,1131.4015 151.90347,1151.7688 116.74924,1171.7233 C 102.68632,1179.7058 78.381154,1192.2874 77.023446,1192.2874 C 76.678637,1192.2874 76.72066,1188.8326 77.11683,1184.6101 z M 708.01676,184.08811 C 708.1631,167.65535 707.23904,162.55719 702.05775,151.21157 C 697.76223,141.80553 694.22864,137.18245 676.99169,118.41694 C 657.61312,97.319911 652.58999,88.396025 650.17818,70.781159 C 647.56522,51.697122 654.67342,33.828108 669.25307,22.829611 C 676.60544,17.283174 682.07428,14.761225 690.81111,12.888156 C 699.66476,10.990037 706.00054,11.1321 714.98608,13.430216 C 729.30767,17.093061 740.81248,25.222339 746.29164,35.550671 C 747.64854,38.108445 749.07,40.201168 749.45044,40.201168 C 749.83088,40.201168 751.76091,37.762396 753.7394,34.781674 C 762.07997,22.216076 774.30526,14.34957 788.769,12.241457 C 804.14272,10.000716 821.19056,15.449975 832.75327,26.300815 C 844.31715,37.15276 848.96824,48.590742 848.07332,63.975948 C 846.81249,85.651503 835.9089,106.1026 813.68033,128.48443 C 790.1741,152.15272 758.56749,174.18476 721.36972,192.83144 C 714.93117,196.05898 709.26352,198.6997 708.77495,198.6997 C 708.28519,198.6997 707.94502,192.14379 708.01676,184.08811 z "
     style="fill:#fe7373"
     id="path3756" />
  <path
     d="M 285.99262,1612.0608 C 289.44268,1592.3626 289.98527,1567.0009 287.28011,1551.8809 C 284.78812,1537.9525 280.08007,1524.1372 273.27014,1510.7704 C 265.71119,1495.9333 260.16215,1488.0476 248.64039,1475.7692 C 190.91545,1414.2537 182.77945,1403.3714 173.79872,1375.6642 C 168.68502,1359.8876 168.25748,1356.6728 168.31631,1334.4407 C 168.36838,1314.7637 168.51657,1313.1553 171.05426,1304.7223 C 176.72078,1285.8918 185.90269,1270.9884 199.87909,1257.9361 C 218.1611,1240.8627 237.35723,1232.4294 264.10677,1229.7194 C 284.6523,1227.6379 304.642,1231.1777 323.78794,1240.2878 C 336.80765,1246.4828 344.31505,1251.9892 354.49386,1262.8093 C 360.49051,1269.1838 363.0549,1272.9187 366.71058,1280.6026 C 369.25539,1285.9514 371.62569,1290.3347 371.97793,1290.3431 C 372.33017,1290.3515 374.75232,1286.9036 377.36051,1282.6811 C 383.98566,1271.9554 389.31181,1265.193 397.29343,1257.3733 C 411.65134,1243.3067 424.93306,1236.2158 447.11961,1230.7723 C 455.97812,1228.5988 482.29925,1229.1285 492.75518,1231.6906 C 510.61787,1236.0677 523.1549,1242.3564 537.9912,1254.3812 C 557.29808,1270.0296 569.14138,1288.6265 573.47507,1310.0997 C 575.88472,1322.0394 575.01857,1345.3197 571.62934,1359.709 C 565.13901,1387.2643 550.95214,1414.7062 528.80949,1442.5362 C 517.10367,1457.2487 481.69332,1492.1266 464.45539,1505.9226 C 430.27331,1533.2795 396.60154,1556.1659 357.96419,1578.3037 C 331.6184,1593.3989 289.35925,1615.2803 286.55202,1615.2803 C 285.82948,1615.2803 285.62991,1614.1318 285.99262,1612.0608 z M 810.42977,1573.4268 C 778.58545,1543.5229 733.73614,1469.6802 710.1024,1408.2416 C 684.73168,1342.2876 648.15315,1275.3359 598.89566,1204.6939 C 575.88408,1171.6923 576.61715,1172.6313 477.94077,1049.7514 C 429.98343,990.03103 401.61715,951.83404 370.81818,905.50409 C 316.17343,823.30363 267.80391,730.88652 250.01441,674.6906 C 237.60975,635.50505 232.69928,604.93568 232.66969,566.71348 C 232.6494,540.49009 234.20572,527.00636 240.21611,501.33283 C 249.46167,461.84014 272.36289,420.00129 299.51786,392.99288 C 341.01836,351.71637 389.03933,328.33368 451.57738,318.95104 C 465.39089,316.87859 503.83251,316.06299 520.92049,317.47983 C 562.45643,320.92372 613.46362,334.80115 648.70993,352.24723 C 683.71017,369.57152 735.86052,403.85186 751.12133,419.566 C 758.85789,427.53238 770.61164,442.06137 788.15033,465.33812 C 808.45804,492.28982 812.25493,497.14916 824.01544,511.23899 C 850.97708,543.54072 869.98139,558.29324 884.6311,558.29324 C 891.1328,558.29324 893.81663,557.26898 898.54099,552.98464 C 903.21822,548.74304 904.90853,545.4577 919.50941,512.22961 C 959.98411,420.11894 992.75987,360.18477 1028.0345,313.77926 C 1050.2639,284.53537 1080.916,252.94378 1100.8986,238.6818 C 1105,235.75452 1111.9219,230.64992 1116.2807,227.33822 C 1148.7219,202.68971 1199.7701,182.02584 1248.0326,174.00603 C 1318.0676,162.36827 1420.2285,171.75101 1497.1724,196.88772 C 1559.9609,217.40004 1606.5446,250.71169 1632.2309,293.46714 C 1641.6911,309.21393 1650.9489,332.70646 1654.0273,348.778 C 1659.0451,374.97424 1659.0888,375.38396 1659.3041,398.30879 C 1659.5345,422.84137 1658.6822,436.247 1655.5572,457.25043 C 1644.8885,528.95679 1615.0286,613.12401 1560.3171,725.70732 C 1500.6049,848.58089 1397.7908,978.14015 1234.3263,1136.4984 C 1213.7117,1156.4691 1193.1632,1176.1884 1188.663,1180.3191 C 1184.1627,1184.4499 1171.385,1196.305 1160.2681,1206.6639 C 1149.1511,1217.0227 1133.1676,1231.7334 1124.7491,1239.3542 C 1116.3306,1246.975 1104.2946,1257.9032 1098.0025,1263.639 C 1085.6311,1274.9165 1045.7643,1310.5422 1036.5087,1318.5909 C 1028.5911,1325.4761 1009.2396,1342.6141 997.36245,1353.2596 C 987.90319,1361.7378 972.51496,1375.4056 940.44629,1403.8125 C 932.54613,1410.8105 911.03809,1430.0897 892.65065,1446.6549 L 859.21892,1476.7737 L 857.67509,1482.38 C 852.20429,1502.2465 847.4526,1513.9165 837.03981,1533.0592 C 825.86835,1553.5968 822.73998,1561.115 819.41848,1575.408 C 818.88037,1577.7236 818.12122,1579.6182 817.73148,1579.6182 C 817.34174,1579.6182 814.05597,1576.832 810.42977,1573.4268 z M 1392.7981,1500.6165 C 1394.0792,1492.6026 1393.577,1477.5054 1391.801,1470.6504 C 1389.5841,1462.0932 1384.542,1451.6957 1379.0707,1444.3991 C 1376.6195,1441.1301 1368.8505,1432.2145 1361.8063,1424.5868 C 1347.6744,1409.2842 1343.9537,1404.3426 1340.2379,1395.9404 C 1327.7715,1367.7516 1337.5823,1336.5869 1362.6712,1324.68 C 1378.7484,1317.0499 1395.3868,1317.0591 1410.9889,1324.7068 C 1419.2223,1328.7425 1428.2775,1337.0025 1431.1162,1343.0665 C 1432.0617,1345.0866 1433.245,1346.9924 1433.7456,1347.3018 C 1434.2461,1347.6112 1436.4061,1345.2898 1438.5455,1342.1431 C 1449.5596,1325.9434 1464.4303,1318.3536 1483.2395,1319.3317 C 1514.4788,1320.9561 1536.0242,1345.4921 1532.0822,1374.9539 C 1527.6209,1408.2981 1500.2525,1440.9336 1448.137,1475.0547 C 1430.6462,1486.5062 1396.4418,1505.322 1393.1151,1505.322 C 1392.3942,1505.322 1392.2909,1503.7886 1392.7981,1500.6165 z M 1735.3693,1273.2702 C 1740.8557,1232.7568 1734.054,1198.9718 1714.9452,1171.8208 C 1710.7522,1165.8633 1691.6681,1144.1563 1668.3222,1118.7903 C 1654.1586,1103.4011 1649.3788,1097.0059 1643.5456,1085.6398 C 1633.4783,1066.0236 1629.3822,1048.0065 1630.1831,1026.8631 C 1630.7844,1010.9883 1632.9084,1001.9833 1639.1465,988.86027 C 1650.2567,965.48803 1671.2754,948.08199 1697.0679,940.89446 C 1705.925,938.42628 1708.1407,938.21298 1725.0141,938.20408 C 1746.5324,938.19273 1751.9101,939.37776 1770.0871,948.13652 C 1788.0021,956.76898 1799.3677,967.84027 1806.9149,984.01039 C 1808.7586,987.96047 1810.6044,991.19236 1811.0167,991.19236 C 1811.429,991.19236 1813.4079,988.33806 1815.4144,984.84946 C 1824.9976,968.18737 1839.4986,954.27095 1855.2801,946.59088 C 1870.6469,939.11259 1875.0565,938.2033 1895.8953,938.2156 C 1911.6253,938.22488 1914.6602,938.49826 1921.6513,940.5356 C 1965.2815,953.25028 1993.5013,989.66982 1991.2008,1030.2939 C 1990.5946,1040.9986 1986.3171,1060.7665 1982.299,1071.4326 C 1972.2011,1098.2377 1952.1102,1126.7538 1924.0046,1154.173 C 1882.5354,1194.6298 1829.4757,1231.0284 1759.5278,1267.0031 C 1747.2642,1273.3104 1736.653,1278.4709 1735.9476,1278.4709 C 1734.9713,1278.4709 1734.8332,1277.2289 1735.3693,1273.2702 z M 77.041701,1188.0773 C 78.444977,1181.2327 78.816657,1165.7592 77.742583,1158.8987 C 74.470225,1137.9969 68.469495,1127.5987 44.430911,1101.1751 C 25.734168,1080.6234 23.105043,1077.2652 18.431055,1067.9651 C 5.1850232,1041.6087 9.0563304,1011.761 28.044068,993.84887 C 35.676378,986.64897 47.436114,980.29239 56.61808,978.4036 C 64.170911,976.84992 80.186043,977.06846 86.898345,978.81679 C 101.89431,982.72275 115.66311,992.66754 121.77299,1004.0058 C 123.36863,1006.9668 125.12602,1009.532 125.6783,1009.7063 C 126.23057,1009.8805 128.20406,1007.4579 130.06384,1004.3225 C 137.17606,992.33237 150.39059,982.21588 163.34934,978.84056 C 170.20646,977.05451 186.19231,976.84118 193.72086,978.43525 C 206.06313,981.04857 220.14861,990.30944 228.43102,1001.2564 C 236.87954,1012.4228 239.61851,1021.8966 238.83893,1037.256 C 237.6481,1060.7179 224.41385,1085.3793 200.03186,1109.5709 C 176.03455,1133.3809 150.44409,1152.275 115.26331,1172.1579 C 100.92063,1180.2638 79.157758,1191.2968 77.511312,1191.2968 C 76.761819,1191.2968 76.603776,1190.2132 77.041701,1188.0773 z M 708.387,185.07873 C 708.92444,169.34278 707.67211,162.24297 702.34664,150.83408 C 698.06977,141.67165 693.12438,135.2233 676.29749,116.86837 C 661.66001,100.90166 656.33292,93.099363 653.03539,82.797649 C 650.48912,74.842929 649.52835,59.580391 651.09793,52.019765 C 654.6774,34.777539 667.31042,20.920268 685.099,14.723686 C 694.40395,11.482343 708.30293,11.111353 716.56712,13.883745 C 730.59096,18.588338 740.22285,25.612931 745.52027,34.99944 C 747.13488,37.860356 748.78249,40.402941 749.18164,40.649629 C 749.58079,40.896316 752.22263,37.767809 755.0524,33.697389 C 765.36242,18.867194 783.53068,10.059221 799.98322,11.914929 C 824.30154,14.65783 844.00778,31.930989 847.33689,53.421947 C 849.13669,65.040491 845.90258,80.87879 838.91117,94.685041 C 824.62877,122.88913 791.36383,152.77047 743.31374,180.55862 C 732.71284,186.68929 709.69998,198.6997 708.55404,198.6997 C 708.2063,198.6997 708.13113,192.57026 708.387,185.07873 z "
     style="fill:#fe5151"
     id="path3754" />
  <path
     d="M 286.92496,1610.1926 C 287.24705,1607.27 288.04165,1600.1982 288.69074,1594.4774 C 290.0801,1582.2324 289.32627,1558.7559 287.20562,1548.2263 C 283.62942,1530.4694 274.2834,1508.6703 263.6134,1493.1985 C 260.75005,1489.0465 251.72064,1478.397 243.54806,1469.5328 C 235.37548,1460.6687 222.50286,1446.7127 214.94225,1438.5196 C 194.50587,1416.3736 190.03288,1410.3701 182.12462,1394.4729 C 162.50593,1355.0355 163.15727,1309.6744 183.80572,1277.3956 C 195.46539,1259.1686 215.76961,1243.1797 236.11844,1236.201 C 250.77729,1231.1736 261.79313,1229.6391 279.21023,1230.1983 C 296.97762,1230.7687 308.40956,1233.3908 322.7533,1240.1855 C 338.19219,1247.499 347.78952,1254.8446 357.24378,1266.5836 C 362.66922,1273.3201 369.85158,1286.0823 369.85158,1288.9861 C 369.85158,1289.6243 370.50281,1290.3963 371.29877,1290.7017 C 372.31082,1291.0901 374.25487,1288.759 377.7643,1282.9489 C 393.59825,1256.7351 414.71241,1239.8783 440.68061,1232.7192 C 447.52286,1230.8328 451.17689,1230.5275 467.42724,1230.4844 C 484.09475,1230.4402 487.25407,1230.6998 495.03096,1232.7518 C 512.82636,1237.4477 526.34057,1244.7057 540.56023,1257.2041 C 558.08301,1272.6058 567.50929,1287.4852 572.63839,1307.8393 C 575.19253,1317.9751 574.9323,1342.0957 572.12696,1355.2437 C 566.02355,1383.8488 551.16919,1413.8055 529.8832,1440.4366 C 484.85128,1496.7764 407.12072,1554.4374 310.01672,1603.5347 L 286.33934,1615.5064 L 286.92496,1610.1926 z M 806.7691,1568.9655 C 782.86006,1544.5632 755.73448,1503.502 731.67743,1455.2959 C 722.66352,1437.2336 717.89785,1426.4816 707.08914,1399.8214 C 680.29086,1333.7221 650.35453,1278.762 605.51871,1213.3483 C 590.43564,1191.3426 587.22751,1186.3437 588.1882,1186.3437 C 588.99176,1186.3437 631.21704,1237.3715 646.38905,1256.6774 C 712.0426,1340.2196 759.45019,1416.2139 793.15844,1491.9487 C 807.33513,1523.8004 820.58178,1558.6637 820.58178,1564.1227 C 820.58178,1568.8212 818.30897,1578.6275 817.22002,1578.6275 C 816.67874,1578.6275 811.97582,1574.2796 806.7691,1568.9655 z M 837.53424,1518.4476 C 836.82605,1515.3148 836.01338,1511.7486 835.72833,1510.5227 C 835.29163,1508.6447 835.62036,1508.2938 837.81663,1508.2938 C 840.75067,1508.2938 844.34645,1513.0815 844.35285,1516.9966 C 844.35726,1519.6911 841.63888,1524.1437 839.98935,1524.1437 C 839.34723,1524.1437 838.24243,1521.5805 837.53424,1518.4476 z M 1393.8292,1493.1582 C 1394.54,1479.8962 1393.2717,1471.2818 1389.057,1460.7443 C 1385.2033,1451.1093 1378.8429,1442.4762 1362.6419,1424.891 C 1344.7984,1405.523 1340.3696,1398.5888 1337.14,1384.9621 C 1335.3633,1377.4654 1335.3173,1362.7133 1337.0507,1356.2343 C 1343.6153,1331.6957 1367.5936,1316.6472 1394.6606,1320.079 C 1409.2161,1321.9244 1423.4718,1331.0064 1430.0321,1342.6133 C 1431.6487,1345.4737 1433.5345,1347.8141 1434.2227,1347.8141 C 1434.9107,1347.8141 1437.0813,1345.393 1439.046,1342.4339 C 1447.1808,1330.182 1459.5046,1322.0657 1473.0699,1320.0262 C 1495.4978,1316.6542 1518.7389,1328.7773 1528.2415,1348.8047 C 1532.4219,1357.6154 1533.0916,1371.1654 1529.9599,1383.5795 C 1521.4353,1417.3728 1485.5932,1453.6385 1427.7353,1487.0126 C 1413.8756,1495.0073 1395.8223,1504.3314 1394.2027,1504.3314 C 1393.5888,1504.3314 1393.4512,1500.2129 1393.8292,1493.1582 z M 820.81772,1460.4378 C 820.32298,1459.7891 818.67659,1455.6921 817.15908,1451.3334 C 815.64157,1446.9747 812.01323,1437.3244 809.0961,1429.8883 C 769.44195,1328.805 709.2119,1231.6471 595.78692,1085.7962 C 587.31274,1074.8994 577.82936,1062.6405 574.71274,1058.5542 C 571.59612,1054.4679 566.24187,1047.5041 562.81441,1043.0789 C 463.54207,914.91084 414.70444,844.89468 375.15753,774.04433 C 342.63731,715.78266 322.98696,655.93999 314.72115,589.99295 C 311.93777,567.78629 312.18707,521.24429 315.19232,502.02937 C 319.20347,476.38302 326.12617,453.58901 336.163,432.98034 C 343.33235,418.25951 349.48443,409.04069 359.28545,398.33166 C 405.19471,348.16915 481.55963,346.50615 578.87769,393.54958 C 646.80034,426.38331 689.10816,461.21316 723.0383,512.22961 C 743.75125,543.37304 755.49399,569.34801 775.08578,627.35878 C 785.06145,656.89649 788.79276,666.31535 796.47468,681.35024 C 810.84353,709.47267 827.93629,725.55857 846.90681,728.81166 C 852.95155,729.84822 855.37402,729.72661 866.8598,727.81 C 898.58768,722.51564 918.1146,712.59484 932.8257,694.29553 C 949.17924,673.95319 977.59266,621.77083 997.43994,575.62902 C 1031.3022,496.9048 1049.0591,462.89522 1070.617,435.4745 C 1103.1687,394.07012 1155.068,360.5652 1220.2953,338.84598 C 1262.4728,324.80184 1297.572,319.09604 1341.6458,319.11904 C 1378.0703,319.13804 1398.3033,321.97923 1425.6416,330.91398 C 1479.0892,348.38194 1511.7856,381.67427 1524.4119,431.48446 C 1531.9446,461.20121 1532.4852,490.12041 1526.3193,533.52785 C 1517.1027,598.41164 1498.4971,656.84392 1463.1738,731.84034 C 1441.8796,777.0509 1395.2736,850.21847 1348.5195,911.83794 C 1294.1515,983.49227 1243.6112,1039.9047 1143.834,1140.3056 C 1104.327,1180.0597 1063.5401,1219.7499 961.75007,1317.4936 C 909.1338,1368.0184 852.6672,1426.0634 832.81622,1450.0317 C 823.56299,1461.2042 822.26256,1462.332 820.81772,1460.4378 z M 1735.3197,1275.2514 C 1739.6267,1253.8245 1737.995,1223.5251 1731.4654,1203.6795 C 1728.6855,1195.2307 1719.5017,1177.2547 1714.394,1170.2647 C 1711.7141,1166.5972 1699.7454,1152.7962 1687.7969,1139.5957 C 1675.8484,1126.3953 1663.1749,1112.391 1659.6334,1108.4753 C 1639.3234,1086.0189 1627.4443,1049.8245 1630.8089,1020.6505 C 1633.5782,996.63937 1642.3327,978.48345 1658.4914,963.24013 C 1670.5963,951.82102 1682.5471,945.25487 1698.6691,941.16516 C 1734.6485,932.03824 1773.0538,942.49521 1795.7775,967.6058 C 1800.8676,973.23053 1808.2258,985.71564 1808.2258,988.72762 C 1808.2258,989.40496 1808.8563,990.48245 1809.627,991.12205 C 1811.1961,992.42427 1810.9413,992.71778 1819.1045,980.20352 C 1825.3946,970.56054 1835.5503,959.60357 1843.3697,954.02374 C 1874.0525,932.12892 1918.1377,932.44624 1951.3698,954.80111 C 1959.4027,960.20479 1963.2096,963.57399 1969.9968,971.28633 C 1977.9702,980.34649 1983.3533,989.88288 1987.3843,1002.0891 C 1990.6306,1011.919 1990.8178,1013.2254 1990.7911,1025.8639 C 1990.7664,1037.5229 1990.3692,1040.7733 1987.6929,1051.2194 C 1983.5807,1067.2705 1980.4455,1075.7702 1973.8429,1088.768 C 1947.3602,1140.9021 1886.0545,1195.2612 1794.7657,1247.5538 C 1780.4874,1255.7328 1736.8679,1278.4709 1735.4561,1278.4709 C 1735.0251,1278.4709 1734.9638,1277.0222 1735.3197,1275.2514 z M 78.352163,1175.1992 C 78.772187,1162.2299 78.552474,1158.8874 76.79935,1151.5762 C 72.192245,1132.3629 67.149627,1124.76 39.084107,1094.7117 C 24.288648,1078.871 18.148752,1069.1972 14.141218,1055.4126 C 9.6606639,1040.001 9.4969068,1031.4985 13.438559,1018.9296 C 20.007909,997.98167 36.204513,983.31661 57.877233,978.6931 C 82.682257,973.40136 110.52321,984.6983 121.43964,1004.4846 C 123.21863,1007.7091 125.11994,1010.494 125.66478,1010.6734 C 126.20962,1010.8528 128.4385,1008.0602 130.61786,1004.4676 C 132.79721,1000.8751 137.36314,995.32237 140.76436,992.12824 C 168.34865,966.22363 216.45689,975.74347 233.65272,1010.5094 C 238.2362,1019.7761 239.67132,1029.2982 238.20625,1040.7222 C 234.6009,1068.8351 217.26543,1095.2513 183.1205,1124.6629 C 162.88582,1142.0926 143.4789,1155.5496 116.40911,1170.9216 C 101.38512,1179.4531 80.299835,1190.3061 78.748526,1190.3061 C 78.245448,1190.3061 78.074242,1183.7809 78.352163,1175.1992 z M 1652.7037,355.217 C 1649.2642,346.27024 1636.187,321.8022 1628.9339,310.74234 C 1615.2008,289.80163 1601.9761,274.24709 1584.3841,258.34408 C 1536.8816,215.40239 1475.7466,188.70691 1403.2326,179.24176 C 1387.4157,177.17718 1325.2211,176.27933 1306.5108,177.84545 C 1244.9765,182.99609 1185.9865,198.44504 1128.4524,224.47734 C 1121.2883,227.71888 1115.2601,230.2044 1115.0564,230.00073 C 1114.3179,229.26224 1123.5261,222.43284 1132.6757,216.93309 C 1174.5186,191.78169 1215.2229,178.11419 1267.3496,171.71297 C 1290.3701,168.88602 1339.5875,168.69702 1363.9346,171.34206 C 1443.9787,180.03796 1498.1903,193.66957 1543.956,216.60876 C 1568.7591,229.04086 1585.9761,241.06382 1602.7152,257.64134 C 1623.4524,278.17825 1636.115,297.30921 1646.0151,323.05966 C 1650.3212,334.25991 1654.9405,352.30741 1654.4275,355.92665 L 1654.0366,358.68415 L 1652.7037,355.217 z M 709.02139,183.0975 C 709.12283,170.33168 708.84418,167.5518 706.81549,161.09121 C 702.06285,145.95596 698.01844,139.98753 677.14199,117.30144 C 656.15003,94.489801 650.87629,83.673082 650.90145,63.48064 C 650.91611,51.713836 652.52505,45.347853 657.72841,36.468998 C 662.82639,27.769967 675.3948,17.908858 684.5393,15.433327 C 687.17153,14.720746 689.85108,13.732532 690.49385,13.237294 C 691.13662,12.742057 695.81728,12.305899 700.89532,12.268054 C 719.48868,12.129487 737.41721,21.661251 745.51647,35.991051 C 747.13318,38.851454 748.97062,41.187885 749.59966,41.18312 C 750.2287,41.178354 752.46846,38.496963 754.57691,35.224472 C 764.14913,20.367579 779.3161,12.157501 797.01518,12.25209 C 801.7608,12.277451 806.21857,12.655026 806.92134,13.091145 C 807.6241,13.527263 810.924,14.837435 814.25444,16.002637 C 829.6858,21.401506 841.62177,33.692802 845.89685,48.587033 C 849.22637,60.18694 846.43144,78.761255 839.19818,93.104628 C 824.45033,122.34925 790.76809,152.85957 742.90038,180.33383 C 734.12557,185.37024 710.25347,197.70908 709.28428,197.70908 C 709.07583,197.70908 708.95753,191.13387 709.02139,183.0975 z "
     style="fill:#fe3030"
     id="path3752" />
  <path
     d="M 287.98694,1608.0984 C 293.11074,1565.9643 289.8852,1541.55 275.25916,1511.761 C 268.39375,1497.7781 260.54337,1486.6427 248.34586,1473.5858 C 194.61772,1416.0717 188.61007,1408.5061 179.14968,1386.4442 C 167.83357,1360.0546 165.55872,1326.6918 173.38398,1301.8846 C 178.2717,1286.3899 185.44212,1274.3988 196.8839,1262.5859 C 219.56481,1239.1693 248.26333,1228.7977 284.25437,1231.0103 C 306.66021,1232.3878 329.33014,1241.5298 346.27249,1256.0199 C 353.91634,1262.5575 361.88752,1273.241 366.58611,1283.2456 C 369.14913,1288.703 371.41203,1292.3157 372.12039,1292.0809 C 372.77947,1291.8625 375.54762,1288.0487 378.27181,1283.6058 C 391.56101,1261.9325 407.22096,1247.1918 425.82327,1238.8454 C 429.30247,1237.2844 436.8109,1234.84 442.50866,1233.4134 C 451.33806,1231.2025 455.00664,1230.8207 467.34551,1230.8285 C 475.30802,1230.8334 483.48734,1231.1273 485.52179,1231.4815 C 492.77692,1232.7444 506.94693,1237.0224 513.06735,1239.7975 C 533.94136,1249.2622 555.5337,1269.6747 564.96973,1288.8637 C 570.95902,1301.0435 572.99949,1309.5786 573.61589,1325.0299 C 575.12995,1362.9838 559.6229,1401.9274 526.6623,1442.9467 C 515.94129,1456.2889 491.17108,1481.6042 475.89038,1494.836 C 444.52417,1521.9964 400.70743,1552.3599 354.50952,1578.9486 C 336.12938,1589.5272 290.34742,1613.2991 288.35458,1613.2991 C 287.72823,1613.2991 287.59085,1611.3555 287.98694,1608.0984 z M 808.07235,1569.2167 C 777.24012,1538.2791 737.5691,1473.0597 714.07258,1414.6806 C 683.65021,1339.0938 655.382,1285.473 613.01902,1222.9965 C 598.05364,1200.9256 599.0788,1201.4955 619.79939,1226.7655 C 689.80516,1312.1414 737.51641,1383.433 775.06169,1458.763 C 792.28799,1493.3255 803.2763,1518.8186 814.04485,1549.2049 C 819.86096,1565.6165 820.21327,1567.7342 818.1982,1574.1698 L 816.9575,1578.1322 L 808.07235,1569.2167 z M 839.60893,1517.6904 C 838.18192,1512.355 838.12795,1511.2657 839.29061,1511.2657 C 839.77337,1511.2657 840.90626,1512.8207 841.80816,1514.7213 C 843.05669,1517.3524 843.1935,1518.6525 842.38149,1520.1697 C 841.79493,1521.2657 841.20026,1522.1624 841.06001,1522.1624 C 840.91976,1522.1624 840.26678,1520.15 839.60893,1517.6904 z M 1394.5645,1489.7198 C 1394.6555,1474.0768 1393.6208,1468.793 1388.2118,1457.2771 C 1383.5484,1447.3487 1380.1258,1442.8538 1363.0931,1424.2897 C 1344.1387,1403.6312 1339.8791,1396.4047 1337.0737,1380.1477 C 1331.9014,1350.1759 1349.6892,1325.0682 1379.0314,1320.9239 C 1400.2301,1317.9297 1422.6334,1328.2194 1430.3278,1344.4838 C 1431.7098,1347.4051 1433.2774,1349.7953 1433.8115,1349.7953 C 1434.3455,1349.7953 1436.0041,1347.915 1437.4972,1345.617 C 1442.2383,1338.32 1453.6285,1327.6427 1459.7227,1324.7827 C 1484.0976,1313.3433 1515.8154,1324.5474 1527.2233,1348.6268 C 1530.01,1354.5089 1530.3944,1356.3986 1530.6859,1365.6451 C 1531.0936,1378.5859 1529.3593,1386.6057 1523.5194,1398.7848 C 1509.6872,1427.6319 1477.3758,1457.2126 1428.8199,1485.4811 C 1418.009,1491.7751 1396.0362,1503.3407 1394.8896,1503.3407 C 1394.6673,1503.3407 1394.521,1497.2113 1394.5645,1489.7198 z M 819.66234,1452.2869 C 818.53351,1449.2699 817.60993,1446.5919 817.60993,1446.336 C 817.60993,1446.0802 814.29781,1437.5152 810.24965,1427.3028 C 781.53448,1354.8625 741.10844,1282.5487 683.0209,1199.717 C 664.33268,1173.0679 626.14298,1121.733 597.53451,1084.8056 C 508.50746,969.89035 475.82926,926.25693 442.84874,878.26215 C 412.1061,833.52401 380.51428,781.69135 364.56592,749.82363 C 340.68775,702.11071 323.45076,644.36282 316.85854,589.99295 C 314.58171,571.21473 313.81365,536.08205 315.31996,519.61612 C 319.07972,478.51716 330.42405,442.95805 348.80141,414.66767 C 355.27331,404.70473 371.51324,388.1552 380.74835,382.11168 C 394.37486,373.19442 408.03967,367.69909 425.82137,363.98551 C 437.594,361.52687 462.72929,361.04877 477.8287,362.99626 C 508.56398,366.96044 546.1112,379.3828 582.96456,397.78007 C 652.0604,432.27282 692.68564,467.23418 726.93467,521.67819 C 743.56796,548.11931 758.83546,583.73194 775.96986,636.05658 C 788.70571,674.94904 801.30437,698.79817 817.5728,714.81054 C 829.99465,727.03688 842.98776,732.47081 856.98048,731.29151 C 866.9102,730.45462 882.76972,727.10001 893.39204,723.58972 C 916.59285,715.92268 931.43729,702.96097 948.25944,675.68122 C 966.7631,645.67462 983.61592,612.53733 1002.6701,568.69471 C 1009.7739,552.34955 1017.3443,534.96416 1019.4932,530.06051 C 1025.1835,517.07597 1041.7757,484.15705 1048.7023,472.10967 C 1076.8939,423.07615 1108.0484,393.9252 1163.3349,364.84915 C 1239.6981,324.68855 1337.9976,310.24223 1410.3933,328.54091 C 1459.3545,340.91632 1493.5091,365.83287 1511.46,402.27125 C 1523.2909,426.28676 1528.1938,450.26875 1528.168,483.99706 C 1528.1268,538.09177 1511.607,611.36782 1484.0604,679.64368 C 1462.2612,733.6746 1440.5618,773.99383 1400.6243,834.67506 C 1320.6782,956.14581 1230.4555,1056.7605 1022.6529,1256.1821 C 943.07279,1332.5525 927.01225,1348.167 901.51234,1373.9578 C 869.42977,1406.4064 844.62601,1432.7996 832.81544,1447.0566 C 827.99386,1452.877 823.52374,1457.6691 822.88184,1457.7057 C 822.23994,1457.7424 820.79117,1455.3039 819.66234,1452.2869 z M 1736.2466,1274.4151 C 1743.5471,1234.3077 1734.5164,1194.0878 1711.8006,1165.5407 C 1709.4161,1162.5441 1695.7337,1147.1701 1681.3954,1131.3761 C 1655.6731,1103.0427 1650.1255,1095.9576 1643.7774,1083.3326 C 1627.9604,1051.8761 1626.8205,1016.263 1640.7329,988.22212 C 1652.0073,965.49856 1672.8942,948.67542 1697.9875,942.10714 C 1733.6912,932.76156 1772.5891,943.0764 1794.9898,967.82991 C 1799.9299,973.28898 1807.0123,985.45434 1808.4493,990.94917 C 1809.5225,995.05337 1811.8037,993.23409 1817.7106,983.56316 C 1824.4066,972.59983 1837.9017,958.25104 1847.3223,952.07796 C 1859.5205,944.08487 1872.982,939.9178 1889.4563,939.0352 C 1924.1855,937.17458 1954.2528,951.0215 1974.7421,978.31196 C 1981.7003,987.57995 1988.491,1003.6073 1988.533,1010.8613 C 1988.5434,1012.6471 1988.8115,1013.0659 1989.3753,1012.177 C 1990.6381,1010.1854 1991.6209,1023.8568 1990.8657,1032.9113 C 1990.5056,1037.2308 1989.9678,1040.5221 1989.6709,1040.2251 C 1989.3739,1039.9281 1988.2989,1043.8192 1987.282,1048.8721 C 1978.0977,1094.5066 1945.0302,1139.1108 1884.9985,1186.8408 C 1851.8582,1213.1899 1808.9144,1240.1249 1759.7941,1265.3706 L 1735.6325,1277.7887 L 1736.2466,1274.4151 z M 79.338939,1175.6284 C 79.949573,1160.2033 78.617519,1151.7244 73.590836,1139.0398 C 68.560667,1126.3464 64.876714,1121.4844 39.118139,1093.5431 C 23.945632,1077.0849 18.460796,1068.1668 14.70687,1053.8513 C 13.528534,1049.3578 12.268387,1045.9773 11.906544,1046.3391 C 11.5447,1046.701 11.248646,1041.9929 11.248646,1035.8767 C 11.248646,1028.7154 11.601323,1024.9743 12.239262,1025.3686 C 12.784101,1025.7053 13.229878,1025.0489 13.229878,1023.9099 C 13.229878,1019.8403 17.439814,1009.4163 21.491408,1003.4541 C 27.115611,995.17767 34.928142,988.60047 44.409796,984.15963 C 72.876287,970.827 109.46268,981.44131 121.77372,1006.6042 C 123.22442,1009.5693 124.99499,1011.9953 125.70833,1011.9953 C 126.42166,1011.9953 128.40786,1009.5438 130.12211,1006.5477 C 136.68932,995.06937 147.4851,985.75459 159.34572,981.33302 C 166.8032,978.55292 181.51603,977.5728 190.9998,979.22433 C 208.71515,982.30932 226.10015,995.73887 233.6081,1012.1384 C 242.24321,1031.0001 237.80413,1056.5272 221.4884,1081.8337 C 203.01813,1110.4819 162.70303,1144.2074 115.26331,1170.6962 C 102.99608,1177.5458 80.209508,1189.3155 79.215622,1189.3155 C 78.985439,1189.3155 79.040931,1183.1563 79.338939,1175.6284 z M 1645.7211,335.65045 C 1630.1668,305.1163 1607.8655,276.15123 1583.5295,254.87521 C 1551.0881,226.51297 1516.8718,207.14546 1474.1515,192.96377 C 1468.3004,191.02142 1463.6927,189.25273 1463.9121,189.03334 C 1464.4968,188.4487 1481.9344,193.2376 1496.1818,197.8956 C 1542.0568,212.89377 1577.7678,233.37331 1603.6941,259.55171 C 1622.9474,278.99218 1634.898,297.1693 1644.7784,322.04187 C 1647.7177,329.4412 1652.9778,347.34361 1652.3863,347.93508 C 1652.2379,348.08346 1649.2386,342.55538 1645.7211,335.65045 z M 1126.5683,222.11629 C 1129.5873,218.47865 1158.3142,203.02965 1174.4958,196.34141 C 1206.1752,183.2476 1236.199,175.865 1273.7886,171.92612 C 1291.7002,170.04923 1298.4466,169.81171 1322.3287,170.21718 C 1340.0688,170.51836 1355.9572,171.36236 1366.4111,172.55885 L 1382.7563,174.42961 L 1342.6364,175.00492 C 1313.3817,175.42442 1298.8946,176.04375 1289.1431,177.29179 C 1230.2385,184.83062 1184.326,197.64594 1129.2037,221.93482 C 1125.8792,223.39972 1125.4804,223.42718 1126.5683,222.11629 z M 709.85102,188.54589 C 711.49082,172.05766 707.44949,154.88836 698.83247,141.73433 C 696.68918,138.46256 690.32991,130.72702 684.70077,124.54422 C 665.69308,103.66707 662.3436,99.608691 659.1032,93.529085 C 647.96298,72.627884 649.04869,46.997626 661.71182,31.948368 C 668.34998,24.059351 680.47789,16.534867 689.18929,14.900599 C 691.16144,14.530623 692.52971,13.831018 692.2299,13.34592 C 691.92497,12.852535 696.10099,12.463925 701.70788,12.463925 C 707.22058,12.463925 711.48987,12.854024 711.1952,13.330811 C 710.90053,13.807599 712.37406,14.471876 714.4697,14.806984 C 716.56534,15.142091 721.84054,17.198395 726.19237,19.37655 C 735.02185,23.795849 741.9135,30.331733 745.47626,37.664964 C 746.71325,40.211069 748.35775,42.1824 749.24473,42.1824 C 750.11029,42.1824 752.70198,39.317577 755.00405,35.816125 C 757.30612,32.314675 761.30122,27.574126 763.88204,25.281574 C 768.87886,20.842883 778.37683,15.827796 783.67267,14.831789 C 785.43863,14.499659 786.63821,13.831018 786.3384,13.34592 C 786.03333,12.852301 790.2538,12.463925 795.92302,12.463925 C 801.49438,12.463925 805.76818,12.748495 805.42037,13.096302 C 805.07256,13.44411 808.31544,14.912222 812.62677,16.358773 C 826.44939,20.99659 836.50411,29.610802 842.63793,42.070361 C 845.73305,48.357456 845.84248,49.003306 845.84248,60.983271 C 845.84248,72.026712 845.53054,74.310105 842.99769,81.807033 C 830.81981,117.8521 790.06905,154.74828 723.3946,190.09692 C 716.52536,193.73877 710.48504,196.71847 709.97166,196.71847 C 709.39725,196.71847 709.35085,193.5751 709.85102,188.54589 z "
     style="fill:#fe0000"
     id="path3750" />
</svg>
