<?xml version="1.0" encoding="UTF-8" standalone="no"?>
<!-- Created with Inkscape (http://www.inkscape.org/) -->

<svg
   xmlns:dc="http://purl.org/dc/elements/1.1/"
   xmlns:cc="http://creativecommons.org/ns#"
   xmlns:rdf="http://www.w3.org/1999/02/22-rdf-syntax-ns#"
   xmlns:svg="http://www.w3.org/2000/svg"
   xmlns="http://www.w3.org/2000/svg"
   xmlns:xlink="http://www.w3.org/1999/xlink"
   xmlns:sodipodi="http://sodipodi.sourceforge.net/DTD/sodipodi-0.dtd"
   xmlns:inkscape="http://www.inkscape.org/namespaces/inkscape"
   inkscape:export-ydpi="90.000000"
   inkscape:export-xdpi="90.000000"
   inkscape:export-filename="/home/bauema/Dokumenty/obrázky/fotky_soubory/fotky-fotky_data/zvířata.jpg.png"
   width="580.92371"
   height="660.55042"
   id="svg2"
   sodipodi:version="0.32"
   inkscape:version="0.48.1 "
   sodipodi:docname="ladybug_love_4_art_coloring_book_colouring_sheet_page_black_white_line_art.svg"
   version="1.0">
  <defs
     id="defs3">
    <linearGradient
       inkscape:collect="always"
       id="linearGradient22096">
      <stop
         style="stop-color:#f2308d;stop-opacity:1;"
         offset="0"
         id="stop22098" />
      <stop
         style="stop-color:#f2308d;stop-opacity:0;"
         offset="1"
         id="stop22100" />
    </linearGradient>
    <linearGradient
       inkscape:collect="always"
       id="linearGradient20362">
      <stop
         style="stop-color:#f9d922;stop-opacity:1;"
         offset="0"
         id="stop20364" />
      <stop
         style="stop-color:#f9d922;stop-opacity:0;"
         offset="1"
         id="stop20366" />
    </linearGradient>
    <radialGradient
       inkscape:collect="always"
       xlink:href="#linearGradient20362"
       id="radialGradient20368"
       gradientTransform="scale(0.694068,1.440781)"
       cx="505.75394"
       cy="344.65759"
       fx="505.75394"
       fy="344.65759"
       r="69.566292"
       gradientUnits="userSpaceOnUse" />
    <linearGradient
       inkscape:collect="always"
       xlink:href="#linearGradient22096"
       id="linearGradient22104"
       gradientUnits="userSpaceOnUse"
       gradientTransform="scale(0.9806,1.019784)"
       x1="171.64322"
       y1="453.47787"
       x2="60.014729"
       y2="478.03018" />
    <linearGradient
       inkscape:collect="always"
       xlink:href="#linearGradient22096"
       id="linearGradient22106"
       gradientUnits="userSpaceOnUse"
       gradientTransform="scale(0.9806,1.019784)"
       x1="171.64322"
       y1="453.47787"
       x2="60.014729"
       y2="478.03018" />
    <linearGradient
       inkscape:collect="always"
       xlink:href="#linearGradient22096"
       id="linearGradient22177"
       gradientUnits="userSpaceOnUse"
       gradientTransform="scale(0.9806,1.019784)"
       x1="171.64322"
       y1="453.47787"
       x2="60.014729"
       y2="478.03018" />
    <linearGradient
       inkscape:collect="always"
       xlink:href="#linearGradient22096"
       id="linearGradient22179"
       gradientUnits="userSpaceOnUse"
       gradientTransform="scale(0.9806,1.019784)"
       x1="171.64322"
       y1="453.47787"
       x2="60.014729"
       y2="478.03018" />
    <linearGradient
       inkscape:collect="always"
       xlink:href="#linearGradient22096"
       id="linearGradient22271"
       gradientUnits="userSpaceOnUse"
       gradientTransform="matrix(1.198907,0,0,1.019784,286.0787,-401.0307)"
       x1="171.64322"
       y1="453.47787"
       x2="60.014729"
       y2="478.03018" />
    <linearGradient
       inkscape:collect="always"
       xlink:href="#linearGradient22096"
       id="linearGradient22274"
       gradientUnits="userSpaceOnUse"
       gradientTransform="matrix(0.978942,5.700517e-2,-5.928305e-2,1.01806,400.8396,-418.241)"
       x1="171.64322"
       y1="453.47787"
       x2="60.014729"
       y2="478.03018" />
    <linearGradient
       y2="478.03018"
       x2="60.014729"
       y1="453.47787"
       x1="171.64322"
       gradientTransform="matrix(-1.009703,0,0,1.069571,532.158,-423.3626)"
       gradientUnits="userSpaceOnUse"
       id="linearGradient1429"
       xlink:href="#linearGradient22096"
       inkscape:collect="always" />
  </defs>
  <sodipodi:namedview
     id="base"
     pagecolor="#ffffff"
     bordercolor="#666666"
     borderopacity="1.0"
     inkscape:pageopacity="0.0"
     inkscape:pageshadow="2"
     inkscape:zoom="0.46942014"
     inkscape:cx="372.04724"
     inkscape:cy="423.06529"
     inkscape:document-units="px"
     inkscape:current-layer="layer1"
     inkscape:window-width="1016"
     inkscape:window-height="693"
     inkscape:window-x="0"
     inkscape:window-y="0"
     showgrid="false"
     inkscape:window-maximized="0" />
  <metadata
     id="metadata4">
    <rdf:RDF>
      <cc:Work
         rdf:about="">
        <dc:format>image/svg+xml</dc:format>
        <dc:type
           rdf:resource="http://purl.org/dc/dcmitype/StillImage" />
        <dc:title>beruska</dc:title>
        <dc:creator>
          <cc:Agent>
            <dc:title>Marketa Bauerova</dc:title>
          </cc:Agent>
        </dc:creator>
        <dc:publisher>
          <cc:Agent>
            <dc:title>ZS a MS Machovo nam.</dc:title>
          </cc:Agent>
        </dc:publisher>
        <dc:language>cz</dc:language>
        <dc:subject>
          <rdf:Bag>
            <rdf:li>beruska</rdf:li>
            <rdf:li>lady bug</rdf:li>
          </rdf:Bag>
        </dc:subject>
        <cc:license
           rdf:resource="http://web.resource.org/cc/PublicDomain" />
      </cc:Work>
      <cc:License
         rdf:about="http://web.resource.org/cc/PublicDomain">
        <cc:permits
           rdf:resource="http://web.resource.org/cc/Reproduction" />
        <cc:permits
           rdf:resource="http://web.resource.org/cc/Distribution" />
        <cc:permits
           rdf:resource="http://web.resource.org/cc/DerivativeWorks" />
      </cc:License>
    </rdf:RDF>
  </metadata>
  <g
     inkscape:label="Layer 1"
     inkscape:groupmode="layer"
     id="layer1"
     transform="translate(-69.49835,-147.0356)">
    <g
       id="g4218"
       transform="matrix(1.345177,0,0,1.254992,-135.7124,-96.315)"
       inkscape:export-filename="/media/KINGSTON/inkscape/Bauerova Marketa/beruska.png"
       inkscape:export-xdpi="90"
       inkscape:export-ydpi="90"
       style="stroke:#000000;fill:#ffffff">
      <g
         transform="matrix(0.708151,0,0,0.827051,418.6078,243.5205)"
         id="g3092"
         style="stroke:#000000;fill:#ffffff">
        <path
           style="fill:#ffffff;fill-opacity:1;fill-rule:evenodd;stroke:#000000;stroke-width:1.20000005000000010;stroke-linecap:round;stroke-miterlimit:15.10000038000000100;stroke-dasharray:none;stroke-opacity:1"
           d="M -66.670071,137.16397 C -96.974645,100.79848 -140.05475,76.834261 -162.63456,47.260395 C -184.73027,18.320576 -191.4239,-112.3437 -67.680216,-35.572107 C 33.986266,-97.1372 68.741927,-12.265697 39.395947,29.077656 C 10.528712,69.746541 -38.385801,102.81879 -66.670071,137.16397 z "
           id="path2179"
           sodipodi:nodetypes="czczc" />
        <path
           sodipodi:nodetypes="czczc"
           id="path3078"
           d="M -66.670071,137.16397 C -96.974645,100.79848 -140.05475,76.834261 -162.63456,47.260395 C -184.73027,18.320576 -191.4239,-112.3437 -67.680216,-35.572107 C 33.986266,-97.1372 68.741927,-12.265697 39.395947,29.077656 C 10.528712,69.746541 -38.385801,102.81879 -66.670071,137.16397 z "
           style="fill:#ffffff;fill-opacity:1;fill-rule:evenodd;stroke:#000000;stroke-width:1.20000005000000010;stroke-linecap:round;stroke-miterlimit:15.10000038000000100;stroke-dasharray:none;stroke-opacity:1" />
      </g>
      <path
         sodipodi:type="arc"
         style="fill:#ffffff;fill-opacity:1;stroke:#000000;stroke-width:2.50000072000000010;stroke-linecap:round;stroke-linejoin:round;stroke-miterlimit:4;stroke-dasharray:none;stroke-dashoffset:0;stroke-opacity:1"
         id="path15784"
         sodipodi:cx="324.76404"
         sodipodi:cy="566.47882"
         sodipodi:rx="32.829956"
         sodipodi:ry="51.51778"
         d="m 357.59399,566.47882 c 0,28.45249 -14.69847,51.51778 -32.82995,51.51778 -18.13149,0 -32.82996,-23.06529 -32.82996,-51.51778 0,-28.45248 14.69847,-51.51778 32.82996,-51.51778 18.13148,0 32.82995,23.0653 32.82995,51.51778 z"
         transform="matrix(1.727346,0,0,1.887511,-349.5381,-594.6945)" />
      <path
         sodipodi:type="arc"
         style="fill:#ffffff;fill-opacity:1;stroke:#000000;stroke-width:2.50000072000000010;stroke-linecap:round;stroke-linejoin:round;stroke-miterlimit:4;stroke-dasharray:60.00001700000000000, 2.50000070000000020;stroke-dashoffset:0;stroke-opacity:1"
         id="path18836"
         sodipodi:cx="67.175148"
         sodipodi:cy="335.65897"
         sodipodi:rx="5.5558391"
         sodipodi:ry="7.5761442"
         d="m 72.730987,335.65897 c 0,4.18418 -2.487434,7.57614 -5.555839,7.57614 -3.068405,0 -5.555839,-3.39196 -5.555839,-7.57614 0,-4.18419 2.487434,-7.57615 5.555839,-7.57615 3.068405,0 5.555839,3.39196 5.555839,7.57615 z"
         transform="matrix(1.727346,0,0,1.887511,57.01966,-200.0127)" />
      <path
         sodipodi:type="arc"
         style="fill:#ffffff;fill-opacity:1;stroke:#000000;stroke-width:2.50000072000000010;stroke-linecap:round;stroke-linejoin:round;stroke-miterlimit:4;stroke-dasharray:60.00001700000000000, 2.50000070000000020;stroke-dashoffset:0;stroke-opacity:1"
         id="path14124"
         sodipodi:cx="67.175148"
         sodipodi:cy="335.65897"
         sodipodi:rx="5.5558391"
         sodipodi:ry="7.5761442"
         d="m 72.730987,335.65897 c 0,4.18418 -2.487434,7.57614 -5.555839,7.57614 -3.068405,0 -5.555839,-3.39196 -5.555839,-7.57614 0,-4.18419 2.487434,-7.57615 5.555839,-7.57615 3.068405,0 5.555839,3.39196 5.555839,7.57615 z"
         transform="matrix(1.727346,0,0,1.887511,378.078,-97.05241)" />
      <path
         sodipodi:type="arc"
         style="fill:#ffffff;fill-opacity:1;stroke:#000000;stroke-width:2.50000072000000010;stroke-linecap:round;stroke-linejoin:round;stroke-miterlimit:4;stroke-dasharray:none;stroke-dashoffset:0;stroke-opacity:1"
         id="path15020"
         sodipodi:cx="324.76404"
         sodipodi:cy="566.47882"
         sodipodi:rx="32.829956"
         sodipodi:ry="51.51778"
         d="m 357.59399,566.47882 c 0,28.45249 -14.69847,51.51778 -32.82995,51.51778 -18.13149,0 -32.82996,-23.06529 -32.82996,-51.51778 0,-28.45248 14.69847,-51.51778 32.82996,-51.51778 18.13148,0 32.82995,23.0653 32.82995,51.51778 z"
         transform="matrix(1.727346,0,0,1.887511,-35.45899,-592.7877)" />
      <path
         sodipodi:type="arc"
         style="fill:#ffffff;fill-opacity:1;stroke:#000000;stroke-width:2.50000072000000010;stroke-linecap:round;stroke-linejoin:round;stroke-miterlimit:4;stroke-dasharray:60.00001700000000000, 2.50000070000000020;stroke-dashoffset:0;stroke-opacity:1"
         id="path18834"
         sodipodi:cx="67.175148"
         sodipodi:cy="335.65897"
         sodipodi:rx="5.5558391"
         sodipodi:ry="7.5761442"
         d="m 72.730987,335.65897 c 0,4.18418 -2.487434,7.57614 -5.555839,7.57614 -3.068405,0 -5.555839,-3.39196 -5.555839,-7.57614 0,-4.18419 2.487434,-7.57615 5.555839,-7.57615 3.068405,0 5.555839,3.39196 5.555839,7.57615 z"
         transform="matrix(1.727346,0,0,1.887511,437.404,-205.7328)" />
      <path
         sodipodi:type="arc"
         style="fill:#ffffff;fill-opacity:1;stroke:#000000;stroke-width:2.50000072000000010;stroke-linecap:round;stroke-linejoin:round;stroke-miterlimit:4;stroke-dasharray:60.00001700000000000, 2.50000070000000020;stroke-dashoffset:0;stroke-opacity:1"
         id="path18832"
         sodipodi:cx="67.175148"
         sodipodi:cy="335.65897"
         sodipodi:rx="5.5558391"
         sodipodi:ry="7.5761442"
         d="m 72.730987,335.65897 c 0,4.18418 -2.487434,7.57614 -5.555839,7.57614 -3.068405,0 -5.555839,-3.39196 -5.555839,-7.57614 0,-4.18419 2.487434,-7.57615 5.555839,-7.57615 3.068405,0 5.555839,3.39196 5.555839,7.57615 z"
         transform="matrix(1.727346,0,0,1.887511,451.3631,-138.9993)" />
      <path
         sodipodi:type="arc"
         style="fill:#ffffff;fill-opacity:1;stroke:#000000;stroke-width:2.50000072000000010;stroke-linecap:round;stroke-linejoin:round;stroke-miterlimit:4;stroke-dasharray:none;stroke-dashoffset:0;stroke-opacity:1"
         id="path18844"
         sodipodi:cx="352.54324"
         sodipodi:cy="492.73767"
         sodipodi:rx="22.223356"
         sodipodi:ry="47.477169"
         d="m 374.7666,492.73767 c 0,26.22092 -9.94974,47.47717 -22.22336,47.47717 -12.27362,0 -22.22335,-21.25625 -22.22335,-47.47717 0,-26.22092 9.94973,-47.47717 22.22335,-47.47717 12.27362,0 22.22336,21.25625 22.22336,47.47717 z"
         transform="matrix(3.028202,0,0,1.887511,-578.6939,-428.8137)" />
      <path
         style="fill:#ffffff;fill-opacity:0.75000000000000000;fill-rule:evenodd;stroke:#000000;stroke-width:1.80565345000000010px;stroke-linecap:butt;stroke-linejoin:miter;stroke-opacity:1"
         d="M 453.10804,514.58081 C 450.78153,514.58081 450.78153,514.58081 453.10804,514.58081 C 540.54339,514.58081 394.47233,518.58273 372.84342,512.67414 C 372.04544,512.45613 371.68017,511.40302 371.09854,510.76745"
         id="path20376" />
      <path
         sodipodi:type="arc"
         style="fill:#ffffff;fill-opacity:1;stroke:#000000;stroke-width:2.50000072000000010;stroke-linecap:round;stroke-linejoin:round;stroke-miterlimit:4;stroke-dasharray:none;stroke-dashoffset:0;stroke-opacity:1"
         id="path15780"
         sodipodi:cx="324.76404"
         sodipodi:cy="566.47882"
         sodipodi:rx="32.829956"
         sodipodi:ry="51.51778"
         d="m 357.59399,566.47882 c 0,28.45249 -14.69847,51.51778 -32.82995,51.51778 -18.13149,0 -32.82996,-23.06529 -32.82996,-51.51778 0,-28.45248 14.69847,-51.51778 32.82996,-51.51778 18.13148,0 32.82995,23.0653 32.82995,51.51778 z"
         transform="matrix(1.727346,0,0,1.887511,-49.4182,-569.9076)" />
      <path
         transform="matrix(1.454543,0,0,1.650013,210.2601,-371.7991)"
         d="m 234.3554,448.79605 c 0,21.47884 -18.09043,38.89087 -40.4061,38.89087 -22.31568,0 -40.40611,-17.41203 -40.40611,-38.89087 0,-21.47884 18.09043,-38.89087 40.40611,-38.89087 22.31567,0 40.4061,17.41203 40.4061,38.89087 z"
         sodipodi:ry="38.890873"
         sodipodi:rx="40.406101"
         sodipodi:cy="448.79605"
         sodipodi:cx="193.9493"
         id="path14078"
         style="fill:#ffffff;fill-opacity:1;stroke:#000000;stroke-width:2.50000072000000010;stroke-linecap:round;stroke-linejoin:round;stroke-miterlimit:4;stroke-dasharray:none;stroke-dashoffset:0;stroke-opacity:1"
         sodipodi:type="arc" />
      <path
         transform="matrix(1.727346,0,0,1.887511,296.0684,-623.2945)"
         d="m 87.883269,460.91788 c 0,0.83683 -1.809043,1.51523 -4.04061,1.51523 -2.231567,0 -4.04061,-0.6784 -4.04061,-1.51523 0,-0.83684 1.809043,-1.51523 4.04061,-1.51523 2.231567,0 4.04061,0.67839 4.04061,1.51523 z"
         sodipodi:ry="1.5152289"
         sodipodi:rx="4.0406103"
         sodipodi:cy="460.91788"
         sodipodi:cx="83.842659"
         id="path14092"
         style="fill:#ffffff;fill-opacity:1;stroke:#000000;stroke-width:2.50000072000000010;stroke-linecap:round;stroke-linejoin:round;stroke-miterlimit:4;stroke-dasharray:60.00001700000000000, 2.50000070000000020;stroke-dashoffset:0;stroke-opacity:1"
         sodipodi:type="arc" />
      <g
         transform="matrix(1.727346,0,0,1.887511,-271.0184,-451.6938)"
         id="g14999"
         style="stroke:#000000;fill:#ffffff">
        <path
           transform="translate(354.5635,-95.96458)"
           d="m 87.883269,460.91788 c 0,0.83683 -1.809043,1.51523 -4.04061,1.51523 -2.231567,0 -4.04061,-0.6784 -4.04061,-1.51523 0,-0.83684 1.809043,-1.51523 4.04061,-1.51523 2.231567,0 4.04061,0.67839 4.04061,1.51523 z"
           sodipodi:ry="1.5152289"
           sodipodi:rx="4.0406103"
           sodipodi:cy="460.91788"
           sodipodi:cx="83.842659"
           id="path14084"
           style="fill:#ffffff;fill-opacity:1;stroke:#000000;stroke-width:2.50000072000000010;stroke-linecap:round;stroke-linejoin:round;stroke-miterlimit:4;stroke-dasharray:60.00001700000000000, 2.50000070000000020;stroke-dashoffset:0;stroke-opacity:1"
           sodipodi:type="arc" />
        <path
           id="path14100"
           d="M 429.31484,401.82395 C 430.66506,399.12351 424.12342,387.11921 423.25392,383.6412 C 422.05897,378.86139 419.10781,374.33883 417.19301,370.50922 C 416.65007,369.42334 415.1727,369.16235 414.16255,368.48891"
           style="fill:#ffffff;fill-opacity:0.75000000000000000;fill-rule:evenodd;stroke:#000000;stroke-width:1px;stroke-linecap:butt;stroke-linejoin:miter;stroke-opacity:1" />
        <path
           id="path14102"
           d="M 458.60926,411.92547 C 456.45598,407.61893 453.50399,405.64653 451.53819,397.78334 C 450.28455,392.7688 450.67384,387.25487 449.51788,382.63105 C 448.28618,377.70423 447.5753,374.8607 446.48742,370.50922 C 446.29126,369.72455 442.7583,367.71238 442.44681,367.47876"
           style="fill:#ffffff;fill-opacity:0.75000000000000000;fill-rule:evenodd;stroke:#000000;stroke-width:1px;stroke-linecap:butt;stroke-linejoin:miter;stroke-opacity:1" />
        <path
           transform="matrix(1.636364,0,0,1,337.5747,100.0051)"
           d="m 72.730987,335.65897 c 0,4.18418 -2.487434,7.57614 -5.555839,7.57614 -3.068405,0 -5.555839,-3.39196 -5.555839,-7.57614 0,-4.18419 2.487434,-7.57615 5.555839,-7.57615 3.068405,0 5.555839,3.39196 5.555839,7.57615 z"
           sodipodi:ry="7.5761442"
           sodipodi:rx="5.5558391"
           sodipodi:cy="335.65897"
           sodipodi:cx="67.175148"
           id="path14896"
           style="fill:#ffffff;fill-opacity:1;stroke:#000000;stroke-width:2.50000072000000010;stroke-linecap:round;stroke-linejoin:round;stroke-miterlimit:4;stroke-dasharray:60.00001700000000000, 2.50000070000000020;stroke-dashoffset:0;stroke-opacity:1"
           sodipodi:type="arc" />
        <path
           transform="matrix(0,-0.522667,1.636364,0,-305.9053,479.991)"
           d="m 87.883269,460.91788 c 0,0.83683 -1.809043,1.51523 -4.04061,1.51523 -2.231567,0 -4.04061,-0.6784 -4.04061,-1.51523 0,-0.83684 1.809043,-1.51523 4.04061,-1.51523 2.231567,0 4.04061,0.67839 4.04061,1.51523 z"
           sodipodi:ry="1.5152289"
           sodipodi:rx="4.0406103"
           sodipodi:cy="460.91788"
           sodipodi:cx="83.842659"
           id="path14898"
           style="fill:#ffffff;fill-opacity:1;stroke:#000000;stroke-width:2.50000072000000010;stroke-linecap:round;stroke-linejoin:round;stroke-miterlimit:4;stroke-dasharray:60.00001700000000000, 2.50000070000000020;stroke-dashoffset:0;stroke-opacity:1"
           sodipodi:type="arc" />
        <path
           transform="matrix(1.818182,0,0,1,308.1884,98.99495)"
           d="m 72.730987,335.65897 c 0,4.18418 -2.487434,7.57614 -5.555839,7.57614 -3.068405,0 -5.555839,-3.39196 -5.555839,-7.57614 0,-4.18419 2.487434,-7.57615 5.555839,-7.57615 3.068405,0 5.555839,3.39196 5.555839,7.57615 z"
           sodipodi:ry="7.5761442"
           sodipodi:rx="5.5558391"
           sodipodi:cy="335.65897"
           sodipodi:cx="67.175148"
           id="path14902"
           style="fill:#ffffff;fill-opacity:1;stroke:#000000;stroke-width:2.50000072000000010;stroke-linecap:round;stroke-linejoin:round;stroke-miterlimit:4;stroke-dasharray:60.00001700000000000, 2.50000070000000020;stroke-dashoffset:0;stroke-opacity:1"
           sodipodi:type="arc" />
        <path
           transform="matrix(0,-0.522667,1.818182,0,-406.7893,478.9809)"
           d="m 87.883269,460.91788 c 0,0.83683 -1.809043,1.51523 -4.04061,1.51523 -2.231567,0 -4.04061,-0.6784 -4.04061,-1.51523 0,-0.83684 1.809043,-1.51523 4.04061,-1.51523 2.231567,0 4.04061,0.67839 4.04061,1.51523 z"
           sodipodi:ry="1.5152289"
           sodipodi:rx="4.0406103"
           sodipodi:cy="460.91788"
           sodipodi:cx="83.842659"
           id="path14904"
           style="fill:#ffffff;fill-opacity:1;stroke:#000000;stroke-width:2.50000072000000010;stroke-linecap:round;stroke-linejoin:round;stroke-miterlimit:4;stroke-dasharray:60.00001700000000000, 2.50000070000000020;stroke-dashoffset:0;stroke-opacity:1"
           sodipodi:type="arc" />
      </g>
      <path
         sodipodi:type="arc"
         style="fill:#ffffff;fill-opacity:1;stroke:#000000;stroke-width:2.50000072000000010;stroke-linecap:round;stroke-linejoin:round;stroke-miterlimit:4;stroke-dasharray:none;stroke-dashoffset:0;stroke-opacity:1"
         id="path18838"
         sodipodi:cx="352.54324"
         sodipodi:cy="492.73767"
         sodipodi:rx="22.223356"
         sodipodi:ry="47.477169"
         d="m 374.7666,492.73767 c 0,26.22092 -9.94974,47.47717 -22.22336,47.47717 -12.27362,0 -22.22335,-21.25625 -22.22335,-47.47717 0,-26.22092 9.94973,-47.47717 22.22335,-47.47717 12.27362,0 22.22336,21.25625 22.22336,47.47717 z"
         transform="matrix(3.028202,0,0,1.887511,-809.0184,-438.3471)" />
      <path
         sodipodi:type="arc"
         style="fill:#ffffff;fill-opacity:1;stroke:#000000;stroke-width:2.50000072000000010;stroke-linecap:round;stroke-linejoin:round;stroke-miterlimit:4;stroke-dasharray:none;stroke-dashoffset:0;stroke-opacity:1"
         id="path15782"
         sodipodi:cx="324.76404"
         sodipodi:cy="566.47882"
         sodipodi:rx="32.829956"
         sodipodi:ry="51.51778"
         d="m 357.59399,566.47882 c 0,28.45249 -14.69847,51.51778 -32.82995,51.51778 -18.13149,0 -32.82996,-23.06529 -32.82996,-51.51778 0,-28.45248 14.69847,-51.51778 32.82996,-51.51778 18.13148,0 32.82995,23.0653 32.82995,51.51778 z"
         transform="matrix(1.727346,0,0,1.887511,-339.0688,-577.5343)" />
      <path
         sodipodi:type="arc"
         style="fill:#ffffff;fill-opacity:1;stroke:#000000;stroke-width:2.50000072000000010;stroke-linecap:round;stroke-linejoin:round;stroke-miterlimit:4;stroke-dasharray:none;stroke-dashoffset:0;stroke-opacity:1"
         id="path12558"
         sodipodi:cx="193.9493"
         sodipodi:cy="448.79605"
         sodipodi:rx="40.406101"
         sodipodi:ry="38.890873"
         d="m 234.3554,448.79605 c 0,21.47884 -18.09043,38.89087 -40.4061,38.89087 -22.31568,0 -40.40611,-17.41203 -40.40611,-38.89087 0,-21.47884 18.09043,-38.89087 40.40611,-38.89087 22.31567,0 40.4061,17.41203 40.4061,38.89087 z"
         transform="matrix(1.454543,0,0,1.650013,-13.08468,-371.7991)" />
      <path
         sodipodi:type="arc"
         style="fill:#ffffff;fill-opacity:1;stroke:#000000;stroke-width:2.50000072000000010;stroke-linecap:round;stroke-linejoin:round;stroke-miterlimit:4;stroke-dasharray:60.00001700000000000, 2.50000070000000020;stroke-dashoffset:0;stroke-opacity:1"
         id="path14080"
         sodipodi:cx="83.842659"
         sodipodi:cy="460.91788"
         sodipodi:rx="4.0406103"
         sodipodi:ry="1.5152289"
         d="m 87.883269,460.91788 c 0,0.83683 -1.809043,1.51523 -4.04061,1.51523 -2.231567,0 -4.04061,-0.6784 -4.04061,-1.51523 0,-0.83684 1.809043,-1.51523 4.04061,-1.51523 2.231567,0 4.04061,0.67839 4.04061,1.51523 z"
         transform="matrix(1.727346,0,0,1.887511,158.223,-630.9213)" />
      <path
         sodipodi:type="arc"
         style="fill:#ffffff;fill-opacity:1;stroke:#000000;stroke-width:2.50000072000000010;stroke-linecap:round;stroke-linejoin:round;stroke-miterlimit:4;stroke-dasharray:60.00001700000000000, 2.50000070000000020;stroke-dashoffset:0;stroke-opacity:1"
         id="path14086"
         sodipodi:cx="83.842659"
         sodipodi:cy="460.91788"
         sodipodi:rx="4.0406103"
         sodipodi:ry="1.5152289"
         d="m 87.883269,460.91788 c 0,0.83683 -1.809043,1.51523 -4.04061,1.51523 -2.231567,0 -4.04061,-0.6784 -4.04061,-1.51523 0,-0.83684 1.809043,-1.51523 4.04061,-1.51523 2.231567,0 4.04061,0.67839 4.04061,1.51523 z"
         transform="matrix(1.727346,0,0,1.887511,109.3662,-640.4546)" />
      <path
         style="fill:#ffffff;fill-opacity:0.75000000000000000;fill-rule:evenodd;stroke:#000000;stroke-width:1.80565345000000010px;stroke-linecap:butt;stroke-linejoin:miter;stroke-opacity:1"
         d="M 245.46697,308.66002 C 237.88121,303.45944 237.99088,289.857 240.23232,280.05991 C 242.61846,269.63034 245.06099,266.58097 247.21185,257.17982 C 249.2287,248.36433 251.67625,239.79643 254.19138,234.29974 C 255.32984,231.81169 256.99792,226.6328 257.68114,224.76637"
         id="path14096" />
      <path
         style="fill:#ffffff;fill-opacity:0.75000000000000000;fill-rule:evenodd;stroke:#000000;stroke-width:1.80565345000000010px;stroke-linecap:butt;stroke-linejoin:miter;stroke-opacity:1"
         d="M 289.08902,306.75335 C 292.56049,299.16667 291.05847,284.79841 292.5788,278.15324 C 294.44969,269.97575 298.70044,262.86803 301.30321,257.17982 C 303.49878,252.38152 303.39944,246.11072 304.79298,240.01976"
         id="path14098" />
      <path
         sodipodi:type="arc"
         style="fill:#ffffff;fill-opacity:1;stroke:#000000;stroke-width:2.50000072000000010;stroke-linecap:round;stroke-linejoin:round;stroke-miterlimit:4;stroke-dasharray:60.00001700000000000, 2.50000070000000020;stroke-dashoffset:0;stroke-opacity:1"
         id="path14908"
         sodipodi:cx="67.175148"
         sodipodi:cy="335.65897"
         sodipodi:rx="5.5558391"
         sodipodi:ry="7.5761442"
         d="m 72.730987,335.65897 c 0,4.18418 -2.487434,7.57614 -5.555839,7.57614 -3.068405,0 -5.555839,-3.39196 -5.555839,-7.57614 0,-4.18419 2.487434,-7.57615 5.555839,-7.57615 3.068405,0 5.555839,3.39196 5.555839,7.57615 z"
         transform="matrix(3.140629,0,0,1.887511,74.62718,-270.5598)" />
      <path
         sodipodi:type="arc"
         style="fill:#ffffff;fill-opacity:1;stroke:#000000;stroke-width:2.50000072000000010;stroke-linecap:round;stroke-linejoin:round;stroke-miterlimit:4;stroke-dasharray:60.00001700000000000, 2.50000070000000020;stroke-dashoffset:0;stroke-opacity:1"
         id="path14910"
         sodipodi:cx="83.842659"
         sodipodi:cy="460.91788"
         sodipodi:rx="4.0406103"
         sodipodi:ry="1.5152289"
         d="m 87.883269,460.91788 c 0,0.83683 -1.809043,1.51523 -4.04061,1.51523 -2.231567,0 -4.04061,-0.6784 -4.04061,-1.51523 0,-0.83684 1.809043,-1.51523 4.04061,-1.51523 2.231567,0 4.04061,0.67839 4.04061,1.51523 z"
         transform="matrix(0,-0.98654,3.140629,0,-1160.387,446.6678)" />
      <path
         sodipodi:type="arc"
         style="fill:#ffffff;fill-opacity:1;stroke:#000000;stroke-width:2.50000072000000010;stroke-linecap:round;stroke-linejoin:round;stroke-miterlimit:4;stroke-dasharray:60.00001700000000000, 2.50000070000000020;stroke-dashoffset:0;stroke-opacity:1"
         id="path14914"
         sodipodi:cx="67.175148"
         sodipodi:cy="335.65897"
         sodipodi:rx="5.5558391"
         sodipodi:ry="7.5761442"
         d="m 72.730987,335.65897 c 0,4.18418 -2.487434,7.57614 -5.555839,7.57614 -3.068405,0 -5.555839,-3.39196 -5.555839,-7.57614 0,-4.18419 2.487434,-7.57615 5.555839,-7.57615 3.068405,0 5.555839,3.39196 5.555839,7.57615 z"
         transform="matrix(3.297661,0,0,2.139179,33.54312,-355.0345)" />
      <path
         sodipodi:type="arc"
         style="fill:#ffffff;fill-opacity:1;stroke:#000000;stroke-width:2.50000072000000010;stroke-linecap:round;stroke-linejoin:round;stroke-miterlimit:4;stroke-dasharray:60.00001700000000000, 2.50000070000000020;stroke-dashoffset:0;stroke-opacity:1"
         id="path14916"
         sodipodi:cx="83.842659"
         sodipodi:cy="460.91788"
         sodipodi:rx="4.0406103"
         sodipodi:ry="1.5152289"
         d="m 87.883269,460.91788 c 0,0.83683 -1.809043,1.51523 -4.04061,1.51523 -2.231567,0 -4.04061,-0.6784 -4.04061,-1.51523 0,-0.83684 1.809043,-1.51523 4.04061,-1.51523 2.231567,0 4.04061,0.67839 4.04061,1.51523 z"
         transform="matrix(0,-1.118078,3.297661,0,-1263.221,457.8232)" />
      <path
         sodipodi:type="arc"
         style="fill:#ffffff;fill-opacity:1;stroke:#000000;stroke-width:2.50000072000000010;stroke-linecap:round;stroke-linejoin:round;stroke-miterlimit:4;stroke-dasharray:60.00001700000000000, 2.50000070000000020;stroke-dashoffset:0;stroke-opacity:1"
         id="path18818"
         sodipodi:cx="67.175148"
         sodipodi:cy="335.65897"
         sodipodi:rx="5.5558391"
         sodipodi:ry="7.5761442"
         d="m 72.730987,335.65897 c 0,4.18418 -2.487434,7.57614 -5.555839,7.57614 -3.068405,0 -5.555839,-3.39196 -5.555839,-7.57614 0,-4.18419 2.487434,-7.57615 5.555839,-7.57615 3.068405,0 5.555839,3.39196 5.555839,7.57615 z"
         transform="matrix(1.727346,0,0,1.887511,128.5598,-177.1327)" />
      <path
         sodipodi:type="arc"
         style="fill:#ffffff;fill-opacity:1;stroke:#000000;stroke-width:2.50000072000000010;stroke-linecap:round;stroke-linejoin:round;stroke-miterlimit:4;stroke-dasharray:60.00001700000000000, 2.50000070000000020;stroke-dashoffset:0;stroke-opacity:1"
         id="path18820"
         sodipodi:cx="67.175148"
         sodipodi:cy="335.65897"
         sodipodi:rx="5.5558391"
         sodipodi:ry="7.5761442"
         d="m 72.730987,335.65897 c 0,4.18418 -2.487434,7.57614 -5.555839,7.57614 -3.068405,0 -5.555839,-3.39196 -5.555839,-7.57614 0,-4.18419 2.487434,-7.57615 5.555839,-7.57615 3.068405,0 5.555839,3.39196 5.555839,7.57615 z"
         transform="matrix(1.727346,0,0,1.887511,378.078,-159.9726)" />
      <path
         sodipodi:type="arc"
         style="fill:#ffffff;fill-opacity:1;stroke:#000000;stroke-width:2.50000072000000010;stroke-linecap:round;stroke-linejoin:round;stroke-miterlimit:4;stroke-dasharray:60.00001700000000000, 2.50000070000000020;stroke-dashoffset:0;stroke-opacity:1"
         id="path18822"
         sodipodi:cx="67.175148"
         sodipodi:cy="335.65897"
         sodipodi:rx="5.5558391"
         sodipodi:ry="7.5761442"
         d="m 72.730987,335.65897 c 0,4.18418 -2.487434,7.57614 -5.555839,7.57614 -3.068405,0 -5.555839,-3.39196 -5.555839,-7.57614 0,-4.18419 2.487434,-7.57615 5.555839,-7.57615 3.068405,0 5.555839,3.39196 5.555839,7.57615 z"
         transform="matrix(1.727346,0,0,1.887511,98.89674,-72.26561)" />
      <path
         sodipodi:type="arc"
         style="fill:#ffffff;fill-opacity:1;stroke:#000000;stroke-width:2.50000072000000010;stroke-linecap:round;stroke-linejoin:round;stroke-miterlimit:4;stroke-dasharray:60.00001700000000000, 2.50000070000000020;stroke-dashoffset:0;stroke-opacity:1"
         id="path18824"
         sodipodi:cx="67.175148"
         sodipodi:cy="335.65897"
         sodipodi:rx="5.5558391"
         sodipodi:ry="7.5761442"
         d="m 72.730987,335.65897 c 0,4.18418 -2.487434,7.57614 -5.555839,7.57614 -3.068405,0 -5.555839,-3.39196 -5.555839,-7.57614 0,-4.18419 2.487434,-7.57615 5.555839,-7.57615 3.068405,0 5.555839,3.39196 5.555839,7.57615 z"
         transform="matrix(1.727346,0,0,1.887511,119.8355,-114.2123)" />
      <path
         sodipodi:type="arc"
         style="fill:#ffffff;fill-opacity:1;stroke:#000000;stroke-width:2.50000072000000010;stroke-linecap:round;stroke-linejoin:round;stroke-miterlimit:4;stroke-dasharray:60.00001700000000000, 2.50000070000000020;stroke-dashoffset:0;stroke-opacity:1"
         id="path18826"
         sodipodi:cx="67.175148"
         sodipodi:cy="335.65897"
         sodipodi:rx="5.5558391"
         sodipodi:ry="7.5761442"
         d="m 72.730987,335.65897 c 0,4.18418 -2.487434,7.57614 -5.555839,7.57614 -3.068405,0 -5.555839,-3.39196 -5.555839,-7.57614 0,-4.18419 2.487434,-7.57615 5.555839,-7.57615 3.068405,0 5.555839,3.39196 5.555839,7.57615 z"
         transform="matrix(1.727346,0,0,1.887511,79.70299,-169.506)" />
      <path
         sodipodi:type="arc"
         style="fill:#ffffff;fill-opacity:1;stroke:#000000;stroke-width:2.50000072000000010;stroke-linecap:round;stroke-linejoin:round;stroke-miterlimit:4;stroke-dasharray:60.00001700000000000, 2.50000070000000020;stroke-dashoffset:0;stroke-opacity:1"
         id="path18828"
         sodipodi:cx="67.175148"
         sodipodi:cy="335.65897"
         sodipodi:rx="5.5558391"
         sodipodi:ry="7.5761442"
         d="m 72.730987,335.65897 c 0,4.18418 -2.487434,7.57614 -5.555839,7.57614 -3.068405,0 -5.555839,-3.39196 -5.555839,-7.57614 0,-4.18419 2.487434,-7.57615 5.555839,-7.57615 3.068405,0 5.555839,3.39196 5.555839,7.57615 z"
         transform="matrix(1.727346,0,0,1.887511,414.7205,-137.0926)" />
      <path
         sodipodi:type="arc"
         style="fill:#ffffff;fill-opacity:1;stroke:#000000;stroke-width:2.50000072000000010;stroke-linecap:round;stroke-linejoin:round;stroke-miterlimit:4;stroke-dasharray:60.00001700000000000, 2.50000070000000020;stroke-dashoffset:0;stroke-opacity:1"
         id="path18830"
         sodipodi:cx="67.175148"
         sodipodi:cy="335.65897"
         sodipodi:rx="5.5558391"
         sodipodi:ry="7.5761442"
         d="m 72.730987,335.65897 c 0,4.18418 -2.487434,7.57614 -5.555839,7.57614 -3.068405,0 -5.555839,-3.39196 -5.555839,-7.57614 0,-4.18419 2.487434,-7.57615 5.555839,-7.57615 3.068405,0 5.555839,3.39196 5.555839,7.57615 z"
         transform="matrix(1.727346,0,0,1.887511,390.2922,-85.61239)" />
      <path
         style="fill:#ffffff;fill-opacity:0.75000000000000000;fill-rule:evenodd;stroke:#000000;stroke-width:1.80565345000000010px;stroke-linecap:butt;stroke-linejoin:miter;stroke-opacity:1"
         d="M 280.36463,501.23409 C 289.29048,503.24614 306.18571,510.15524 318.75204,518.39415 C 328.4257,524.73653 357.1937,517.41119 365.86389,512.67414 C 369.70084,510.57778 369.51555,511.67657 372.84342,510.76745"
         id="path20370" />
      <path
         style="fill:#ffffff;fill-opacity:0.75000000000000000;fill-rule:evenodd;stroke:#000000;stroke-width:1.80565345000000010px;stroke-linecap:butt;stroke-linejoin:miter;stroke-opacity:1"
         d="M 325.73158,466.91397 C 329.45326,464.88057 344.03564,480.01763 351.90482,482.16736 C 374.2825,488.2805 369.33803,489.82822 376.33319,474.54066"
         id="path20372" />
      <path
         style="fill:#ffffff;fill-opacity:0.75000000000000000;fill-rule:evenodd;stroke:#000000;stroke-width:1.80565345000000010px;stroke-linecap:butt;stroke-linejoin:miter;stroke-opacity:1"
         d="M 425.18991,468.82064 C 436.08762,471.79768 405.01512,482.16736 393.78201,482.16736 C 383.48187,482.16736 380.79361,475.60131 376.33319,470.72731"
         id="path20374" />
      <path
         sodipodi:type="arc"
         style="fill:#ffffff;fill-opacity:1;stroke:#000000;stroke-width:2.50000072000000010;stroke-linecap:round;stroke-linejoin:round;stroke-miterlimit:4;stroke-dasharray:60.00001700000000000, 2.50000070000000020;stroke-dashoffset:0;stroke-opacity:1"
         id="path20389"
         sodipodi:cx="83.842659"
         sodipodi:cy="460.91788"
         sodipodi:rx="4.0406103"
         sodipodi:ry="1.5152289"
         d="m 87.883269,460.91788 c 0,0.83683 -1.809043,1.51523 -4.04061,1.51523 -2.231567,0 -4.04061,-0.6784 -4.04061,-1.51523 0,-0.83684 1.809043,-1.51523 4.04061,-1.51523 2.231567,0 4.04061,0.67839 4.04061,1.51523 z"
         transform="matrix(1.727346,0,0,1.887511,226.2735,-362.0802)" />
      <path
         sodipodi:type="arc"
         style="fill:#ffffff;fill-opacity:1;stroke:#000000;stroke-width:2.50000072000000010;stroke-linecap:round;stroke-linejoin:round;stroke-miterlimit:4;stroke-dasharray:60.00001700000000000, 2.50000070000000020;stroke-dashoffset:0;stroke-opacity:1"
         id="path20391"
         sodipodi:cx="83.842659"
         sodipodi:cy="460.91788"
         sodipodi:rx="4.0406103"
         sodipodi:ry="1.5152289"
         d="m 87.883269,460.91788 c 0,0.83683 -1.809043,1.51523 -4.04061,1.51523 -2.231567,0 -4.04061,-0.6784 -4.04061,-1.51523 0,-0.83684 1.809043,-1.51523 4.04061,-1.51523 2.231567,0 4.04061,0.67839 4.04061,1.51523 z"
         transform="matrix(1.727346,0,0,1.887511,229.7632,-398.3072)" />
      <path
         style="fill:#ffffff;fill-opacity:0.75000000000000000;fill-rule:evenodd;stroke:#000000;stroke-width:1.80565345000000010px;stroke-linecap:butt;stroke-linejoin:miter;stroke-opacity:1"
         d="M 245.46697,577.50105 C 240.82309,584.28605 229.76301,591.38915 229.76301,604.19449 C 229.76301,614.36837 228.01813,622.374 228.01813,632.79461 C 228.01813,641.27499 232.22282,651.51707 234.99767,657.58136 C 237.28832,662.58746 234.99767,676.48935 234.99767,682.36812"
         id="path20436" />
      <path
         style="fill:#ffffff;fill-opacity:0.75000000000000000;fill-rule:evenodd;stroke:#000000;stroke-width:1.80565345000000010px;stroke-linecap:butt;stroke-linejoin:miter;stroke-opacity:1"
         d="M 283.8544,577.50107 C 285.81185,581.77896 285.59928,599.42286 285.59928,609.91452 C 285.59928,619.44788 285.59928,628.98125 285.59928,638.51463 C 285.59928,648.82841 290.9882,654.10521 294.32369,661.39472"
         id="path20438" />
      <path
         style="fill:#ffffff;fill-opacity:0.75000000000000000;fill-rule:evenodd;stroke:#000000;stroke-width:1.80565345000000010px;stroke-linecap:butt;stroke-linejoin:miter;stroke-opacity:1"
         d="M 461.83245,585.12774 C 461.83245,589.91498 461.83245,606.85751 461.83245,617.54121 C 461.83245,627.38974 460.14041,636.37699 458.34269,644.23464 C 456.22075,653.5094 453.23393,657.85651 458.34269,669.02142 C 458.86292,670.15832 458.34269,671.56365 458.34269,672.83475"
         id="path20440" />
      <path
         style="fill:#ffffff;fill-opacity:0.75000000000000000;fill-rule:evenodd;stroke:#000000;stroke-width:1.80565345000000010px;stroke-linecap:butt;stroke-linejoin:miter;stroke-opacity:1"
         d="M 515.92382,598.47447 C 517.6985,602.3529 515.85552,625.46642 514.17894,632.79461 C 511.84457,642.99789 510.68917,651.56419 510.68917,663.30139 C 510.68917,666.42296 516.98923,670.18559 517.6687,670.92809"
         id="path20442" />
      <path
         style="fill:#ffffff;fill-opacity:1;fill-rule:nonzero;stroke:#000000;stroke-width:1px;stroke-linecap:butt;stroke-linejoin:miter;stroke-opacity:1"
         id="path20448"
         d="M 539.25921,653.47614 C 532.03089,654.63456 528.5837,662.01694 523.55995,667.14138 C 517.65048,672.99531 510.80872,672.6233 503.3082,672.70416 C 495.14969,669.85017 487.35038,667.03338 478.82247,668.81288 C 470.11759,672.82417 469.39831,681.71878 469.30548,690.82853 C 476.30592,706.7319 493.32034,711.99698 507.97553,710.45411 C 516.77855,705.35617 525.68442,700.40055 534.92478,696.27143 C 543.99862,691.44786 551.53895,684.27481 557.2085,675.23246 C 559.17211,672.59211 558.833,669.33806 559.41789,666.35619 L 537.43223,654.75657 C 537.0797,656.77762 538.29352,659.91955 536.18537,661.90484 C 530.5248,670.27208 523.84823,677.43015 514.88303,681.59324 C 505.75013,685.76409 497.06469,691.00518 488.00036,695.23458 C 460.63148,695.8992 504.75992,710.04926 491.4042,702.10107 C 490.70148,694.36927 491.03138,687.05483 498.78803,683.86824 C 507.19781,683.33841 514.71577,686.96966 522.96312,688.29972 C 530.98454,688.05815 537.99055,687.58363 544.20099,681.29433 C 548.83336,676.15723 552.00621,669.21734 559.20752,669.3133 L 539.25921,653.47614 z " />
      <path
         style="fill:#ffffff;fill-opacity:1;fill-rule:nonzero;stroke:#000000;stroke-width:1px;stroke-linecap:butt;stroke-linejoin:miter;stroke-opacity:1"
         id="path20450"
         d="M 271.35379,642.03609 C 278.58211,643.19451 282.02931,650.57688 287.05305,655.70133 C 292.96253,661.55525 299.80428,661.18324 307.3048,661.2641 C 315.46332,658.41011 323.26263,655.59332 331.79054,657.37283 C 340.49541,661.38411 341.21469,670.27872 341.30752,679.38848 C 334.30709,695.29185 317.29266,700.55693 302.63748,699.01406 C 293.83446,693.91612 284.92859,688.9605 275.68822,684.83138 C 266.61439,680.00781 259.07405,672.83475 253.40451,663.79241 C 251.44089,661.15206 251.78001,657.89801 251.19511,654.91614 L 273.18077,643.31652 C 273.5333,645.33757 272.31948,648.4795 274.42764,650.46479 C 280.0882,658.83203 286.76477,665.99009 295.72998,670.15319 C 304.86287,674.32404 313.54831,679.56513 322.61265,683.79453 C 349.98153,684.45914 305.85309,698.60921 319.20881,690.66101 C 319.91153,682.92922 319.58162,675.61477 311.82497,672.42818 C 303.4152,671.89836 295.89724,675.52961 287.64988,676.85966 C 279.62847,676.6181 272.62246,676.14358 266.41201,669.85428 C 261.77965,664.71717 258.60679,657.77729 251.40548,657.87325 L 271.35379,642.03609 z " />
      <path
         style="fill:#ffffff;fill-opacity:1;fill-rule:nonzero;stroke:#000000;stroke-width:1px;stroke-linecap:butt;stroke-linejoin:miter;stroke-opacity:1"
         id="path20452"
         d="M 208.53801,663.0095 C 215.76633,664.16793 219.21352,671.5503 224.23727,676.67474 C 230.14674,682.52867 236.9885,682.15666 244.48902,682.23752 C 252.64753,679.38353 260.44684,676.56674 268.97475,678.34625 C 277.67963,682.35753 278.39891,691.25214 278.49174,700.36189 C 271.4913,716.26527 254.47688,721.53035 239.82169,719.98748 C 231.01867,714.88954 222.1128,709.93392 212.87244,705.8048 C 203.7986,700.98122 196.25827,693.80817 190.58872,684.76582 C 188.62511,682.12548 188.96422,678.87143 188.37933,675.88956 L 210.36499,664.28994 C 210.71752,666.31099 209.5037,669.45292 211.61185,671.4382 C 217.27242,679.80545 223.94899,686.96351 232.91419,691.1266 C 242.04709,695.29746 250.73253,700.53855 259.79686,704.76795 C 287.16574,705.43256 243.0373,719.58263 256.39302,711.63443 C 257.09574,703.90264 256.76584,696.58819 249.00919,693.4016 C 240.59941,692.87178 233.08145,696.50303 224.8341,697.83308 C 216.81269,697.59152 209.80667,697.117 203.59623,690.8277 C 198.96386,685.69059 195.79101,678.7507 188.5897,678.84667 L 208.53801,663.0095 z " />
      <path
         style="fill:#ffffff;fill-opacity:1;fill-rule:nonzero;stroke:#000000;stroke-width:1px;stroke-linecap:butt;stroke-linejoin:miter;stroke-opacity:1"
         id="path20454"
         d="M 481.67808,651.56947 C 474.44976,652.72789 471.00257,660.11027 465.97882,665.23471 C 460.06935,671.08864 453.22759,670.71663 445.72707,670.79749 C 437.56856,667.9435 429.76925,665.12671 421.24134,666.90621 C 412.53646,670.9175 411.81718,679.81211 411.72435,688.92186 C 418.72478,704.82523 435.73921,710.09031 450.3944,708.54744 C 459.19742,703.4495 468.10328,698.49388 477.34365,694.36476 C 486.41749,689.54119 493.95782,682.36814 499.62737,673.32579 C 501.59098,670.68545 501.25187,667.4314 501.83676,664.44952 L 479.8511,652.8499 C 479.49857,654.87095 480.71239,658.01289 478.60424,659.99817 C 472.94367,668.36541 466.2671,675.52348 457.3019,679.68657 C 448.169,683.85742 439.48356,689.09851 430.41923,693.32791 C 403.05035,693.99253 447.17879,708.14259 433.82307,700.1944 C 433.12035,692.4626 433.45025,685.14816 441.2069,681.96157 C 449.61668,681.43174 457.13464,685.06299 465.38199,686.39305 C 473.4034,686.15148 480.40942,685.67696 486.61986,679.38766 C 491.25223,674.25056 494.42508,667.31067 501.62639,667.40663 L 481.67808,651.56947 z " />
      <path
         id="path20552"
         d="M 238.48742,384.92692 C 247.60746,389.65348 251.70891,399.91166 268.15042,405.90034 C 272.70053,407.55767 277.45647,408.44257 282.10949,409.7137 C 291.32966,412.23247 294.68179,397.7519 299.55832,390.64695 C 308.2389,377.99966 296.68976,396.91607 301.3032,386.83361"
         style="fill:#ffffff;fill-opacity:1;fill-rule:evenodd;stroke:#000000;stroke-width:1.80565345000000010px;stroke-linecap:butt;stroke-linejoin:miter;stroke-opacity:0.92857139000000000" />
      <path
         id="path21314"
         d="M 522.7493,390.64695 C 513.62926,395.3735 509.52781,405.63169 493.08629,411.62037 C 488.53619,413.27769 483.78025,414.1626 479.12723,415.43372 C 469.90706,417.95249 466.55493,403.47192 461.67839,396.36697 C 452.99782,383.71969 464.54696,402.6361 459.93351,392.55364"
         style="fill:#ffffff;fill-opacity:1;fill-rule:evenodd;stroke:#000000;stroke-width:1.80565345000000010px;stroke-linecap:butt;stroke-linejoin:miter;stroke-opacity:0.92857139000000000" />
    </g>
  </g>
</svg>
