<?xml version="1.0"?><svg width="720" height="499" xmlns="http://www.w3.org/2000/svg">
 <metadata id="metadata8">image/svg+xml</metadata>

 <g>
  <title>Layer 1</title>
  <path fill="#000000" id="path2820" d="m345.651947,163.483932c0,0 5.585815,-6.5168 6.0513,-8.844223c0.465515,-2.327423 -3.258392,-17.222946 -1.861908,-23.739746c1.396423,-6.516785 8.844208,-18.153915 8.844208,-18.153915l-13.0336,-9.3097c0,0 3.258392,-12.568085 17.688416,-22.343269c14.430084,-9.775192 33.514984,-20.48135 45.617584,-23.274258c12.1026,-2.792912 40.031708,-6.516792 48.875916,-5.120331c8.844177,1.39645 33.980347,12.102612 37.704285,14.895519c3.723938,2.792908 11.637146,15.361008 13.9646,21.412308c2.327393,6.051315 8.378723,24.6707 8.378723,30.722015c0,6.0513 5.120239,24.205215 4.189392,30.256531c-0.930969,6.0513 -7.913269,7.447754 -5.585876,17.222946c2.327454,9.775177 4.654907,13.964554 4.654907,13.964554l4.654785,-2.327438c0,0 1.396484,2.792908 8.378784,10.706161c6.982178,7.913254 6.516785,10.706161 10.706116,12.5681c4.189392,1.861938 27.463562,7.913239 42.824646,12.5681c15.361023,4.654846 39.566223,18.153915 48.4104,28.860077c8.844238,10.706146 25.58252,37.848358 40.065002,62.863586c14.482544,25.015228 25.015198,73.729095 27.648438,104.010651c2.633179,30.281586 7.899475,88.211578 7.899475,88.211578l-230.153931,0.930969l-35.791046,0.930969c0,0 -1.585815,-42.824615 1.207092,-54.927216c2.792908,-12.102631 -5.447815,-60.513092 -9.1716,-84.718292c-3.723907,-24.205231 -3.723907,-30.722015 -0.931,-44.686584c2.792908,-13.964539 6.516785,-30.721985 7.447784,-39.100739c0.930908,-8.378723 0.930908,-19.550354 0.930908,-19.550354c0,0 -8.705597,-7.056076 -13.31369,-9.689255c-4.608093,-2.633179 -8.5578,-6.582947 -8.5578,-6.582947c0,0 -3.291504,-3.291473 -9.874512,-1.316605c-6.582886,1.974899 -11.849304,3.949783 -18.43219,5.924667c-6.583008,1.974884 -15.799103,1.974884 -19.748901,-0.658295c-3.949799,-2.633179 -5.266296,-5.595505 -7.076691,-9.709854c-1.810303,-4.114349 -1.48111,-7.73497 -0.658325,-9.874435c0.822906,-2.139465 1.645813,-3.785202 1.645813,-3.785202l-3.785187,-1.645721l-8.175201,-1.297623l-11.637115,-55.392731z"/>
  <path fill="#ff0000" id="path2818" d="m352.685547,474.358917c-0.931,-8.844208 0.31485,-24.232635 -6.667358,-42.85202c-6.9823,-18.619415 -51.242126,-94.93158 -51.707642,-98.189972c-0.465485,-3.258392 -4.654907,-13.033569 0,-19.550354c4.654816,-6.516815 7.527588,-14.9617 10.786011,-19.616547c3.258392,-4.654846 11.557281,-20.880676 18.074097,-30.655853c6.516785,-9.775177 19.0849,-18.153915 25.601685,-20.015854c6.516724,-1.861938 9.7547,-3.567764 10.577515,-4.061478c0.822906,-0.493729 4.278992,-2.139465 5.101807,-4.278915c0.822876,-2.139465 1.316589,-6.089249 0.493683,-7.73497c-0.822784,-1.645737 -2.468597,-5.101791 -1.974792,-7.405838c0.493713,-2.304031 1.48111,-5.595505 1.974792,-6.747513c0.493805,-1.152023 0.329193,-3.456055 -0.493683,-4.772644c-0.822815,-1.316589 -3.456024,-2.468613 -4.443512,-2.79776c-0.987396,-0.329147 -1.645691,-0.658295 -1.645691,-0.658295c0,0 0.822906,-2.633179 2.303986,-3.785202c1.481201,-1.152008 1.810303,-1.316589 2.797821,-2.79776c0.987396,-1.481155 0.822876,-2.468597 0.493683,-3.620605c-0.329102,-1.152023 -1.974884,-2.962341 -3.291504,-3.456055c-1.316589,-0.493729 -1.974884,0.164566 -2.633179,-1.481171c-0.658203,-1.645737 -0.987427,-6.747528 -0.987427,-6.747528c0,0 5.266418,-3.949768 6.912109,-6.582947c1.645691,-2.633194 2.633209,-4.278931 1.481201,-5.430939c-1.152008,-1.152023 -4.11441,-0.493713 -8.064087,-1.645737c-3.949799,-1.152023 -8.722504,-4.114349 -11.355621,-6.253815c-2.633179,-2.13945 -2.633179,1.645737 -5.924683,-7.07666c-3.291504,-8.722412 1.481201,-8.064133 -0.822906,-16.951111c-2.303986,-8.886978 -10.039001,-27.319252 -20.900818,-36.535385c-10.861908,-9.216141 -22.38208,-18.432274 -41.472595,-22.38205c-19.090637,-3.949768 -41.143494,-1.974884 -43.776672,-1.316589c-2.633179,0.658295 -2.79776,1.645737 -2.79776,1.645737c0,0 -2.962326,-3.620621 -8.722412,-4.60807c-5.760071,-0.987434 -16.621948,-2.797745 -19.090561,-2.139458c-2.468613,0.658302 -7.241257,1.810318 -9.545288,3.456047c-2.304031,1.645744 -1.645737,9.216141 -1.645737,9.216141c0,0 -6.582962,0.987442 -9.216125,3.291481c-2.633179,2.304031 -16.78653,20.736298 -18.103134,23.369484c-1.316589,2.633179 -0.658295,3.949768 -0.658295,3.949768c0,0 -6.253799,2.633179 -6.912109,5.595512c-0.658279,2.962326 0,7.241241 0,7.241241c0,0 -4.93721,-0.329147 -4.93721,1.974899c0,2.304031 0.329147,3.291458 0.329147,3.291458c0,0 -3.291473,1.316605 -3.620636,4.278931c-0.329132,2.962326 -1.645721,7.570404 0.329163,10.861877c1.974884,3.291473 6.253815,5.924652 6.253815,5.924652c0,0 -1.974899,4.278915 -0.987457,6.582962c0.987457,2.304031 3.949783,2.304031 3.949783,2.304031c0,0 -2.304031,0.658295 -2.304031,3.291473c0,2.633179 2.962326,3.949768 2.962326,3.949768c0,0 -1.316589,0 -0.987442,2.962326c0.329147,2.962341 1.316589,5.924667 5.266357,5.59552c3.949768,-0.329147 6.253815,-4.608078 6.253815,-4.608078c0,0 2.633179,-0.658279 4.608063,5.924667c6.391891,1.816544 3.932129,1.597809 9.695389,4.077591c1.743103,6.248642 3.995102,11.503616 10.48587,21.103027c3.839432,9.628922 15.322632,25.979935 24.699783,30.394531c13.179703,14.966141 4.337357,4.857452 15.352966,20.787094c0,0 -0.987442,4.937225 -3.291458,8.557831c-2.304047,3.620636 -19.748871,19.419708 -26.660965,28.306702c-6.912094,8.886993 -23.369476,36.206238 -26.990112,43.44751c-3.620621,7.241241 -16.78653,28.964996 -23.698639,57.271667c-6.912094,28.306702 -4.617767,48.441193 -4.617767,54.695007c0,6.253784 0,26.002655 0,32.25647c0.000015,6.558197 -2.623489,15.08432 -2.623489,15.08432l206.704742,0c-1.838684,-7.922211 0.453888,-15.80426 0.083191,-23.932556z"/>
  <ellipse rx="10" id="svg_2" cy="152" cx="353" fill="#ffffff"/>
  <ellipse ry="55.000002" rx="44.500003" id="svg_13" cy="93.999962" cx="82.500004" fill="#ff0000"/>
  <ellipse id="svg_14" ry="37.500002" rx="30.000001" cy="229.499972" cx="83.500001" fill="#ffaaaa"/>
  <ellipse id="svg_15" ry="37.000002" rx="34.500002" cy="99.99997" cx="92.000003" fill="#ffaaaa"/>
  <ellipse transform="rotate(-24.1022, 89.5, 232)" id="svg_16" ry="29.953719" rx="22.257094" cy="231.999978" cx="89.499999" fill="#ff0000"/>
  <ellipse ry="88" rx="64" id="svg_17" cy="105" cx="648" fill="#ffaaaa"/>
  <ellipse ry="72.999999" rx="49" id="svg_18" cy="121.999998" cx="664.000008" fill="#ff0000"/>
  <ellipse ry="49.5" rx="38.999999" id="svg_19" cy="99.5" cx="562.999986" fill="#ffaaaa"/>
  <ellipse id="svg_20" ry="39.499999" rx="33.999999" cy="110" cx="558.999987" fill="#ff0000"/>
  <ellipse ry="39" rx="45" id="svg_31" cy="45" cx="341" fill="#ff0000"/>
  <ellipse ry="31" rx="34" id="svg_32" cy="54" cx="339.000002" fill="#ffaaaa"/>
  <ellipse ry="36.500001" rx="35" id="svg_33" cy="344.499997" cx="347.999997" fill="#ffaaaa"/>
  <ellipse id="svg_34" ry="27.5" rx="24.499999" cy="351.999995" cx="350.5" fill="#ff0000"/>
  <ellipse transform="rotate(-62.9575, 75.5, 362)" ry="69.000001" rx="61.500002" id="svg_35" cy="361.999994" cx="75.5" fill="#ffaaaa"/>
  <ellipse transform="rotate(-53.8807, 75, 375)" id="svg_36" ry="56.000006" rx="46.500006" cy="374.999963" cx="75.000008" fill="#ff0000"/>
 </g>
</svg>