<?xml version="1.0" encoding="UTF-8" standalone="no"?>
<svg xmlns="http://www.w3.org/2000/svg" width="532" height="600" viewBox="0 0 532 600" xmlns:xlink="http://www.w3.org/1999/xlink">
<title>Women's love vs. men's love joke</title>
<defs><path fill="#f00000" id="Heart" transform="translate(95,310)scale(0.023,0.023)" d="M1,1132c0,217,187,418,406,418
207,0,313-96,428-221 115,125,221,221,428,221 219,0,406-201,406-418
0-217-102-390-300-597-185-192-410-409-534-534-124,125-349,342-534,534
-198,207-300,380-300,597Z"/></defs>
<g transform="translate(-4,607)scale(1.28,-1.28)">
  <circle cx="114.141" cy="421.263" r="36.305"/>
  <circle cx="320.524" cy="430.731" r="37.2365"/>
  <path
     d="m 109.114,154.839 0,-126.2304 c -0.19,-22.93453 -34.3281,-22.93453 -34.6296,0 l 0,126.2304 -44.6836,0 48.0349,168.679 -7.8198,0 -27.927,-96.069 C 35.0288,206.202 6.29761,214.804 13.0444,237.503 L 44.323,341.392 c 3.5969,11.93 18.6331,32.997 44.6836,33.512 l 50.2694,0 c 25.3,-0.515 40.398,-21.761 44.683,-33.512 l 42.15062,-107.36792 c 6.345,-22.587 -22.159,-31.859 -29.045,-10.054 L 158.266,323.518 l -8.937,0 49.152,-168.679 -45.8,0 0,-126.2304 c 0.357,-22.93453 -33.647,-22.82198 -33.513,0 l 0,126.2304 z"/>
  <path
     d="m 407,219 0,115 c 0,24 -19,49 -48,49 l -74,0 c -24,0 -34,-13 -43,-40 L 197.86784,232.69541 c -7,-21 23,-31 30,-10 L 270,325 l 4,0 0,-291 c 0,-31 43,-30 43,0 l 0,167 6,0 0,-167 c 1,-30 44,-31 44,0 l 0,291 8,0 0,-106 c 0,-22 32,-22 32,0 z"/>
  <use xlink:href="#Heart"/><use x="205.8" y="-108" xlink:href="#Heart"/></g></svg>